%TF.GenerationSoftware,KiCad,Pcbnew,7.0.8*%
%TF.CreationDate,2023-12-05T18:05:34+00:00*%
%TF.ProjectId,multisensor,6d756c74-6973-4656-9e73-6f722e6b6963,rev?*%
%TF.SameCoordinates,Original*%
%TF.FileFunction,Paste,Top*%
%TF.FilePolarity,Positive*%
%FSLAX46Y46*%
G04 Gerber Fmt 4.6, Leading zero omitted, Abs format (unit mm)*
G04 Created by KiCad (PCBNEW 7.0.8) date 2023-12-05 18:05:34*
%MOMM*%
%LPD*%
G01*
G04 APERTURE LIST*
G04 Aperture macros list*
%AMRoundRect*
0 Rectangle with rounded corners*
0 $1 Rounding radius*
0 $2 $3 $4 $5 $6 $7 $8 $9 X,Y pos of 4 corners*
0 Add a 4 corners polygon primitive as box body*
4,1,4,$2,$3,$4,$5,$6,$7,$8,$9,$2,$3,0*
0 Add four circle primitives for the rounded corners*
1,1,$1+$1,$2,$3*
1,1,$1+$1,$4,$5*
1,1,$1+$1,$6,$7*
1,1,$1+$1,$8,$9*
0 Add four rect primitives between the rounded corners*
20,1,$1+$1,$2,$3,$4,$5,0*
20,1,$1+$1,$4,$5,$6,$7,0*
20,1,$1+$1,$6,$7,$8,$9,0*
20,1,$1+$1,$8,$9,$2,$3,0*%
G04 Aperture macros list end*
%ADD10RoundRect,0.150000X-0.587500X-0.150000X0.587500X-0.150000X0.587500X0.150000X-0.587500X0.150000X0*%
%ADD11R,2.500000X1.000000*%
%ADD12RoundRect,0.250000X0.262500X0.450000X-0.262500X0.450000X-0.262500X-0.450000X0.262500X-0.450000X0*%
%ADD13RoundRect,0.150000X0.587500X0.150000X-0.587500X0.150000X-0.587500X-0.150000X0.587500X-0.150000X0*%
%ADD14RoundRect,0.250000X0.650000X-0.325000X0.650000X0.325000X-0.650000X0.325000X-0.650000X-0.325000X0*%
%ADD15RoundRect,0.250000X0.325000X0.650000X-0.325000X0.650000X-0.325000X-0.650000X0.325000X-0.650000X0*%
%ADD16RoundRect,0.250000X-0.450000X0.262500X-0.450000X-0.262500X0.450000X-0.262500X0.450000X0.262500X0*%
%ADD17RoundRect,0.250000X-0.262500X-0.450000X0.262500X-0.450000X0.262500X0.450000X-0.262500X0.450000X0*%
%ADD18RoundRect,0.150000X0.150000X-0.512500X0.150000X0.512500X-0.150000X0.512500X-0.150000X-0.512500X0*%
%ADD19R,0.400000X1.350000*%
%ADD20R,1.600000X1.400000*%
%ADD21R,1.900000X1.900000*%
G04 APERTURE END LIST*
D10*
%TO.C,Q1*%
X158600000Y-105933750D03*
X158600000Y-107833750D03*
X160475000Y-106883750D03*
%TD*%
D11*
%TO.C,U1*%
X145775000Y-89075000D03*
X145775000Y-91075000D03*
X145775000Y-93075000D03*
X145775000Y-95075000D03*
X145775000Y-97075000D03*
X145775000Y-99075000D03*
X145775000Y-101075000D03*
X145775000Y-103075000D03*
X160975000Y-103075000D03*
X160975000Y-101075000D03*
X160975000Y-99075000D03*
X160975000Y-97075000D03*
X160975000Y-95075000D03*
X160975000Y-93075000D03*
X160975000Y-91075000D03*
X160975000Y-89075000D03*
%TD*%
D12*
%TO.C,R8*%
X170775000Y-93075000D03*
X168950000Y-93075000D03*
%TD*%
D13*
%TO.C,Q2*%
X148172500Y-107833750D03*
X148172500Y-105933750D03*
X146297500Y-106883750D03*
%TD*%
D14*
%TO.C,C5*%
X137462500Y-93637500D03*
X137462500Y-90687500D03*
%TD*%
D15*
%TO.C,C1*%
X140725000Y-117365100D03*
X137775000Y-117365100D03*
%TD*%
D16*
%TO.C,R3*%
X139862500Y-91250000D03*
X139862500Y-93075000D03*
%TD*%
D12*
%TO.C,R2*%
X154475000Y-105880833D03*
X152650000Y-105880833D03*
%TD*%
D17*
%TO.C,R4*%
X139862500Y-89075000D03*
X141687500Y-89075000D03*
%TD*%
D15*
%TO.C,C3*%
X140725000Y-108065100D03*
X137775000Y-108065100D03*
%TD*%
%TO.C,C2*%
X140725000Y-114865100D03*
X137775000Y-114865100D03*
%TD*%
D17*
%TO.C,R1*%
X152650000Y-107886666D03*
X154475000Y-107886666D03*
%TD*%
D18*
%TO.C,U2*%
X138300000Y-112602600D03*
X139250000Y-112602600D03*
X140200000Y-112602600D03*
X140200000Y-110327600D03*
X138300000Y-110327600D03*
%TD*%
D17*
%TO.C,R5*%
X168950000Y-101075000D03*
X170775000Y-101075000D03*
%TD*%
D12*
%TO.C,R7*%
X170775000Y-95075000D03*
X168950000Y-95075000D03*
%TD*%
D19*
%TO.C,J7*%
X152075000Y-119250000D03*
X152725000Y-119250000D03*
X153375000Y-119250000D03*
X154025000Y-119250000D03*
X154675000Y-119250000D03*
D20*
X150175000Y-119475000D03*
X156575000Y-119475000D03*
D21*
X154575000Y-121925000D03*
X152175000Y-121925000D03*
%TD*%
D15*
%TO.C,C4*%
X140725000Y-105565100D03*
X137775000Y-105565100D03*
%TD*%
D12*
%TO.C,R6*%
X170775000Y-97075000D03*
X168950000Y-97075000D03*
%TD*%
M02*
