%TF.GenerationSoftware,KiCad,Pcbnew,7.0.8*%
%TF.CreationDate,2023-12-05T18:05:34+00:00*%
%TF.ProjectId,multisensor,6d756c74-6973-4656-9e73-6f722e6b6963,rev?*%
%TF.SameCoordinates,Original*%
%TF.FileFunction,Legend,Bot*%
%TF.FilePolarity,Positive*%
%FSLAX46Y46*%
G04 Gerber Fmt 4.6, Leading zero omitted, Abs format (unit mm)*
G04 Created by KiCad (PCBNEW 7.0.8) date 2023-12-05 18:05:34*
%MOMM*%
%LPD*%
G01*
G04 APERTURE LIST*
%ADD10C,0.150000*%
%ADD11C,0.120000*%
G04 APERTURE END LIST*
D10*
X147519819Y-114261666D02*
X148234104Y-114261666D01*
X148234104Y-114261666D02*
X148376961Y-114214047D01*
X148376961Y-114214047D02*
X148472200Y-114118809D01*
X148472200Y-114118809D02*
X148519819Y-113975952D01*
X148519819Y-113975952D02*
X148519819Y-113880714D01*
X147853152Y-115166428D02*
X148519819Y-115166428D01*
X147472200Y-114928333D02*
X148186485Y-114690238D01*
X148186485Y-114690238D02*
X148186485Y-115309285D01*
X141008333Y-95299819D02*
X141008333Y-96014104D01*
X141008333Y-96014104D02*
X141055952Y-96156961D01*
X141055952Y-96156961D02*
X141151190Y-96252200D01*
X141151190Y-96252200D02*
X141294047Y-96299819D01*
X141294047Y-96299819D02*
X141389285Y-96299819D01*
X140627380Y-95299819D02*
X140008333Y-95299819D01*
X140008333Y-95299819D02*
X140341666Y-95680771D01*
X140341666Y-95680771D02*
X140198809Y-95680771D01*
X140198809Y-95680771D02*
X140103571Y-95728390D01*
X140103571Y-95728390D02*
X140055952Y-95776009D01*
X140055952Y-95776009D02*
X140008333Y-95871247D01*
X140008333Y-95871247D02*
X140008333Y-96109342D01*
X140008333Y-96109342D02*
X140055952Y-96204580D01*
X140055952Y-96204580D02*
X140103571Y-96252200D01*
X140103571Y-96252200D02*
X140198809Y-96299819D01*
X140198809Y-96299819D02*
X140484523Y-96299819D01*
X140484523Y-96299819D02*
X140579761Y-96252200D01*
X140579761Y-96252200D02*
X140627380Y-96204580D01*
X166408333Y-90224819D02*
X166408333Y-90939104D01*
X166408333Y-90939104D02*
X166455952Y-91081961D01*
X166455952Y-91081961D02*
X166551190Y-91177200D01*
X166551190Y-91177200D02*
X166694047Y-91224819D01*
X166694047Y-91224819D02*
X166789285Y-91224819D01*
X165979761Y-90320057D02*
X165932142Y-90272438D01*
X165932142Y-90272438D02*
X165836904Y-90224819D01*
X165836904Y-90224819D02*
X165598809Y-90224819D01*
X165598809Y-90224819D02*
X165503571Y-90272438D01*
X165503571Y-90272438D02*
X165455952Y-90320057D01*
X165455952Y-90320057D02*
X165408333Y-90415295D01*
X165408333Y-90415295D02*
X165408333Y-90510533D01*
X165408333Y-90510533D02*
X165455952Y-90653390D01*
X165455952Y-90653390D02*
X166027380Y-91224819D01*
X166027380Y-91224819D02*
X165408333Y-91224819D01*
D11*
%TO.C,J4*%
X157245000Y-113265000D02*
X157245000Y-115925000D01*
X152105000Y-113265000D02*
X157245000Y-113265000D01*
X152105000Y-113265000D02*
X152105000Y-115925000D01*
X149505000Y-114595000D02*
X149505000Y-115925000D01*
X152105000Y-115925000D02*
X157245000Y-115925000D01*
X149505000Y-115925000D02*
X150835000Y-115925000D01*
%TO.C,J3*%
X142005000Y-102485000D02*
X139345000Y-102485000D01*
X142005000Y-99885000D02*
X142005000Y-102485000D01*
X142005000Y-99885000D02*
X139345000Y-99885000D01*
X140675000Y-97285000D02*
X139345000Y-97285000D01*
X139345000Y-99885000D02*
X139345000Y-102485000D01*
X139345000Y-97285000D02*
X139345000Y-98615000D01*
%TO.C,J2*%
X167405000Y-107570000D02*
X164745000Y-107570000D01*
X167405000Y-94810000D02*
X167405000Y-107570000D01*
X167405000Y-94810000D02*
X164745000Y-94810000D01*
X166075000Y-92210000D02*
X164745000Y-92210000D01*
X164745000Y-94810000D02*
X164745000Y-107570000D01*
X164745000Y-92210000D02*
X164745000Y-93540000D01*
%TD*%
M02*
