%TF.GenerationSoftware,KiCad,Pcbnew,7.0.8*%
%TF.CreationDate,2023-12-05T18:05:34+00:00*%
%TF.ProjectId,multisensor,6d756c74-6973-4656-9e73-6f722e6b6963,rev?*%
%TF.SameCoordinates,Original*%
%TF.FileFunction,Copper,L2,Bot*%
%TF.FilePolarity,Positive*%
%FSLAX46Y46*%
G04 Gerber Fmt 4.6, Leading zero omitted, Abs format (unit mm)*
G04 Created by KiCad (PCBNEW 7.0.8) date 2023-12-05 18:05:34*
%MOMM*%
%LPD*%
G01*
G04 APERTURE LIST*
%TA.AperFunction,ComponentPad*%
%ADD10C,5.400000*%
%TD*%
%TA.AperFunction,ComponentPad*%
%ADD11R,1.700000X1.700000*%
%TD*%
%TA.AperFunction,ComponentPad*%
%ADD12O,1.700000X1.700000*%
%TD*%
%TA.AperFunction,ComponentPad*%
%ADD13C,2.000000*%
%TD*%
%TA.AperFunction,ComponentPad*%
%ADD14O,0.900000X1.800000*%
%TD*%
%TA.AperFunction,ViaPad*%
%ADD15C,0.800000*%
%TD*%
%TA.AperFunction,Conductor*%
%ADD16C,0.250000*%
%TD*%
G04 APERTURE END LIST*
D10*
%TO.P,REF\u002A\u002A,1*%
%TO.N,N/C*%
X131375000Y-120375000D03*
%TD*%
D11*
%TO.P,J6,1,Pin_1*%
%TO.N,+5V*%
X175375000Y-108475000D03*
D12*
%TO.P,J6,2,Pin_2*%
%TO.N,GND*%
X175375000Y-105935000D03*
%TO.P,J6,3,Pin_3*%
%TO.N,SCL*%
X175375000Y-103395000D03*
%TO.P,J6,4,Pin_4*%
%TO.N,SDA*%
X175375000Y-100855000D03*
%TO.P,J6,5,Pin_5*%
%TO.N,unconnected-(J6-Pin_5-Pad5)*%
X175375000Y-98315000D03*
%TD*%
D10*
%TO.P,REF\u002A\u002A,1*%
%TO.N,N/C*%
X131375000Y-91375000D03*
%TD*%
D11*
%TO.P,J5,1,Pin_1*%
%TO.N,+5V*%
X131375000Y-97050000D03*
D12*
%TO.P,J5,2,Pin_2*%
%TO.N,GND*%
X131375000Y-99590000D03*
%TO.P,J5,3,Pin_3*%
%TO.N,SCL*%
X131375000Y-102130000D03*
%TO.P,J5,4,Pin_4*%
%TO.N,SDA*%
X131375000Y-104670000D03*
%TO.P,J5,5,Pin_5*%
%TO.N,unconnected-(J5-Pin_5-Pad5)*%
X131375000Y-107210000D03*
%TO.P,J5,6,Pin_6*%
%TO.N,unconnected-(J5-Pin_6-Pad6)*%
X131375000Y-109750000D03*
%TD*%
D10*
%TO.P,REF\u002A\u002A,1*%
%TO.N,N/C*%
X175375000Y-120375000D03*
%TD*%
%TO.P,REF\u002A\u002A,1*%
%TO.N,N/C*%
X175375000Y-91375000D03*
%TD*%
D11*
%TO.P,J1,1,Pin_1*%
%TO.N,DTR*%
X147050000Y-110692500D03*
D12*
%TO.P,J1,2,Pin_2*%
%TO.N,TX*%
X149590000Y-110692500D03*
%TO.P,J1,3,Pin_3*%
%TO.N,RX*%
X152130000Y-110692500D03*
%TO.P,J1,4,Pin_4*%
%TO.N,unconnected-(J1-Pin_4-Pad4)*%
X154670000Y-110692500D03*
%TO.P,J1,5,Pin_5*%
%TO.N,RTS*%
X157210000Y-110692500D03*
%TO.P,J1,6,Pin_6*%
%TO.N,GND*%
X159750000Y-110692500D03*
%TD*%
D13*
%TO.P,SW1,1,1*%
%TO.N,nRST*%
X165125000Y-111125000D03*
X171625000Y-111125000D03*
%TO.P,SW1,2,2*%
%TO.N,GND*%
X165125000Y-115625000D03*
X171625000Y-115625000D03*
%TD*%
D14*
%TO.P,J7,S5,SHIELD*%
%TO.N,GND*%
X150075000Y-121925000D03*
%TO.P,J7,S6,SHIELD*%
X156675000Y-121925000D03*
%TD*%
D11*
%TO.P,J4,1,Pin_1*%
%TO.N,+5V*%
X150835000Y-114595000D03*
D12*
%TO.P,J4,2,Pin_2*%
%TO.N,PIR*%
X153375000Y-114595000D03*
%TO.P,J4,3,Pin_3*%
%TO.N,GND*%
X155915000Y-114595000D03*
%TD*%
D11*
%TO.P,J3,1,Pin_1*%
%TO.N,unconnected-(J3-Pin_1-Pad1)*%
X140675000Y-98615000D03*
D12*
%TO.P,J3,2,Pin_2*%
%TO.N,unconnected-(J3-Pin_2-Pad2)*%
X140675000Y-101155000D03*
%TD*%
D11*
%TO.P,J2,1,Pin_1*%
%TO.N,+5V*%
X166075000Y-93540000D03*
D12*
%TO.P,J2,2,Pin_2*%
%TO.N,GND*%
X166075000Y-96080000D03*
%TO.P,J2,3,Pin_3*%
%TO.N,MMW_IO2*%
X166075000Y-98620000D03*
%TO.P,J2,4,Pin_4*%
%TO.N,unconnected-(J2-Pin_4-Pad4)*%
X166075000Y-101160000D03*
%TO.P,J2,5,Pin_5*%
%TO.N,MMW_RX*%
X166075000Y-103700000D03*
%TO.P,J2,6,Pin_6*%
%TO.N,MMW_TX*%
X166075000Y-106240000D03*
%TD*%
D15*
%TO.N,TX*%
X163475000Y-89075000D03*
%TO.N,+3.3V*%
X171506049Y-98631451D03*
X172362500Y-108175000D03*
%TO.N,Net-(U1-GPIO15)*%
X163475000Y-101075000D03*
%TO.N,GND*%
X156429999Y-106883750D03*
X168162500Y-104675000D03*
X150518749Y-106883750D03*
X134762500Y-88775000D03*
X153375000Y-103875000D03*
X135562500Y-109862500D03*
X168375000Y-112075000D03*
X135162500Y-96762500D03*
X131662500Y-113862500D03*
X163462500Y-104375000D03*
X147562500Y-114675000D03*
X142100000Y-91075000D03*
X149975000Y-108740000D03*
X153375000Y-91375000D03*
X171562500Y-88675000D03*
%TO.N,PIR*%
X143275000Y-97075000D03*
%TO.N,SCL*%
X163475000Y-93075000D03*
%TO.N,SDA*%
X163475000Y-95075000D03*
%TO.N,unconnected-(U1-GPIO2-Pad11)*%
X163475000Y-99075000D03*
%TO.N,RX*%
X163475000Y-91075000D03*
%TO.N,+5V*%
X171562500Y-90075000D03*
X166075000Y-90075000D03*
%TO.N,nRST*%
X143275000Y-89075000D03*
%TO.N,GPIO0*%
X163475000Y-97075000D03*
X143925000Y-110155000D03*
%TD*%
D16*
%TO.N,TX*%
X163750000Y-88800000D02*
X167651104Y-88800000D01*
X169362500Y-107275000D02*
X168722500Y-107915000D01*
X163475000Y-89075000D02*
X163750000Y-88800000D01*
X167651104Y-88800000D02*
X169362500Y-90511396D01*
X168722500Y-107915000D02*
X152367500Y-107915000D01*
X169362500Y-90511396D02*
X169362500Y-107275000D01*
X152367500Y-107915000D02*
X149590000Y-110692500D01*
%TO.N,+3.3V*%
X172362500Y-99487902D02*
X171506049Y-98631451D01*
X172362500Y-108175000D02*
X172362500Y-99487902D01*
%TO.N,PIR*%
X144715000Y-113185000D02*
X143200000Y-111670000D01*
X143200000Y-109854695D02*
X143475000Y-109579695D01*
X143475000Y-109579695D02*
X143475000Y-97275000D01*
X143200000Y-111670000D02*
X143200000Y-109854695D01*
X143475000Y-97275000D02*
X143275000Y-97075000D01*
X153375000Y-114595000D02*
X151965000Y-113185000D01*
X151965000Y-113185000D02*
X144715000Y-113185000D01*
%TO.N,SCL*%
X132060000Y-102130000D02*
X139575000Y-94615000D01*
X162455000Y-94615000D02*
X163475000Y-93595000D01*
X131375000Y-102130000D02*
X132060000Y-102130000D01*
X163475000Y-93595000D02*
X163475000Y-93075000D01*
X139575000Y-94615000D02*
X162455000Y-94615000D01*
%TO.N,SDA*%
X139761396Y-95065000D02*
X163465000Y-95065000D01*
X163465000Y-95065000D02*
X163475000Y-95075000D01*
X132300000Y-104670000D02*
X132562500Y-104407500D01*
X131375000Y-104670000D02*
X132300000Y-104670000D01*
X132562500Y-104407500D02*
X132562500Y-102263896D01*
X132562500Y-102263896D02*
X139761396Y-95065000D01*
%TO.N,RX*%
X167837500Y-88350000D02*
X163174695Y-88350000D01*
X162745000Y-88779695D02*
X162745000Y-90345000D01*
X162745000Y-90345000D02*
X163475000Y-91075000D01*
X154457500Y-108365000D02*
X168908896Y-108365000D01*
X168908896Y-108365000D02*
X169812500Y-107461396D01*
X152130000Y-110692500D02*
X154457500Y-108365000D01*
X169812500Y-90325000D02*
X167837500Y-88350000D01*
X163174695Y-88350000D02*
X162745000Y-88779695D01*
X169812500Y-107461396D02*
X169812500Y-90325000D01*
%TO.N,+5V*%
X172812500Y-107325000D02*
X173962500Y-108475000D01*
X171562500Y-97675000D02*
X171793951Y-97906451D01*
X166075000Y-93540000D02*
X166075000Y-90075000D01*
X173962500Y-108475000D02*
X175375000Y-108475000D01*
X172812500Y-98912597D02*
X172812500Y-107325000D01*
X171793951Y-97906451D02*
X171806354Y-97906451D01*
X171806354Y-97906451D02*
X172812500Y-98912597D01*
X171562500Y-90175000D02*
X171562500Y-97675000D01*
%TO.N,nRST*%
X139388604Y-94165000D02*
X138058604Y-95495000D01*
X129755000Y-95495000D02*
X129005000Y-96245000D01*
X143275000Y-89075000D02*
X143275000Y-93495000D01*
X129005000Y-96245000D02*
X129005000Y-110585000D01*
X143275000Y-93495000D02*
X142605000Y-94165000D01*
X138878604Y-111835000D02*
X143888604Y-116845000D01*
X130255000Y-111835000D02*
X138878604Y-111835000D01*
X138058604Y-95495000D02*
X129755000Y-95495000D01*
X129005000Y-110585000D02*
X130255000Y-111835000D01*
X159405000Y-116845000D02*
X165125000Y-111125000D01*
X143888604Y-116845000D02*
X159405000Y-116845000D01*
X142605000Y-94165000D02*
X139388604Y-94165000D01*
%TO.N,GPIO0*%
X162515000Y-95515000D02*
X147485000Y-95515000D01*
X163475000Y-96475000D02*
X162515000Y-95515000D01*
X143925000Y-99075000D02*
X143925000Y-110155000D01*
X163475000Y-97075000D02*
X163475000Y-96475000D01*
X147485000Y-95515000D02*
X143925000Y-99075000D01*
%TD*%
%TA.AperFunction,Conductor*%
%TO.N,GND*%
G36*
X130318039Y-83645185D02*
G01*
X130363794Y-83697989D01*
X130375000Y-83749500D01*
X130375000Y-87975000D01*
X162507163Y-87975000D01*
X162574202Y-87994685D01*
X162619957Y-88047489D01*
X162629901Y-88116647D01*
X162600876Y-88180203D01*
X162594844Y-88186681D01*
X162379771Y-88401754D01*
X162333531Y-88444938D01*
X162311653Y-88480916D01*
X162308080Y-88486165D01*
X162282638Y-88519715D01*
X162282633Y-88519724D01*
X162276525Y-88535212D01*
X162267125Y-88554137D01*
X162258477Y-88568359D01*
X162258474Y-88568365D01*
X162247114Y-88608906D01*
X162245091Y-88614923D01*
X162229641Y-88654104D01*
X162229640Y-88654106D01*
X162227937Y-88670671D01*
X162223991Y-88691434D01*
X162219500Y-88707462D01*
X162219500Y-88749574D01*
X162219175Y-88755918D01*
X162214869Y-88797802D01*
X162214869Y-88797806D01*
X162217697Y-88814206D01*
X162219500Y-88835275D01*
X162219500Y-90336016D01*
X162217340Y-90399250D01*
X162227308Y-90440153D01*
X162228494Y-90446394D01*
X162234228Y-90488109D01*
X162240864Y-90503387D01*
X162247602Y-90523424D01*
X162251542Y-90539593D01*
X162251543Y-90539594D01*
X162272175Y-90576289D01*
X162275000Y-90581977D01*
X162291782Y-90620611D01*
X162302283Y-90633518D01*
X162314182Y-90651000D01*
X162322342Y-90665512D01*
X162338409Y-90681578D01*
X162352119Y-90695288D01*
X162356376Y-90700006D01*
X162382946Y-90732665D01*
X162396549Y-90742267D01*
X162412716Y-90755886D01*
X162633528Y-90976697D01*
X162667013Y-91038020D01*
X162668546Y-91068037D01*
X162669435Y-91068037D01*
X162669435Y-91075003D01*
X162689630Y-91254249D01*
X162689631Y-91254254D01*
X162749211Y-91424523D01*
X162845184Y-91577262D01*
X162972738Y-91704816D01*
X163125478Y-91800789D01*
X163295745Y-91860368D01*
X163295750Y-91860369D01*
X163474996Y-91880565D01*
X163475000Y-91880565D01*
X163475004Y-91880565D01*
X163654249Y-91860369D01*
X163654252Y-91860368D01*
X163654255Y-91860368D01*
X163824522Y-91800789D01*
X163977262Y-91704816D01*
X164104816Y-91577262D01*
X164200789Y-91424522D01*
X164260368Y-91254255D01*
X164280565Y-91075000D01*
X164279780Y-91068037D01*
X164260369Y-90895750D01*
X164260368Y-90895745D01*
X164208803Y-90748382D01*
X164200789Y-90725478D01*
X164174718Y-90683987D01*
X164143007Y-90633518D01*
X164104816Y-90572738D01*
X163977262Y-90445184D01*
X163904151Y-90399245D01*
X163824523Y-90349211D01*
X163654254Y-90289631D01*
X163654249Y-90289630D01*
X163475004Y-90269435D01*
X163468037Y-90269435D01*
X163468037Y-90267277D01*
X163409436Y-90257010D01*
X163376697Y-90233528D01*
X163306818Y-90163648D01*
X163273334Y-90102324D01*
X163270500Y-90075967D01*
X163270500Y-89996279D01*
X163290185Y-89929240D01*
X163342989Y-89883485D01*
X163408383Y-89873059D01*
X163443368Y-89877000D01*
X163474998Y-89880565D01*
X163475000Y-89880565D01*
X163475004Y-89880565D01*
X163654249Y-89860369D01*
X163654252Y-89860368D01*
X163654255Y-89860368D01*
X163824522Y-89800789D01*
X163977262Y-89704816D01*
X164104816Y-89577262D01*
X164200789Y-89424522D01*
X164206379Y-89408545D01*
X164247100Y-89351770D01*
X164312053Y-89326022D01*
X164323421Y-89325500D01*
X165393060Y-89325500D01*
X165460099Y-89345185D01*
X165505854Y-89397989D01*
X165515798Y-89467147D01*
X165486773Y-89530703D01*
X165480741Y-89537181D01*
X165445184Y-89572737D01*
X165349211Y-89725476D01*
X165289631Y-89895745D01*
X165289630Y-89895750D01*
X165269435Y-90074996D01*
X165269435Y-90075003D01*
X165289630Y-90254249D01*
X165289631Y-90254254D01*
X165349211Y-90424523D01*
X165445184Y-90577262D01*
X165513181Y-90645259D01*
X165546666Y-90706582D01*
X165549500Y-90732940D01*
X165549500Y-92165500D01*
X165529815Y-92232539D01*
X165477011Y-92278294D01*
X165425501Y-92289500D01*
X165193482Y-92289500D01*
X165112519Y-92302323D01*
X165099696Y-92304354D01*
X164986658Y-92361950D01*
X164986657Y-92361951D01*
X164986652Y-92361954D01*
X164896954Y-92451652D01*
X164896951Y-92451657D01*
X164839352Y-92564698D01*
X164824500Y-92658475D01*
X164824500Y-94421517D01*
X164830731Y-94460857D01*
X164839354Y-94515304D01*
X164896950Y-94628342D01*
X164896952Y-94628344D01*
X164896954Y-94628347D01*
X164986652Y-94718045D01*
X164986654Y-94718046D01*
X164986658Y-94718050D01*
X165099696Y-94775646D01*
X165099697Y-94775646D01*
X165099699Y-94775647D01*
X165191655Y-94790211D01*
X165254790Y-94820140D01*
X165291722Y-94879451D01*
X165290724Y-94949313D01*
X165252115Y-95007546D01*
X165243383Y-95014258D01*
X165203924Y-95041887D01*
X165036891Y-95208920D01*
X165036886Y-95208926D01*
X164901400Y-95402420D01*
X164901399Y-95402422D01*
X164801570Y-95616507D01*
X164801567Y-95616513D01*
X164744364Y-95829999D01*
X164744364Y-95830000D01*
X165641314Y-95830000D01*
X165615507Y-95870156D01*
X165575000Y-96008111D01*
X165575000Y-96151889D01*
X165615507Y-96289844D01*
X165641314Y-96330000D01*
X164744364Y-96330000D01*
X164801567Y-96543486D01*
X164801570Y-96543492D01*
X164901399Y-96757578D01*
X165036894Y-96951082D01*
X165203917Y-97118105D01*
X165397419Y-97253598D01*
X165480865Y-97292509D01*
X165533305Y-97338681D01*
X165552457Y-97405875D01*
X165532242Y-97472756D01*
X165480868Y-97517273D01*
X165447363Y-97532897D01*
X165447357Y-97532900D01*
X165268121Y-97658402D01*
X165113402Y-97813121D01*
X164987900Y-97992357D01*
X164987898Y-97992361D01*
X164895426Y-98190668D01*
X164895422Y-98190677D01*
X164838793Y-98402020D01*
X164838793Y-98402024D01*
X164824770Y-98562315D01*
X164819723Y-98620000D01*
X164836726Y-98814355D01*
X164838793Y-98837975D01*
X164838793Y-98837979D01*
X164895422Y-99049322D01*
X164895424Y-99049326D01*
X164895425Y-99049330D01*
X164941661Y-99148484D01*
X164987897Y-99247638D01*
X164997440Y-99261266D01*
X165113402Y-99426877D01*
X165268123Y-99581598D01*
X165441991Y-99703342D01*
X165447361Y-99707102D01*
X165598583Y-99777618D01*
X165651022Y-99823790D01*
X165670174Y-99890984D01*
X165649958Y-99957865D01*
X165598583Y-100002382D01*
X165447361Y-100072898D01*
X165447357Y-100072900D01*
X165268121Y-100198402D01*
X165113402Y-100353121D01*
X164987900Y-100532357D01*
X164987898Y-100532361D01*
X164939093Y-100637024D01*
X164897758Y-100725668D01*
X164895426Y-100730668D01*
X164895422Y-100730677D01*
X164838793Y-100942020D01*
X164838793Y-100942024D01*
X164819723Y-101159997D01*
X164819723Y-101160002D01*
X164820458Y-101168402D01*
X164838355Y-101372975D01*
X164838793Y-101377975D01*
X164838793Y-101377979D01*
X164895422Y-101589322D01*
X164895424Y-101589326D01*
X164895425Y-101589330D01*
X164929254Y-101661877D01*
X164987897Y-101787638D01*
X164987898Y-101787639D01*
X165113402Y-101966877D01*
X165268123Y-102121598D01*
X165440220Y-102242102D01*
X165447361Y-102247102D01*
X165598583Y-102317618D01*
X165651022Y-102363790D01*
X165670174Y-102430984D01*
X165649958Y-102497865D01*
X165598583Y-102542382D01*
X165447361Y-102612898D01*
X165447357Y-102612900D01*
X165268121Y-102738402D01*
X165113402Y-102893121D01*
X164987900Y-103072357D01*
X164987898Y-103072361D01*
X164895426Y-103270668D01*
X164895422Y-103270677D01*
X164838793Y-103482020D01*
X164838793Y-103482024D01*
X164819723Y-103699997D01*
X164819723Y-103700002D01*
X164838793Y-103917975D01*
X164838793Y-103917979D01*
X164895422Y-104129322D01*
X164895424Y-104129326D01*
X164895425Y-104129330D01*
X164929254Y-104201877D01*
X164987897Y-104327638D01*
X164987898Y-104327639D01*
X165113402Y-104506877D01*
X165268123Y-104661598D01*
X165410655Y-104761400D01*
X165447361Y-104787102D01*
X165598583Y-104857618D01*
X165651022Y-104903790D01*
X165670174Y-104970984D01*
X165649958Y-105037865D01*
X165598583Y-105082382D01*
X165447361Y-105152898D01*
X165447357Y-105152900D01*
X165268121Y-105278402D01*
X165113402Y-105433121D01*
X164987900Y-105612357D01*
X164987898Y-105612361D01*
X164895426Y-105810668D01*
X164895422Y-105810677D01*
X164838793Y-106022020D01*
X164838793Y-106022024D01*
X164819723Y-106239997D01*
X164819723Y-106240002D01*
X164838793Y-106457975D01*
X164838793Y-106457979D01*
X164895422Y-106669322D01*
X164895424Y-106669326D01*
X164895425Y-106669330D01*
X164941661Y-106768484D01*
X164987897Y-106867638D01*
X164987898Y-106867639D01*
X165113402Y-107046877D01*
X165113406Y-107046881D01*
X165244344Y-107177819D01*
X165277829Y-107239142D01*
X165272845Y-107308834D01*
X165230973Y-107364767D01*
X165165509Y-107389184D01*
X165156663Y-107389500D01*
X152376484Y-107389500D01*
X152313255Y-107387340D01*
X152313254Y-107387340D01*
X152313252Y-107387340D01*
X152272348Y-107397308D01*
X152266110Y-107398493D01*
X152224387Y-107404229D01*
X152209111Y-107410864D01*
X152189085Y-107417599D01*
X152172907Y-107421542D01*
X152172904Y-107421544D01*
X152136210Y-107442175D01*
X152130523Y-107444999D01*
X152091895Y-107461778D01*
X152091891Y-107461780D01*
X152078971Y-107472292D01*
X152061491Y-107484188D01*
X152046990Y-107492341D01*
X152046985Y-107492344D01*
X152017215Y-107522113D01*
X152012502Y-107526367D01*
X151979835Y-107552945D01*
X151970228Y-107566554D01*
X151956609Y-107582720D01*
X150075532Y-109463797D01*
X150014209Y-109497282D01*
X149955758Y-109495891D01*
X149807977Y-109456293D01*
X149698988Y-109446758D01*
X149590002Y-109437223D01*
X149589998Y-109437223D01*
X149444682Y-109449936D01*
X149372023Y-109456293D01*
X149372020Y-109456293D01*
X149160677Y-109512922D01*
X149160670Y-109512924D01*
X149160670Y-109512925D01*
X149157391Y-109514454D01*
X148962361Y-109605398D01*
X148962357Y-109605400D01*
X148783121Y-109730902D01*
X148628402Y-109885621D01*
X148526074Y-110031762D01*
X148471497Y-110075387D01*
X148401999Y-110082581D01*
X148339644Y-110051058D01*
X148304230Y-109990828D01*
X148300499Y-109960639D01*
X148300499Y-109810982D01*
X148295982Y-109782462D01*
X148285646Y-109717196D01*
X148228050Y-109604158D01*
X148228046Y-109604154D01*
X148228045Y-109604152D01*
X148138347Y-109514454D01*
X148138344Y-109514452D01*
X148138342Y-109514450D01*
X148061517Y-109475305D01*
X148025301Y-109456852D01*
X147931524Y-109442000D01*
X146168482Y-109442000D01*
X146087519Y-109454823D01*
X146074696Y-109456854D01*
X145961658Y-109514450D01*
X145961657Y-109514451D01*
X145961652Y-109514454D01*
X145871954Y-109604152D01*
X145871951Y-109604157D01*
X145871950Y-109604158D01*
X145859223Y-109629137D01*
X145814352Y-109717198D01*
X145799500Y-109810975D01*
X145799500Y-111574017D01*
X145810292Y-111642157D01*
X145814354Y-111667804D01*
X145871950Y-111780842D01*
X145871952Y-111780844D01*
X145871954Y-111780847D01*
X145961652Y-111870545D01*
X145961654Y-111870546D01*
X145961658Y-111870550D01*
X146074694Y-111928145D01*
X146074698Y-111928147D01*
X146168475Y-111942999D01*
X146168481Y-111943000D01*
X147931518Y-111942999D01*
X148025304Y-111928146D01*
X148138342Y-111870550D01*
X148228050Y-111780842D01*
X148285646Y-111667804D01*
X148285646Y-111667802D01*
X148285647Y-111667801D01*
X148300499Y-111574024D01*
X148300500Y-111574019D01*
X148300499Y-111424359D01*
X148320183Y-111357323D01*
X148372987Y-111311568D01*
X148442145Y-111301624D01*
X148505701Y-111330649D01*
X148526073Y-111353238D01*
X148607672Y-111469772D01*
X148628402Y-111499377D01*
X148783123Y-111654098D01*
X148962361Y-111779602D01*
X149160670Y-111872075D01*
X149372023Y-111928707D01*
X149554926Y-111944708D01*
X149589998Y-111947777D01*
X149590000Y-111947777D01*
X149590002Y-111947777D01*
X149618254Y-111945305D01*
X149807977Y-111928707D01*
X150019330Y-111872075D01*
X150217639Y-111779602D01*
X150396877Y-111654098D01*
X150551598Y-111499377D01*
X150677102Y-111320139D01*
X150747618Y-111168914D01*
X150793790Y-111116477D01*
X150860984Y-111097325D01*
X150927865Y-111117541D01*
X150972381Y-111168914D01*
X151042898Y-111320139D01*
X151168402Y-111499377D01*
X151323123Y-111654098D01*
X151502361Y-111779602D01*
X151700670Y-111872075D01*
X151912023Y-111928707D01*
X152094926Y-111944708D01*
X152129998Y-111947777D01*
X152130000Y-111947777D01*
X152130002Y-111947777D01*
X152158254Y-111945305D01*
X152347977Y-111928707D01*
X152559330Y-111872075D01*
X152757639Y-111779602D01*
X152936877Y-111654098D01*
X153091598Y-111499377D01*
X153217102Y-111320139D01*
X153287618Y-111168914D01*
X153333790Y-111116477D01*
X153400984Y-111097325D01*
X153467865Y-111117541D01*
X153512381Y-111168914D01*
X153582898Y-111320139D01*
X153708402Y-111499377D01*
X153863123Y-111654098D01*
X154042361Y-111779602D01*
X154240670Y-111872075D01*
X154452023Y-111928707D01*
X154634926Y-111944708D01*
X154669998Y-111947777D01*
X154670000Y-111947777D01*
X154670002Y-111947777D01*
X154698254Y-111945305D01*
X154887977Y-111928707D01*
X155099330Y-111872075D01*
X155297639Y-111779602D01*
X155476877Y-111654098D01*
X155631598Y-111499377D01*
X155757102Y-111320139D01*
X155827618Y-111168914D01*
X155873790Y-111116477D01*
X155940984Y-111097325D01*
X156007865Y-111117541D01*
X156052381Y-111168914D01*
X156122898Y-111320139D01*
X156248402Y-111499377D01*
X156403123Y-111654098D01*
X156582361Y-111779602D01*
X156780670Y-111872075D01*
X156992023Y-111928707D01*
X157174926Y-111944708D01*
X157209998Y-111947777D01*
X157210000Y-111947777D01*
X157210002Y-111947777D01*
X157238254Y-111945305D01*
X157427977Y-111928707D01*
X157639330Y-111872075D01*
X157837639Y-111779602D01*
X158016877Y-111654098D01*
X158171598Y-111499377D01*
X158297102Y-111320139D01*
X158312726Y-111286632D01*
X158358896Y-111234195D01*
X158426090Y-111215043D01*
X158492971Y-111235258D01*
X158537489Y-111286634D01*
X158576399Y-111370078D01*
X158711894Y-111563582D01*
X158878917Y-111730605D01*
X159072421Y-111866100D01*
X159286507Y-111965929D01*
X159286516Y-111965933D01*
X159500000Y-112023134D01*
X159500000Y-111128001D01*
X159607685Y-111177180D01*
X159714237Y-111192500D01*
X159785763Y-111192500D01*
X159892315Y-111177180D01*
X160000000Y-111128001D01*
X160000000Y-112023133D01*
X160213483Y-111965933D01*
X160213492Y-111965929D01*
X160427578Y-111866100D01*
X160621082Y-111730605D01*
X160788105Y-111563582D01*
X160923600Y-111370078D01*
X161023429Y-111155992D01*
X161023432Y-111155986D01*
X161080636Y-110942500D01*
X160183686Y-110942500D01*
X160209493Y-110902344D01*
X160250000Y-110764389D01*
X160250000Y-110620611D01*
X160209493Y-110482656D01*
X160183686Y-110442500D01*
X161080636Y-110442500D01*
X161080635Y-110442499D01*
X161023432Y-110229013D01*
X161023429Y-110229007D01*
X160923600Y-110014922D01*
X160923599Y-110014920D01*
X160788113Y-109821426D01*
X160788108Y-109821420D01*
X160621082Y-109654394D01*
X160427578Y-109518899D01*
X160213492Y-109419070D01*
X160213486Y-109419067D01*
X160000000Y-109361864D01*
X160000000Y-110256998D01*
X159892315Y-110207820D01*
X159785763Y-110192500D01*
X159714237Y-110192500D01*
X159607685Y-110207820D01*
X159500000Y-110256998D01*
X159500000Y-109361864D01*
X159499999Y-109361864D01*
X159286513Y-109419067D01*
X159286507Y-109419070D01*
X159072422Y-109518899D01*
X159072420Y-109518900D01*
X158878926Y-109654386D01*
X158878920Y-109654391D01*
X158711891Y-109821420D01*
X158711886Y-109821426D01*
X158576400Y-110014920D01*
X158576399Y-110014922D01*
X158537489Y-110098366D01*
X158491317Y-110150805D01*
X158424123Y-110169957D01*
X158357242Y-110149741D01*
X158312725Y-110098366D01*
X158309331Y-110091087D01*
X158297102Y-110064862D01*
X158297100Y-110064859D01*
X158297099Y-110064857D01*
X158171599Y-109885624D01*
X158096950Y-109810975D01*
X158016877Y-109730902D01*
X157837639Y-109605398D01*
X157837640Y-109605398D01*
X157837638Y-109605397D01*
X157737353Y-109558634D01*
X157639330Y-109512925D01*
X157639326Y-109512924D01*
X157639322Y-109512922D01*
X157427977Y-109456293D01*
X157210002Y-109437223D01*
X157209998Y-109437223D01*
X157064682Y-109449936D01*
X156992023Y-109456293D01*
X156992020Y-109456293D01*
X156780677Y-109512922D01*
X156780670Y-109512924D01*
X156780670Y-109512925D01*
X156777391Y-109514454D01*
X156582361Y-109605398D01*
X156582357Y-109605400D01*
X156403121Y-109730902D01*
X156248402Y-109885621D01*
X156122900Y-110064857D01*
X156122898Y-110064861D01*
X156052382Y-110216083D01*
X156006209Y-110268522D01*
X155939016Y-110287674D01*
X155872135Y-110267458D01*
X155827618Y-110216083D01*
X155769331Y-110091087D01*
X155757102Y-110064862D01*
X155757100Y-110064859D01*
X155757099Y-110064857D01*
X155631599Y-109885624D01*
X155556950Y-109810975D01*
X155476877Y-109730902D01*
X155297639Y-109605398D01*
X155297640Y-109605398D01*
X155297638Y-109605397D01*
X155197353Y-109558634D01*
X155099330Y-109512925D01*
X155099326Y-109512924D01*
X155099322Y-109512922D01*
X154887977Y-109456293D01*
X154670002Y-109437223D01*
X154669998Y-109437223D01*
X154524682Y-109449936D01*
X154452023Y-109456293D01*
X154452021Y-109456293D01*
X154452017Y-109456294D01*
X154430961Y-109461936D01*
X154361111Y-109460273D01*
X154303249Y-109421109D01*
X154275746Y-109356880D01*
X154287333Y-109287978D01*
X154311186Y-109254482D01*
X154638850Y-108926819D01*
X154700173Y-108893334D01*
X154726531Y-108890500D01*
X168899912Y-108890500D01*
X168963141Y-108892660D01*
X169004065Y-108882686D01*
X169010264Y-108881507D01*
X169052007Y-108875771D01*
X169067282Y-108869135D01*
X169087317Y-108862397D01*
X169103490Y-108858457D01*
X169140212Y-108837808D01*
X169145851Y-108835007D01*
X169184505Y-108818219D01*
X169197424Y-108807707D01*
X169214893Y-108795818D01*
X169229408Y-108787658D01*
X169259194Y-108757870D01*
X169263895Y-108753628D01*
X169296561Y-108727054D01*
X169306160Y-108713453D01*
X169319777Y-108697287D01*
X170177728Y-107839336D01*
X170223969Y-107796151D01*
X170245853Y-107760162D01*
X170249414Y-107754930D01*
X170274864Y-107721371D01*
X170280973Y-107705878D01*
X170290376Y-107686947D01*
X170299026Y-107672724D01*
X170310388Y-107632166D01*
X170312403Y-107626175D01*
X170327859Y-107586985D01*
X170329561Y-107570418D01*
X170333506Y-107549660D01*
X170338000Y-107533624D01*
X170338000Y-107491515D01*
X170338325Y-107485171D01*
X170339649Y-107472292D01*
X170342631Y-107443286D01*
X170339803Y-107426882D01*
X170338000Y-107405815D01*
X170338000Y-90333983D01*
X170340160Y-90270755D01*
X170330191Y-90229848D01*
X170329006Y-90223618D01*
X170323271Y-90181889D01*
X170316637Y-90166616D01*
X170309897Y-90146574D01*
X170305957Y-90130407D01*
X170305955Y-90130403D01*
X170285322Y-90093706D01*
X170282496Y-90088017D01*
X170276843Y-90075003D01*
X170265719Y-90049391D01*
X170255213Y-90036477D01*
X170243312Y-90018990D01*
X170235160Y-90004491D01*
X170235158Y-90004488D01*
X170205382Y-89974712D01*
X170201126Y-89969996D01*
X170195665Y-89963284D01*
X170174554Y-89937335D01*
X170174550Y-89937332D01*
X170174545Y-89937328D01*
X170160953Y-89927733D01*
X170144781Y-89914111D01*
X168417351Y-88186681D01*
X168383866Y-88125358D01*
X168388850Y-88055666D01*
X168430722Y-87999733D01*
X168496186Y-87975316D01*
X168505032Y-87975000D01*
X176375000Y-87975000D01*
X176375000Y-83749500D01*
X176394685Y-83682461D01*
X176447489Y-83636706D01*
X176499000Y-83625500D01*
X178000500Y-83625500D01*
X178067539Y-83645185D01*
X178113294Y-83697989D01*
X178124500Y-83749500D01*
X178124500Y-89503048D01*
X178104815Y-89570087D01*
X178052011Y-89615842D01*
X177982853Y-89625786D01*
X177919297Y-89596761D01*
X177899370Y-89574803D01*
X177896024Y-89570087D01*
X177802888Y-89438824D01*
X177570839Y-89179161D01*
X177311176Y-88947112D01*
X177027164Y-88745595D01*
X176722376Y-88577145D01*
X176711734Y-88572737D01*
X176655741Y-88549544D01*
X176400644Y-88443879D01*
X176072046Y-88349211D01*
X176066017Y-88347474D01*
X176066009Y-88347472D01*
X175722700Y-88289142D01*
X175722688Y-88289140D01*
X175375000Y-88269615D01*
X175027311Y-88289140D01*
X175027299Y-88289142D01*
X174683990Y-88347472D01*
X174683982Y-88347474D01*
X174349359Y-88443878D01*
X174349356Y-88443879D01*
X174259941Y-88480916D01*
X174027625Y-88577144D01*
X173722835Y-88745595D01*
X173521318Y-88888579D01*
X173438824Y-88947112D01*
X173179161Y-89179161D01*
X172947112Y-89438824D01*
X172927016Y-89467147D01*
X172745595Y-89722835D01*
X172587226Y-90009382D01*
X172537569Y-90058535D01*
X172469221Y-90073038D01*
X172403882Y-90048288D01*
X172362297Y-89992141D01*
X172355478Y-89963284D01*
X172347869Y-89895750D01*
X172347868Y-89895745D01*
X172288288Y-89725476D01*
X172219400Y-89615842D01*
X172192316Y-89572738D01*
X172064762Y-89445184D01*
X172006453Y-89408546D01*
X171912023Y-89349211D01*
X171741754Y-89289631D01*
X171741749Y-89289630D01*
X171562504Y-89269435D01*
X171562496Y-89269435D01*
X171383250Y-89289630D01*
X171383245Y-89289631D01*
X171212976Y-89349211D01*
X171060237Y-89445184D01*
X170932684Y-89572737D01*
X170836711Y-89725476D01*
X170777131Y-89895745D01*
X170777130Y-89895750D01*
X170756935Y-90074996D01*
X170756935Y-90075003D01*
X170777130Y-90254249D01*
X170777131Y-90254254D01*
X170836711Y-90424523D01*
X170932684Y-90577262D01*
X171000681Y-90645259D01*
X171034166Y-90706582D01*
X171037000Y-90732940D01*
X171037000Y-97666016D01*
X171034840Y-97729250D01*
X171044808Y-97770153D01*
X171045994Y-97776394D01*
X171051728Y-97818109D01*
X171058364Y-97833387D01*
X171065104Y-97853431D01*
X171067127Y-97861734D01*
X171063871Y-97931528D01*
X171023399Y-97988483D01*
X171012631Y-97996077D01*
X171003789Y-98001633D01*
X171003784Y-98001637D01*
X170876233Y-98129188D01*
X170780260Y-98281927D01*
X170720680Y-98452196D01*
X170720679Y-98452201D01*
X170700484Y-98631447D01*
X170700484Y-98631454D01*
X170720679Y-98810700D01*
X170720680Y-98810705D01*
X170780260Y-98980974D01*
X170839341Y-99075000D01*
X170876233Y-99133713D01*
X171003787Y-99261267D01*
X171053763Y-99292669D01*
X171129089Y-99340000D01*
X171156527Y-99357240D01*
X171284735Y-99402102D01*
X171326794Y-99416819D01*
X171326799Y-99416820D01*
X171506046Y-99437016D01*
X171513014Y-99437016D01*
X171513014Y-99439175D01*
X171571606Y-99449437D01*
X171604351Y-99472923D01*
X171800681Y-99669253D01*
X171834166Y-99730576D01*
X171837000Y-99756934D01*
X171837000Y-107517060D01*
X171817315Y-107584099D01*
X171800681Y-107604741D01*
X171732684Y-107672737D01*
X171636711Y-107825476D01*
X171577131Y-107995745D01*
X171577130Y-107995750D01*
X171556935Y-108174996D01*
X171556935Y-108175003D01*
X171577130Y-108354249D01*
X171577131Y-108354254D01*
X171636711Y-108524523D01*
X171723658Y-108662898D01*
X171732684Y-108677262D01*
X171860238Y-108804816D01*
X171945607Y-108858457D01*
X172000040Y-108892660D01*
X172012978Y-108900789D01*
X172146090Y-108947367D01*
X172183245Y-108960368D01*
X172183250Y-108960369D01*
X172362496Y-108980565D01*
X172362500Y-108980565D01*
X172362504Y-108980565D01*
X172541749Y-108960369D01*
X172541752Y-108960368D01*
X172541755Y-108960368D01*
X172712022Y-108900789D01*
X172864762Y-108804816D01*
X172992316Y-108677262D01*
X173075238Y-108545291D01*
X173127573Y-108499001D01*
X173196626Y-108488353D01*
X173260475Y-108516728D01*
X173267913Y-108523583D01*
X173584573Y-108840243D01*
X173627745Y-108886469D01*
X173651292Y-108900788D01*
X173663713Y-108908342D01*
X173668963Y-108911914D01*
X173702525Y-108937365D01*
X173718025Y-108943477D01*
X173736953Y-108952879D01*
X173751172Y-108961526D01*
X173791713Y-108972885D01*
X173797724Y-108974907D01*
X173808726Y-108979245D01*
X173836911Y-108990360D01*
X173841814Y-108990864D01*
X173853475Y-108992063D01*
X173874249Y-108996011D01*
X173885453Y-108999150D01*
X173890272Y-109000500D01*
X173932370Y-109000500D01*
X173938711Y-109000824D01*
X173980610Y-109005132D01*
X173980617Y-109005130D01*
X173989089Y-109004842D01*
X173989144Y-109006455D01*
X174048841Y-109013342D01*
X174102903Y-109057604D01*
X174124453Y-109124067D01*
X174124501Y-109127532D01*
X174124501Y-109356518D01*
X174139354Y-109450304D01*
X174196950Y-109563342D01*
X174196952Y-109563344D01*
X174196954Y-109563347D01*
X174286652Y-109653045D01*
X174286654Y-109653046D01*
X174286658Y-109653050D01*
X174399694Y-109710645D01*
X174399698Y-109710647D01*
X174493475Y-109725499D01*
X174493481Y-109725500D01*
X176256518Y-109725499D01*
X176350304Y-109710646D01*
X176463342Y-109653050D01*
X176553050Y-109563342D01*
X176610646Y-109450304D01*
X176610646Y-109450302D01*
X176610647Y-109450301D01*
X176625499Y-109356524D01*
X176625500Y-109356519D01*
X176625499Y-107593482D01*
X176610646Y-107499696D01*
X176553050Y-107386658D01*
X176553046Y-107386654D01*
X176553045Y-107386652D01*
X176463347Y-107296954D01*
X176463344Y-107296952D01*
X176463342Y-107296950D01*
X176386517Y-107257805D01*
X176350301Y-107239352D01*
X176258342Y-107224788D01*
X176195207Y-107194859D01*
X176158276Y-107135547D01*
X176159274Y-107065685D01*
X176197884Y-107007452D01*
X176206617Y-107000740D01*
X176246080Y-106973107D01*
X176413105Y-106806082D01*
X176548600Y-106612578D01*
X176648429Y-106398492D01*
X176648432Y-106398486D01*
X176705636Y-106185000D01*
X175808686Y-106185000D01*
X175834493Y-106144844D01*
X175875000Y-106006889D01*
X175875000Y-105863111D01*
X175834493Y-105725156D01*
X175808686Y-105685000D01*
X176705636Y-105685000D01*
X176705635Y-105684999D01*
X176648432Y-105471513D01*
X176648429Y-105471507D01*
X176548600Y-105257422D01*
X176548599Y-105257420D01*
X176413113Y-105063926D01*
X176413108Y-105063920D01*
X176246082Y-104896894D01*
X176052578Y-104761399D01*
X175969134Y-104722489D01*
X175916695Y-104676317D01*
X175897543Y-104609123D01*
X175917759Y-104542242D01*
X175969132Y-104497726D01*
X176002639Y-104482102D01*
X176181877Y-104356598D01*
X176336598Y-104201877D01*
X176462102Y-104022639D01*
X176554575Y-103824330D01*
X176611207Y-103612977D01*
X176628552Y-103414723D01*
X176630277Y-103395002D01*
X176630277Y-103394997D01*
X176622803Y-103309575D01*
X176611207Y-103177023D01*
X176554575Y-102965670D01*
X176462102Y-102767362D01*
X176462100Y-102767359D01*
X176462099Y-102767357D01*
X176336599Y-102588124D01*
X176268900Y-102520425D01*
X176181877Y-102433402D01*
X176002639Y-102307898D01*
X175851414Y-102237381D01*
X175798977Y-102191210D01*
X175779825Y-102124016D01*
X175800041Y-102057135D01*
X175851414Y-102012618D01*
X176002639Y-101942102D01*
X176181877Y-101816598D01*
X176336598Y-101661877D01*
X176462102Y-101482639D01*
X176554575Y-101284330D01*
X176611207Y-101072977D01*
X176630277Y-100855000D01*
X176629579Y-100847026D01*
X176625685Y-100802509D01*
X176611207Y-100637023D01*
X176554575Y-100425670D01*
X176462102Y-100227362D01*
X176462100Y-100227359D01*
X176462099Y-100227357D01*
X176336599Y-100048124D01*
X176263900Y-99975425D01*
X176181877Y-99893402D01*
X176002639Y-99767898D01*
X175851414Y-99697381D01*
X175798977Y-99651210D01*
X175779825Y-99584016D01*
X175800041Y-99517135D01*
X175851414Y-99472618D01*
X176002639Y-99402102D01*
X176181877Y-99276598D01*
X176336598Y-99121877D01*
X176462102Y-98942639D01*
X176554575Y-98744330D01*
X176611207Y-98532977D01*
X176628280Y-98337826D01*
X176630277Y-98315002D01*
X176630277Y-98314997D01*
X176622670Y-98228048D01*
X176611207Y-98097023D01*
X176554575Y-97885670D01*
X176462102Y-97687362D01*
X176462100Y-97687359D01*
X176462099Y-97687357D01*
X176336599Y-97508124D01*
X176265425Y-97436950D01*
X176181877Y-97353402D01*
X176002639Y-97227898D01*
X176002640Y-97227898D01*
X176002638Y-97227897D01*
X175903484Y-97181661D01*
X175804330Y-97135425D01*
X175804326Y-97135424D01*
X175804322Y-97135422D01*
X175592977Y-97078793D01*
X175375002Y-97059723D01*
X175374998Y-97059723D01*
X175229682Y-97072436D01*
X175157023Y-97078793D01*
X175157020Y-97078793D01*
X174945677Y-97135422D01*
X174945668Y-97135426D01*
X174747361Y-97227898D01*
X174747357Y-97227900D01*
X174568121Y-97353402D01*
X174413402Y-97508121D01*
X174287900Y-97687357D01*
X174287898Y-97687361D01*
X174195426Y-97885668D01*
X174195422Y-97885677D01*
X174138793Y-98097020D01*
X174138793Y-98097024D01*
X174119723Y-98314997D01*
X174119723Y-98315002D01*
X174138793Y-98532975D01*
X174138793Y-98532979D01*
X174195422Y-98744322D01*
X174195424Y-98744326D01*
X174195425Y-98744330D01*
X174226374Y-98810700D01*
X174287897Y-98942638D01*
X174287898Y-98942639D01*
X174413402Y-99121877D01*
X174568123Y-99276598D01*
X174683292Y-99357240D01*
X174747361Y-99402102D01*
X174898583Y-99472618D01*
X174951022Y-99518790D01*
X174970174Y-99585984D01*
X174949958Y-99652865D01*
X174898583Y-99697382D01*
X174747361Y-99767898D01*
X174747357Y-99767900D01*
X174568121Y-99893402D01*
X174413402Y-100048121D01*
X174287900Y-100227357D01*
X174287898Y-100227361D01*
X174195426Y-100425668D01*
X174195422Y-100425677D01*
X174138793Y-100637020D01*
X174138793Y-100637024D01*
X174119723Y-100854997D01*
X174119723Y-100855002D01*
X174125049Y-100915875D01*
X174136161Y-101042898D01*
X174138793Y-101072975D01*
X174138793Y-101072979D01*
X174195422Y-101284322D01*
X174195424Y-101284326D01*
X174195425Y-101284330D01*
X174236761Y-101372975D01*
X174287897Y-101482638D01*
X174301708Y-101502362D01*
X174413402Y-101661877D01*
X174568123Y-101816598D01*
X174747360Y-101942101D01*
X174747361Y-101942102D01*
X174898583Y-102012618D01*
X174951022Y-102058790D01*
X174970174Y-102125984D01*
X174949958Y-102192865D01*
X174898583Y-102237382D01*
X174747361Y-102307898D01*
X174747357Y-102307900D01*
X174568121Y-102433402D01*
X174413402Y-102588121D01*
X174287900Y-102767357D01*
X174287898Y-102767361D01*
X174195426Y-102965668D01*
X174195422Y-102965677D01*
X174138793Y-103177020D01*
X174138793Y-103177024D01*
X174119723Y-103394997D01*
X174119723Y-103395002D01*
X174121448Y-103414723D01*
X174136161Y-103582898D01*
X174138793Y-103612975D01*
X174138793Y-103612979D01*
X174195422Y-103824322D01*
X174195424Y-103824326D01*
X174195425Y-103824330D01*
X174239092Y-103917975D01*
X174287897Y-104022638D01*
X174301708Y-104042362D01*
X174413402Y-104201877D01*
X174568123Y-104356598D01*
X174747361Y-104482102D01*
X174780862Y-104497724D01*
X174780865Y-104497725D01*
X174833304Y-104543897D01*
X174852456Y-104611091D01*
X174832240Y-104677972D01*
X174780865Y-104722489D01*
X174697422Y-104761399D01*
X174697420Y-104761400D01*
X174503926Y-104896886D01*
X174503920Y-104896891D01*
X174336891Y-105063920D01*
X174336886Y-105063926D01*
X174201400Y-105257420D01*
X174201399Y-105257422D01*
X174101570Y-105471507D01*
X174101567Y-105471513D01*
X174044364Y-105684999D01*
X174044364Y-105685000D01*
X174941314Y-105685000D01*
X174915507Y-105725156D01*
X174875000Y-105863111D01*
X174875000Y-106006889D01*
X174915507Y-106144844D01*
X174941314Y-106185000D01*
X174044364Y-106185000D01*
X174101567Y-106398486D01*
X174101570Y-106398492D01*
X174201399Y-106612578D01*
X174336894Y-106806082D01*
X174503918Y-106973106D01*
X174543385Y-107000742D01*
X174587009Y-107055319D01*
X174594201Y-107124818D01*
X174562678Y-107187172D01*
X174502448Y-107222585D01*
X174491656Y-107224790D01*
X174399696Y-107239354D01*
X174286658Y-107296950D01*
X174286657Y-107296951D01*
X174286652Y-107296954D01*
X174196954Y-107386652D01*
X174196951Y-107386657D01*
X174196950Y-107386658D01*
X174182463Y-107415090D01*
X174139352Y-107499698D01*
X174124500Y-107593475D01*
X174124500Y-107594469D01*
X174124393Y-107594833D01*
X174124118Y-107598331D01*
X174123382Y-107598273D01*
X174104815Y-107661508D01*
X174052011Y-107707263D01*
X173982853Y-107717207D01*
X173919297Y-107688182D01*
X173912819Y-107682150D01*
X173374319Y-107143650D01*
X173340834Y-107082327D01*
X173338000Y-107055969D01*
X173338000Y-98921580D01*
X173338882Y-98895750D01*
X173340160Y-98858352D01*
X173330190Y-98817440D01*
X173329007Y-98811221D01*
X173323271Y-98769486D01*
X173316638Y-98754217D01*
X173309896Y-98734168D01*
X173305957Y-98718002D01*
X173285319Y-98681297D01*
X173282496Y-98675615D01*
X173265719Y-98636988D01*
X173255206Y-98624066D01*
X173243311Y-98606587D01*
X173235157Y-98592085D01*
X173205387Y-98562315D01*
X173201137Y-98557607D01*
X173174554Y-98524932D01*
X173164091Y-98517546D01*
X173160950Y-98515329D01*
X173144778Y-98501706D01*
X172184295Y-97541223D01*
X172170691Y-97526657D01*
X172141109Y-97494982D01*
X172141106Y-97494980D01*
X172141104Y-97494978D01*
X172134525Y-97489625D01*
X172136682Y-97486973D01*
X172100488Y-97447194D01*
X172088000Y-97392963D01*
X172088000Y-92008945D01*
X172107685Y-91941906D01*
X172160489Y-91896151D01*
X172229647Y-91886207D01*
X172293203Y-91915232D01*
X172330977Y-91974010D01*
X172334246Y-91988169D01*
X172347473Y-92066013D01*
X172443879Y-92400644D01*
X172577145Y-92722376D01*
X172745595Y-93027164D01*
X172947112Y-93311176D01*
X173179161Y-93570839D01*
X173438824Y-93802888D01*
X173722836Y-94004405D01*
X174027624Y-94172855D01*
X174349356Y-94306121D01*
X174683987Y-94402527D01*
X175027307Y-94460859D01*
X175375000Y-94480385D01*
X175722693Y-94460859D01*
X176066013Y-94402527D01*
X176400644Y-94306121D01*
X176722376Y-94172855D01*
X177027164Y-94004405D01*
X177311176Y-93802888D01*
X177570839Y-93570839D01*
X177802888Y-93311176D01*
X177899371Y-93175194D01*
X177954218Y-93131912D01*
X178023760Y-93125152D01*
X178085917Y-93157062D01*
X178120955Y-93217512D01*
X178124500Y-93246951D01*
X178124500Y-118503048D01*
X178104815Y-118570087D01*
X178052011Y-118615842D01*
X177982853Y-118625786D01*
X177919297Y-118596761D01*
X177899370Y-118574803D01*
X177848457Y-118503048D01*
X177802888Y-118438824D01*
X177570839Y-118179161D01*
X177311176Y-117947112D01*
X177027164Y-117745595D01*
X176722376Y-117577145D01*
X176400644Y-117443879D01*
X176153435Y-117372659D01*
X176066017Y-117347474D01*
X176066009Y-117347472D01*
X175722700Y-117289142D01*
X175722688Y-117289140D01*
X175375000Y-117269615D01*
X175027311Y-117289140D01*
X175027299Y-117289142D01*
X174683990Y-117347472D01*
X174683982Y-117347474D01*
X174349359Y-117443878D01*
X174349356Y-117443879D01*
X174255124Y-117482911D01*
X174027625Y-117577144D01*
X173722835Y-117745595D01*
X173438823Y-117947113D01*
X173179161Y-118179161D01*
X172947113Y-118438823D01*
X172745595Y-118722835D01*
X172577144Y-119027625D01*
X172443878Y-119349359D01*
X172347474Y-119683982D01*
X172347472Y-119683990D01*
X172289142Y-120027299D01*
X172289140Y-120027311D01*
X172269615Y-120375000D01*
X172289140Y-120722688D01*
X172289142Y-120722700D01*
X172347472Y-121066009D01*
X172347474Y-121066017D01*
X172382945Y-121189137D01*
X172443879Y-121400644D01*
X172577145Y-121722376D01*
X172745595Y-122027164D01*
X172947112Y-122311176D01*
X173179161Y-122570839D01*
X173438824Y-122802888D01*
X173574803Y-122899370D01*
X173618087Y-122954218D01*
X173624847Y-123023760D01*
X173592936Y-123085917D01*
X173532487Y-123120955D01*
X173503048Y-123124500D01*
X157548176Y-123124500D01*
X157481137Y-123104815D01*
X157435382Y-123052011D01*
X157425438Y-122982853D01*
X157446402Y-122929662D01*
X157509912Y-122838414D01*
X157586106Y-122660862D01*
X157625000Y-122471606D01*
X157625000Y-122175000D01*
X156925000Y-122175000D01*
X156925000Y-121675000D01*
X157625000Y-121675000D01*
X157625000Y-121426823D01*
X157610352Y-121282778D01*
X157552515Y-121098438D01*
X157552510Y-121098428D01*
X157458748Y-120929501D01*
X157458743Y-120929494D01*
X157332892Y-120782894D01*
X157180109Y-120664631D01*
X157180105Y-120664629D01*
X157006642Y-120579542D01*
X157006643Y-120579542D01*
X156925000Y-120558403D01*
X156925000Y-121550376D01*
X156910495Y-121477455D01*
X156855240Y-121394760D01*
X156772545Y-121339505D01*
X156675000Y-121320102D01*
X156577455Y-121339505D01*
X156494760Y-121394760D01*
X156439505Y-121477455D01*
X156425000Y-121550376D01*
X156425000Y-120554528D01*
X156254472Y-120617685D01*
X156254468Y-120617687D01*
X156090496Y-120719892D01*
X155950465Y-120853002D01*
X155950464Y-120853003D01*
X155840086Y-121011586D01*
X155763893Y-121189137D01*
X155725000Y-121378393D01*
X155725000Y-121675000D01*
X156425000Y-121675000D01*
X156425000Y-122175000D01*
X155725000Y-122175000D01*
X155725000Y-122423176D01*
X155739647Y-122567221D01*
X155797484Y-122751561D01*
X155797489Y-122751571D01*
X155891251Y-122920498D01*
X155894844Y-122925659D01*
X155893642Y-122926495D01*
X155919323Y-122983419D01*
X155909061Y-123052531D01*
X155863063Y-123105123D01*
X155796505Y-123124500D01*
X150948176Y-123124500D01*
X150881137Y-123104815D01*
X150835382Y-123052011D01*
X150825438Y-122982853D01*
X150846402Y-122929662D01*
X150909912Y-122838414D01*
X150986106Y-122660862D01*
X151025000Y-122471606D01*
X151025000Y-122175000D01*
X150325000Y-122175000D01*
X150325000Y-121675000D01*
X151025000Y-121675000D01*
X151025000Y-121426823D01*
X151010352Y-121282778D01*
X150952515Y-121098438D01*
X150952510Y-121098428D01*
X150858748Y-120929501D01*
X150858743Y-120929494D01*
X150732892Y-120782894D01*
X150580109Y-120664631D01*
X150580105Y-120664629D01*
X150406642Y-120579542D01*
X150406643Y-120579542D01*
X150325000Y-120558403D01*
X150325000Y-121550376D01*
X150310495Y-121477455D01*
X150255240Y-121394760D01*
X150172545Y-121339505D01*
X150075000Y-121320102D01*
X149977455Y-121339505D01*
X149894760Y-121394760D01*
X149839505Y-121477455D01*
X149825000Y-121550376D01*
X149825000Y-120554528D01*
X149654472Y-120617685D01*
X149654468Y-120617687D01*
X149490496Y-120719892D01*
X149350465Y-120853002D01*
X149350464Y-120853003D01*
X149240086Y-121011586D01*
X149163893Y-121189137D01*
X149125000Y-121378393D01*
X149125000Y-121675000D01*
X149825000Y-121675000D01*
X149825000Y-122175000D01*
X149125000Y-122175000D01*
X149125000Y-122423176D01*
X149139647Y-122567221D01*
X149197484Y-122751561D01*
X149197489Y-122751571D01*
X149291251Y-122920498D01*
X149294844Y-122925659D01*
X149293642Y-122926495D01*
X149319323Y-122983419D01*
X149309061Y-123052531D01*
X149263063Y-123105123D01*
X149196505Y-123124500D01*
X133246952Y-123124500D01*
X133179913Y-123104815D01*
X133134158Y-123052011D01*
X133124214Y-122982853D01*
X133153239Y-122919297D01*
X133175197Y-122899370D01*
X133311176Y-122802888D01*
X133570839Y-122570839D01*
X133802888Y-122311176D01*
X134004405Y-122027164D01*
X134172855Y-121722376D01*
X134306121Y-121400644D01*
X134402527Y-121066013D01*
X134460859Y-120722693D01*
X134480385Y-120375000D01*
X134460859Y-120027307D01*
X134402527Y-119683987D01*
X134306121Y-119349356D01*
X134172855Y-119027624D01*
X134004405Y-118722836D01*
X133802888Y-118438824D01*
X133570839Y-118179161D01*
X133311176Y-117947112D01*
X133027164Y-117745595D01*
X132722376Y-117577145D01*
X132400644Y-117443879D01*
X132153435Y-117372659D01*
X132066017Y-117347474D01*
X132066009Y-117347472D01*
X131722700Y-117289142D01*
X131722688Y-117289140D01*
X131375000Y-117269615D01*
X131027311Y-117289140D01*
X131027299Y-117289142D01*
X130683990Y-117347472D01*
X130683982Y-117347474D01*
X130349359Y-117443878D01*
X130349356Y-117443879D01*
X130255124Y-117482911D01*
X130027625Y-117577144D01*
X129722835Y-117745595D01*
X129438823Y-117947113D01*
X129179161Y-118179161D01*
X128947113Y-118438823D01*
X128850630Y-118574803D01*
X128795782Y-118618087D01*
X128726240Y-118624847D01*
X128664083Y-118592936D01*
X128629045Y-118532487D01*
X128625500Y-118503048D01*
X128625500Y-111248031D01*
X128645185Y-111180992D01*
X128697989Y-111135237D01*
X128767147Y-111125293D01*
X128830703Y-111154318D01*
X128837168Y-111160338D01*
X129877059Y-112200228D01*
X129920245Y-112246469D01*
X129956222Y-112268346D01*
X129961466Y-112271915D01*
X129995025Y-112297364D01*
X130010510Y-112303470D01*
X130029447Y-112312876D01*
X130043669Y-112321525D01*
X130043671Y-112321525D01*
X130043672Y-112321526D01*
X130084216Y-112332885D01*
X130090220Y-112334903D01*
X130129411Y-112350359D01*
X130135067Y-112350940D01*
X130145968Y-112352061D01*
X130166746Y-112356009D01*
X130182772Y-112360500D01*
X130224880Y-112360500D01*
X130231221Y-112360824D01*
X130273110Y-112365131D01*
X130289514Y-112362302D01*
X130310580Y-112360500D01*
X138609572Y-112360500D01*
X138676611Y-112380185D01*
X138697253Y-112396819D01*
X143510663Y-117210228D01*
X143553849Y-117256469D01*
X143589826Y-117278346D01*
X143595070Y-117281915D01*
X143628629Y-117307364D01*
X143644114Y-117313470D01*
X143663051Y-117322876D01*
X143677273Y-117331525D01*
X143677275Y-117331525D01*
X143677276Y-117331526D01*
X143717820Y-117342885D01*
X143723824Y-117344903D01*
X143763015Y-117360359D01*
X143768671Y-117360940D01*
X143779572Y-117362061D01*
X143800350Y-117366009D01*
X143816376Y-117370500D01*
X143858484Y-117370500D01*
X143864825Y-117370824D01*
X143906714Y-117375131D01*
X143923118Y-117372302D01*
X143944184Y-117370500D01*
X159396016Y-117370500D01*
X159459245Y-117372660D01*
X159500169Y-117362686D01*
X159506368Y-117361507D01*
X159548111Y-117355771D01*
X159563386Y-117349135D01*
X159583421Y-117342397D01*
X159599594Y-117338457D01*
X159636316Y-117317808D01*
X159641955Y-117315007D01*
X159680609Y-117298219D01*
X159693528Y-117287707D01*
X159710997Y-117275818D01*
X159725512Y-117267658D01*
X159755298Y-117237870D01*
X159759999Y-117233628D01*
X159792665Y-117207054D01*
X159802264Y-117193453D01*
X159815881Y-117177287D01*
X161368163Y-115625005D01*
X163619859Y-115625005D01*
X163640385Y-115872729D01*
X163640387Y-115872738D01*
X163701412Y-116113717D01*
X163801266Y-116341364D01*
X163901564Y-116494882D01*
X164599070Y-115797376D01*
X164601884Y-115810915D01*
X164671442Y-115945156D01*
X164774638Y-116055652D01*
X164903819Y-116134209D01*
X164955002Y-116148549D01*
X164254942Y-116848609D01*
X164301768Y-116885055D01*
X164301770Y-116885056D01*
X164520385Y-117003364D01*
X164520396Y-117003369D01*
X164755506Y-117084083D01*
X165000707Y-117125000D01*
X165249293Y-117125000D01*
X165494493Y-117084083D01*
X165729603Y-117003369D01*
X165729614Y-117003364D01*
X165948228Y-116885057D01*
X165948231Y-116885055D01*
X165995056Y-116848609D01*
X165296568Y-116150121D01*
X165413458Y-116099349D01*
X165530739Y-116003934D01*
X165617928Y-115880415D01*
X165648354Y-115794802D01*
X166348434Y-116494882D01*
X166448731Y-116341369D01*
X166548587Y-116113717D01*
X166609612Y-115872738D01*
X166609614Y-115872729D01*
X166630141Y-115625005D01*
X170119859Y-115625005D01*
X170140385Y-115872729D01*
X170140387Y-115872738D01*
X170201412Y-116113717D01*
X170301266Y-116341364D01*
X170401564Y-116494882D01*
X171099070Y-115797376D01*
X171101884Y-115810915D01*
X171171442Y-115945156D01*
X171274638Y-116055652D01*
X171403819Y-116134209D01*
X171455002Y-116148549D01*
X170754942Y-116848609D01*
X170801768Y-116885055D01*
X170801770Y-116885056D01*
X171020385Y-117003364D01*
X171020396Y-117003369D01*
X171255506Y-117084083D01*
X171500707Y-117125000D01*
X171749293Y-117125000D01*
X171994493Y-117084083D01*
X172229603Y-117003369D01*
X172229614Y-117003364D01*
X172448228Y-116885057D01*
X172448231Y-116885055D01*
X172495056Y-116848609D01*
X171796568Y-116150121D01*
X171913458Y-116099349D01*
X172030739Y-116003934D01*
X172117928Y-115880415D01*
X172148354Y-115794802D01*
X172848434Y-116494882D01*
X172948731Y-116341369D01*
X173048587Y-116113717D01*
X173109612Y-115872738D01*
X173109614Y-115872729D01*
X173130141Y-115625005D01*
X173130141Y-115624994D01*
X173109614Y-115377270D01*
X173109612Y-115377261D01*
X173048587Y-115136282D01*
X172948731Y-114908630D01*
X172848434Y-114755116D01*
X172150929Y-115452622D01*
X172148116Y-115439085D01*
X172078558Y-115304844D01*
X171975362Y-115194348D01*
X171846181Y-115115791D01*
X171794997Y-115101450D01*
X172495057Y-114401390D01*
X172495056Y-114401389D01*
X172448229Y-114364943D01*
X172229614Y-114246635D01*
X172229603Y-114246630D01*
X171994493Y-114165916D01*
X171749293Y-114125000D01*
X171500707Y-114125000D01*
X171255506Y-114165916D01*
X171020396Y-114246630D01*
X171020390Y-114246632D01*
X170801761Y-114364949D01*
X170754942Y-114401388D01*
X170754942Y-114401390D01*
X171453431Y-115099878D01*
X171336542Y-115150651D01*
X171219261Y-115246066D01*
X171132072Y-115369585D01*
X171101645Y-115455197D01*
X170401564Y-114755116D01*
X170301267Y-114908632D01*
X170201412Y-115136282D01*
X170140387Y-115377261D01*
X170140385Y-115377270D01*
X170119859Y-115624994D01*
X170119859Y-115625005D01*
X166630141Y-115625005D01*
X166630141Y-115624994D01*
X166609614Y-115377270D01*
X166609612Y-115377261D01*
X166548587Y-115136282D01*
X166448731Y-114908630D01*
X166348434Y-114755116D01*
X165650929Y-115452622D01*
X165648116Y-115439085D01*
X165578558Y-115304844D01*
X165475362Y-115194348D01*
X165346181Y-115115791D01*
X165294997Y-115101450D01*
X165995057Y-114401390D01*
X165995056Y-114401389D01*
X165948229Y-114364943D01*
X165729614Y-114246635D01*
X165729603Y-114246630D01*
X165494493Y-114165916D01*
X165249293Y-114125000D01*
X165000707Y-114125000D01*
X164755506Y-114165916D01*
X164520396Y-114246630D01*
X164520390Y-114246632D01*
X164301761Y-114364949D01*
X164254942Y-114401388D01*
X164254942Y-114401390D01*
X164953431Y-115099878D01*
X164836542Y-115150651D01*
X164719261Y-115246066D01*
X164632072Y-115369585D01*
X164601645Y-115455197D01*
X163901564Y-114755116D01*
X163801267Y-114908632D01*
X163701412Y-115136282D01*
X163640387Y-115377261D01*
X163640385Y-115377270D01*
X163619859Y-115624994D01*
X163619859Y-115625005D01*
X161368163Y-115625005D01*
X164521202Y-112471966D01*
X164582523Y-112438483D01*
X164649143Y-112442367D01*
X164730198Y-112470194D01*
X164780018Y-112487298D01*
X164894485Y-112506399D01*
X165008951Y-112525500D01*
X165008952Y-112525500D01*
X165241048Y-112525500D01*
X165241049Y-112525500D01*
X165469981Y-112487298D01*
X165689503Y-112411936D01*
X165893626Y-112301470D01*
X165898902Y-112297364D01*
X166023702Y-112200228D01*
X166076784Y-112158913D01*
X166233979Y-111988153D01*
X166360924Y-111793849D01*
X166454157Y-111581300D01*
X166511134Y-111356305D01*
X166511783Y-111348474D01*
X166530300Y-111125006D01*
X170219700Y-111125006D01*
X170238864Y-111356297D01*
X170238866Y-111356308D01*
X170295842Y-111581300D01*
X170389075Y-111793848D01*
X170516016Y-111988147D01*
X170516019Y-111988151D01*
X170516021Y-111988153D01*
X170673216Y-112158913D01*
X170673219Y-112158915D01*
X170673222Y-112158918D01*
X170856365Y-112301464D01*
X170856371Y-112301468D01*
X170856374Y-112301470D01*
X171060497Y-112411936D01*
X171174487Y-112451068D01*
X171280015Y-112487297D01*
X171280017Y-112487297D01*
X171280019Y-112487298D01*
X171508951Y-112525500D01*
X171508952Y-112525500D01*
X171741048Y-112525500D01*
X171741049Y-112525500D01*
X171969981Y-112487298D01*
X172189503Y-112411936D01*
X172393626Y-112301470D01*
X172398902Y-112297364D01*
X172523702Y-112200228D01*
X172576784Y-112158913D01*
X172733979Y-111988153D01*
X172860924Y-111793849D01*
X172954157Y-111581300D01*
X173011134Y-111356305D01*
X173011783Y-111348474D01*
X173030300Y-111125006D01*
X173030300Y-111124993D01*
X173011135Y-110893702D01*
X173011133Y-110893691D01*
X172954157Y-110668699D01*
X172860924Y-110456151D01*
X172733983Y-110261852D01*
X172733980Y-110261849D01*
X172733979Y-110261847D01*
X172576784Y-110091087D01*
X172576779Y-110091083D01*
X172576777Y-110091081D01*
X172393634Y-109948535D01*
X172393628Y-109948531D01*
X172189504Y-109838064D01*
X172189495Y-109838061D01*
X171969984Y-109762702D01*
X171768639Y-109729104D01*
X171741049Y-109724500D01*
X171508951Y-109724500D01*
X171481361Y-109729104D01*
X171280015Y-109762702D01*
X171060504Y-109838061D01*
X171060495Y-109838064D01*
X170856371Y-109948531D01*
X170856365Y-109948535D01*
X170673222Y-110091081D01*
X170673219Y-110091084D01*
X170516016Y-110261852D01*
X170389075Y-110456151D01*
X170295842Y-110668699D01*
X170238866Y-110893691D01*
X170238864Y-110893702D01*
X170219700Y-111124993D01*
X170219700Y-111125006D01*
X166530300Y-111125006D01*
X166530300Y-111124993D01*
X166511135Y-110893702D01*
X166511133Y-110893691D01*
X166454157Y-110668699D01*
X166360924Y-110456151D01*
X166233983Y-110261852D01*
X166233980Y-110261849D01*
X166233979Y-110261847D01*
X166076784Y-110091087D01*
X166076779Y-110091083D01*
X166076777Y-110091081D01*
X165893634Y-109948535D01*
X165893628Y-109948531D01*
X165689504Y-109838064D01*
X165689495Y-109838061D01*
X165469984Y-109762702D01*
X165268639Y-109729104D01*
X165241049Y-109724500D01*
X165008951Y-109724500D01*
X164981361Y-109729104D01*
X164780015Y-109762702D01*
X164560504Y-109838061D01*
X164560495Y-109838064D01*
X164356371Y-109948531D01*
X164356365Y-109948535D01*
X164173222Y-110091081D01*
X164173219Y-110091084D01*
X164016016Y-110261852D01*
X163889075Y-110456151D01*
X163795842Y-110668699D01*
X163738866Y-110893691D01*
X163738864Y-110893702D01*
X163719700Y-111124993D01*
X163719700Y-111125006D01*
X163738864Y-111356297D01*
X163738866Y-111356308D01*
X163795842Y-111581298D01*
X163795845Y-111581307D01*
X163801354Y-111593867D01*
X163810254Y-111663167D01*
X163780274Y-111726278D01*
X163775477Y-111731352D01*
X159223650Y-116283181D01*
X159162327Y-116316666D01*
X159135969Y-116319500D01*
X144157636Y-116319500D01*
X144090597Y-116299815D01*
X144069955Y-116283181D01*
X139256545Y-111469772D01*
X139255284Y-111468422D01*
X139213359Y-111423531D01*
X139177379Y-111401651D01*
X139172133Y-111398081D01*
X139157066Y-111386655D01*
X139138580Y-111372636D01*
X139130010Y-111369256D01*
X139123089Y-111366527D01*
X139104157Y-111357124D01*
X139089933Y-111348474D01*
X139049389Y-111337113D01*
X139043370Y-111335089D01*
X139005458Y-111320140D01*
X139004193Y-111319641D01*
X139004189Y-111319640D01*
X139004187Y-111319640D01*
X138987626Y-111317937D01*
X138966859Y-111313990D01*
X138950835Y-111309500D01*
X138950832Y-111309500D01*
X138908724Y-111309500D01*
X138902382Y-111309175D01*
X138884457Y-111307332D01*
X138860496Y-111304869D01*
X138860492Y-111304869D01*
X138851180Y-111306474D01*
X138844089Y-111307697D01*
X138823024Y-111309500D01*
X130524032Y-111309500D01*
X130456993Y-111289815D01*
X130436351Y-111273181D01*
X129566819Y-110403649D01*
X129533334Y-110342326D01*
X129530500Y-110315968D01*
X129530500Y-96514031D01*
X129550185Y-96446992D01*
X129566819Y-96426350D01*
X129723734Y-96269435D01*
X129912821Y-96080347D01*
X129974142Y-96046864D01*
X130043833Y-96051848D01*
X130099767Y-96093719D01*
X130124184Y-96159184D01*
X130124500Y-96168030D01*
X130124500Y-97931517D01*
X130134136Y-97992357D01*
X130139354Y-98025304D01*
X130196950Y-98138342D01*
X130196952Y-98138344D01*
X130196954Y-98138347D01*
X130286652Y-98228045D01*
X130286654Y-98228046D01*
X130286658Y-98228050D01*
X130399696Y-98285646D01*
X130399697Y-98285646D01*
X130399699Y-98285647D01*
X130491655Y-98300211D01*
X130554790Y-98330140D01*
X130591722Y-98389451D01*
X130590724Y-98459313D01*
X130552115Y-98517546D01*
X130543383Y-98524258D01*
X130503924Y-98551887D01*
X130336891Y-98718920D01*
X130336886Y-98718926D01*
X130201400Y-98912420D01*
X130201399Y-98912422D01*
X130101570Y-99126507D01*
X130101567Y-99126513D01*
X130044364Y-99339999D01*
X130044364Y-99340000D01*
X130941314Y-99340000D01*
X130915507Y-99380156D01*
X130875000Y-99518111D01*
X130875000Y-99661889D01*
X130915507Y-99799844D01*
X130941314Y-99840000D01*
X130044364Y-99840000D01*
X130101567Y-100053486D01*
X130101570Y-100053492D01*
X130201399Y-100267578D01*
X130336894Y-100461082D01*
X130503917Y-100628105D01*
X130697419Y-100763598D01*
X130780865Y-100802509D01*
X130833305Y-100848681D01*
X130852457Y-100915875D01*
X130832242Y-100982756D01*
X130780868Y-101027273D01*
X130747363Y-101042897D01*
X130747357Y-101042900D01*
X130568121Y-101168402D01*
X130413402Y-101323121D01*
X130287900Y-101502357D01*
X130287898Y-101502361D01*
X130195426Y-101700668D01*
X130195422Y-101700677D01*
X130138793Y-101912020D01*
X130138793Y-101912023D01*
X130134431Y-101961877D01*
X130119723Y-102129997D01*
X130119723Y-102130002D01*
X130138793Y-102347975D01*
X130138793Y-102347979D01*
X130195422Y-102559322D01*
X130195424Y-102559326D01*
X130195425Y-102559330D01*
X130208852Y-102588124D01*
X130287897Y-102757638D01*
X130294705Y-102767361D01*
X130413402Y-102936877D01*
X130568123Y-103091598D01*
X130690124Y-103177024D01*
X130747361Y-103217102D01*
X130898583Y-103287618D01*
X130951022Y-103333790D01*
X130970174Y-103400984D01*
X130949958Y-103467865D01*
X130898583Y-103512382D01*
X130747361Y-103582898D01*
X130747357Y-103582900D01*
X130568121Y-103708402D01*
X130413402Y-103863121D01*
X130287900Y-104042357D01*
X130287898Y-104042361D01*
X130195426Y-104240668D01*
X130195422Y-104240677D01*
X130138793Y-104452020D01*
X130138793Y-104452023D01*
X130134968Y-104495746D01*
X130119723Y-104669997D01*
X130119723Y-104670002D01*
X130138793Y-104887975D01*
X130138793Y-104887979D01*
X130195422Y-105099322D01*
X130195424Y-105099326D01*
X130195425Y-105099330D01*
X130220404Y-105152898D01*
X130287897Y-105297638D01*
X130287898Y-105297639D01*
X130413402Y-105476877D01*
X130568123Y-105631598D01*
X130747360Y-105757101D01*
X130747361Y-105757102D01*
X130898583Y-105827618D01*
X130951022Y-105873790D01*
X130970174Y-105940984D01*
X130949958Y-106007865D01*
X130898583Y-106052382D01*
X130747361Y-106122898D01*
X130747357Y-106122900D01*
X130568121Y-106248402D01*
X130413402Y-106403121D01*
X130287900Y-106582357D01*
X130287898Y-106582361D01*
X130195426Y-106780668D01*
X130195422Y-106780677D01*
X130138793Y-106992020D01*
X130138793Y-106992024D01*
X130119723Y-107209997D01*
X130119723Y-107210002D01*
X130122291Y-107239352D01*
X130137782Y-107416425D01*
X130138793Y-107427975D01*
X130138793Y-107427979D01*
X130195422Y-107639322D01*
X130195424Y-107639326D01*
X130195425Y-107639330D01*
X130233681Y-107721370D01*
X130287897Y-107837638D01*
X130287898Y-107837639D01*
X130413402Y-108016877D01*
X130568123Y-108171598D01*
X130747360Y-108297101D01*
X130747361Y-108297102D01*
X130898583Y-108367618D01*
X130951022Y-108413790D01*
X130970174Y-108480984D01*
X130949958Y-108547865D01*
X130898583Y-108592382D01*
X130747361Y-108662898D01*
X130747357Y-108662900D01*
X130568121Y-108788402D01*
X130413402Y-108943121D01*
X130287900Y-109122357D01*
X130287898Y-109122361D01*
X130195426Y-109320668D01*
X130195422Y-109320677D01*
X130138793Y-109532020D01*
X130138793Y-109532023D01*
X130136053Y-109563342D01*
X130119723Y-109749997D01*
X130119723Y-109750002D01*
X130125057Y-109810975D01*
X130130466Y-109872802D01*
X130138793Y-109967975D01*
X130138793Y-109967979D01*
X130195422Y-110179322D01*
X130195424Y-110179326D01*
X130195425Y-110179330D01*
X130218590Y-110229007D01*
X130287897Y-110377638D01*
X130287898Y-110377639D01*
X130413402Y-110556877D01*
X130568123Y-110711598D01*
X130747361Y-110837102D01*
X130945670Y-110929575D01*
X131157023Y-110986207D01*
X131339926Y-111002208D01*
X131374998Y-111005277D01*
X131375000Y-111005277D01*
X131375002Y-111005277D01*
X131403254Y-111002805D01*
X131592977Y-110986207D01*
X131804330Y-110929575D01*
X132002639Y-110837102D01*
X132181877Y-110711598D01*
X132336598Y-110556877D01*
X132462102Y-110377639D01*
X132554575Y-110179330D01*
X132611207Y-109967977D01*
X132630277Y-109750000D01*
X132629898Y-109745671D01*
X132624495Y-109683906D01*
X132611207Y-109532023D01*
X132565613Y-109361864D01*
X132554577Y-109320677D01*
X132554576Y-109320676D01*
X132554575Y-109320670D01*
X132462102Y-109122362D01*
X132462100Y-109122359D01*
X132462099Y-109122357D01*
X132336599Y-108943124D01*
X132262614Y-108869139D01*
X132181877Y-108788402D01*
X132002639Y-108662898D01*
X131851414Y-108592381D01*
X131798977Y-108546210D01*
X131779825Y-108479016D01*
X131800041Y-108412135D01*
X131851414Y-108367618D01*
X132002639Y-108297102D01*
X132181877Y-108171598D01*
X132336598Y-108016877D01*
X132462102Y-107837639D01*
X132554575Y-107639330D01*
X132611207Y-107427977D01*
X132629008Y-107224501D01*
X132630277Y-107210002D01*
X132630277Y-107209997D01*
X132623763Y-107135547D01*
X132611207Y-106992023D01*
X132554575Y-106780670D01*
X132462102Y-106582362D01*
X132462100Y-106582359D01*
X132462099Y-106582357D01*
X132336599Y-106403124D01*
X132293427Y-106359952D01*
X132181877Y-106248402D01*
X132002639Y-106122898D01*
X131851414Y-106052381D01*
X131798977Y-106006210D01*
X131779825Y-105939016D01*
X131800041Y-105872135D01*
X131851414Y-105827618D01*
X132002639Y-105757102D01*
X132181877Y-105631598D01*
X132336598Y-105476877D01*
X132462102Y-105297639D01*
X132515398Y-105183343D01*
X132561567Y-105130907D01*
X132572300Y-105125230D01*
X132575604Y-105123221D01*
X132575603Y-105123221D01*
X132575609Y-105123219D01*
X132588528Y-105112707D01*
X132605997Y-105100818D01*
X132620512Y-105092658D01*
X132650297Y-105062871D01*
X132654988Y-105058637D01*
X132687665Y-105032054D01*
X132697266Y-105018452D01*
X132710882Y-105002286D01*
X132927729Y-104785439D01*
X132973969Y-104742255D01*
X132995853Y-104706266D01*
X132999414Y-104701034D01*
X133024864Y-104667475D01*
X133030973Y-104651982D01*
X133040376Y-104633051D01*
X133049026Y-104618828D01*
X133060388Y-104578270D01*
X133062403Y-104572279D01*
X133077859Y-104533089D01*
X133079561Y-104516522D01*
X133083506Y-104495764D01*
X133088000Y-104479728D01*
X133088000Y-104437619D01*
X133088325Y-104431275D01*
X133092631Y-104389390D01*
X133089803Y-104372986D01*
X133088000Y-104351919D01*
X133088000Y-102532927D01*
X133107685Y-102465888D01*
X133124319Y-102445246D01*
X134414563Y-101155002D01*
X139419723Y-101155002D01*
X139420431Y-101163092D01*
X139434431Y-101323123D01*
X139438793Y-101372975D01*
X139438793Y-101372979D01*
X139495422Y-101584322D01*
X139495424Y-101584326D01*
X139495425Y-101584330D01*
X139531586Y-101661877D01*
X139587897Y-101782638D01*
X139587898Y-101782639D01*
X139713402Y-101961877D01*
X139868123Y-102116598D01*
X140047361Y-102242102D01*
X140245670Y-102334575D01*
X140457023Y-102391207D01*
X140639926Y-102407208D01*
X140674998Y-102410277D01*
X140675000Y-102410277D01*
X140675002Y-102410277D01*
X140703254Y-102407805D01*
X140892977Y-102391207D01*
X141104330Y-102334575D01*
X141302639Y-102242102D01*
X141481877Y-102116598D01*
X141636598Y-101961877D01*
X141762102Y-101782639D01*
X141854575Y-101584330D01*
X141911207Y-101372977D01*
X141929569Y-101163092D01*
X141930277Y-101155002D01*
X141930277Y-101154997D01*
X141923101Y-101072975D01*
X141911207Y-100937023D01*
X141854575Y-100725670D01*
X141762102Y-100527362D01*
X141762100Y-100527359D01*
X141762099Y-100527357D01*
X141636599Y-100348124D01*
X141578105Y-100289630D01*
X141481877Y-100193402D01*
X141335733Y-100091071D01*
X141292112Y-100036497D01*
X141284919Y-99966998D01*
X141316441Y-99904644D01*
X141376671Y-99869230D01*
X141406859Y-99865499D01*
X141556518Y-99865499D01*
X141650304Y-99850646D01*
X141763342Y-99793050D01*
X141853050Y-99703342D01*
X141910646Y-99590304D01*
X141910646Y-99590302D01*
X141910647Y-99590301D01*
X141925499Y-99496524D01*
X141925500Y-99496519D01*
X141925499Y-97733482D01*
X141910646Y-97639696D01*
X141853050Y-97526658D01*
X141853046Y-97526654D01*
X141853045Y-97526652D01*
X141763347Y-97436954D01*
X141763344Y-97436952D01*
X141763342Y-97436950D01*
X141677013Y-97392963D01*
X141650301Y-97379352D01*
X141556524Y-97364500D01*
X139793482Y-97364500D01*
X139712519Y-97377323D01*
X139699696Y-97379354D01*
X139586658Y-97436950D01*
X139586657Y-97436951D01*
X139586652Y-97436954D01*
X139496954Y-97526652D01*
X139496951Y-97526657D01*
X139496950Y-97526658D01*
X139489529Y-97541223D01*
X139439352Y-97639698D01*
X139424500Y-97733475D01*
X139424500Y-99496517D01*
X139428028Y-99518790D01*
X139439354Y-99590304D01*
X139496950Y-99703342D01*
X139496952Y-99703344D01*
X139496954Y-99703347D01*
X139586652Y-99793045D01*
X139586654Y-99793046D01*
X139586658Y-99793050D01*
X139699694Y-99850645D01*
X139699698Y-99850647D01*
X139793475Y-99865499D01*
X139793481Y-99865500D01*
X139943140Y-99865499D01*
X140010177Y-99885183D01*
X140055932Y-99937987D01*
X140065876Y-100007145D01*
X140036851Y-100070701D01*
X140014262Y-100091074D01*
X139868118Y-100193405D01*
X139713402Y-100348121D01*
X139587900Y-100527357D01*
X139587898Y-100527361D01*
X139507100Y-100700631D01*
X139495516Y-100725476D01*
X139495426Y-100725668D01*
X139495422Y-100725677D01*
X139438793Y-100937020D01*
X139438793Y-100937023D01*
X139437621Y-100950425D01*
X139419723Y-101154997D01*
X139419723Y-101155002D01*
X134414563Y-101155002D01*
X139942746Y-95626819D01*
X140004069Y-95593334D01*
X140030427Y-95590500D01*
X146366969Y-95590500D01*
X146434008Y-95610185D01*
X146479763Y-95662989D01*
X146489707Y-95732147D01*
X146460682Y-95795703D01*
X146454650Y-95802181D01*
X144212181Y-98044650D01*
X144150858Y-98078135D01*
X144081166Y-98073151D01*
X144025233Y-98031279D01*
X144000816Y-97965815D01*
X144000500Y-97956969D01*
X144000500Y-97446416D01*
X144007459Y-97405461D01*
X144060366Y-97254262D01*
X144060369Y-97254249D01*
X144080565Y-97075003D01*
X144080565Y-97074996D01*
X144060369Y-96895750D01*
X144060368Y-96895745D01*
X144012021Y-96757578D01*
X144000789Y-96725478D01*
X143904816Y-96572738D01*
X143777262Y-96445184D01*
X143624523Y-96349211D01*
X143454254Y-96289631D01*
X143454249Y-96289630D01*
X143275004Y-96269435D01*
X143274996Y-96269435D01*
X143095750Y-96289630D01*
X143095745Y-96289631D01*
X142925476Y-96349211D01*
X142772737Y-96445184D01*
X142645184Y-96572737D01*
X142549211Y-96725476D01*
X142489631Y-96895745D01*
X142489630Y-96895750D01*
X142469435Y-97074996D01*
X142469435Y-97075003D01*
X142489630Y-97254249D01*
X142489631Y-97254254D01*
X142549211Y-97424523D01*
X142622539Y-97541223D01*
X142645184Y-97577262D01*
X142772738Y-97704816D01*
X142891473Y-97779422D01*
X142937763Y-97831756D01*
X142949500Y-97884415D01*
X142949500Y-109310663D01*
X142929815Y-109377702D01*
X142913181Y-109398344D01*
X142834770Y-109476755D01*
X142788530Y-109519940D01*
X142766653Y-109555916D01*
X142763080Y-109561165D01*
X142737638Y-109594715D01*
X142737633Y-109594724D01*
X142731525Y-109610212D01*
X142722125Y-109629137D01*
X142713477Y-109643359D01*
X142713474Y-109643365D01*
X142702114Y-109683906D01*
X142700091Y-109689923D01*
X142684641Y-109729104D01*
X142684640Y-109729106D01*
X142682937Y-109745671D01*
X142678991Y-109766434D01*
X142674500Y-109782462D01*
X142674500Y-109824574D01*
X142674175Y-109830918D01*
X142669869Y-109872802D01*
X142669869Y-109872806D01*
X142672697Y-109889206D01*
X142674500Y-109910275D01*
X142674500Y-111661016D01*
X142672340Y-111724250D01*
X142682308Y-111765153D01*
X142683494Y-111771394D01*
X142689228Y-111813109D01*
X142695864Y-111828387D01*
X142702602Y-111848424D01*
X142706542Y-111864593D01*
X142706543Y-111864594D01*
X142727175Y-111901289D01*
X142730000Y-111906977D01*
X142746782Y-111945611D01*
X142757283Y-111958518D01*
X142769183Y-111976001D01*
X142777342Y-111990512D01*
X142807115Y-112020285D01*
X142811372Y-112025002D01*
X142837946Y-112057665D01*
X142851544Y-112067264D01*
X142867715Y-112080885D01*
X144337073Y-113550243D01*
X144380245Y-113596469D01*
X144404973Y-113611506D01*
X144416213Y-113618342D01*
X144421463Y-113621914D01*
X144455025Y-113647365D01*
X144470525Y-113653477D01*
X144489453Y-113662879D01*
X144503672Y-113671526D01*
X144544213Y-113682885D01*
X144550224Y-113684907D01*
X144561226Y-113689245D01*
X144589411Y-113700360D01*
X144594314Y-113700864D01*
X144605975Y-113702063D01*
X144626749Y-113706011D01*
X144637953Y-113709150D01*
X144642772Y-113710500D01*
X144684870Y-113710500D01*
X144691211Y-113710824D01*
X144733110Y-113715132D01*
X144743068Y-113713415D01*
X144749519Y-113712303D01*
X144770587Y-113710500D01*
X149460500Y-113710500D01*
X149527539Y-113730185D01*
X149573294Y-113782989D01*
X149584500Y-113834500D01*
X149584500Y-115476517D01*
X149595292Y-115544657D01*
X149599354Y-115570304D01*
X149656950Y-115683342D01*
X149656952Y-115683344D01*
X149656954Y-115683347D01*
X149746652Y-115773045D01*
X149746654Y-115773046D01*
X149746658Y-115773050D01*
X149859694Y-115830645D01*
X149859698Y-115830647D01*
X149953475Y-115845499D01*
X149953481Y-115845500D01*
X151716518Y-115845499D01*
X151810304Y-115830646D01*
X151923342Y-115773050D01*
X152013050Y-115683342D01*
X152070646Y-115570304D01*
X152070646Y-115570302D01*
X152070647Y-115570301D01*
X152085499Y-115476524D01*
X152085500Y-115476519D01*
X152085499Y-115326859D01*
X152105183Y-115259823D01*
X152157987Y-115214068D01*
X152227145Y-115204124D01*
X152290701Y-115233149D01*
X152311073Y-115255738D01*
X152396172Y-115377270D01*
X152413402Y-115401877D01*
X152568123Y-115556598D01*
X152747361Y-115682102D01*
X152945670Y-115774575D01*
X153157023Y-115831207D01*
X153339926Y-115847208D01*
X153374998Y-115850277D01*
X153375000Y-115850277D01*
X153375002Y-115850277D01*
X153403254Y-115847805D01*
X153592977Y-115831207D01*
X153804330Y-115774575D01*
X154002639Y-115682102D01*
X154181877Y-115556598D01*
X154336598Y-115401877D01*
X154462102Y-115222639D01*
X154477726Y-115189132D01*
X154523896Y-115136695D01*
X154591090Y-115117543D01*
X154657971Y-115137758D01*
X154702489Y-115189134D01*
X154741399Y-115272578D01*
X154876894Y-115466082D01*
X155043917Y-115633105D01*
X155237421Y-115768600D01*
X155451507Y-115868429D01*
X155451516Y-115868433D01*
X155665000Y-115925634D01*
X155665000Y-115030501D01*
X155772685Y-115079680D01*
X155879237Y-115095000D01*
X155950763Y-115095000D01*
X156057315Y-115079680D01*
X156165000Y-115030501D01*
X156165000Y-115925633D01*
X156378483Y-115868433D01*
X156378492Y-115868429D01*
X156592578Y-115768600D01*
X156786082Y-115633105D01*
X156953105Y-115466082D01*
X157088600Y-115272578D01*
X157188429Y-115058492D01*
X157188432Y-115058486D01*
X157245636Y-114845000D01*
X156348686Y-114845000D01*
X156374493Y-114804844D01*
X156415000Y-114666889D01*
X156415000Y-114523111D01*
X156374493Y-114385156D01*
X156348686Y-114345000D01*
X157245636Y-114345000D01*
X157245635Y-114344999D01*
X157188432Y-114131513D01*
X157188429Y-114131507D01*
X157088600Y-113917422D01*
X157088599Y-113917420D01*
X156953113Y-113723926D01*
X156953108Y-113723920D01*
X156786082Y-113556894D01*
X156592578Y-113421399D01*
X156378492Y-113321570D01*
X156378486Y-113321567D01*
X156165000Y-113264364D01*
X156165000Y-114159498D01*
X156057315Y-114110320D01*
X155950763Y-114095000D01*
X155879237Y-114095000D01*
X155772685Y-114110320D01*
X155665000Y-114159498D01*
X155665000Y-113264364D01*
X155664999Y-113264364D01*
X155451513Y-113321567D01*
X155451507Y-113321570D01*
X155237422Y-113421399D01*
X155237420Y-113421400D01*
X155043926Y-113556886D01*
X155043920Y-113556891D01*
X154876891Y-113723920D01*
X154876886Y-113723926D01*
X154741400Y-113917420D01*
X154741399Y-113917422D01*
X154702489Y-114000866D01*
X154656317Y-114053305D01*
X154589123Y-114072457D01*
X154522242Y-114052241D01*
X154477725Y-114000866D01*
X154462102Y-113967362D01*
X154462100Y-113967359D01*
X154462099Y-113967357D01*
X154336599Y-113788124D01*
X154259300Y-113710825D01*
X154181877Y-113633402D01*
X154002639Y-113507898D01*
X154002640Y-113507898D01*
X154002638Y-113507897D01*
X153903484Y-113461661D01*
X153804330Y-113415425D01*
X153804326Y-113415424D01*
X153804322Y-113415422D01*
X153592977Y-113358793D01*
X153375002Y-113339723D01*
X153374998Y-113339723D01*
X153229682Y-113352436D01*
X153157023Y-113358793D01*
X153157020Y-113358793D01*
X153009240Y-113398391D01*
X152939390Y-113396728D01*
X152889466Y-113366297D01*
X152342941Y-112819772D01*
X152341680Y-112818422D01*
X152299755Y-112773531D01*
X152263775Y-112751651D01*
X152258529Y-112748081D01*
X152243462Y-112736655D01*
X152224976Y-112722636D01*
X152216406Y-112719256D01*
X152209485Y-112716527D01*
X152190553Y-112707124D01*
X152176329Y-112698474D01*
X152135785Y-112687113D01*
X152129766Y-112685089D01*
X152096025Y-112671784D01*
X152090589Y-112669641D01*
X152090585Y-112669640D01*
X152090583Y-112669640D01*
X152074022Y-112667937D01*
X152053255Y-112663990D01*
X152037231Y-112659500D01*
X152037228Y-112659500D01*
X151995120Y-112659500D01*
X151988778Y-112659175D01*
X151970853Y-112657332D01*
X151946892Y-112654869D01*
X151946888Y-112654869D01*
X151937576Y-112656474D01*
X151930485Y-112657697D01*
X151909420Y-112659500D01*
X144984031Y-112659500D01*
X144916992Y-112639815D01*
X144896350Y-112623181D01*
X143761819Y-111488650D01*
X143728334Y-111427327D01*
X143725500Y-111400969D01*
X143725500Y-111076842D01*
X143745185Y-111009803D01*
X143797989Y-110964048D01*
X143863382Y-110953622D01*
X143916675Y-110959627D01*
X143924999Y-110960565D01*
X143925000Y-110960565D01*
X143925004Y-110960565D01*
X144104249Y-110940369D01*
X144104252Y-110940368D01*
X144104255Y-110940368D01*
X144274522Y-110880789D01*
X144427262Y-110784816D01*
X144554816Y-110657262D01*
X144650789Y-110504522D01*
X144710368Y-110334255D01*
X144710369Y-110334249D01*
X144730565Y-110155003D01*
X144730565Y-110154996D01*
X144710369Y-109975750D01*
X144710368Y-109975745D01*
X144652715Y-109810982D01*
X144650789Y-109805478D01*
X144554816Y-109652738D01*
X144486819Y-109584741D01*
X144453334Y-109523418D01*
X144450500Y-109497060D01*
X144450500Y-101075003D01*
X162669435Y-101075003D01*
X162689630Y-101254249D01*
X162689631Y-101254254D01*
X162749211Y-101424523D01*
X162798121Y-101502362D01*
X162845184Y-101577262D01*
X162972738Y-101704816D01*
X163125478Y-101800789D01*
X163170658Y-101816598D01*
X163295745Y-101860368D01*
X163295750Y-101860369D01*
X163474996Y-101880565D01*
X163475000Y-101880565D01*
X163475004Y-101880565D01*
X163654249Y-101860369D01*
X163654252Y-101860368D01*
X163654255Y-101860368D01*
X163824522Y-101800789D01*
X163977262Y-101704816D01*
X164104816Y-101577262D01*
X164200789Y-101424522D01*
X164260368Y-101254255D01*
X164264602Y-101216677D01*
X164280565Y-101075003D01*
X164280565Y-101074996D01*
X164260369Y-100895750D01*
X164260368Y-100895745D01*
X164202608Y-100730677D01*
X164200789Y-100725478D01*
X164104816Y-100572738D01*
X163977262Y-100445184D01*
X163946206Y-100425670D01*
X163824523Y-100349211D01*
X163654254Y-100289631D01*
X163654249Y-100289630D01*
X163475004Y-100269435D01*
X163474996Y-100269435D01*
X163295750Y-100289630D01*
X163295745Y-100289631D01*
X163125476Y-100349211D01*
X162972737Y-100445184D01*
X162845184Y-100572737D01*
X162749211Y-100725476D01*
X162689631Y-100895745D01*
X162689630Y-100895750D01*
X162669435Y-101074996D01*
X162669435Y-101075003D01*
X144450500Y-101075003D01*
X144450500Y-99344031D01*
X144470185Y-99276992D01*
X144486819Y-99256350D01*
X144668166Y-99075003D01*
X162669435Y-99075003D01*
X162689630Y-99254249D01*
X162689631Y-99254254D01*
X162749211Y-99424523D01*
X162840795Y-99570277D01*
X162845184Y-99577262D01*
X162972738Y-99704816D01*
X163013735Y-99730576D01*
X163113153Y-99793045D01*
X163125478Y-99800789D01*
X163237537Y-99840000D01*
X163295745Y-99860368D01*
X163295750Y-99860369D01*
X163474996Y-99880565D01*
X163475000Y-99880565D01*
X163475004Y-99880565D01*
X163654249Y-99860369D01*
X163654252Y-99860368D01*
X163654255Y-99860368D01*
X163824522Y-99800789D01*
X163977262Y-99704816D01*
X164104816Y-99577262D01*
X164200789Y-99424522D01*
X164260368Y-99254255D01*
X164260369Y-99254249D01*
X164280565Y-99075003D01*
X164280565Y-99074996D01*
X164260369Y-98895750D01*
X164260368Y-98895745D01*
X164230786Y-98811204D01*
X164200789Y-98725478D01*
X164196668Y-98718920D01*
X164116973Y-98592086D01*
X164104816Y-98572738D01*
X163977262Y-98445184D01*
X163824523Y-98349211D01*
X163654254Y-98289631D01*
X163654249Y-98289630D01*
X163475004Y-98269435D01*
X163474996Y-98269435D01*
X163295750Y-98289630D01*
X163295745Y-98289631D01*
X163125476Y-98349211D01*
X162972737Y-98445184D01*
X162845184Y-98572737D01*
X162749211Y-98725476D01*
X162689631Y-98895745D01*
X162689630Y-98895750D01*
X162669435Y-99074996D01*
X162669435Y-99075003D01*
X144668166Y-99075003D01*
X147666350Y-96076819D01*
X147727673Y-96043334D01*
X147754031Y-96040500D01*
X162245968Y-96040500D01*
X162313007Y-96060185D01*
X162333649Y-96076819D01*
X162563713Y-96306883D01*
X162769234Y-96512403D01*
X162802719Y-96573726D01*
X162797735Y-96643417D01*
X162786548Y-96666054D01*
X162749209Y-96725480D01*
X162689633Y-96895737D01*
X162689630Y-96895750D01*
X162669435Y-97074996D01*
X162669435Y-97075003D01*
X162689630Y-97254249D01*
X162689631Y-97254254D01*
X162749211Y-97424523D01*
X162822539Y-97541223D01*
X162845184Y-97577262D01*
X162972738Y-97704816D01*
X163018358Y-97733481D01*
X163086653Y-97776394D01*
X163125478Y-97800789D01*
X163213977Y-97831756D01*
X163295745Y-97860368D01*
X163295750Y-97860369D01*
X163474996Y-97880565D01*
X163475000Y-97880565D01*
X163475004Y-97880565D01*
X163654249Y-97860369D01*
X163654252Y-97860368D01*
X163654255Y-97860368D01*
X163824522Y-97800789D01*
X163977262Y-97704816D01*
X164104816Y-97577262D01*
X164200789Y-97424522D01*
X164260368Y-97254255D01*
X164260442Y-97253598D01*
X164280565Y-97075003D01*
X164280565Y-97074996D01*
X164260369Y-96895750D01*
X164260368Y-96895745D01*
X164212021Y-96757578D01*
X164200789Y-96725478D01*
X164104816Y-96572738D01*
X164039099Y-96507021D01*
X164005614Y-96445698D01*
X164004119Y-96429132D01*
X164003527Y-96429193D01*
X164002659Y-96420759D01*
X164002660Y-96420755D01*
X163992691Y-96379848D01*
X163991506Y-96373618D01*
X163985771Y-96331889D01*
X163979137Y-96316616D01*
X163972397Y-96296574D01*
X163968457Y-96280407D01*
X163968455Y-96280403D01*
X163947822Y-96243706D01*
X163944996Y-96238017D01*
X163939647Y-96225703D01*
X163928219Y-96199391D01*
X163917713Y-96186477D01*
X163905812Y-96168990D01*
X163897660Y-96154491D01*
X163897658Y-96154488D01*
X163867882Y-96124712D01*
X163863626Y-96119996D01*
X163859609Y-96115059D01*
X163837054Y-96087335D01*
X163837050Y-96087332D01*
X163837045Y-96087328D01*
X163823453Y-96077733D01*
X163807281Y-96064111D01*
X163756228Y-96013058D01*
X163722743Y-95951735D01*
X163727727Y-95882043D01*
X163769599Y-95826110D01*
X163802954Y-95808335D01*
X163824522Y-95800789D01*
X163977262Y-95704816D01*
X164104816Y-95577262D01*
X164200789Y-95424522D01*
X164260368Y-95254255D01*
X164260369Y-95254249D01*
X164280565Y-95075003D01*
X164280565Y-95074996D01*
X164260369Y-94895750D01*
X164260368Y-94895745D01*
X164218344Y-94775647D01*
X164200789Y-94725478D01*
X164196120Y-94718048D01*
X164104815Y-94572737D01*
X163977262Y-94445184D01*
X163824521Y-94349210D01*
X163743691Y-94320927D01*
X163686915Y-94280205D01*
X163661167Y-94215253D01*
X163674623Y-94146691D01*
X163696958Y-94116210D01*
X163840243Y-93972926D01*
X163886469Y-93929755D01*
X163908352Y-93893767D01*
X163911909Y-93888542D01*
X163937365Y-93854975D01*
X163943472Y-93839485D01*
X163952877Y-93820549D01*
X163961526Y-93806328D01*
X163972889Y-93765767D01*
X163974907Y-93759770D01*
X163976798Y-93754975D01*
X163990359Y-93720589D01*
X163990359Y-93720580D01*
X163991433Y-93716179D01*
X164024226Y-93657850D01*
X164104816Y-93577262D01*
X164200789Y-93424522D01*
X164260368Y-93254255D01*
X164264508Y-93217512D01*
X164280565Y-93075003D01*
X164280565Y-93074996D01*
X164260369Y-92895750D01*
X164260368Y-92895745D01*
X164200788Y-92725476D01*
X164104815Y-92572737D01*
X163977262Y-92445184D01*
X163824523Y-92349211D01*
X163654254Y-92289631D01*
X163654249Y-92289630D01*
X163475004Y-92269435D01*
X163474996Y-92269435D01*
X163295750Y-92289630D01*
X163295745Y-92289631D01*
X163125476Y-92349211D01*
X162972737Y-92445184D01*
X162845184Y-92572737D01*
X162749211Y-92725476D01*
X162689631Y-92895745D01*
X162689630Y-92895750D01*
X162669435Y-93074996D01*
X162669435Y-93075003D01*
X162689630Y-93254249D01*
X162689633Y-93254262D01*
X162749209Y-93424518D01*
X162749210Y-93424520D01*
X162749211Y-93424522D01*
X162749212Y-93424523D01*
X162755677Y-93434812D01*
X162774677Y-93502049D01*
X162754309Y-93568884D01*
X162738364Y-93588465D01*
X162273650Y-94053181D01*
X162212327Y-94086666D01*
X162185969Y-94089500D01*
X143723031Y-94089500D01*
X143655992Y-94069815D01*
X143610237Y-94017011D01*
X143600293Y-93947853D01*
X143629318Y-93884297D01*
X143635350Y-93877819D01*
X143640228Y-93872940D01*
X143686467Y-93829757D01*
X143686467Y-93829756D01*
X143686469Y-93829755D01*
X143708353Y-93793766D01*
X143711914Y-93788534D01*
X143737364Y-93754975D01*
X143743473Y-93739482D01*
X143752876Y-93720551D01*
X143761526Y-93706328D01*
X143772888Y-93665770D01*
X143774903Y-93659779D01*
X143790359Y-93620589D01*
X143792061Y-93604022D01*
X143796006Y-93583264D01*
X143800500Y-93567228D01*
X143800500Y-93525119D01*
X143800825Y-93518775D01*
X143800849Y-93518542D01*
X143805131Y-93476890D01*
X143802303Y-93460486D01*
X143800500Y-93439419D01*
X143800500Y-89732940D01*
X143820185Y-89665901D01*
X143836819Y-89645259D01*
X143866236Y-89615842D01*
X143904816Y-89577262D01*
X144000789Y-89424522D01*
X144060368Y-89254255D01*
X144080565Y-89075000D01*
X144060368Y-88895745D01*
X144000789Y-88725478D01*
X143972980Y-88681221D01*
X143955942Y-88654104D01*
X143904816Y-88572738D01*
X143777262Y-88445184D01*
X143708144Y-88401754D01*
X143624523Y-88349211D01*
X143454254Y-88289631D01*
X143454249Y-88289630D01*
X143275004Y-88269435D01*
X143274996Y-88269435D01*
X143095750Y-88289630D01*
X143095745Y-88289631D01*
X142925476Y-88349211D01*
X142772737Y-88445184D01*
X142645184Y-88572737D01*
X142549211Y-88725476D01*
X142489631Y-88895745D01*
X142489630Y-88895750D01*
X142469435Y-89074996D01*
X142469435Y-89075003D01*
X142489630Y-89254249D01*
X142489631Y-89254254D01*
X142549211Y-89424523D01*
X142645184Y-89577262D01*
X142713181Y-89645259D01*
X142746666Y-89706582D01*
X142749500Y-89732940D01*
X142749500Y-93225969D01*
X142729815Y-93293008D01*
X142713181Y-93313650D01*
X142423650Y-93603181D01*
X142362327Y-93636666D01*
X142335969Y-93639500D01*
X139397588Y-93639500D01*
X139334359Y-93637340D01*
X139334358Y-93637340D01*
X139334356Y-93637340D01*
X139293452Y-93647308D01*
X139287214Y-93648493D01*
X139245491Y-93654229D01*
X139230215Y-93660864D01*
X139210189Y-93667599D01*
X139194011Y-93671542D01*
X139194008Y-93671544D01*
X139157314Y-93692175D01*
X139151627Y-93694999D01*
X139112999Y-93711778D01*
X139112995Y-93711780D01*
X139100075Y-93722292D01*
X139082595Y-93734188D01*
X139068094Y-93742341D01*
X139068089Y-93742344D01*
X139038319Y-93772113D01*
X139033606Y-93776367D01*
X139000939Y-93802945D01*
X138991332Y-93816554D01*
X138977713Y-93832720D01*
X137877254Y-94933181D01*
X137815931Y-94966666D01*
X137789573Y-94969500D01*
X129763984Y-94969500D01*
X129700755Y-94967340D01*
X129700754Y-94967340D01*
X129700752Y-94967340D01*
X129659848Y-94977308D01*
X129653610Y-94978493D01*
X129611887Y-94984229D01*
X129596611Y-94990864D01*
X129576585Y-94997599D01*
X129560407Y-95001542D01*
X129560404Y-95001544D01*
X129523710Y-95022175D01*
X129518023Y-95024999D01*
X129479395Y-95041778D01*
X129479391Y-95041780D01*
X129466471Y-95052292D01*
X129448991Y-95064188D01*
X129434490Y-95072341D01*
X129434485Y-95072344D01*
X129404715Y-95102113D01*
X129400002Y-95106367D01*
X129367335Y-95132945D01*
X129357728Y-95146554D01*
X129344109Y-95162720D01*
X128837181Y-95669649D01*
X128775858Y-95703134D01*
X128706167Y-95698150D01*
X128650233Y-95656279D01*
X128625816Y-95590814D01*
X128625500Y-95581968D01*
X128625500Y-93246951D01*
X128645185Y-93179912D01*
X128697989Y-93134157D01*
X128767147Y-93124213D01*
X128830703Y-93153238D01*
X128850626Y-93175191D01*
X128947112Y-93311176D01*
X129179161Y-93570839D01*
X129438824Y-93802888D01*
X129722836Y-94004405D01*
X130027624Y-94172855D01*
X130349356Y-94306121D01*
X130683987Y-94402527D01*
X131027307Y-94460859D01*
X131375000Y-94480385D01*
X131722693Y-94460859D01*
X132066013Y-94402527D01*
X132400644Y-94306121D01*
X132722376Y-94172855D01*
X133027164Y-94004405D01*
X133311176Y-93802888D01*
X133570839Y-93570839D01*
X133802888Y-93311176D01*
X134004405Y-93027164D01*
X134172855Y-92722376D01*
X134306121Y-92400644D01*
X134402527Y-92066013D01*
X134460859Y-91722693D01*
X134480385Y-91375000D01*
X134460859Y-91027307D01*
X134402527Y-90683987D01*
X134306121Y-90349356D01*
X134172855Y-90027624D01*
X134004405Y-89722836D01*
X133802888Y-89438824D01*
X133570839Y-89179161D01*
X133311176Y-88947112D01*
X133027164Y-88745595D01*
X132722376Y-88577145D01*
X132711734Y-88572737D01*
X132655741Y-88549544D01*
X132400644Y-88443879D01*
X132072046Y-88349211D01*
X132066017Y-88347474D01*
X132066009Y-88347472D01*
X131722700Y-88289142D01*
X131722688Y-88289140D01*
X131375000Y-88269615D01*
X131027311Y-88289140D01*
X131027299Y-88289142D01*
X130683990Y-88347472D01*
X130683982Y-88347474D01*
X130349359Y-88443878D01*
X130349356Y-88443879D01*
X130259941Y-88480916D01*
X130027625Y-88577144D01*
X129722835Y-88745595D01*
X129521318Y-88888579D01*
X129438824Y-88947112D01*
X129179161Y-89179161D01*
X128947112Y-89438824D01*
X128880655Y-89532487D01*
X128850630Y-89574803D01*
X128795782Y-89618087D01*
X128726240Y-89624847D01*
X128664083Y-89592936D01*
X128629045Y-89532487D01*
X128625500Y-89503048D01*
X128625500Y-83749500D01*
X128645185Y-83682461D01*
X128697989Y-83636706D01*
X128749500Y-83625500D01*
X130251000Y-83625500D01*
X130318039Y-83645185D01*
G37*
%TD.AperFunction*%
%TA.AperFunction,Conductor*%
G36*
X167449111Y-89345185D02*
G01*
X167469753Y-89361819D01*
X168800681Y-90692746D01*
X168834166Y-90754069D01*
X168837000Y-90780427D01*
X168837000Y-107005969D01*
X168817315Y-107073008D01*
X168800681Y-107093650D01*
X168541150Y-107353181D01*
X168479827Y-107386666D01*
X168453469Y-107389500D01*
X166993337Y-107389500D01*
X166926298Y-107369815D01*
X166880543Y-107317011D01*
X166870599Y-107247853D01*
X166899624Y-107184297D01*
X166905656Y-107177819D01*
X166958657Y-107124818D01*
X167036598Y-107046877D01*
X167162102Y-106867639D01*
X167254575Y-106669330D01*
X167311207Y-106457977D01*
X167330277Y-106240000D01*
X167311207Y-106022023D01*
X167254575Y-105810670D01*
X167162102Y-105612362D01*
X167162100Y-105612359D01*
X167162099Y-105612357D01*
X167036599Y-105433124D01*
X167036596Y-105433121D01*
X166881877Y-105278402D01*
X166702639Y-105152898D01*
X166551414Y-105082381D01*
X166498977Y-105036210D01*
X166479825Y-104969016D01*
X166500041Y-104902135D01*
X166551414Y-104857618D01*
X166702639Y-104787102D01*
X166881877Y-104661598D01*
X167036598Y-104506877D01*
X167162102Y-104327639D01*
X167254575Y-104129330D01*
X167311207Y-103917977D01*
X167330277Y-103700000D01*
X167311207Y-103482023D01*
X167254575Y-103270670D01*
X167162102Y-103072362D01*
X167162100Y-103072359D01*
X167162099Y-103072357D01*
X167036599Y-102893124D01*
X167036596Y-102893121D01*
X166881877Y-102738402D01*
X166702639Y-102612898D01*
X166551414Y-102542381D01*
X166498977Y-102496210D01*
X166479825Y-102429016D01*
X166500041Y-102362135D01*
X166551414Y-102317618D01*
X166702639Y-102247102D01*
X166881877Y-102121598D01*
X167036598Y-101966877D01*
X167162102Y-101787639D01*
X167254575Y-101589330D01*
X167311207Y-101377977D01*
X167329542Y-101168402D01*
X167330277Y-101160002D01*
X167330277Y-101159997D01*
X167322841Y-101075003D01*
X167311207Y-100942023D01*
X167254575Y-100730670D01*
X167162102Y-100532362D01*
X167162100Y-100532359D01*
X167162099Y-100532357D01*
X167036599Y-100353124D01*
X166973105Y-100289630D01*
X166881877Y-100198402D01*
X166702639Y-100072898D01*
X166551414Y-100002381D01*
X166498977Y-99956210D01*
X166479825Y-99889016D01*
X166500041Y-99822135D01*
X166551414Y-99777618D01*
X166702639Y-99707102D01*
X166881877Y-99581598D01*
X167036598Y-99426877D01*
X167162102Y-99247639D01*
X167254575Y-99049330D01*
X167311207Y-98837977D01*
X167330277Y-98620000D01*
X167311207Y-98402023D01*
X167254575Y-98190670D01*
X167162102Y-97992362D01*
X167162100Y-97992359D01*
X167162099Y-97992357D01*
X167036599Y-97813124D01*
X166993628Y-97770153D01*
X166881877Y-97658402D01*
X166702639Y-97532898D01*
X166702633Y-97532895D01*
X166669133Y-97517273D01*
X166616694Y-97471100D01*
X166597543Y-97403907D01*
X166617760Y-97337026D01*
X166669135Y-97292509D01*
X166752580Y-97253598D01*
X166946082Y-97118105D01*
X167113105Y-96951082D01*
X167248600Y-96757578D01*
X167348429Y-96543492D01*
X167348432Y-96543486D01*
X167405636Y-96330000D01*
X166508686Y-96330000D01*
X166534493Y-96289844D01*
X166575000Y-96151889D01*
X166575000Y-96008111D01*
X166534493Y-95870156D01*
X166508686Y-95830000D01*
X167405636Y-95830000D01*
X167405635Y-95829999D01*
X167348432Y-95616513D01*
X167348429Y-95616507D01*
X167248600Y-95402422D01*
X167248599Y-95402420D01*
X167113113Y-95208926D01*
X167113108Y-95208920D01*
X166946080Y-95041892D01*
X166906614Y-95014257D01*
X166862990Y-94959679D01*
X166855798Y-94890181D01*
X166887321Y-94827826D01*
X166947552Y-94792414D01*
X166958321Y-94790213D01*
X167050304Y-94775646D01*
X167163342Y-94718050D01*
X167253050Y-94628342D01*
X167310646Y-94515304D01*
X167310646Y-94515302D01*
X167310647Y-94515301D01*
X167325499Y-94421524D01*
X167325500Y-94421519D01*
X167325499Y-92658482D01*
X167310646Y-92564696D01*
X167253050Y-92451658D01*
X167253046Y-92451654D01*
X167253045Y-92451652D01*
X167163347Y-92361954D01*
X167163344Y-92361952D01*
X167163342Y-92361950D01*
X167086517Y-92322805D01*
X167050301Y-92304352D01*
X166956524Y-92289500D01*
X166956519Y-92289500D01*
X166724500Y-92289500D01*
X166657461Y-92269815D01*
X166611706Y-92217011D01*
X166600500Y-92165500D01*
X166600500Y-90732940D01*
X166620185Y-90665901D01*
X166636819Y-90645259D01*
X166661469Y-90620609D01*
X166704816Y-90577262D01*
X166800789Y-90424522D01*
X166860368Y-90254255D01*
X166860369Y-90254249D01*
X166880565Y-90075003D01*
X166880565Y-90074996D01*
X166860369Y-89895750D01*
X166860368Y-89895745D01*
X166800788Y-89725476D01*
X166731900Y-89615842D01*
X166704816Y-89572738D01*
X166669259Y-89537181D01*
X166635774Y-89475858D01*
X166640758Y-89406166D01*
X166682630Y-89350233D01*
X166748094Y-89325816D01*
X166756940Y-89325500D01*
X167382072Y-89325500D01*
X167449111Y-89345185D01*
G37*
%TD.AperFunction*%
%TA.AperFunction,Conductor*%
G36*
X137194007Y-96040185D02*
G01*
X137239762Y-96092989D01*
X137249706Y-96162147D01*
X137220681Y-96225703D01*
X137214649Y-96232181D01*
X132312237Y-101134591D01*
X132250914Y-101168076D01*
X132181222Y-101163092D01*
X132153434Y-101148486D01*
X132002639Y-101042898D01*
X132002633Y-101042895D01*
X131969133Y-101027273D01*
X131916694Y-100981100D01*
X131897543Y-100913907D01*
X131917760Y-100847026D01*
X131969135Y-100802509D01*
X132052580Y-100763598D01*
X132246082Y-100628105D01*
X132413105Y-100461082D01*
X132548600Y-100267578D01*
X132648429Y-100053492D01*
X132648432Y-100053486D01*
X132705636Y-99840000D01*
X131808686Y-99840000D01*
X131834493Y-99799844D01*
X131875000Y-99661889D01*
X131875000Y-99518111D01*
X131834493Y-99380156D01*
X131808686Y-99340000D01*
X132705636Y-99340000D01*
X132705635Y-99339999D01*
X132648432Y-99126513D01*
X132648429Y-99126507D01*
X132548600Y-98912422D01*
X132548599Y-98912420D01*
X132413113Y-98718926D01*
X132413108Y-98718920D01*
X132246080Y-98551892D01*
X132206614Y-98524257D01*
X132162990Y-98469679D01*
X132155798Y-98400181D01*
X132187321Y-98337826D01*
X132247552Y-98302414D01*
X132258321Y-98300213D01*
X132350304Y-98285646D01*
X132463342Y-98228050D01*
X132553050Y-98138342D01*
X132610646Y-98025304D01*
X132610646Y-98025302D01*
X132610647Y-98025301D01*
X132624375Y-97938620D01*
X132625500Y-97931519D01*
X132625499Y-96168482D01*
X132625499Y-96168481D01*
X132625499Y-96168478D01*
X132624773Y-96163894D01*
X132633730Y-96094600D01*
X132678728Y-96041150D01*
X132745481Y-96020513D01*
X132747247Y-96020500D01*
X137126968Y-96020500D01*
X137194007Y-96040185D01*
G37*
%TD.AperFunction*%
%TD*%
M02*
