%TF.GenerationSoftware,KiCad,Pcbnew,7.0.8*%
%TF.CreationDate,2023-12-05T19:13:38+00:00*%
%TF.ProjectId,multisensor,6d756c74-6973-4656-9e73-6f722e6b6963,rev?*%
%TF.SameCoordinates,Original*%
%TF.FileFunction,Legend,Top*%
%TF.FilePolarity,Positive*%
%FSLAX46Y46*%
G04 Gerber Fmt 4.6, Leading zero omitted, Abs format (unit mm)*
G04 Created by KiCad (PCBNEW 7.0.8) date 2023-12-05 19:13:38*
%MOMM*%
%LPD*%
G01*
G04 APERTURE LIST*
%ADD10C,0.125000*%
%ADD11C,0.150000*%
%ADD12C,0.120000*%
%ADD13C,0.127000*%
%ADD14C,0.200000*%
G04 APERTURE END LIST*
D10*
X132671815Y-100224788D02*
X132633720Y-100300978D01*
X132633720Y-100300978D02*
X132633720Y-100415264D01*
X132633720Y-100415264D02*
X132671815Y-100529550D01*
X132671815Y-100529550D02*
X132748005Y-100605740D01*
X132748005Y-100605740D02*
X132824196Y-100643835D01*
X132824196Y-100643835D02*
X132976577Y-100681931D01*
X132976577Y-100681931D02*
X133090863Y-100681931D01*
X133090863Y-100681931D02*
X133243244Y-100643835D01*
X133243244Y-100643835D02*
X133319434Y-100605740D01*
X133319434Y-100605740D02*
X133395625Y-100529550D01*
X133395625Y-100529550D02*
X133433720Y-100415264D01*
X133433720Y-100415264D02*
X133433720Y-100339073D01*
X133433720Y-100339073D02*
X133395625Y-100224788D01*
X133395625Y-100224788D02*
X133357529Y-100186692D01*
X133357529Y-100186692D02*
X133090863Y-100186692D01*
X133090863Y-100186692D02*
X133090863Y-100339073D01*
X133433720Y-99843835D02*
X132633720Y-99843835D01*
X132633720Y-99843835D02*
X133433720Y-99386692D01*
X133433720Y-99386692D02*
X132633720Y-99386692D01*
X133433720Y-99005740D02*
X132633720Y-99005740D01*
X132633720Y-99005740D02*
X132633720Y-98815264D01*
X132633720Y-98815264D02*
X132671815Y-98700978D01*
X132671815Y-98700978D02*
X132748005Y-98624788D01*
X132748005Y-98624788D02*
X132824196Y-98586693D01*
X132824196Y-98586693D02*
X132976577Y-98548597D01*
X132976577Y-98548597D02*
X133090863Y-98548597D01*
X133090863Y-98548597D02*
X133243244Y-98586693D01*
X133243244Y-98586693D02*
X133319434Y-98624788D01*
X133319434Y-98624788D02*
X133395625Y-98700978D01*
X133395625Y-98700978D02*
X133433720Y-98815264D01*
X133433720Y-98815264D02*
X133433720Y-99005740D01*
X154041429Y-113026095D02*
X154041429Y-112226095D01*
X154041429Y-112226095D02*
X154498572Y-113026095D01*
X154498572Y-113026095D02*
X154498572Y-112226095D01*
X155336667Y-112949904D02*
X155298571Y-112988000D01*
X155298571Y-112988000D02*
X155184286Y-113026095D01*
X155184286Y-113026095D02*
X155108095Y-113026095D01*
X155108095Y-113026095D02*
X154993809Y-112988000D01*
X154993809Y-112988000D02*
X154917619Y-112911809D01*
X154917619Y-112911809D02*
X154879524Y-112835619D01*
X154879524Y-112835619D02*
X154841428Y-112683238D01*
X154841428Y-112683238D02*
X154841428Y-112568952D01*
X154841428Y-112568952D02*
X154879524Y-112416571D01*
X154879524Y-112416571D02*
X154917619Y-112340380D01*
X154917619Y-112340380D02*
X154993809Y-112264190D01*
X154993809Y-112264190D02*
X155108095Y-112226095D01*
X155108095Y-112226095D02*
X155184286Y-112226095D01*
X155184286Y-112226095D02*
X155298571Y-112264190D01*
X155298571Y-112264190D02*
X155336667Y-112302285D01*
X133395625Y-105666693D02*
X133433720Y-105552407D01*
X133433720Y-105552407D02*
X133433720Y-105361931D01*
X133433720Y-105361931D02*
X133395625Y-105285740D01*
X133395625Y-105285740D02*
X133357529Y-105247645D01*
X133357529Y-105247645D02*
X133281339Y-105209550D01*
X133281339Y-105209550D02*
X133205148Y-105209550D01*
X133205148Y-105209550D02*
X133128958Y-105247645D01*
X133128958Y-105247645D02*
X133090863Y-105285740D01*
X133090863Y-105285740D02*
X133052767Y-105361931D01*
X133052767Y-105361931D02*
X133014672Y-105514312D01*
X133014672Y-105514312D02*
X132976577Y-105590502D01*
X132976577Y-105590502D02*
X132938482Y-105628597D01*
X132938482Y-105628597D02*
X132862291Y-105666693D01*
X132862291Y-105666693D02*
X132786101Y-105666693D01*
X132786101Y-105666693D02*
X132709910Y-105628597D01*
X132709910Y-105628597D02*
X132671815Y-105590502D01*
X132671815Y-105590502D02*
X132633720Y-105514312D01*
X132633720Y-105514312D02*
X132633720Y-105323835D01*
X132633720Y-105323835D02*
X132671815Y-105209550D01*
X133433720Y-104866692D02*
X132633720Y-104866692D01*
X132633720Y-104866692D02*
X132633720Y-104676216D01*
X132633720Y-104676216D02*
X132671815Y-104561930D01*
X132671815Y-104561930D02*
X132748005Y-104485740D01*
X132748005Y-104485740D02*
X132824196Y-104447645D01*
X132824196Y-104447645D02*
X132976577Y-104409549D01*
X132976577Y-104409549D02*
X133090863Y-104409549D01*
X133090863Y-104409549D02*
X133243244Y-104447645D01*
X133243244Y-104447645D02*
X133319434Y-104485740D01*
X133319434Y-104485740D02*
X133395625Y-104561930D01*
X133395625Y-104561930D02*
X133433720Y-104676216D01*
X133433720Y-104676216D02*
X133433720Y-104866692D01*
X133205148Y-104104788D02*
X133205148Y-103723835D01*
X133433720Y-104180978D02*
X132633720Y-103914311D01*
X132633720Y-103914311D02*
X133433720Y-103647645D01*
X173148279Y-97686429D02*
X173948279Y-97686429D01*
X173948279Y-97686429D02*
X173148279Y-98143572D01*
X173148279Y-98143572D02*
X173948279Y-98143572D01*
X173224470Y-98981667D02*
X173186375Y-98943571D01*
X173186375Y-98943571D02*
X173148279Y-98829286D01*
X173148279Y-98829286D02*
X173148279Y-98753095D01*
X173148279Y-98753095D02*
X173186375Y-98638809D01*
X173186375Y-98638809D02*
X173262565Y-98562619D01*
X173262565Y-98562619D02*
X173338755Y-98524524D01*
X173338755Y-98524524D02*
X173491136Y-98486428D01*
X173491136Y-98486428D02*
X173605422Y-98486428D01*
X173605422Y-98486428D02*
X173757803Y-98524524D01*
X173757803Y-98524524D02*
X173833994Y-98562619D01*
X173833994Y-98562619D02*
X173910184Y-98638809D01*
X173910184Y-98638809D02*
X173948279Y-98753095D01*
X173948279Y-98753095D02*
X173948279Y-98829286D01*
X173948279Y-98829286D02*
X173910184Y-98943571D01*
X173910184Y-98943571D02*
X173872089Y-98981667D01*
X133433720Y-107863835D02*
X132633720Y-107863835D01*
X132633720Y-107863835D02*
X133433720Y-107406692D01*
X133433720Y-107406692D02*
X132633720Y-107406692D01*
X133357529Y-106568597D02*
X133395625Y-106606693D01*
X133395625Y-106606693D02*
X133433720Y-106720978D01*
X133433720Y-106720978D02*
X133433720Y-106797169D01*
X133433720Y-106797169D02*
X133395625Y-106911455D01*
X133395625Y-106911455D02*
X133319434Y-106987645D01*
X133319434Y-106987645D02*
X133243244Y-107025740D01*
X133243244Y-107025740D02*
X133090863Y-107063836D01*
X133090863Y-107063836D02*
X132976577Y-107063836D01*
X132976577Y-107063836D02*
X132824196Y-107025740D01*
X132824196Y-107025740D02*
X132748005Y-106987645D01*
X132748005Y-106987645D02*
X132671815Y-106911455D01*
X132671815Y-106911455D02*
X132633720Y-106797169D01*
X132633720Y-106797169D02*
X132633720Y-106720978D01*
X132633720Y-106720978D02*
X132671815Y-106606693D01*
X132671815Y-106606693D02*
X132709910Y-106568597D01*
X133395625Y-103107645D02*
X133433720Y-102993359D01*
X133433720Y-102993359D02*
X133433720Y-102802883D01*
X133433720Y-102802883D02*
X133395625Y-102726692D01*
X133395625Y-102726692D02*
X133357529Y-102688597D01*
X133357529Y-102688597D02*
X133281339Y-102650502D01*
X133281339Y-102650502D02*
X133205148Y-102650502D01*
X133205148Y-102650502D02*
X133128958Y-102688597D01*
X133128958Y-102688597D02*
X133090863Y-102726692D01*
X133090863Y-102726692D02*
X133052767Y-102802883D01*
X133052767Y-102802883D02*
X133014672Y-102955264D01*
X133014672Y-102955264D02*
X132976577Y-103031454D01*
X132976577Y-103031454D02*
X132938482Y-103069549D01*
X132938482Y-103069549D02*
X132862291Y-103107645D01*
X132862291Y-103107645D02*
X132786101Y-103107645D01*
X132786101Y-103107645D02*
X132709910Y-103069549D01*
X132709910Y-103069549D02*
X132671815Y-103031454D01*
X132671815Y-103031454D02*
X132633720Y-102955264D01*
X132633720Y-102955264D02*
X132633720Y-102764787D01*
X132633720Y-102764787D02*
X132671815Y-102650502D01*
X133357529Y-101850501D02*
X133395625Y-101888597D01*
X133395625Y-101888597D02*
X133433720Y-102002882D01*
X133433720Y-102002882D02*
X133433720Y-102079073D01*
X133433720Y-102079073D02*
X133395625Y-102193359D01*
X133395625Y-102193359D02*
X133319434Y-102269549D01*
X133319434Y-102269549D02*
X133243244Y-102307644D01*
X133243244Y-102307644D02*
X133090863Y-102345740D01*
X133090863Y-102345740D02*
X132976577Y-102345740D01*
X132976577Y-102345740D02*
X132824196Y-102307644D01*
X132824196Y-102307644D02*
X132748005Y-102269549D01*
X132748005Y-102269549D02*
X132671815Y-102193359D01*
X132671815Y-102193359D02*
X132633720Y-102079073D01*
X132633720Y-102079073D02*
X132633720Y-102002882D01*
X132633720Y-102002882D02*
X132671815Y-101888597D01*
X132671815Y-101888597D02*
X132709910Y-101850501D01*
X133433720Y-101126692D02*
X133433720Y-101507644D01*
X133433720Y-101507644D02*
X132633720Y-101507644D01*
X151996667Y-113026095D02*
X151730000Y-112645142D01*
X151539524Y-113026095D02*
X151539524Y-112226095D01*
X151539524Y-112226095D02*
X151844286Y-112226095D01*
X151844286Y-112226095D02*
X151920476Y-112264190D01*
X151920476Y-112264190D02*
X151958571Y-112302285D01*
X151958571Y-112302285D02*
X151996667Y-112378476D01*
X151996667Y-112378476D02*
X151996667Y-112492761D01*
X151996667Y-112492761D02*
X151958571Y-112568952D01*
X151958571Y-112568952D02*
X151920476Y-112607047D01*
X151920476Y-112607047D02*
X151844286Y-112645142D01*
X151844286Y-112645142D02*
X151539524Y-112645142D01*
X152263333Y-112226095D02*
X152796667Y-113026095D01*
X152796667Y-112226095D02*
X152263333Y-113026095D01*
X173186375Y-102442618D02*
X173148279Y-102556904D01*
X173148279Y-102556904D02*
X173148279Y-102747380D01*
X173148279Y-102747380D02*
X173186375Y-102823571D01*
X173186375Y-102823571D02*
X173224470Y-102861666D01*
X173224470Y-102861666D02*
X173300660Y-102899761D01*
X173300660Y-102899761D02*
X173376851Y-102899761D01*
X173376851Y-102899761D02*
X173453041Y-102861666D01*
X173453041Y-102861666D02*
X173491136Y-102823571D01*
X173491136Y-102823571D02*
X173529232Y-102747380D01*
X173529232Y-102747380D02*
X173567327Y-102594999D01*
X173567327Y-102594999D02*
X173605422Y-102518809D01*
X173605422Y-102518809D02*
X173643517Y-102480714D01*
X173643517Y-102480714D02*
X173719708Y-102442618D01*
X173719708Y-102442618D02*
X173795898Y-102442618D01*
X173795898Y-102442618D02*
X173872089Y-102480714D01*
X173872089Y-102480714D02*
X173910184Y-102518809D01*
X173910184Y-102518809D02*
X173948279Y-102594999D01*
X173948279Y-102594999D02*
X173948279Y-102785476D01*
X173948279Y-102785476D02*
X173910184Y-102899761D01*
X173224470Y-103699762D02*
X173186375Y-103661666D01*
X173186375Y-103661666D02*
X173148279Y-103547381D01*
X173148279Y-103547381D02*
X173148279Y-103471190D01*
X173148279Y-103471190D02*
X173186375Y-103356904D01*
X173186375Y-103356904D02*
X173262565Y-103280714D01*
X173262565Y-103280714D02*
X173338755Y-103242619D01*
X173338755Y-103242619D02*
X173491136Y-103204523D01*
X173491136Y-103204523D02*
X173605422Y-103204523D01*
X173605422Y-103204523D02*
X173757803Y-103242619D01*
X173757803Y-103242619D02*
X173833994Y-103280714D01*
X173833994Y-103280714D02*
X173910184Y-103356904D01*
X173910184Y-103356904D02*
X173948279Y-103471190D01*
X173948279Y-103471190D02*
X173948279Y-103547381D01*
X173948279Y-103547381D02*
X173910184Y-103661666D01*
X173910184Y-103661666D02*
X173872089Y-103699762D01*
X173148279Y-104423571D02*
X173148279Y-104042619D01*
X173148279Y-104042619D02*
X173948279Y-104042619D01*
X146135714Y-113026095D02*
X146135714Y-112226095D01*
X146135714Y-112226095D02*
X146326190Y-112226095D01*
X146326190Y-112226095D02*
X146440476Y-112264190D01*
X146440476Y-112264190D02*
X146516666Y-112340380D01*
X146516666Y-112340380D02*
X146554761Y-112416571D01*
X146554761Y-112416571D02*
X146592857Y-112568952D01*
X146592857Y-112568952D02*
X146592857Y-112683238D01*
X146592857Y-112683238D02*
X146554761Y-112835619D01*
X146554761Y-112835619D02*
X146516666Y-112911809D01*
X146516666Y-112911809D02*
X146440476Y-112988000D01*
X146440476Y-112988000D02*
X146326190Y-113026095D01*
X146326190Y-113026095D02*
X146135714Y-113026095D01*
X146821428Y-112226095D02*
X147278571Y-112226095D01*
X147049999Y-113026095D02*
X147049999Y-112226095D01*
X148002381Y-113026095D02*
X147735714Y-112645142D01*
X147545238Y-113026095D02*
X147545238Y-112226095D01*
X147545238Y-112226095D02*
X147850000Y-112226095D01*
X147850000Y-112226095D02*
X147926190Y-112264190D01*
X147926190Y-112264190D02*
X147964285Y-112302285D01*
X147964285Y-112302285D02*
X148002381Y-112378476D01*
X148002381Y-112378476D02*
X148002381Y-112492761D01*
X148002381Y-112492761D02*
X147964285Y-112568952D01*
X147964285Y-112568952D02*
X147926190Y-112607047D01*
X147926190Y-112607047D02*
X147850000Y-112645142D01*
X147850000Y-112645142D02*
X147545238Y-112645142D01*
X148980476Y-112226095D02*
X149437619Y-112226095D01*
X149209047Y-113026095D02*
X149209047Y-112226095D01*
X149628095Y-112226095D02*
X150161429Y-113026095D01*
X150161429Y-112226095D02*
X149628095Y-113026095D01*
X133433720Y-110403835D02*
X132633720Y-110403835D01*
X132633720Y-110403835D02*
X133433720Y-109946692D01*
X133433720Y-109946692D02*
X132633720Y-109946692D01*
X133357529Y-109108597D02*
X133395625Y-109146693D01*
X133395625Y-109146693D02*
X133433720Y-109260978D01*
X133433720Y-109260978D02*
X133433720Y-109337169D01*
X133433720Y-109337169D02*
X133395625Y-109451455D01*
X133395625Y-109451455D02*
X133319434Y-109527645D01*
X133319434Y-109527645D02*
X133243244Y-109565740D01*
X133243244Y-109565740D02*
X133090863Y-109603836D01*
X133090863Y-109603836D02*
X132976577Y-109603836D01*
X132976577Y-109603836D02*
X132824196Y-109565740D01*
X132824196Y-109565740D02*
X132748005Y-109527645D01*
X132748005Y-109527645D02*
X132671815Y-109451455D01*
X132671815Y-109451455D02*
X132633720Y-109337169D01*
X132633720Y-109337169D02*
X132633720Y-109260978D01*
X132633720Y-109260978D02*
X132671815Y-109146693D01*
X132671815Y-109146693D02*
X132709910Y-109108597D01*
X173186375Y-99883571D02*
X173148279Y-99997857D01*
X173148279Y-99997857D02*
X173148279Y-100188333D01*
X173148279Y-100188333D02*
X173186375Y-100264524D01*
X173186375Y-100264524D02*
X173224470Y-100302619D01*
X173224470Y-100302619D02*
X173300660Y-100340714D01*
X173300660Y-100340714D02*
X173376851Y-100340714D01*
X173376851Y-100340714D02*
X173453041Y-100302619D01*
X173453041Y-100302619D02*
X173491136Y-100264524D01*
X173491136Y-100264524D02*
X173529232Y-100188333D01*
X173529232Y-100188333D02*
X173567327Y-100035952D01*
X173567327Y-100035952D02*
X173605422Y-99959762D01*
X173605422Y-99959762D02*
X173643517Y-99921667D01*
X173643517Y-99921667D02*
X173719708Y-99883571D01*
X173719708Y-99883571D02*
X173795898Y-99883571D01*
X173795898Y-99883571D02*
X173872089Y-99921667D01*
X173872089Y-99921667D02*
X173910184Y-99959762D01*
X173910184Y-99959762D02*
X173948279Y-100035952D01*
X173948279Y-100035952D02*
X173948279Y-100226429D01*
X173948279Y-100226429D02*
X173910184Y-100340714D01*
X173148279Y-100683572D02*
X173948279Y-100683572D01*
X173948279Y-100683572D02*
X173948279Y-100874048D01*
X173948279Y-100874048D02*
X173910184Y-100988334D01*
X173910184Y-100988334D02*
X173833994Y-101064524D01*
X173833994Y-101064524D02*
X173757803Y-101102619D01*
X173757803Y-101102619D02*
X173605422Y-101140715D01*
X173605422Y-101140715D02*
X173491136Y-101140715D01*
X173491136Y-101140715D02*
X173338755Y-101102619D01*
X173338755Y-101102619D02*
X173262565Y-101064524D01*
X173262565Y-101064524D02*
X173186375Y-100988334D01*
X173186375Y-100988334D02*
X173148279Y-100874048D01*
X173148279Y-100874048D02*
X173148279Y-100683572D01*
X173376851Y-101445476D02*
X173376851Y-101826429D01*
X173148279Y-101369286D02*
X173948279Y-101635953D01*
X173948279Y-101635953D02*
X173148279Y-101902619D01*
X173453041Y-107446429D02*
X173453041Y-108055953D01*
X173148279Y-107751191D02*
X173757803Y-107751191D01*
X173948279Y-108817857D02*
X173948279Y-108436905D01*
X173948279Y-108436905D02*
X173567327Y-108398809D01*
X173567327Y-108398809D02*
X173605422Y-108436905D01*
X173605422Y-108436905D02*
X173643517Y-108513095D01*
X173643517Y-108513095D02*
X173643517Y-108703571D01*
X173643517Y-108703571D02*
X173605422Y-108779762D01*
X173605422Y-108779762D02*
X173567327Y-108817857D01*
X173567327Y-108817857D02*
X173491136Y-108855952D01*
X173491136Y-108855952D02*
X173300660Y-108855952D01*
X173300660Y-108855952D02*
X173224470Y-108817857D01*
X173224470Y-108817857D02*
X173186375Y-108779762D01*
X173186375Y-108779762D02*
X173148279Y-108703571D01*
X173148279Y-108703571D02*
X173148279Y-108513095D01*
X173148279Y-108513095D02*
X173186375Y-108436905D01*
X173186375Y-108436905D02*
X173224470Y-108398809D01*
X173948279Y-109084524D02*
X173148279Y-109351191D01*
X173148279Y-109351191D02*
X173948279Y-109617857D01*
X159140476Y-112264190D02*
X159064286Y-112226095D01*
X159064286Y-112226095D02*
X158950000Y-112226095D01*
X158950000Y-112226095D02*
X158835714Y-112264190D01*
X158835714Y-112264190D02*
X158759524Y-112340380D01*
X158759524Y-112340380D02*
X158721429Y-112416571D01*
X158721429Y-112416571D02*
X158683333Y-112568952D01*
X158683333Y-112568952D02*
X158683333Y-112683238D01*
X158683333Y-112683238D02*
X158721429Y-112835619D01*
X158721429Y-112835619D02*
X158759524Y-112911809D01*
X158759524Y-112911809D02*
X158835714Y-112988000D01*
X158835714Y-112988000D02*
X158950000Y-113026095D01*
X158950000Y-113026095D02*
X159026191Y-113026095D01*
X159026191Y-113026095D02*
X159140476Y-112988000D01*
X159140476Y-112988000D02*
X159178572Y-112949904D01*
X159178572Y-112949904D02*
X159178572Y-112683238D01*
X159178572Y-112683238D02*
X159026191Y-112683238D01*
X159521429Y-113026095D02*
X159521429Y-112226095D01*
X159521429Y-112226095D02*
X159978572Y-113026095D01*
X159978572Y-113026095D02*
X159978572Y-112226095D01*
X160359524Y-113026095D02*
X160359524Y-112226095D01*
X160359524Y-112226095D02*
X160550000Y-112226095D01*
X160550000Y-112226095D02*
X160664286Y-112264190D01*
X160664286Y-112264190D02*
X160740476Y-112340380D01*
X160740476Y-112340380D02*
X160778571Y-112416571D01*
X160778571Y-112416571D02*
X160816667Y-112568952D01*
X160816667Y-112568952D02*
X160816667Y-112683238D01*
X160816667Y-112683238D02*
X160778571Y-112835619D01*
X160778571Y-112835619D02*
X160740476Y-112911809D01*
X160740476Y-112911809D02*
X160664286Y-112988000D01*
X160664286Y-112988000D02*
X160550000Y-113026095D01*
X160550000Y-113026095D02*
X160359524Y-113026095D01*
X156771905Y-113026095D02*
X156505238Y-112645142D01*
X156314762Y-113026095D02*
X156314762Y-112226095D01*
X156314762Y-112226095D02*
X156619524Y-112226095D01*
X156619524Y-112226095D02*
X156695714Y-112264190D01*
X156695714Y-112264190D02*
X156733809Y-112302285D01*
X156733809Y-112302285D02*
X156771905Y-112378476D01*
X156771905Y-112378476D02*
X156771905Y-112492761D01*
X156771905Y-112492761D02*
X156733809Y-112568952D01*
X156733809Y-112568952D02*
X156695714Y-112607047D01*
X156695714Y-112607047D02*
X156619524Y-112645142D01*
X156619524Y-112645142D02*
X156314762Y-112645142D01*
X157000476Y-112226095D02*
X157457619Y-112226095D01*
X157229047Y-113026095D02*
X157229047Y-112226095D01*
X157686190Y-112988000D02*
X157800476Y-113026095D01*
X157800476Y-113026095D02*
X157990952Y-113026095D01*
X157990952Y-113026095D02*
X158067143Y-112988000D01*
X158067143Y-112988000D02*
X158105238Y-112949904D01*
X158105238Y-112949904D02*
X158143333Y-112873714D01*
X158143333Y-112873714D02*
X158143333Y-112797523D01*
X158143333Y-112797523D02*
X158105238Y-112721333D01*
X158105238Y-112721333D02*
X158067143Y-112683238D01*
X158067143Y-112683238D02*
X157990952Y-112645142D01*
X157990952Y-112645142D02*
X157838571Y-112607047D01*
X157838571Y-112607047D02*
X157762381Y-112568952D01*
X157762381Y-112568952D02*
X157724286Y-112530857D01*
X157724286Y-112530857D02*
X157686190Y-112454666D01*
X157686190Y-112454666D02*
X157686190Y-112378476D01*
X157686190Y-112378476D02*
X157724286Y-112302285D01*
X157724286Y-112302285D02*
X157762381Y-112264190D01*
X157762381Y-112264190D02*
X157838571Y-112226095D01*
X157838571Y-112226095D02*
X158029048Y-112226095D01*
X158029048Y-112226095D02*
X158143333Y-112264190D01*
X173910184Y-105325476D02*
X173948279Y-105249286D01*
X173948279Y-105249286D02*
X173948279Y-105135000D01*
X173948279Y-105135000D02*
X173910184Y-105020714D01*
X173910184Y-105020714D02*
X173833994Y-104944524D01*
X173833994Y-104944524D02*
X173757803Y-104906429D01*
X173757803Y-104906429D02*
X173605422Y-104868333D01*
X173605422Y-104868333D02*
X173491136Y-104868333D01*
X173491136Y-104868333D02*
X173338755Y-104906429D01*
X173338755Y-104906429D02*
X173262565Y-104944524D01*
X173262565Y-104944524D02*
X173186375Y-105020714D01*
X173186375Y-105020714D02*
X173148279Y-105135000D01*
X173148279Y-105135000D02*
X173148279Y-105211191D01*
X173148279Y-105211191D02*
X173186375Y-105325476D01*
X173186375Y-105325476D02*
X173224470Y-105363572D01*
X173224470Y-105363572D02*
X173491136Y-105363572D01*
X173491136Y-105363572D02*
X173491136Y-105211191D01*
X173148279Y-105706429D02*
X173948279Y-105706429D01*
X173948279Y-105706429D02*
X173148279Y-106163572D01*
X173148279Y-106163572D02*
X173948279Y-106163572D01*
X173148279Y-106544524D02*
X173948279Y-106544524D01*
X173948279Y-106544524D02*
X173948279Y-106735000D01*
X173948279Y-106735000D02*
X173910184Y-106849286D01*
X173910184Y-106849286D02*
X173833994Y-106925476D01*
X173833994Y-106925476D02*
X173757803Y-106963571D01*
X173757803Y-106963571D02*
X173605422Y-107001667D01*
X173605422Y-107001667D02*
X173491136Y-107001667D01*
X173491136Y-107001667D02*
X173338755Y-106963571D01*
X173338755Y-106963571D02*
X173262565Y-106925476D01*
X173262565Y-106925476D02*
X173186375Y-106849286D01*
X173186375Y-106849286D02*
X173148279Y-106735000D01*
X173148279Y-106735000D02*
X173148279Y-106544524D01*
X133128958Y-98103835D02*
X133128958Y-97494312D01*
X133433720Y-97799073D02*
X132824196Y-97799073D01*
X132633720Y-96732407D02*
X132633720Y-97113359D01*
X132633720Y-97113359D02*
X133014672Y-97151455D01*
X133014672Y-97151455D02*
X132976577Y-97113359D01*
X132976577Y-97113359D02*
X132938482Y-97037169D01*
X132938482Y-97037169D02*
X132938482Y-96846693D01*
X132938482Y-96846693D02*
X132976577Y-96770502D01*
X132976577Y-96770502D02*
X133014672Y-96732407D01*
X133014672Y-96732407D02*
X133090863Y-96694312D01*
X133090863Y-96694312D02*
X133281339Y-96694312D01*
X133281339Y-96694312D02*
X133357529Y-96732407D01*
X133357529Y-96732407D02*
X133395625Y-96770502D01*
X133395625Y-96770502D02*
X133433720Y-96846693D01*
X133433720Y-96846693D02*
X133433720Y-97037169D01*
X133433720Y-97037169D02*
X133395625Y-97113359D01*
X133395625Y-97113359D02*
X133357529Y-97151455D01*
X132633720Y-96465740D02*
X133433720Y-96199073D01*
X133433720Y-96199073D02*
X132633720Y-95932407D01*
D11*
X162705057Y-106978988D02*
X162657438Y-107074226D01*
X162657438Y-107074226D02*
X162562200Y-107169464D01*
X162562200Y-107169464D02*
X162419342Y-107312321D01*
X162419342Y-107312321D02*
X162371723Y-107407559D01*
X162371723Y-107407559D02*
X162371723Y-107502797D01*
X162609819Y-107455178D02*
X162562200Y-107550416D01*
X162562200Y-107550416D02*
X162466961Y-107645654D01*
X162466961Y-107645654D02*
X162276485Y-107693273D01*
X162276485Y-107693273D02*
X161943152Y-107693273D01*
X161943152Y-107693273D02*
X161752676Y-107645654D01*
X161752676Y-107645654D02*
X161657438Y-107550416D01*
X161657438Y-107550416D02*
X161609819Y-107455178D01*
X161609819Y-107455178D02*
X161609819Y-107264702D01*
X161609819Y-107264702D02*
X161657438Y-107169464D01*
X161657438Y-107169464D02*
X161752676Y-107074226D01*
X161752676Y-107074226D02*
X161943152Y-107026607D01*
X161943152Y-107026607D02*
X162276485Y-107026607D01*
X162276485Y-107026607D02*
X162466961Y-107074226D01*
X162466961Y-107074226D02*
X162562200Y-107169464D01*
X162562200Y-107169464D02*
X162609819Y-107264702D01*
X162609819Y-107264702D02*
X162609819Y-107455178D01*
X162609819Y-106074226D02*
X162609819Y-106645654D01*
X162609819Y-106359940D02*
X161609819Y-106359940D01*
X161609819Y-106359940D02*
X161752676Y-106455178D01*
X161752676Y-106455178D02*
X161847914Y-106550416D01*
X161847914Y-106550416D02*
X161895533Y-106645654D01*
X152613095Y-101449819D02*
X152613095Y-102259342D01*
X152613095Y-102259342D02*
X152660714Y-102354580D01*
X152660714Y-102354580D02*
X152708333Y-102402200D01*
X152708333Y-102402200D02*
X152803571Y-102449819D01*
X152803571Y-102449819D02*
X152994047Y-102449819D01*
X152994047Y-102449819D02*
X153089285Y-102402200D01*
X153089285Y-102402200D02*
X153136904Y-102354580D01*
X153136904Y-102354580D02*
X153184523Y-102259342D01*
X153184523Y-102259342D02*
X153184523Y-101449819D01*
X154184523Y-102449819D02*
X153613095Y-102449819D01*
X153898809Y-102449819D02*
X153898809Y-101449819D01*
X153898809Y-101449819D02*
X153803571Y-101592676D01*
X153803571Y-101592676D02*
X153708333Y-101687914D01*
X153708333Y-101687914D02*
X153613095Y-101735533D01*
X169795833Y-91629819D02*
X169462500Y-91153628D01*
X169224405Y-91629819D02*
X169224405Y-90629819D01*
X169224405Y-90629819D02*
X169605357Y-90629819D01*
X169605357Y-90629819D02*
X169700595Y-90677438D01*
X169700595Y-90677438D02*
X169748214Y-90725057D01*
X169748214Y-90725057D02*
X169795833Y-90820295D01*
X169795833Y-90820295D02*
X169795833Y-90963152D01*
X169795833Y-90963152D02*
X169748214Y-91058390D01*
X169748214Y-91058390D02*
X169700595Y-91106009D01*
X169700595Y-91106009D02*
X169605357Y-91153628D01*
X169605357Y-91153628D02*
X169224405Y-91153628D01*
X170367262Y-91058390D02*
X170272024Y-91010771D01*
X170272024Y-91010771D02*
X170224405Y-90963152D01*
X170224405Y-90963152D02*
X170176786Y-90867914D01*
X170176786Y-90867914D02*
X170176786Y-90820295D01*
X170176786Y-90820295D02*
X170224405Y-90725057D01*
X170224405Y-90725057D02*
X170272024Y-90677438D01*
X170272024Y-90677438D02*
X170367262Y-90629819D01*
X170367262Y-90629819D02*
X170557738Y-90629819D01*
X170557738Y-90629819D02*
X170652976Y-90677438D01*
X170652976Y-90677438D02*
X170700595Y-90725057D01*
X170700595Y-90725057D02*
X170748214Y-90820295D01*
X170748214Y-90820295D02*
X170748214Y-90867914D01*
X170748214Y-90867914D02*
X170700595Y-90963152D01*
X170700595Y-90963152D02*
X170652976Y-91010771D01*
X170652976Y-91010771D02*
X170557738Y-91058390D01*
X170557738Y-91058390D02*
X170367262Y-91058390D01*
X170367262Y-91058390D02*
X170272024Y-91106009D01*
X170272024Y-91106009D02*
X170224405Y-91153628D01*
X170224405Y-91153628D02*
X170176786Y-91248866D01*
X170176786Y-91248866D02*
X170176786Y-91439342D01*
X170176786Y-91439342D02*
X170224405Y-91534580D01*
X170224405Y-91534580D02*
X170272024Y-91582200D01*
X170272024Y-91582200D02*
X170367262Y-91629819D01*
X170367262Y-91629819D02*
X170557738Y-91629819D01*
X170557738Y-91629819D02*
X170652976Y-91582200D01*
X170652976Y-91582200D02*
X170700595Y-91534580D01*
X170700595Y-91534580D02*
X170748214Y-91439342D01*
X170748214Y-91439342D02*
X170748214Y-91248866D01*
X170748214Y-91248866D02*
X170700595Y-91153628D01*
X170700595Y-91153628D02*
X170652976Y-91106009D01*
X170652976Y-91106009D02*
X170557738Y-91058390D01*
X145195057Y-106978988D02*
X145147438Y-107074226D01*
X145147438Y-107074226D02*
X145052200Y-107169464D01*
X145052200Y-107169464D02*
X144909342Y-107312321D01*
X144909342Y-107312321D02*
X144861723Y-107407559D01*
X144861723Y-107407559D02*
X144861723Y-107502797D01*
X145099819Y-107455178D02*
X145052200Y-107550416D01*
X145052200Y-107550416D02*
X144956961Y-107645654D01*
X144956961Y-107645654D02*
X144766485Y-107693273D01*
X144766485Y-107693273D02*
X144433152Y-107693273D01*
X144433152Y-107693273D02*
X144242676Y-107645654D01*
X144242676Y-107645654D02*
X144147438Y-107550416D01*
X144147438Y-107550416D02*
X144099819Y-107455178D01*
X144099819Y-107455178D02*
X144099819Y-107264702D01*
X144099819Y-107264702D02*
X144147438Y-107169464D01*
X144147438Y-107169464D02*
X144242676Y-107074226D01*
X144242676Y-107074226D02*
X144433152Y-107026607D01*
X144433152Y-107026607D02*
X144766485Y-107026607D01*
X144766485Y-107026607D02*
X144956961Y-107074226D01*
X144956961Y-107074226D02*
X145052200Y-107169464D01*
X145052200Y-107169464D02*
X145099819Y-107264702D01*
X145099819Y-107264702D02*
X145099819Y-107455178D01*
X144195057Y-106645654D02*
X144147438Y-106598035D01*
X144147438Y-106598035D02*
X144099819Y-106502797D01*
X144099819Y-106502797D02*
X144099819Y-106264702D01*
X144099819Y-106264702D02*
X144147438Y-106169464D01*
X144147438Y-106169464D02*
X144195057Y-106121845D01*
X144195057Y-106121845D02*
X144290295Y-106074226D01*
X144290295Y-106074226D02*
X144385533Y-106074226D01*
X144385533Y-106074226D02*
X144528390Y-106121845D01*
X144528390Y-106121845D02*
X145099819Y-106693273D01*
X145099819Y-106693273D02*
X145099819Y-106074226D01*
X135972080Y-92329166D02*
X136019700Y-92376785D01*
X136019700Y-92376785D02*
X136067319Y-92519642D01*
X136067319Y-92519642D02*
X136067319Y-92614880D01*
X136067319Y-92614880D02*
X136019700Y-92757737D01*
X136019700Y-92757737D02*
X135924461Y-92852975D01*
X135924461Y-92852975D02*
X135829223Y-92900594D01*
X135829223Y-92900594D02*
X135638747Y-92948213D01*
X135638747Y-92948213D02*
X135495890Y-92948213D01*
X135495890Y-92948213D02*
X135305414Y-92900594D01*
X135305414Y-92900594D02*
X135210176Y-92852975D01*
X135210176Y-92852975D02*
X135114938Y-92757737D01*
X135114938Y-92757737D02*
X135067319Y-92614880D01*
X135067319Y-92614880D02*
X135067319Y-92519642D01*
X135067319Y-92519642D02*
X135114938Y-92376785D01*
X135114938Y-92376785D02*
X135162557Y-92329166D01*
X135067319Y-91424404D02*
X135067319Y-91900594D01*
X135067319Y-91900594D02*
X135543509Y-91948213D01*
X135543509Y-91948213D02*
X135495890Y-91900594D01*
X135495890Y-91900594D02*
X135448271Y-91805356D01*
X135448271Y-91805356D02*
X135448271Y-91567261D01*
X135448271Y-91567261D02*
X135495890Y-91472023D01*
X135495890Y-91472023D02*
X135543509Y-91424404D01*
X135543509Y-91424404D02*
X135638747Y-91376785D01*
X135638747Y-91376785D02*
X135876842Y-91376785D01*
X135876842Y-91376785D02*
X135972080Y-91424404D01*
X135972080Y-91424404D02*
X136019700Y-91472023D01*
X136019700Y-91472023D02*
X136067319Y-91567261D01*
X136067319Y-91567261D02*
X136067319Y-91805356D01*
X136067319Y-91805356D02*
X136019700Y-91900594D01*
X136019700Y-91900594D02*
X135972080Y-91948213D01*
X130541666Y-116629819D02*
X130208333Y-116153628D01*
X129970238Y-116629819D02*
X129970238Y-115629819D01*
X129970238Y-115629819D02*
X130351190Y-115629819D01*
X130351190Y-115629819D02*
X130446428Y-115677438D01*
X130446428Y-115677438D02*
X130494047Y-115725057D01*
X130494047Y-115725057D02*
X130541666Y-115820295D01*
X130541666Y-115820295D02*
X130541666Y-115963152D01*
X130541666Y-115963152D02*
X130494047Y-116058390D01*
X130494047Y-116058390D02*
X130446428Y-116106009D01*
X130446428Y-116106009D02*
X130351190Y-116153628D01*
X130351190Y-116153628D02*
X129970238Y-116153628D01*
X130970238Y-116106009D02*
X131303571Y-116106009D01*
X131446428Y-116629819D02*
X130970238Y-116629819D01*
X130970238Y-116629819D02*
X130970238Y-115629819D01*
X130970238Y-115629819D02*
X131446428Y-115629819D01*
X132208333Y-116106009D02*
X131875000Y-116106009D01*
X131875000Y-116629819D02*
X131875000Y-115629819D01*
X131875000Y-115629819D02*
X132351190Y-115629819D01*
X132875000Y-115629819D02*
X132875000Y-115867914D01*
X132636905Y-115772676D02*
X132875000Y-115867914D01*
X132875000Y-115867914D02*
X133113095Y-115772676D01*
X132732143Y-116058390D02*
X132875000Y-115867914D01*
X132875000Y-115867914D02*
X133017857Y-116058390D01*
X133636905Y-115629819D02*
X133636905Y-115867914D01*
X133398810Y-115772676D02*
X133636905Y-115867914D01*
X133636905Y-115867914D02*
X133875000Y-115772676D01*
X133494048Y-116058390D02*
X133636905Y-115867914D01*
X133636905Y-115867914D02*
X133779762Y-116058390D01*
X136509580Y-117529166D02*
X136557200Y-117576785D01*
X136557200Y-117576785D02*
X136604819Y-117719642D01*
X136604819Y-117719642D02*
X136604819Y-117814880D01*
X136604819Y-117814880D02*
X136557200Y-117957737D01*
X136557200Y-117957737D02*
X136461961Y-118052975D01*
X136461961Y-118052975D02*
X136366723Y-118100594D01*
X136366723Y-118100594D02*
X136176247Y-118148213D01*
X136176247Y-118148213D02*
X136033390Y-118148213D01*
X136033390Y-118148213D02*
X135842914Y-118100594D01*
X135842914Y-118100594D02*
X135747676Y-118052975D01*
X135747676Y-118052975D02*
X135652438Y-117957737D01*
X135652438Y-117957737D02*
X135604819Y-117814880D01*
X135604819Y-117814880D02*
X135604819Y-117719642D01*
X135604819Y-117719642D02*
X135652438Y-117576785D01*
X135652438Y-117576785D02*
X135700057Y-117529166D01*
X136604819Y-116576785D02*
X136604819Y-117148213D01*
X136604819Y-116862499D02*
X135604819Y-116862499D01*
X135604819Y-116862499D02*
X135747676Y-116957737D01*
X135747676Y-116957737D02*
X135842914Y-117052975D01*
X135842914Y-117052975D02*
X135890533Y-117148213D01*
X141967319Y-92329166D02*
X141491128Y-92662499D01*
X141967319Y-92900594D02*
X140967319Y-92900594D01*
X140967319Y-92900594D02*
X140967319Y-92519642D01*
X140967319Y-92519642D02*
X141014938Y-92424404D01*
X141014938Y-92424404D02*
X141062557Y-92376785D01*
X141062557Y-92376785D02*
X141157795Y-92329166D01*
X141157795Y-92329166D02*
X141300652Y-92329166D01*
X141300652Y-92329166D02*
X141395890Y-92376785D01*
X141395890Y-92376785D02*
X141443509Y-92424404D01*
X141443509Y-92424404D02*
X141491128Y-92519642D01*
X141491128Y-92519642D02*
X141491128Y-92900594D01*
X140967319Y-91995832D02*
X140967319Y-91376785D01*
X140967319Y-91376785D02*
X141348271Y-91710118D01*
X141348271Y-91710118D02*
X141348271Y-91567261D01*
X141348271Y-91567261D02*
X141395890Y-91472023D01*
X141395890Y-91472023D02*
X141443509Y-91424404D01*
X141443509Y-91424404D02*
X141538747Y-91376785D01*
X141538747Y-91376785D02*
X141776842Y-91376785D01*
X141776842Y-91376785D02*
X141872080Y-91424404D01*
X141872080Y-91424404D02*
X141919700Y-91472023D01*
X141919700Y-91472023D02*
X141967319Y-91567261D01*
X141967319Y-91567261D02*
X141967319Y-91852975D01*
X141967319Y-91852975D02*
X141919700Y-91948213D01*
X141919700Y-91948213D02*
X141872080Y-91995832D01*
X178000180Y-103091666D02*
X177285895Y-103091666D01*
X177285895Y-103091666D02*
X177143038Y-103044047D01*
X177143038Y-103044047D02*
X177047800Y-102948809D01*
X177047800Y-102948809D02*
X177000180Y-102805952D01*
X177000180Y-102805952D02*
X177000180Y-102710714D01*
X178000180Y-103996428D02*
X178000180Y-103805952D01*
X178000180Y-103805952D02*
X177952561Y-103710714D01*
X177952561Y-103710714D02*
X177904942Y-103663095D01*
X177904942Y-103663095D02*
X177762085Y-103567857D01*
X177762085Y-103567857D02*
X177571609Y-103520238D01*
X177571609Y-103520238D02*
X177190657Y-103520238D01*
X177190657Y-103520238D02*
X177095419Y-103567857D01*
X177095419Y-103567857D02*
X177047800Y-103615476D01*
X177047800Y-103615476D02*
X177000180Y-103710714D01*
X177000180Y-103710714D02*
X177000180Y-103901190D01*
X177000180Y-103901190D02*
X177047800Y-103996428D01*
X177047800Y-103996428D02*
X177095419Y-104044047D01*
X177095419Y-104044047D02*
X177190657Y-104091666D01*
X177190657Y-104091666D02*
X177428752Y-104091666D01*
X177428752Y-104091666D02*
X177523990Y-104044047D01*
X177523990Y-104044047D02*
X177571609Y-103996428D01*
X177571609Y-103996428D02*
X177619228Y-103901190D01*
X177619228Y-103901190D02*
X177619228Y-103710714D01*
X177619228Y-103710714D02*
X177571609Y-103615476D01*
X177571609Y-103615476D02*
X177523990Y-103567857D01*
X177523990Y-103567857D02*
X177428752Y-103520238D01*
X172218990Y-100705357D02*
X172171371Y-100848214D01*
X172171371Y-100848214D02*
X172123752Y-100895833D01*
X172123752Y-100895833D02*
X172028514Y-100943452D01*
X172028514Y-100943452D02*
X171885657Y-100943452D01*
X171885657Y-100943452D02*
X171790419Y-100895833D01*
X171790419Y-100895833D02*
X171742800Y-100848214D01*
X171742800Y-100848214D02*
X171695180Y-100752976D01*
X171695180Y-100752976D02*
X171695180Y-100372024D01*
X171695180Y-100372024D02*
X172695180Y-100372024D01*
X172695180Y-100372024D02*
X172695180Y-100705357D01*
X172695180Y-100705357D02*
X172647561Y-100800595D01*
X172647561Y-100800595D02*
X172599942Y-100848214D01*
X172599942Y-100848214D02*
X172504704Y-100895833D01*
X172504704Y-100895833D02*
X172409466Y-100895833D01*
X172409466Y-100895833D02*
X172314228Y-100848214D01*
X172314228Y-100848214D02*
X172266609Y-100800595D01*
X172266609Y-100800595D02*
X172218990Y-100705357D01*
X172218990Y-100705357D02*
X172218990Y-100372024D01*
X171695180Y-101372024D02*
X172695180Y-101372024D01*
X172218990Y-101372024D02*
X172218990Y-101943452D01*
X171695180Y-101943452D02*
X172695180Y-101943452D01*
X171695180Y-102943452D02*
X171695180Y-102372024D01*
X171695180Y-102657738D02*
X172695180Y-102657738D01*
X172695180Y-102657738D02*
X172552323Y-102562500D01*
X172552323Y-102562500D02*
X172457085Y-102467262D01*
X172457085Y-102467262D02*
X172409466Y-102372024D01*
X172695180Y-103276786D02*
X172695180Y-103943452D01*
X172695180Y-103943452D02*
X171695180Y-103514881D01*
X172695180Y-104800595D02*
X172695180Y-104324405D01*
X172695180Y-104324405D02*
X172218990Y-104276786D01*
X172218990Y-104276786D02*
X172266609Y-104324405D01*
X172266609Y-104324405D02*
X172314228Y-104419643D01*
X172314228Y-104419643D02*
X172314228Y-104657738D01*
X172314228Y-104657738D02*
X172266609Y-104752976D01*
X172266609Y-104752976D02*
X172218990Y-104800595D01*
X172218990Y-104800595D02*
X172123752Y-104848214D01*
X172123752Y-104848214D02*
X171885657Y-104848214D01*
X171885657Y-104848214D02*
X171790419Y-104800595D01*
X171790419Y-104800595D02*
X171742800Y-104752976D01*
X171742800Y-104752976D02*
X171695180Y-104657738D01*
X171695180Y-104657738D02*
X171695180Y-104419643D01*
X171695180Y-104419643D02*
X171742800Y-104324405D01*
X171742800Y-104324405D02*
X171790419Y-104276786D01*
X172695180Y-105467262D02*
X172695180Y-105562500D01*
X172695180Y-105562500D02*
X172647561Y-105657738D01*
X172647561Y-105657738D02*
X172599942Y-105705357D01*
X172599942Y-105705357D02*
X172504704Y-105752976D01*
X172504704Y-105752976D02*
X172314228Y-105800595D01*
X172314228Y-105800595D02*
X172076133Y-105800595D01*
X172076133Y-105800595D02*
X171885657Y-105752976D01*
X171885657Y-105752976D02*
X171790419Y-105705357D01*
X171790419Y-105705357D02*
X171742800Y-105657738D01*
X171742800Y-105657738D02*
X171695180Y-105562500D01*
X171695180Y-105562500D02*
X171695180Y-105467262D01*
X171695180Y-105467262D02*
X171742800Y-105372024D01*
X171742800Y-105372024D02*
X171790419Y-105324405D01*
X171790419Y-105324405D02*
X171885657Y-105276786D01*
X171885657Y-105276786D02*
X172076133Y-105229167D01*
X172076133Y-105229167D02*
X172314228Y-105229167D01*
X172314228Y-105229167D02*
X172504704Y-105276786D01*
X172504704Y-105276786D02*
X172599942Y-105324405D01*
X172599942Y-105324405D02*
X172647561Y-105372024D01*
X172647561Y-105372024D02*
X172695180Y-105467262D01*
X130541666Y-88129819D02*
X130208333Y-87653628D01*
X129970238Y-88129819D02*
X129970238Y-87129819D01*
X129970238Y-87129819D02*
X130351190Y-87129819D01*
X130351190Y-87129819D02*
X130446428Y-87177438D01*
X130446428Y-87177438D02*
X130494047Y-87225057D01*
X130494047Y-87225057D02*
X130541666Y-87320295D01*
X130541666Y-87320295D02*
X130541666Y-87463152D01*
X130541666Y-87463152D02*
X130494047Y-87558390D01*
X130494047Y-87558390D02*
X130446428Y-87606009D01*
X130446428Y-87606009D02*
X130351190Y-87653628D01*
X130351190Y-87653628D02*
X129970238Y-87653628D01*
X130970238Y-87606009D02*
X131303571Y-87606009D01*
X131446428Y-88129819D02*
X130970238Y-88129819D01*
X130970238Y-88129819D02*
X130970238Y-87129819D01*
X130970238Y-87129819D02*
X131446428Y-87129819D01*
X132208333Y-87606009D02*
X131875000Y-87606009D01*
X131875000Y-88129819D02*
X131875000Y-87129819D01*
X131875000Y-87129819D02*
X132351190Y-87129819D01*
X132875000Y-87129819D02*
X132875000Y-87367914D01*
X132636905Y-87272676D02*
X132875000Y-87367914D01*
X132875000Y-87367914D02*
X133113095Y-87272676D01*
X132732143Y-87558390D02*
X132875000Y-87367914D01*
X132875000Y-87367914D02*
X133017857Y-87558390D01*
X133636905Y-87129819D02*
X133636905Y-87367914D01*
X133398810Y-87272676D02*
X133636905Y-87367914D01*
X133636905Y-87367914D02*
X133875000Y-87272676D01*
X133494048Y-87558390D02*
X133636905Y-87367914D01*
X133636905Y-87367914D02*
X133779762Y-87558390D01*
X156419819Y-106047500D02*
X155943628Y-106380833D01*
X156419819Y-106618928D02*
X155419819Y-106618928D01*
X155419819Y-106618928D02*
X155419819Y-106237976D01*
X155419819Y-106237976D02*
X155467438Y-106142738D01*
X155467438Y-106142738D02*
X155515057Y-106095119D01*
X155515057Y-106095119D02*
X155610295Y-106047500D01*
X155610295Y-106047500D02*
X155753152Y-106047500D01*
X155753152Y-106047500D02*
X155848390Y-106095119D01*
X155848390Y-106095119D02*
X155896009Y-106142738D01*
X155896009Y-106142738D02*
X155943628Y-106237976D01*
X155943628Y-106237976D02*
X155943628Y-106618928D01*
X155515057Y-105666547D02*
X155467438Y-105618928D01*
X155467438Y-105618928D02*
X155419819Y-105523690D01*
X155419819Y-105523690D02*
X155419819Y-105285595D01*
X155419819Y-105285595D02*
X155467438Y-105190357D01*
X155467438Y-105190357D02*
X155515057Y-105142738D01*
X155515057Y-105142738D02*
X155610295Y-105095119D01*
X155610295Y-105095119D02*
X155705533Y-105095119D01*
X155705533Y-105095119D02*
X155848390Y-105142738D01*
X155848390Y-105142738D02*
X156419819Y-105714166D01*
X156419819Y-105714166D02*
X156419819Y-105095119D01*
X128649819Y-103608333D02*
X129364104Y-103608333D01*
X129364104Y-103608333D02*
X129506961Y-103655952D01*
X129506961Y-103655952D02*
X129602200Y-103751190D01*
X129602200Y-103751190D02*
X129649819Y-103894047D01*
X129649819Y-103894047D02*
X129649819Y-103989285D01*
X128649819Y-102655952D02*
X128649819Y-103132142D01*
X128649819Y-103132142D02*
X129126009Y-103179761D01*
X129126009Y-103179761D02*
X129078390Y-103132142D01*
X129078390Y-103132142D02*
X129030771Y-103036904D01*
X129030771Y-103036904D02*
X129030771Y-102798809D01*
X129030771Y-102798809D02*
X129078390Y-102703571D01*
X129078390Y-102703571D02*
X129126009Y-102655952D01*
X129126009Y-102655952D02*
X129221247Y-102608333D01*
X129221247Y-102608333D02*
X129459342Y-102608333D01*
X129459342Y-102608333D02*
X129554580Y-102655952D01*
X129554580Y-102655952D02*
X129602200Y-102703571D01*
X129602200Y-102703571D02*
X129649819Y-102798809D01*
X129649819Y-102798809D02*
X129649819Y-103036904D01*
X129649819Y-103036904D02*
X129602200Y-103132142D01*
X129602200Y-103132142D02*
X129554580Y-103179761D01*
X134481009Y-105946052D02*
X134528628Y-105803195D01*
X134528628Y-105803195D02*
X134576247Y-105755576D01*
X134576247Y-105755576D02*
X134671485Y-105707957D01*
X134671485Y-105707957D02*
X134814342Y-105707957D01*
X134814342Y-105707957D02*
X134909580Y-105755576D01*
X134909580Y-105755576D02*
X134957200Y-105803195D01*
X134957200Y-105803195D02*
X135004819Y-105898433D01*
X135004819Y-105898433D02*
X135004819Y-106279385D01*
X135004819Y-106279385D02*
X134004819Y-106279385D01*
X134004819Y-106279385D02*
X134004819Y-105946052D01*
X134004819Y-105946052D02*
X134052438Y-105850814D01*
X134052438Y-105850814D02*
X134100057Y-105803195D01*
X134100057Y-105803195D02*
X134195295Y-105755576D01*
X134195295Y-105755576D02*
X134290533Y-105755576D01*
X134290533Y-105755576D02*
X134385771Y-105803195D01*
X134385771Y-105803195D02*
X134433390Y-105850814D01*
X134433390Y-105850814D02*
X134481009Y-105946052D01*
X134481009Y-105946052D02*
X134481009Y-106279385D01*
X135004819Y-105279385D02*
X134004819Y-105279385D01*
X134004819Y-105279385D02*
X134719104Y-104946052D01*
X134719104Y-104946052D02*
X134004819Y-104612719D01*
X134004819Y-104612719D02*
X135004819Y-104612719D01*
X134481009Y-104136528D02*
X134481009Y-103803195D01*
X135004819Y-103660338D02*
X135004819Y-104136528D01*
X135004819Y-104136528D02*
X134004819Y-104136528D01*
X134004819Y-104136528D02*
X134004819Y-103660338D01*
X134004819Y-102803195D02*
X134004819Y-102993671D01*
X134004819Y-102993671D02*
X134052438Y-103088909D01*
X134052438Y-103088909D02*
X134100057Y-103136528D01*
X134100057Y-103136528D02*
X134242914Y-103231766D01*
X134242914Y-103231766D02*
X134433390Y-103279385D01*
X134433390Y-103279385D02*
X134814342Y-103279385D01*
X134814342Y-103279385D02*
X134909580Y-103231766D01*
X134909580Y-103231766D02*
X134957200Y-103184147D01*
X134957200Y-103184147D02*
X135004819Y-103088909D01*
X135004819Y-103088909D02*
X135004819Y-102898433D01*
X135004819Y-102898433D02*
X134957200Y-102803195D01*
X134957200Y-102803195D02*
X134909580Y-102755576D01*
X134909580Y-102755576D02*
X134814342Y-102707957D01*
X134814342Y-102707957D02*
X134576247Y-102707957D01*
X134576247Y-102707957D02*
X134481009Y-102755576D01*
X134481009Y-102755576D02*
X134433390Y-102803195D01*
X134433390Y-102803195D02*
X134385771Y-102898433D01*
X134385771Y-102898433D02*
X134385771Y-103088909D01*
X134385771Y-103088909D02*
X134433390Y-103184147D01*
X134433390Y-103184147D02*
X134481009Y-103231766D01*
X134481009Y-103231766D02*
X134576247Y-103279385D01*
X134433390Y-102136528D02*
X134385771Y-102231766D01*
X134385771Y-102231766D02*
X134338152Y-102279385D01*
X134338152Y-102279385D02*
X134242914Y-102327004D01*
X134242914Y-102327004D02*
X134195295Y-102327004D01*
X134195295Y-102327004D02*
X134100057Y-102279385D01*
X134100057Y-102279385D02*
X134052438Y-102231766D01*
X134052438Y-102231766D02*
X134004819Y-102136528D01*
X134004819Y-102136528D02*
X134004819Y-101946052D01*
X134004819Y-101946052D02*
X134052438Y-101850814D01*
X134052438Y-101850814D02*
X134100057Y-101803195D01*
X134100057Y-101803195D02*
X134195295Y-101755576D01*
X134195295Y-101755576D02*
X134242914Y-101755576D01*
X134242914Y-101755576D02*
X134338152Y-101803195D01*
X134338152Y-101803195D02*
X134385771Y-101850814D01*
X134385771Y-101850814D02*
X134433390Y-101946052D01*
X134433390Y-101946052D02*
X134433390Y-102136528D01*
X134433390Y-102136528D02*
X134481009Y-102231766D01*
X134481009Y-102231766D02*
X134528628Y-102279385D01*
X134528628Y-102279385D02*
X134623866Y-102327004D01*
X134623866Y-102327004D02*
X134814342Y-102327004D01*
X134814342Y-102327004D02*
X134909580Y-102279385D01*
X134909580Y-102279385D02*
X134957200Y-102231766D01*
X134957200Y-102231766D02*
X135004819Y-102136528D01*
X135004819Y-102136528D02*
X135004819Y-101946052D01*
X135004819Y-101946052D02*
X134957200Y-101850814D01*
X134957200Y-101850814D02*
X134909580Y-101803195D01*
X134909580Y-101803195D02*
X134814342Y-101755576D01*
X134814342Y-101755576D02*
X134623866Y-101755576D01*
X134623866Y-101755576D02*
X134528628Y-101803195D01*
X134528628Y-101803195D02*
X134481009Y-101850814D01*
X134481009Y-101850814D02*
X134433390Y-101946052D01*
X134004819Y-101136528D02*
X134004819Y-101041290D01*
X134004819Y-101041290D02*
X134052438Y-100946052D01*
X134052438Y-100946052D02*
X134100057Y-100898433D01*
X134100057Y-100898433D02*
X134195295Y-100850814D01*
X134195295Y-100850814D02*
X134385771Y-100803195D01*
X134385771Y-100803195D02*
X134623866Y-100803195D01*
X134623866Y-100803195D02*
X134814342Y-100850814D01*
X134814342Y-100850814D02*
X134909580Y-100898433D01*
X134909580Y-100898433D02*
X134957200Y-100946052D01*
X134957200Y-100946052D02*
X135004819Y-101041290D01*
X135004819Y-101041290D02*
X135004819Y-101136528D01*
X135004819Y-101136528D02*
X134957200Y-101231766D01*
X134957200Y-101231766D02*
X134909580Y-101279385D01*
X134909580Y-101279385D02*
X134814342Y-101327004D01*
X134814342Y-101327004D02*
X134623866Y-101374623D01*
X134623866Y-101374623D02*
X134385771Y-101374623D01*
X134385771Y-101374623D02*
X134195295Y-101327004D01*
X134195295Y-101327004D02*
X134100057Y-101279385D01*
X134100057Y-101279385D02*
X134052438Y-101231766D01*
X134052438Y-101231766D02*
X134004819Y-101136528D01*
X140608333Y-87879819D02*
X140275000Y-87403628D01*
X140036905Y-87879819D02*
X140036905Y-86879819D01*
X140036905Y-86879819D02*
X140417857Y-86879819D01*
X140417857Y-86879819D02*
X140513095Y-86927438D01*
X140513095Y-86927438D02*
X140560714Y-86975057D01*
X140560714Y-86975057D02*
X140608333Y-87070295D01*
X140608333Y-87070295D02*
X140608333Y-87213152D01*
X140608333Y-87213152D02*
X140560714Y-87308390D01*
X140560714Y-87308390D02*
X140513095Y-87356009D01*
X140513095Y-87356009D02*
X140417857Y-87403628D01*
X140417857Y-87403628D02*
X140036905Y-87403628D01*
X141465476Y-87213152D02*
X141465476Y-87879819D01*
X141227381Y-86832200D02*
X140989286Y-87546485D01*
X140989286Y-87546485D02*
X141608333Y-87546485D01*
X136522080Y-108229166D02*
X136569700Y-108276785D01*
X136569700Y-108276785D02*
X136617319Y-108419642D01*
X136617319Y-108419642D02*
X136617319Y-108514880D01*
X136617319Y-108514880D02*
X136569700Y-108657737D01*
X136569700Y-108657737D02*
X136474461Y-108752975D01*
X136474461Y-108752975D02*
X136379223Y-108800594D01*
X136379223Y-108800594D02*
X136188747Y-108848213D01*
X136188747Y-108848213D02*
X136045890Y-108848213D01*
X136045890Y-108848213D02*
X135855414Y-108800594D01*
X135855414Y-108800594D02*
X135760176Y-108752975D01*
X135760176Y-108752975D02*
X135664938Y-108657737D01*
X135664938Y-108657737D02*
X135617319Y-108514880D01*
X135617319Y-108514880D02*
X135617319Y-108419642D01*
X135617319Y-108419642D02*
X135664938Y-108276785D01*
X135664938Y-108276785D02*
X135712557Y-108229166D01*
X135617319Y-107895832D02*
X135617319Y-107276785D01*
X135617319Y-107276785D02*
X135998271Y-107610118D01*
X135998271Y-107610118D02*
X135998271Y-107467261D01*
X135998271Y-107467261D02*
X136045890Y-107372023D01*
X136045890Y-107372023D02*
X136093509Y-107324404D01*
X136093509Y-107324404D02*
X136188747Y-107276785D01*
X136188747Y-107276785D02*
X136426842Y-107276785D01*
X136426842Y-107276785D02*
X136522080Y-107324404D01*
X136522080Y-107324404D02*
X136569700Y-107372023D01*
X136569700Y-107372023D02*
X136617319Y-107467261D01*
X136617319Y-107467261D02*
X136617319Y-107752975D01*
X136617319Y-107752975D02*
X136569700Y-107848213D01*
X136569700Y-107848213D02*
X136522080Y-107895832D01*
X173541666Y-116629819D02*
X173208333Y-116153628D01*
X172970238Y-116629819D02*
X172970238Y-115629819D01*
X172970238Y-115629819D02*
X173351190Y-115629819D01*
X173351190Y-115629819D02*
X173446428Y-115677438D01*
X173446428Y-115677438D02*
X173494047Y-115725057D01*
X173494047Y-115725057D02*
X173541666Y-115820295D01*
X173541666Y-115820295D02*
X173541666Y-115963152D01*
X173541666Y-115963152D02*
X173494047Y-116058390D01*
X173494047Y-116058390D02*
X173446428Y-116106009D01*
X173446428Y-116106009D02*
X173351190Y-116153628D01*
X173351190Y-116153628D02*
X172970238Y-116153628D01*
X173970238Y-116106009D02*
X174303571Y-116106009D01*
X174446428Y-116629819D02*
X173970238Y-116629819D01*
X173970238Y-116629819D02*
X173970238Y-115629819D01*
X173970238Y-115629819D02*
X174446428Y-115629819D01*
X175208333Y-116106009D02*
X174875000Y-116106009D01*
X174875000Y-116629819D02*
X174875000Y-115629819D01*
X174875000Y-115629819D02*
X175351190Y-115629819D01*
X175875000Y-115629819D02*
X175875000Y-115867914D01*
X175636905Y-115772676D02*
X175875000Y-115867914D01*
X175875000Y-115867914D02*
X176113095Y-115772676D01*
X175732143Y-116058390D02*
X175875000Y-115867914D01*
X175875000Y-115867914D02*
X176017857Y-116058390D01*
X176636905Y-115629819D02*
X176636905Y-115867914D01*
X176398810Y-115772676D02*
X176636905Y-115867914D01*
X176636905Y-115867914D02*
X176875000Y-115772676D01*
X176494048Y-116058390D02*
X176636905Y-115867914D01*
X176636905Y-115867914D02*
X176779762Y-116058390D01*
X136509580Y-115031766D02*
X136557200Y-115079385D01*
X136557200Y-115079385D02*
X136604819Y-115222242D01*
X136604819Y-115222242D02*
X136604819Y-115317480D01*
X136604819Y-115317480D02*
X136557200Y-115460337D01*
X136557200Y-115460337D02*
X136461961Y-115555575D01*
X136461961Y-115555575D02*
X136366723Y-115603194D01*
X136366723Y-115603194D02*
X136176247Y-115650813D01*
X136176247Y-115650813D02*
X136033390Y-115650813D01*
X136033390Y-115650813D02*
X135842914Y-115603194D01*
X135842914Y-115603194D02*
X135747676Y-115555575D01*
X135747676Y-115555575D02*
X135652438Y-115460337D01*
X135652438Y-115460337D02*
X135604819Y-115317480D01*
X135604819Y-115317480D02*
X135604819Y-115222242D01*
X135604819Y-115222242D02*
X135652438Y-115079385D01*
X135652438Y-115079385D02*
X135700057Y-115031766D01*
X135700057Y-114650813D02*
X135652438Y-114603194D01*
X135652438Y-114603194D02*
X135604819Y-114507956D01*
X135604819Y-114507956D02*
X135604819Y-114269861D01*
X135604819Y-114269861D02*
X135652438Y-114174623D01*
X135652438Y-114174623D02*
X135700057Y-114127004D01*
X135700057Y-114127004D02*
X135795295Y-114079385D01*
X135795295Y-114079385D02*
X135890533Y-114079385D01*
X135890533Y-114079385D02*
X136033390Y-114127004D01*
X136033390Y-114127004D02*
X136604819Y-114698432D01*
X136604819Y-114698432D02*
X136604819Y-114079385D01*
X173541666Y-88129819D02*
X173208333Y-87653628D01*
X172970238Y-88129819D02*
X172970238Y-87129819D01*
X172970238Y-87129819D02*
X173351190Y-87129819D01*
X173351190Y-87129819D02*
X173446428Y-87177438D01*
X173446428Y-87177438D02*
X173494047Y-87225057D01*
X173494047Y-87225057D02*
X173541666Y-87320295D01*
X173541666Y-87320295D02*
X173541666Y-87463152D01*
X173541666Y-87463152D02*
X173494047Y-87558390D01*
X173494047Y-87558390D02*
X173446428Y-87606009D01*
X173446428Y-87606009D02*
X173351190Y-87653628D01*
X173351190Y-87653628D02*
X172970238Y-87653628D01*
X173970238Y-87606009D02*
X174303571Y-87606009D01*
X174446428Y-88129819D02*
X173970238Y-88129819D01*
X173970238Y-88129819D02*
X173970238Y-87129819D01*
X173970238Y-87129819D02*
X174446428Y-87129819D01*
X175208333Y-87606009D02*
X174875000Y-87606009D01*
X174875000Y-88129819D02*
X174875000Y-87129819D01*
X174875000Y-87129819D02*
X175351190Y-87129819D01*
X175875000Y-87129819D02*
X175875000Y-87367914D01*
X175636905Y-87272676D02*
X175875000Y-87367914D01*
X175875000Y-87367914D02*
X176113095Y-87272676D01*
X175732143Y-87558390D02*
X175875000Y-87367914D01*
X175875000Y-87367914D02*
X176017857Y-87558390D01*
X176636905Y-87129819D02*
X176636905Y-87367914D01*
X176398810Y-87272676D02*
X176636905Y-87367914D01*
X176636905Y-87367914D02*
X176875000Y-87272676D01*
X176494048Y-87558390D02*
X176636905Y-87367914D01*
X176636905Y-87367914D02*
X176779762Y-87558390D01*
X144529819Y-111008333D02*
X145244104Y-111008333D01*
X145244104Y-111008333D02*
X145386961Y-111055952D01*
X145386961Y-111055952D02*
X145482200Y-111151190D01*
X145482200Y-111151190D02*
X145529819Y-111294047D01*
X145529819Y-111294047D02*
X145529819Y-111389285D01*
X145529819Y-110008333D02*
X145529819Y-110579761D01*
X145529819Y-110294047D02*
X144529819Y-110294047D01*
X144529819Y-110294047D02*
X144672676Y-110389285D01*
X144672676Y-110389285D02*
X144767914Y-110484523D01*
X144767914Y-110484523D02*
X144815533Y-110579761D01*
X161729819Y-111746428D02*
X161729819Y-111175000D01*
X162729819Y-111460714D02*
X161729819Y-111460714D01*
X161729819Y-110984523D02*
X161729819Y-110413095D01*
X162729819Y-110698809D02*
X161729819Y-110698809D01*
X162729819Y-109603571D02*
X162729819Y-110079761D01*
X162729819Y-110079761D02*
X161729819Y-110079761D01*
X156419819Y-108053333D02*
X155943628Y-108386666D01*
X156419819Y-108624761D02*
X155419819Y-108624761D01*
X155419819Y-108624761D02*
X155419819Y-108243809D01*
X155419819Y-108243809D02*
X155467438Y-108148571D01*
X155467438Y-108148571D02*
X155515057Y-108100952D01*
X155515057Y-108100952D02*
X155610295Y-108053333D01*
X155610295Y-108053333D02*
X155753152Y-108053333D01*
X155753152Y-108053333D02*
X155848390Y-108100952D01*
X155848390Y-108100952D02*
X155896009Y-108148571D01*
X155896009Y-108148571D02*
X155943628Y-108243809D01*
X155943628Y-108243809D02*
X155943628Y-108624761D01*
X156419819Y-107100952D02*
X156419819Y-107672380D01*
X156419819Y-107386666D02*
X155419819Y-107386666D01*
X155419819Y-107386666D02*
X155562676Y-107481904D01*
X155562676Y-107481904D02*
X155657914Y-107577142D01*
X155657914Y-107577142D02*
X155705533Y-107672380D01*
X136304819Y-112227004D02*
X137114342Y-112227004D01*
X137114342Y-112227004D02*
X137209580Y-112179385D01*
X137209580Y-112179385D02*
X137257200Y-112131766D01*
X137257200Y-112131766D02*
X137304819Y-112036528D01*
X137304819Y-112036528D02*
X137304819Y-111846052D01*
X137304819Y-111846052D02*
X137257200Y-111750814D01*
X137257200Y-111750814D02*
X137209580Y-111703195D01*
X137209580Y-111703195D02*
X137114342Y-111655576D01*
X137114342Y-111655576D02*
X136304819Y-111655576D01*
X136400057Y-111227004D02*
X136352438Y-111179385D01*
X136352438Y-111179385D02*
X136304819Y-111084147D01*
X136304819Y-111084147D02*
X136304819Y-110846052D01*
X136304819Y-110846052D02*
X136352438Y-110750814D01*
X136352438Y-110750814D02*
X136400057Y-110703195D01*
X136400057Y-110703195D02*
X136495295Y-110655576D01*
X136495295Y-110655576D02*
X136590533Y-110655576D01*
X136590533Y-110655576D02*
X136733390Y-110703195D01*
X136733390Y-110703195D02*
X137304819Y-111274623D01*
X137304819Y-111274623D02*
X137304819Y-110655576D01*
X166691667Y-109382200D02*
X166834524Y-109429819D01*
X166834524Y-109429819D02*
X167072619Y-109429819D01*
X167072619Y-109429819D02*
X167167857Y-109382200D01*
X167167857Y-109382200D02*
X167215476Y-109334580D01*
X167215476Y-109334580D02*
X167263095Y-109239342D01*
X167263095Y-109239342D02*
X167263095Y-109144104D01*
X167263095Y-109144104D02*
X167215476Y-109048866D01*
X167215476Y-109048866D02*
X167167857Y-109001247D01*
X167167857Y-109001247D02*
X167072619Y-108953628D01*
X167072619Y-108953628D02*
X166882143Y-108906009D01*
X166882143Y-108906009D02*
X166786905Y-108858390D01*
X166786905Y-108858390D02*
X166739286Y-108810771D01*
X166739286Y-108810771D02*
X166691667Y-108715533D01*
X166691667Y-108715533D02*
X166691667Y-108620295D01*
X166691667Y-108620295D02*
X166739286Y-108525057D01*
X166739286Y-108525057D02*
X166786905Y-108477438D01*
X166786905Y-108477438D02*
X166882143Y-108429819D01*
X166882143Y-108429819D02*
X167120238Y-108429819D01*
X167120238Y-108429819D02*
X167263095Y-108477438D01*
X167596429Y-108429819D02*
X167834524Y-109429819D01*
X167834524Y-109429819D02*
X168025000Y-108715533D01*
X168025000Y-108715533D02*
X168215476Y-109429819D01*
X168215476Y-109429819D02*
X168453572Y-108429819D01*
X169358333Y-109429819D02*
X168786905Y-109429819D01*
X169072619Y-109429819D02*
X169072619Y-108429819D01*
X169072619Y-108429819D02*
X168977381Y-108572676D01*
X168977381Y-108572676D02*
X168882143Y-108667914D01*
X168882143Y-108667914D02*
X168786905Y-108715533D01*
X169695833Y-99879819D02*
X169362500Y-99403628D01*
X169124405Y-99879819D02*
X169124405Y-98879819D01*
X169124405Y-98879819D02*
X169505357Y-98879819D01*
X169505357Y-98879819D02*
X169600595Y-98927438D01*
X169600595Y-98927438D02*
X169648214Y-98975057D01*
X169648214Y-98975057D02*
X169695833Y-99070295D01*
X169695833Y-99070295D02*
X169695833Y-99213152D01*
X169695833Y-99213152D02*
X169648214Y-99308390D01*
X169648214Y-99308390D02*
X169600595Y-99356009D01*
X169600595Y-99356009D02*
X169505357Y-99403628D01*
X169505357Y-99403628D02*
X169124405Y-99403628D01*
X170600595Y-98879819D02*
X170124405Y-98879819D01*
X170124405Y-98879819D02*
X170076786Y-99356009D01*
X170076786Y-99356009D02*
X170124405Y-99308390D01*
X170124405Y-99308390D02*
X170219643Y-99260771D01*
X170219643Y-99260771D02*
X170457738Y-99260771D01*
X170457738Y-99260771D02*
X170552976Y-99308390D01*
X170552976Y-99308390D02*
X170600595Y-99356009D01*
X170600595Y-99356009D02*
X170648214Y-99451247D01*
X170648214Y-99451247D02*
X170648214Y-99689342D01*
X170648214Y-99689342D02*
X170600595Y-99784580D01*
X170600595Y-99784580D02*
X170552976Y-99832200D01*
X170552976Y-99832200D02*
X170457738Y-99879819D01*
X170457738Y-99879819D02*
X170219643Y-99879819D01*
X170219643Y-99879819D02*
X170124405Y-99832200D01*
X170124405Y-99832200D02*
X170076786Y-99784580D01*
X172817319Y-95241666D02*
X172341128Y-95574999D01*
X172817319Y-95813094D02*
X171817319Y-95813094D01*
X171817319Y-95813094D02*
X171817319Y-95432142D01*
X171817319Y-95432142D02*
X171864938Y-95336904D01*
X171864938Y-95336904D02*
X171912557Y-95289285D01*
X171912557Y-95289285D02*
X172007795Y-95241666D01*
X172007795Y-95241666D02*
X172150652Y-95241666D01*
X172150652Y-95241666D02*
X172245890Y-95289285D01*
X172245890Y-95289285D02*
X172293509Y-95336904D01*
X172293509Y-95336904D02*
X172341128Y-95432142D01*
X172341128Y-95432142D02*
X172341128Y-95813094D01*
X171817319Y-94908332D02*
X171817319Y-94241666D01*
X171817319Y-94241666D02*
X172817319Y-94670237D01*
X153041666Y-117129819D02*
X153041666Y-117844104D01*
X153041666Y-117844104D02*
X152994047Y-117986961D01*
X152994047Y-117986961D02*
X152898809Y-118082200D01*
X152898809Y-118082200D02*
X152755952Y-118129819D01*
X152755952Y-118129819D02*
X152660714Y-118129819D01*
X153422619Y-117129819D02*
X154089285Y-117129819D01*
X154089285Y-117129819D02*
X153660714Y-118129819D01*
X136522080Y-105729166D02*
X136569700Y-105776785D01*
X136569700Y-105776785D02*
X136617319Y-105919642D01*
X136617319Y-105919642D02*
X136617319Y-106014880D01*
X136617319Y-106014880D02*
X136569700Y-106157737D01*
X136569700Y-106157737D02*
X136474461Y-106252975D01*
X136474461Y-106252975D02*
X136379223Y-106300594D01*
X136379223Y-106300594D02*
X136188747Y-106348213D01*
X136188747Y-106348213D02*
X136045890Y-106348213D01*
X136045890Y-106348213D02*
X135855414Y-106300594D01*
X135855414Y-106300594D02*
X135760176Y-106252975D01*
X135760176Y-106252975D02*
X135664938Y-106157737D01*
X135664938Y-106157737D02*
X135617319Y-106014880D01*
X135617319Y-106014880D02*
X135617319Y-105919642D01*
X135617319Y-105919642D02*
X135664938Y-105776785D01*
X135664938Y-105776785D02*
X135712557Y-105729166D01*
X135950652Y-104872023D02*
X136617319Y-104872023D01*
X135569700Y-105110118D02*
X136283985Y-105348213D01*
X136283985Y-105348213D02*
X136283985Y-104729166D01*
X172817319Y-97241666D02*
X172341128Y-97574999D01*
X172817319Y-97813094D02*
X171817319Y-97813094D01*
X171817319Y-97813094D02*
X171817319Y-97432142D01*
X171817319Y-97432142D02*
X171864938Y-97336904D01*
X171864938Y-97336904D02*
X171912557Y-97289285D01*
X171912557Y-97289285D02*
X172007795Y-97241666D01*
X172007795Y-97241666D02*
X172150652Y-97241666D01*
X172150652Y-97241666D02*
X172245890Y-97289285D01*
X172245890Y-97289285D02*
X172293509Y-97336904D01*
X172293509Y-97336904D02*
X172341128Y-97432142D01*
X172341128Y-97432142D02*
X172341128Y-97813094D01*
X171817319Y-96384523D02*
X171817319Y-96574999D01*
X171817319Y-96574999D02*
X171864938Y-96670237D01*
X171864938Y-96670237D02*
X171912557Y-96717856D01*
X171912557Y-96717856D02*
X172055414Y-96813094D01*
X172055414Y-96813094D02*
X172245890Y-96860713D01*
X172245890Y-96860713D02*
X172626842Y-96860713D01*
X172626842Y-96860713D02*
X172722080Y-96813094D01*
X172722080Y-96813094D02*
X172769700Y-96765475D01*
X172769700Y-96765475D02*
X172817319Y-96670237D01*
X172817319Y-96670237D02*
X172817319Y-96479761D01*
X172817319Y-96479761D02*
X172769700Y-96384523D01*
X172769700Y-96384523D02*
X172722080Y-96336904D01*
X172722080Y-96336904D02*
X172626842Y-96289285D01*
X172626842Y-96289285D02*
X172388747Y-96289285D01*
X172388747Y-96289285D02*
X172293509Y-96336904D01*
X172293509Y-96336904D02*
X172245890Y-96384523D01*
X172245890Y-96384523D02*
X172198271Y-96479761D01*
X172198271Y-96479761D02*
X172198271Y-96670237D01*
X172198271Y-96670237D02*
X172245890Y-96765475D01*
X172245890Y-96765475D02*
X172293509Y-96813094D01*
X172293509Y-96813094D02*
X172388747Y-96860713D01*
D12*
%TO.C,Q1*%
X159537500Y-105323750D02*
X157862500Y-105323750D01*
X159537500Y-105323750D02*
X160187500Y-105323750D01*
X159537500Y-108443750D02*
X158887500Y-108443750D01*
X159537500Y-108443750D02*
X160187500Y-108443750D01*
%TO.C,U1*%
X144225000Y-88575000D02*
X144225000Y-89575000D01*
X145255000Y-90275000D02*
X145255000Y-89875000D01*
X145255000Y-92275000D02*
X145255000Y-91875000D01*
X145255000Y-94275000D02*
X145255000Y-93875000D01*
X145255000Y-96275000D02*
X145255000Y-95875000D01*
X145255000Y-98275000D02*
X145255000Y-97875000D01*
X145255000Y-100275000D02*
X145255000Y-99875000D01*
X145255000Y-102275000D02*
X145255000Y-101875000D01*
X145255000Y-104695000D02*
X145255000Y-103875000D01*
X161495000Y-90275000D02*
X161495000Y-89875000D01*
X161495000Y-92275000D02*
X161495000Y-91875000D01*
X161495000Y-94275000D02*
X161495000Y-93875000D01*
X161495000Y-96275000D02*
X161495000Y-95875000D01*
X161495000Y-98275000D02*
X161495000Y-97875000D01*
X161495000Y-100275000D02*
X161495000Y-99875000D01*
X161495000Y-102275000D02*
X161495000Y-101875000D01*
X161495000Y-103875000D02*
X161495000Y-104695000D01*
X161495000Y-104695000D02*
X145255000Y-104695000D01*
%TO.C,R8*%
X170089564Y-93810000D02*
X169635436Y-93810000D01*
X170089564Y-92340000D02*
X169635436Y-92340000D01*
%TO.C,Q2*%
X147235000Y-108443750D02*
X148910000Y-108443750D01*
X147235000Y-108443750D02*
X146585000Y-108443750D01*
X147235000Y-105323750D02*
X147885000Y-105323750D01*
X147235000Y-105323750D02*
X146585000Y-105323750D01*
%TO.C,C5*%
X136552500Y-92873752D02*
X136552500Y-91451248D01*
X138372500Y-92873752D02*
X138372500Y-91451248D01*
%TO.C,C1*%
X139961252Y-118275100D02*
X138538748Y-118275100D01*
X139961252Y-116455100D02*
X138538748Y-116455100D01*
%TO.C,R3*%
X140597500Y-91935436D02*
X140597500Y-92389564D01*
X139127500Y-91935436D02*
X139127500Y-92389564D01*
%TO.C,J6*%
X185465000Y-109805000D02*
X185465000Y-96985000D01*
X185465000Y-109805000D02*
X176835000Y-109805000D01*
X185465000Y-109685000D02*
X176835000Y-109685000D01*
X185465000Y-109566905D02*
X176835000Y-109566905D01*
X185465000Y-109448810D02*
X176835000Y-109448810D01*
X185465000Y-109330715D02*
X176835000Y-109330715D01*
X185465000Y-109212620D02*
X176835000Y-109212620D01*
X185465000Y-109094525D02*
X176835000Y-109094525D01*
X185465000Y-108976430D02*
X176835000Y-108976430D01*
X185465000Y-108858335D02*
X176835000Y-108858335D01*
X185465000Y-108740240D02*
X176835000Y-108740240D01*
X185465000Y-108622145D02*
X176835000Y-108622145D01*
X185465000Y-108504050D02*
X176835000Y-108504050D01*
X185465000Y-108385955D02*
X176835000Y-108385955D01*
X185465000Y-108267860D02*
X176835000Y-108267860D01*
X185465000Y-108149765D02*
X176835000Y-108149765D01*
X185465000Y-108031670D02*
X176835000Y-108031670D01*
X185465000Y-107913575D02*
X176835000Y-107913575D01*
X185465000Y-107795480D02*
X176835000Y-107795480D01*
X185465000Y-107677385D02*
X176835000Y-107677385D01*
X185465000Y-107559290D02*
X176835000Y-107559290D01*
X185465000Y-107441195D02*
X176835000Y-107441195D01*
X185465000Y-107323100D02*
X176835000Y-107323100D01*
X185465000Y-107205000D02*
X176835000Y-107205000D01*
X185465000Y-104665000D02*
X176835000Y-104665000D01*
X185465000Y-102125000D02*
X176835000Y-102125000D01*
X185465000Y-99585000D02*
X176835000Y-99585000D01*
X185465000Y-96985000D02*
X176835000Y-96985000D01*
X176835000Y-109805000D02*
X176835000Y-96985000D01*
X176835000Y-108835000D02*
X176485000Y-108835000D01*
X176835000Y-108115000D02*
X176485000Y-108115000D01*
X176835000Y-106295000D02*
X176425000Y-106295000D01*
X176835000Y-105575000D02*
X176425000Y-105575000D01*
X176835000Y-103755000D02*
X176425000Y-103755000D01*
X176835000Y-103035000D02*
X176425000Y-103035000D01*
X176835000Y-101215000D02*
X176425000Y-101215000D01*
X176835000Y-100495000D02*
X176425000Y-100495000D01*
X176835000Y-98675000D02*
X176425000Y-98675000D01*
X176835000Y-97955000D02*
X176425000Y-97955000D01*
X175375000Y-109805000D02*
X174265000Y-109805000D01*
X174265000Y-109805000D02*
X174265000Y-108475000D01*
%TO.C,R2*%
X153789564Y-106615833D02*
X153335436Y-106615833D01*
X153789564Y-105145833D02*
X153335436Y-105145833D01*
%TO.C,J5*%
X121285000Y-95720000D02*
X121285000Y-111080000D01*
X121285000Y-95720000D02*
X129915000Y-95720000D01*
X121285000Y-95840000D02*
X129915000Y-95840000D01*
X121285000Y-95958095D02*
X129915000Y-95958095D01*
X121285000Y-96076190D02*
X129915000Y-96076190D01*
X121285000Y-96194285D02*
X129915000Y-96194285D01*
X121285000Y-96312380D02*
X129915000Y-96312380D01*
X121285000Y-96430475D02*
X129915000Y-96430475D01*
X121285000Y-96548570D02*
X129915000Y-96548570D01*
X121285000Y-96666665D02*
X129915000Y-96666665D01*
X121285000Y-96784760D02*
X129915000Y-96784760D01*
X121285000Y-96902855D02*
X129915000Y-96902855D01*
X121285000Y-97020950D02*
X129915000Y-97020950D01*
X121285000Y-97139045D02*
X129915000Y-97139045D01*
X121285000Y-97257140D02*
X129915000Y-97257140D01*
X121285000Y-97375235D02*
X129915000Y-97375235D01*
X121285000Y-97493330D02*
X129915000Y-97493330D01*
X121285000Y-97611425D02*
X129915000Y-97611425D01*
X121285000Y-97729520D02*
X129915000Y-97729520D01*
X121285000Y-97847615D02*
X129915000Y-97847615D01*
X121285000Y-97965710D02*
X129915000Y-97965710D01*
X121285000Y-98083805D02*
X129915000Y-98083805D01*
X121285000Y-98201900D02*
X129915000Y-98201900D01*
X121285000Y-98320000D02*
X129915000Y-98320000D01*
X121285000Y-100860000D02*
X129915000Y-100860000D01*
X121285000Y-103400000D02*
X129915000Y-103400000D01*
X121285000Y-105940000D02*
X129915000Y-105940000D01*
X121285000Y-108480000D02*
X129915000Y-108480000D01*
X121285000Y-111080000D02*
X129915000Y-111080000D01*
X129915000Y-95720000D02*
X129915000Y-111080000D01*
X129915000Y-96690000D02*
X130265000Y-96690000D01*
X129915000Y-97410000D02*
X130265000Y-97410000D01*
X129915000Y-99230000D02*
X130325000Y-99230000D01*
X129915000Y-99950000D02*
X130325000Y-99950000D01*
X129915000Y-101770000D02*
X130325000Y-101770000D01*
X129915000Y-102490000D02*
X130325000Y-102490000D01*
X129915000Y-104310000D02*
X130325000Y-104310000D01*
X129915000Y-105030000D02*
X130325000Y-105030000D01*
X129915000Y-106850000D02*
X130325000Y-106850000D01*
X129915000Y-107570000D02*
X130325000Y-107570000D01*
X129915000Y-109390000D02*
X130325000Y-109390000D01*
X129915000Y-110110000D02*
X130325000Y-110110000D01*
X131375000Y-95720000D02*
X132485000Y-95720000D01*
X132485000Y-95720000D02*
X132485000Y-97050000D01*
%TO.C,R4*%
X140547936Y-88340000D02*
X141002064Y-88340000D01*
X140547936Y-89810000D02*
X141002064Y-89810000D01*
%TO.C,C3*%
X139961252Y-108975100D02*
X138538748Y-108975100D01*
X139961252Y-107155100D02*
X138538748Y-107155100D01*
%TO.C,C2*%
X139961252Y-115775100D02*
X138538748Y-115775100D01*
X139961252Y-113955100D02*
X138538748Y-113955100D01*
%TO.C,J1*%
X148320000Y-112022500D02*
X161080000Y-112022500D01*
X148320000Y-112022500D02*
X148320000Y-109362500D01*
X161080000Y-112022500D02*
X161080000Y-109362500D01*
X145720000Y-110692500D02*
X145720000Y-109362500D01*
X145720000Y-109362500D02*
X147050000Y-109362500D01*
X148320000Y-109362500D02*
X161080000Y-109362500D01*
%TO.C,R1*%
X153335436Y-107151666D02*
X153789564Y-107151666D01*
X153335436Y-108621666D02*
X153789564Y-108621666D01*
%TO.C,U2*%
X137690000Y-111465100D02*
X137690000Y-113265100D01*
X137690000Y-111465100D02*
X137690000Y-110665100D01*
X140810000Y-111465100D02*
X140810000Y-112265100D01*
X140810000Y-111465100D02*
X140810000Y-110665100D01*
%TO.C,SW1*%
X171525000Y-113975000D02*
X171525000Y-112475000D01*
X170275000Y-109975000D02*
X165775000Y-109975000D01*
X165775000Y-116475000D02*
X170275000Y-116475000D01*
X164525000Y-112475000D02*
X164525000Y-113975000D01*
%TO.C,R5*%
X169635436Y-100340000D02*
X170089564Y-100340000D01*
X169635436Y-101810000D02*
X170089564Y-101810000D01*
%TO.C,R7*%
X170089564Y-95810000D02*
X169635436Y-95810000D01*
X170089564Y-94340000D02*
X169635436Y-94340000D01*
D13*
%TO.C,J7*%
X149575000Y-123375000D02*
X149575000Y-123145000D01*
X149575000Y-123375000D02*
X157175000Y-123375000D01*
X157175000Y-123375000D02*
X157175000Y-123145000D01*
D14*
X152175000Y-117875000D02*
G75*
G03*
X152175000Y-117875000I-100000J0D01*
G01*
D12*
%TO.C,C4*%
X139961252Y-106475100D02*
X138538748Y-106475100D01*
X139961252Y-104655100D02*
X138538748Y-104655100D01*
%TO.C,R6*%
X170089564Y-97810000D02*
X169635436Y-97810000D01*
X170089564Y-96340000D02*
X169635436Y-96340000D01*
%TD*%
M02*
