%TF.GenerationSoftware,KiCad,Pcbnew,7.0.8*%
%TF.CreationDate,2023-12-05T19:13:38+00:00*%
%TF.ProjectId,multisensor,6d756c74-6973-4656-9e73-6f722e6b6963,rev?*%
%TF.SameCoordinates,Original*%
%TF.FileFunction,Copper,L1,Top*%
%TF.FilePolarity,Positive*%
%FSLAX46Y46*%
G04 Gerber Fmt 4.6, Leading zero omitted, Abs format (unit mm)*
G04 Created by KiCad (PCBNEW 7.0.8) date 2023-12-05 19:13:38*
%MOMM*%
%LPD*%
G01*
G04 APERTURE LIST*
G04 Aperture macros list*
%AMRoundRect*
0 Rectangle with rounded corners*
0 $1 Rounding radius*
0 $2 $3 $4 $5 $6 $7 $8 $9 X,Y pos of 4 corners*
0 Add a 4 corners polygon primitive as box body*
4,1,4,$2,$3,$4,$5,$6,$7,$8,$9,$2,$3,0*
0 Add four circle primitives for the rounded corners*
1,1,$1+$1,$2,$3*
1,1,$1+$1,$4,$5*
1,1,$1+$1,$6,$7*
1,1,$1+$1,$8,$9*
0 Add four rect primitives between the rounded corners*
20,1,$1+$1,$2,$3,$4,$5,0*
20,1,$1+$1,$4,$5,$6,$7,0*
20,1,$1+$1,$6,$7,$8,$9,0*
20,1,$1+$1,$8,$9,$2,$3,0*%
G04 Aperture macros list end*
%TA.AperFunction,SMDPad,CuDef*%
%ADD10RoundRect,0.150000X-0.587500X-0.150000X0.587500X-0.150000X0.587500X0.150000X-0.587500X0.150000X0*%
%TD*%
%TA.AperFunction,SMDPad,CuDef*%
%ADD11R,2.500000X1.000000*%
%TD*%
%TA.AperFunction,SMDPad,CuDef*%
%ADD12RoundRect,0.250000X0.262500X0.450000X-0.262500X0.450000X-0.262500X-0.450000X0.262500X-0.450000X0*%
%TD*%
%TA.AperFunction,SMDPad,CuDef*%
%ADD13RoundRect,0.150000X0.587500X0.150000X-0.587500X0.150000X-0.587500X-0.150000X0.587500X-0.150000X0*%
%TD*%
%TA.AperFunction,SMDPad,CuDef*%
%ADD14RoundRect,0.250000X0.650000X-0.325000X0.650000X0.325000X-0.650000X0.325000X-0.650000X-0.325000X0*%
%TD*%
%TA.AperFunction,ComponentPad*%
%ADD15C,5.400000*%
%TD*%
%TA.AperFunction,SMDPad,CuDef*%
%ADD16RoundRect,0.250000X0.325000X0.650000X-0.325000X0.650000X-0.325000X-0.650000X0.325000X-0.650000X0*%
%TD*%
%TA.AperFunction,SMDPad,CuDef*%
%ADD17RoundRect,0.250000X-0.450000X0.262500X-0.450000X-0.262500X0.450000X-0.262500X0.450000X0.262500X0*%
%TD*%
%TA.AperFunction,ComponentPad*%
%ADD18R,1.700000X1.700000*%
%TD*%
%TA.AperFunction,ComponentPad*%
%ADD19O,1.700000X1.700000*%
%TD*%
%TA.AperFunction,SMDPad,CuDef*%
%ADD20RoundRect,0.250000X-0.262500X-0.450000X0.262500X-0.450000X0.262500X0.450000X-0.262500X0.450000X0*%
%TD*%
%TA.AperFunction,SMDPad,CuDef*%
%ADD21RoundRect,0.150000X0.150000X-0.512500X0.150000X0.512500X-0.150000X0.512500X-0.150000X-0.512500X0*%
%TD*%
%TA.AperFunction,ComponentPad*%
%ADD22C,2.000000*%
%TD*%
%TA.AperFunction,SMDPad,CuDef*%
%ADD23R,0.400000X1.350000*%
%TD*%
%TA.AperFunction,SMDPad,CuDef*%
%ADD24R,1.600000X1.400000*%
%TD*%
%TA.AperFunction,SMDPad,CuDef*%
%ADD25R,1.900000X1.900000*%
%TD*%
%TA.AperFunction,ComponentPad*%
%ADD26O,0.900000X1.800000*%
%TD*%
%TA.AperFunction,ViaPad*%
%ADD27C,0.800000*%
%TD*%
%TA.AperFunction,Conductor*%
%ADD28C,0.250000*%
%TD*%
G04 APERTURE END LIST*
D10*
%TO.P,Q1,1,E*%
%TO.N,RTS*%
X158600000Y-105933750D03*
%TO.P,Q1,2,B*%
%TO.N,Net-(Q1-B)*%
X158600000Y-107833750D03*
%TO.P,Q1,3,C*%
%TO.N,nRST*%
X160475000Y-106883750D03*
%TD*%
D11*
%TO.P,U1,1,~{RST}*%
%TO.N,nRST*%
X145775000Y-89075000D03*
%TO.P,U1,2,ADC*%
%TO.N,unconnected-(U1-ADC-Pad2)*%
X145775000Y-91075000D03*
%TO.P,U1,3,EN*%
%TO.N,Net-(U1-EN)*%
X145775000Y-93075000D03*
%TO.P,U1,4,GPIO16*%
%TO.N,MMW_IO2*%
X145775000Y-95075000D03*
%TO.P,U1,5,GPIO14*%
%TO.N,PIR*%
X145775000Y-97075000D03*
%TO.P,U1,6,GPIO12*%
%TO.N,MMW_TX*%
X145775000Y-99075000D03*
%TO.P,U1,7,GPIO13*%
%TO.N,MMW_RX*%
X145775000Y-101075000D03*
%TO.P,U1,8,VCC*%
%TO.N,+3.3V*%
X145775000Y-103075000D03*
%TO.P,U1,9,GND*%
%TO.N,GND*%
X160975000Y-103075000D03*
%TO.P,U1,10,GPIO15*%
%TO.N,Net-(U1-GPIO15)*%
X160975000Y-101075000D03*
%TO.P,U1,11,GPIO2*%
%TO.N,unconnected-(U1-GPIO2-Pad11)*%
X160975000Y-99075000D03*
%TO.P,U1,12,GPIO0*%
%TO.N,GPIO0*%
X160975000Y-97075000D03*
%TO.P,U1,13,GPIO4*%
%TO.N,SDA*%
X160975000Y-95075000D03*
%TO.P,U1,14,GPIO5*%
%TO.N,SCL*%
X160975000Y-93075000D03*
%TO.P,U1,15,GPIO3/RXD*%
%TO.N,RX*%
X160975000Y-91075000D03*
%TO.P,U1,16,GPIO1/TXD*%
%TO.N,TX*%
X160975000Y-89075000D03*
%TD*%
D12*
%TO.P,R8,1*%
%TO.N,+3.3V*%
X170775000Y-93075000D03*
%TO.P,R8,2*%
%TO.N,SCL*%
X168950000Y-93075000D03*
%TD*%
D13*
%TO.P,Q2,1,E*%
%TO.N,DTR*%
X148172500Y-107833750D03*
%TO.P,Q2,2,B*%
%TO.N,Net-(Q2-B)*%
X148172500Y-105933750D03*
%TO.P,Q2,3,C*%
%TO.N,GPIO0*%
X146297500Y-106883750D03*
%TD*%
D14*
%TO.P,C5,1*%
%TO.N,Net-(U1-EN)*%
X137462500Y-93637500D03*
%TO.P,C5,2*%
%TO.N,GND*%
X137462500Y-90687500D03*
%TD*%
D15*
%TO.P,REF\u002A\u002A,1*%
%TO.N,N/C*%
X131875000Y-119875000D03*
%TD*%
D16*
%TO.P,C1,1*%
%TO.N,+5V*%
X140725000Y-117365100D03*
%TO.P,C1,2*%
%TO.N,GND*%
X137775000Y-117365100D03*
%TD*%
D17*
%TO.P,R3,1*%
%TO.N,+3.3V*%
X139862500Y-91250000D03*
%TO.P,R3,2*%
%TO.N,Net-(U1-EN)*%
X139862500Y-93075000D03*
%TD*%
D18*
%TO.P,J6,1,Pin_1*%
%TO.N,+5V*%
X175375000Y-108475000D03*
D19*
%TO.P,J6,2,Pin_2*%
%TO.N,GND*%
X175375000Y-105935000D03*
%TO.P,J6,3,Pin_3*%
%TO.N,SCL*%
X175375000Y-103395000D03*
%TO.P,J6,4,Pin_4*%
%TO.N,SDA*%
X175375000Y-100855000D03*
%TO.P,J6,5,Pin_5*%
%TO.N,unconnected-(J6-Pin_5-Pad5)*%
X175375000Y-98315000D03*
%TD*%
D15*
%TO.P,REF\u002A\u002A,1*%
%TO.N,N/C*%
X131875000Y-91375000D03*
%TD*%
D12*
%TO.P,R2,1*%
%TO.N,RTS*%
X154475000Y-105880833D03*
%TO.P,R2,2*%
%TO.N,Net-(Q2-B)*%
X152650000Y-105880833D03*
%TD*%
D18*
%TO.P,J5,1,Pin_1*%
%TO.N,+5V*%
X131375000Y-97050000D03*
D19*
%TO.P,J5,2,Pin_2*%
%TO.N,GND*%
X131375000Y-99590000D03*
%TO.P,J5,3,Pin_3*%
%TO.N,SCL*%
X131375000Y-102130000D03*
%TO.P,J5,4,Pin_4*%
%TO.N,SDA*%
X131375000Y-104670000D03*
%TO.P,J5,5,Pin_5*%
%TO.N,unconnected-(J5-Pin_5-Pad5)*%
X131375000Y-107210000D03*
%TO.P,J5,6,Pin_6*%
%TO.N,unconnected-(J5-Pin_6-Pad6)*%
X131375000Y-109750000D03*
%TD*%
D20*
%TO.P,R4,1*%
%TO.N,+3.3V*%
X139862500Y-89075000D03*
%TO.P,R4,2*%
%TO.N,nRST*%
X141687500Y-89075000D03*
%TD*%
D16*
%TO.P,C3,1*%
%TO.N,+3.3V*%
X140725000Y-108065100D03*
%TO.P,C3,2*%
%TO.N,GND*%
X137775000Y-108065100D03*
%TD*%
D15*
%TO.P,REF\u002A\u002A,1*%
%TO.N,N/C*%
X174875000Y-119875000D03*
%TD*%
D16*
%TO.P,C2,1*%
%TO.N,+5V*%
X140725000Y-114865100D03*
%TO.P,C2,2*%
%TO.N,GND*%
X137775000Y-114865100D03*
%TD*%
D15*
%TO.P,REF\u002A\u002A,1*%
%TO.N,N/C*%
X174875000Y-91375000D03*
%TD*%
D18*
%TO.P,J1,1,Pin_1*%
%TO.N,DTR*%
X147050000Y-110692500D03*
D19*
%TO.P,J1,2,Pin_2*%
%TO.N,TX*%
X149590000Y-110692500D03*
%TO.P,J1,3,Pin_3*%
%TO.N,RX*%
X152130000Y-110692500D03*
%TO.P,J1,4,Pin_4*%
%TO.N,unconnected-(J1-Pin_4-Pad4)*%
X154670000Y-110692500D03*
%TO.P,J1,5,Pin_5*%
%TO.N,RTS*%
X157210000Y-110692500D03*
%TO.P,J1,6,Pin_6*%
%TO.N,GND*%
X159750000Y-110692500D03*
%TD*%
D20*
%TO.P,R1,1*%
%TO.N,DTR*%
X152650000Y-107886666D03*
%TO.P,R1,2*%
%TO.N,Net-(Q1-B)*%
X154475000Y-107886666D03*
%TD*%
D21*
%TO.P,U2,1,IN*%
%TO.N,+5V*%
X138300000Y-112602600D03*
%TO.P,U2,2,GND*%
%TO.N,GND*%
X139250000Y-112602600D03*
%TO.P,U2,3,EN*%
%TO.N,+5V*%
X140200000Y-112602600D03*
%TO.P,U2,4,NC*%
%TO.N,unconnected-(U2-NC-Pad4)*%
X140200000Y-110327600D03*
%TO.P,U2,5,OUT*%
%TO.N,+3.3V*%
X138300000Y-110327600D03*
%TD*%
D22*
%TO.P,SW1,2,2*%
%TO.N,GND*%
X171275000Y-115475000D03*
X164775000Y-115475000D03*
%TO.P,SW1,1,1*%
%TO.N,nRST*%
X171275000Y-110975000D03*
X164775000Y-110975000D03*
%TD*%
D20*
%TO.P,R5,1*%
%TO.N,Net-(U1-GPIO15)*%
X168950000Y-101075000D03*
%TO.P,R5,2*%
%TO.N,GND*%
X170775000Y-101075000D03*
%TD*%
D12*
%TO.P,R7,1*%
%TO.N,+3.3V*%
X170775000Y-95075000D03*
%TO.P,R7,2*%
%TO.N,SDA*%
X168950000Y-95075000D03*
%TD*%
D23*
%TO.P,J7,1,VUSB*%
%TO.N,+5V*%
X152075000Y-119250000D03*
%TO.P,J7,2,D-*%
%TO.N,unconnected-(J7-D--Pad2)*%
X152725000Y-119250000D03*
%TO.P,J7,3,D+*%
%TO.N,unconnected-(J7-D+-Pad3)*%
X153375000Y-119250000D03*
%TO.P,J7,4,ID*%
%TO.N,unconnected-(J7-ID-Pad4)*%
X154025000Y-119250000D03*
%TO.P,J7,5,GND*%
%TO.N,GND*%
X154675000Y-119250000D03*
D24*
%TO.P,J7,S1,SHIELD*%
X150175000Y-119475000D03*
%TO.P,J7,S2,SHIELD*%
X156575000Y-119475000D03*
D25*
%TO.P,J7,S3,SHIELD*%
X154575000Y-121925000D03*
%TO.P,J7,S4,SHIELD*%
X152175000Y-121925000D03*
D26*
%TO.P,J7,S5,SHIELD*%
X150075000Y-121925000D03*
%TO.P,J7,S6,SHIELD*%
X156675000Y-121925000D03*
%TD*%
D16*
%TO.P,C4,1*%
%TO.N,+3.3V*%
X140725000Y-105565100D03*
%TO.P,C4,2*%
%TO.N,GND*%
X137775000Y-105565100D03*
%TD*%
D12*
%TO.P,R6,1*%
%TO.N,+3.3V*%
X170775000Y-97075000D03*
%TO.P,R6,2*%
%TO.N,GPIO0*%
X168950000Y-97075000D03*
%TD*%
D18*
%TO.P,J4,1,Pin_1*%
%TO.N,+5V*%
X150835000Y-114595000D03*
D19*
%TO.P,J4,2,Pin_2*%
%TO.N,PIR*%
X153375000Y-114595000D03*
%TO.P,J4,3,Pin_3*%
%TO.N,GND*%
X155915000Y-114595000D03*
%TD*%
D18*
%TO.P,J3,1,Pin_1*%
%TO.N,unconnected-(J3-Pin_1-Pad1)*%
X140675000Y-98615000D03*
D19*
%TO.P,J3,2,Pin_2*%
%TO.N,unconnected-(J3-Pin_2-Pad2)*%
X140675000Y-101155000D03*
%TD*%
D18*
%TO.P,J2,1,Pin_1*%
%TO.N,+5V*%
X166075000Y-93540000D03*
D19*
%TO.P,J2,2,Pin_2*%
%TO.N,GND*%
X166075000Y-96080000D03*
%TO.P,J2,3,Pin_3*%
%TO.N,MMW_IO2*%
X166075000Y-98620000D03*
%TO.P,J2,4,Pin_4*%
%TO.N,unconnected-(J2-Pin_4-Pad4)*%
X166075000Y-101160000D03*
%TO.P,J2,5,Pin_5*%
%TO.N,MMW_RX*%
X166075000Y-103700000D03*
%TO.P,J2,6,Pin_6*%
%TO.N,MMW_TX*%
X166075000Y-106240000D03*
%TD*%
D27*
%TO.N,TX*%
X163475000Y-89075000D03*
%TO.N,+3.3V*%
X171506049Y-98631451D03*
X172362500Y-108175000D03*
%TO.N,Net-(U1-GPIO15)*%
X163475000Y-101075000D03*
%TO.N,GND*%
X156429999Y-106883750D03*
X168162500Y-104675000D03*
X150518749Y-106883750D03*
X134762500Y-88775000D03*
X153375000Y-103875000D03*
X135562500Y-109862500D03*
X167975000Y-111975000D03*
X135162500Y-96762500D03*
X131662500Y-113862500D03*
X163462500Y-104375000D03*
X147562500Y-114675000D03*
X142100000Y-91075000D03*
X149975000Y-108740000D03*
X153375000Y-91375000D03*
X171562500Y-88675000D03*
%TO.N,PIR*%
X143275000Y-97075000D03*
%TO.N,SCL*%
X163475000Y-93075000D03*
%TO.N,SDA*%
X163475000Y-95075000D03*
%TO.N,unconnected-(U1-GPIO2-Pad11)*%
X163475000Y-99075000D03*
%TO.N,RX*%
X163475000Y-91075000D03*
%TO.N,+5V*%
X171562500Y-90075000D03*
X166075000Y-90075000D03*
%TO.N,nRST*%
X143275000Y-89075000D03*
%TO.N,GPIO0*%
X163475000Y-97075000D03*
X143925000Y-110155000D03*
%TD*%
D28*
%TO.N,nRST*%
X160883750Y-106883750D02*
X160475000Y-106883750D01*
X164775000Y-110775000D02*
X160883750Y-106883750D01*
X164775000Y-110975000D02*
X164775000Y-110775000D01*
X164775000Y-110975000D02*
X171275000Y-110975000D01*
%TO.N,MMW_TX*%
X166010000Y-106175000D02*
X166075000Y-106240000D01*
X160362500Y-106175000D02*
X166010000Y-106175000D01*
X157562500Y-103375000D02*
X160362500Y-106175000D01*
X157562500Y-99962500D02*
X157562500Y-103375000D01*
X157125000Y-99525000D02*
X157562500Y-99962500D01*
X147480698Y-101656802D02*
X147480698Y-100393198D01*
X147237500Y-101900000D02*
X147480698Y-101656802D01*
X148348896Y-99525000D02*
X157125000Y-99525000D01*
X144200000Y-99400000D02*
X144200000Y-101709620D01*
X144200000Y-101709620D02*
X144390380Y-101900000D01*
X144390380Y-101900000D02*
X147237500Y-101900000D01*
X144525000Y-99075000D02*
X144200000Y-99400000D01*
X147480698Y-100393198D02*
X148348896Y-99525000D01*
X145775000Y-99075000D02*
X144525000Y-99075000D01*
%TO.N,DTR*%
X148225416Y-107886666D02*
X148172500Y-107833750D01*
X147050000Y-110692500D02*
X147050000Y-108956250D01*
X147050000Y-108956250D02*
X148172500Y-107833750D01*
X152650000Y-107886666D02*
X148225416Y-107886666D01*
%TO.N,TX*%
X160975000Y-89075000D02*
X163475000Y-89075000D01*
%TO.N,RTS*%
X153487500Y-106868333D02*
X153487500Y-108812500D01*
X154475000Y-105880833D02*
X153487500Y-106868333D01*
X153586666Y-108911666D02*
X155429166Y-108911666D01*
X155429166Y-108911666D02*
X157210000Y-110692500D01*
X153487500Y-108812500D02*
X153586666Y-108911666D01*
X158547083Y-105880833D02*
X158600000Y-105933750D01*
X154475000Y-105880833D02*
X158547083Y-105880833D01*
%TO.N,Net-(Q1-B)*%
X158547084Y-107886666D02*
X158600000Y-107833750D01*
X154475000Y-107886666D02*
X158547084Y-107886666D01*
%TO.N,MMW_IO2*%
X166075000Y-98620000D02*
X165500000Y-98045000D01*
X147875000Y-98625000D02*
X147575000Y-98325000D01*
X146135000Y-95075000D02*
X145775000Y-95075000D01*
X147575000Y-98325000D02*
X147575000Y-96515000D01*
X159745000Y-98045000D02*
X159165000Y-98625000D01*
X147575000Y-96515000D02*
X146135000Y-95075000D01*
X165500000Y-98045000D02*
X159745000Y-98045000D01*
X159165000Y-98625000D02*
X147875000Y-98625000D01*
%TO.N,Net-(Q2-B)*%
X148225417Y-105880833D02*
X148172500Y-105933750D01*
X152650000Y-105880833D02*
X148225417Y-105880833D01*
%TO.N,MMW_RX*%
X148162500Y-99075000D02*
X158762500Y-99075000D01*
X159162500Y-99475000D02*
X159162500Y-101675000D01*
X158762500Y-99075000D02*
X159162500Y-99475000D01*
X146162500Y-101075000D02*
X148162500Y-99075000D01*
X164450000Y-102075000D02*
X166075000Y-103700000D01*
X145775000Y-101075000D02*
X146162500Y-101075000D01*
X159162500Y-101675000D02*
X159562500Y-102075000D01*
X159562500Y-102075000D02*
X164450000Y-102075000D01*
%TO.N,+3.3V*%
X140725000Y-105565100D02*
X140725000Y-108065100D01*
X171662500Y-113045000D02*
X143517400Y-113045000D01*
X170775000Y-97075000D02*
X170775000Y-97900402D01*
X143517400Y-113045000D02*
X142062500Y-111590100D01*
X140725000Y-103687500D02*
X140112500Y-103075000D01*
X136250000Y-89075000D02*
X135162500Y-90162500D01*
X142062500Y-111590100D02*
X142062500Y-103575000D01*
X172950000Y-111757500D02*
X171662500Y-113045000D01*
X135162500Y-90162500D02*
X135162500Y-93162500D01*
X140725000Y-105565100D02*
X140725000Y-103687500D01*
X141562500Y-103075000D02*
X140062500Y-103075000D01*
X142062500Y-103575000D02*
X141562500Y-103075000D01*
X134312500Y-99351104D02*
X134312500Y-102612500D01*
X170775000Y-97900402D02*
X171506049Y-98631451D01*
X140062500Y-103075000D02*
X134775000Y-103075000D01*
X172362500Y-108175000D02*
X172950000Y-108762500D01*
X134775000Y-103075000D02*
X134312500Y-102612500D01*
X145775000Y-103075000D02*
X141562500Y-103075000D01*
X170775000Y-93075000D02*
X170775000Y-95075000D01*
X139862500Y-91250000D02*
X139862500Y-89075000D01*
X132762500Y-95562500D02*
X132762500Y-97801104D01*
X172950000Y-108762500D02*
X172950000Y-111757500D01*
X170775000Y-95075000D02*
X170775000Y-97075000D01*
X140562500Y-108065100D02*
X140725000Y-108065100D01*
X132762500Y-97801104D02*
X134312500Y-99351104D01*
X139862500Y-89075000D02*
X136250000Y-89075000D01*
X135162500Y-93162500D02*
X132762500Y-95562500D01*
X140112500Y-103075000D02*
X140062500Y-103075000D01*
X138300000Y-110327600D02*
X140562500Y-108065100D01*
%TO.N,Net-(U1-EN)*%
X137462500Y-93637500D02*
X139300000Y-93637500D01*
X139300000Y-93637500D02*
X139862500Y-93075000D01*
X139862500Y-93075000D02*
X145775000Y-93075000D01*
%TO.N,Net-(U1-GPIO15)*%
X167750000Y-99875000D02*
X168950000Y-101075000D01*
X164675000Y-99875000D02*
X167750000Y-99875000D01*
X160975000Y-101075000D02*
X163475000Y-101075000D01*
X163475000Y-101075000D02*
X164675000Y-99875000D01*
%TO.N,GND*%
X156350000Y-119250000D02*
X156575000Y-119475000D01*
X137252500Y-115017500D02*
X138185000Y-115017500D01*
X139250000Y-113390100D02*
X137775000Y-114865100D01*
X154675000Y-119250000D02*
X156350000Y-119250000D01*
X139250000Y-112602600D02*
X139250000Y-113390100D01*
%TO.N,PIR*%
X143275000Y-97075000D02*
X145775000Y-97075000D01*
%TO.N,SCL*%
X176550000Y-102220000D02*
X176550000Y-100170634D01*
X163450380Y-93075000D02*
X163450380Y-93075000D01*
X169975000Y-92050000D02*
X168950000Y-93075000D01*
X175375000Y-103395000D02*
X176550000Y-102220000D01*
X176550000Y-100170634D02*
X175954366Y-99575000D01*
X175954366Y-99575000D02*
X173662500Y-99575000D01*
X168240000Y-92365000D02*
X168950000Y-93075000D01*
X163475000Y-93075000D02*
X164185000Y-92365000D01*
X164185000Y-92365000D02*
X168240000Y-92365000D01*
X173662500Y-99575000D02*
X171762500Y-97675000D01*
X171762500Y-92511396D02*
X171301104Y-92050000D01*
X171301104Y-92050000D02*
X169975000Y-92050000D01*
X171762500Y-97675000D02*
X171762500Y-92511396D01*
X163475000Y-93075000D02*
X160975000Y-93075000D01*
%TO.N,SDA*%
X168950000Y-95075000D02*
X169875000Y-96000000D01*
X168650000Y-94775000D02*
X168950000Y-95075000D01*
X175375000Y-100395000D02*
X175375000Y-100855000D01*
X160975000Y-95075000D02*
X163475000Y-95075000D01*
X163475000Y-95075000D02*
X163475000Y-95270000D01*
X169875000Y-96000000D02*
X169875000Y-98025000D01*
X163475000Y-95075000D02*
X163775000Y-94775000D01*
X172705000Y-100855000D02*
X175375000Y-100855000D01*
X163775000Y-94775000D02*
X168650000Y-94775000D01*
X169875000Y-98025000D02*
X172705000Y-100855000D01*
%TO.N,unconnected-(U1-GPIO2-Pad11)*%
X163475000Y-99075000D02*
X160975000Y-99075000D01*
%TO.N,RX*%
X160975000Y-91075000D02*
X163475000Y-91075000D01*
%TO.N,+5V*%
X133862500Y-99537500D02*
X133862500Y-115240774D01*
X175375000Y-108475000D02*
X173400000Y-110450000D01*
X140725000Y-113127600D02*
X140200000Y-112602600D01*
X150850000Y-114635000D02*
X152075000Y-115860000D01*
X133862500Y-115240774D02*
X137211826Y-118590100D01*
X140725000Y-117365100D02*
X140725000Y-114865100D01*
X171562500Y-90175000D02*
X171462500Y-90075000D01*
X138300000Y-112602600D02*
X138300000Y-111940100D01*
X173400000Y-110450000D02*
X173400000Y-111943896D01*
X160662500Y-116575000D02*
X152882500Y-116575000D01*
X138625000Y-111615100D02*
X139875000Y-111615100D01*
X141515100Y-116575000D02*
X151275000Y-116575000D01*
X140725000Y-117365100D02*
X141515100Y-116575000D01*
X173400000Y-111943896D02*
X171848896Y-113495000D01*
X152075000Y-115860000D02*
X152075000Y-117375000D01*
X131375000Y-97050000D02*
X133862500Y-99537500D01*
X140725000Y-114865100D02*
X140725000Y-113127600D01*
X152882500Y-116575000D02*
X152075000Y-117382500D01*
X166075000Y-90075000D02*
X171562500Y-90075000D01*
X140200000Y-111940100D02*
X140200000Y-112602600D01*
X137211826Y-118590100D02*
X139500000Y-118590100D01*
X166175000Y-90075000D02*
X166075000Y-89975000D01*
X152075000Y-119250000D02*
X152075000Y-117382500D01*
X163742500Y-113495000D02*
X160662500Y-116575000D01*
X139875000Y-111615100D02*
X140200000Y-111940100D01*
X151275000Y-116575000D02*
X152075000Y-117375000D01*
X138300000Y-111940100D02*
X138625000Y-111615100D01*
X171848896Y-113495000D02*
X163742500Y-113495000D01*
X139500000Y-118590100D02*
X140725000Y-117365100D01*
%TO.N,nRST*%
X143275000Y-89075000D02*
X145775000Y-89075000D01*
X141687500Y-89075000D02*
X143275000Y-89075000D01*
%TO.N,GPIO0*%
X160975000Y-97075000D02*
X163475000Y-97075000D01*
X163475000Y-97075000D02*
X163765000Y-97365000D01*
X144776250Y-108405000D02*
X146297500Y-106883750D01*
X144850625Y-108330625D02*
X143925000Y-109256250D01*
X163765000Y-97365000D02*
X168660000Y-97365000D01*
X168660000Y-97365000D02*
X168950000Y-97075000D01*
X143925000Y-109256250D02*
X143925000Y-110155000D01*
%TD*%
%TA.AperFunction,Conductor*%
%TO.N,GND*%
G36*
X128980703Y-92523818D02*
G01*
X129014060Y-92570077D01*
X129077145Y-92722376D01*
X129245595Y-93027164D01*
X129447112Y-93311176D01*
X129679161Y-93570839D01*
X129938824Y-93802888D01*
X130222836Y-94004405D01*
X130527624Y-94172855D01*
X130849356Y-94306121D01*
X131183987Y-94402527D01*
X131527307Y-94460859D01*
X131875000Y-94480385D01*
X132222693Y-94460859D01*
X132566013Y-94402527D01*
X132900644Y-94306121D01*
X132964986Y-94279469D01*
X133034452Y-94272001D01*
X133096931Y-94303275D01*
X133132584Y-94363364D01*
X133130091Y-94433189D01*
X133100117Y-94481712D01*
X132397271Y-95184559D01*
X132351031Y-95227743D01*
X132329153Y-95263721D01*
X132325580Y-95268970D01*
X132300138Y-95302520D01*
X132300133Y-95302529D01*
X132294025Y-95318017D01*
X132284625Y-95336942D01*
X132275977Y-95351164D01*
X132275974Y-95351170D01*
X132264614Y-95391711D01*
X132262591Y-95397728D01*
X132247141Y-95436909D01*
X132247140Y-95436911D01*
X132245437Y-95453476D01*
X132241491Y-95474239D01*
X132237000Y-95490267D01*
X132237000Y-95532379D01*
X132236675Y-95538723D01*
X132232369Y-95580607D01*
X132232369Y-95580611D01*
X132235197Y-95597011D01*
X132237000Y-95618080D01*
X132237000Y-95675500D01*
X132217315Y-95742539D01*
X132164511Y-95788294D01*
X132113000Y-95799500D01*
X130493482Y-95799500D01*
X130412519Y-95812323D01*
X130399696Y-95814354D01*
X130286658Y-95871950D01*
X130286657Y-95871951D01*
X130286652Y-95871954D01*
X130196954Y-95961652D01*
X130196951Y-95961657D01*
X130196950Y-95961658D01*
X130189898Y-95975499D01*
X130139352Y-96074698D01*
X130124500Y-96168475D01*
X130124500Y-97931517D01*
X130131466Y-97975499D01*
X130139354Y-98025304D01*
X130196950Y-98138342D01*
X130196952Y-98138344D01*
X130196954Y-98138347D01*
X130286652Y-98228045D01*
X130286654Y-98228046D01*
X130286658Y-98228050D01*
X130399696Y-98285646D01*
X130399697Y-98285646D01*
X130399699Y-98285647D01*
X130491655Y-98300211D01*
X130554790Y-98330140D01*
X130591722Y-98389451D01*
X130590724Y-98459313D01*
X130552115Y-98517546D01*
X130543383Y-98524258D01*
X130503924Y-98551887D01*
X130336891Y-98718920D01*
X130336886Y-98718926D01*
X130201400Y-98912420D01*
X130201399Y-98912422D01*
X130101570Y-99126507D01*
X130101567Y-99126513D01*
X130044364Y-99339999D01*
X130044364Y-99340000D01*
X130941314Y-99340000D01*
X130915507Y-99380156D01*
X130875000Y-99518111D01*
X130875000Y-99661889D01*
X130915507Y-99799844D01*
X130941314Y-99840000D01*
X130044364Y-99840000D01*
X130101567Y-100053486D01*
X130101570Y-100053492D01*
X130201399Y-100267578D01*
X130336894Y-100461082D01*
X130503917Y-100628105D01*
X130697419Y-100763598D01*
X130780865Y-100802509D01*
X130833305Y-100848681D01*
X130852457Y-100915875D01*
X130832242Y-100982756D01*
X130780868Y-101027273D01*
X130747363Y-101042897D01*
X130747357Y-101042900D01*
X130568121Y-101168402D01*
X130413402Y-101323121D01*
X130287900Y-101502357D01*
X130287898Y-101502361D01*
X130195426Y-101700668D01*
X130195422Y-101700677D01*
X130138793Y-101912020D01*
X130138793Y-101912023D01*
X130136023Y-101943683D01*
X130119723Y-102129997D01*
X130119723Y-102130002D01*
X130127393Y-102217675D01*
X130133915Y-102292225D01*
X130138793Y-102347975D01*
X130138793Y-102347979D01*
X130195422Y-102559322D01*
X130195424Y-102559326D01*
X130195425Y-102559330D01*
X130220404Y-102612898D01*
X130287897Y-102757638D01*
X130294705Y-102767361D01*
X130413402Y-102936877D01*
X130568123Y-103091598D01*
X130690124Y-103177024D01*
X130747361Y-103217102D01*
X130898583Y-103287618D01*
X130951022Y-103333790D01*
X130970174Y-103400984D01*
X130949958Y-103467865D01*
X130898583Y-103512382D01*
X130747361Y-103582898D01*
X130747357Y-103582900D01*
X130568121Y-103708402D01*
X130413402Y-103863121D01*
X130287900Y-104042357D01*
X130287898Y-104042361D01*
X130195426Y-104240668D01*
X130195422Y-104240677D01*
X130138793Y-104452020D01*
X130138793Y-104452023D01*
X130136157Y-104482154D01*
X130119723Y-104669997D01*
X130119723Y-104670002D01*
X130129258Y-104778988D01*
X130135418Y-104849404D01*
X130138793Y-104887975D01*
X130138793Y-104887979D01*
X130195422Y-105099322D01*
X130195424Y-105099326D01*
X130195425Y-105099330D01*
X130220258Y-105152584D01*
X130287897Y-105297638D01*
X130287898Y-105297639D01*
X130413402Y-105476877D01*
X130568123Y-105631598D01*
X130747360Y-105757101D01*
X130747361Y-105757102D01*
X130898583Y-105827618D01*
X130951022Y-105873790D01*
X130970174Y-105940984D01*
X130949958Y-106007865D01*
X130898583Y-106052382D01*
X130747361Y-106122898D01*
X130747357Y-106122900D01*
X130568121Y-106248402D01*
X130413402Y-106403121D01*
X130287900Y-106582357D01*
X130287898Y-106582361D01*
X130195426Y-106780668D01*
X130195422Y-106780677D01*
X130138793Y-106992020D01*
X130138793Y-106992024D01*
X130119723Y-107209997D01*
X130119723Y-107210002D01*
X130138793Y-107427975D01*
X130138793Y-107427979D01*
X130195422Y-107639322D01*
X130195424Y-107639326D01*
X130195425Y-107639330D01*
X130227563Y-107708250D01*
X130287897Y-107837638D01*
X130287898Y-107837639D01*
X130413402Y-108016877D01*
X130568123Y-108171598D01*
X130747360Y-108297101D01*
X130747361Y-108297102D01*
X130898583Y-108367618D01*
X130951022Y-108413790D01*
X130970174Y-108480984D01*
X130949958Y-108547865D01*
X130898583Y-108592382D01*
X130747361Y-108662898D01*
X130747357Y-108662900D01*
X130568121Y-108788402D01*
X130413402Y-108943121D01*
X130287900Y-109122357D01*
X130287898Y-109122361D01*
X130195426Y-109320668D01*
X130195422Y-109320677D01*
X130138793Y-109532020D01*
X130138793Y-109532024D01*
X130119723Y-109749997D01*
X130119723Y-109750002D01*
X130125057Y-109810975D01*
X130136440Y-109941087D01*
X130138793Y-109967975D01*
X130138793Y-109967979D01*
X130195422Y-110179322D01*
X130195424Y-110179326D01*
X130195425Y-110179330D01*
X130218590Y-110229007D01*
X130287897Y-110377638D01*
X130287898Y-110377639D01*
X130413402Y-110556877D01*
X130568123Y-110711598D01*
X130747361Y-110837102D01*
X130945670Y-110929575D01*
X131157023Y-110986207D01*
X131339926Y-111002208D01*
X131374998Y-111005277D01*
X131375000Y-111005277D01*
X131375002Y-111005277D01*
X131403254Y-111002805D01*
X131592977Y-110986207D01*
X131804330Y-110929575D01*
X132002639Y-110837102D01*
X132181877Y-110711598D01*
X132336598Y-110556877D01*
X132462102Y-110377639D01*
X132554575Y-110179330D01*
X132611207Y-109967977D01*
X132628352Y-109772003D01*
X132630277Y-109750002D01*
X132630277Y-109749997D01*
X132622643Y-109662741D01*
X132611207Y-109532023D01*
X132557273Y-109330739D01*
X132554577Y-109320677D01*
X132554576Y-109320676D01*
X132554575Y-109320670D01*
X132462102Y-109122362D01*
X132462100Y-109122359D01*
X132462099Y-109122357D01*
X132336599Y-108943124D01*
X132261272Y-108867797D01*
X132181877Y-108788402D01*
X132002639Y-108662898D01*
X131851414Y-108592381D01*
X131798977Y-108546210D01*
X131779825Y-108479016D01*
X131800041Y-108412135D01*
X131851414Y-108367618D01*
X132002639Y-108297102D01*
X132181877Y-108171598D01*
X132336598Y-108016877D01*
X132462102Y-107837639D01*
X132554575Y-107639330D01*
X132611207Y-107427977D01*
X132629008Y-107224501D01*
X132630277Y-107210002D01*
X132630277Y-107209997D01*
X132626367Y-107165312D01*
X132611207Y-106992023D01*
X132554575Y-106780670D01*
X132462102Y-106582362D01*
X132462100Y-106582359D01*
X132462099Y-106582357D01*
X132336599Y-106403124D01*
X132274302Y-106340827D01*
X132181877Y-106248402D01*
X132002639Y-106122898D01*
X131851414Y-106052381D01*
X131798977Y-106006210D01*
X131779825Y-105939016D01*
X131800041Y-105872135D01*
X131851414Y-105827618D01*
X132002639Y-105757102D01*
X132181877Y-105631598D01*
X132336598Y-105476877D01*
X132462102Y-105297639D01*
X132554575Y-105099330D01*
X132611207Y-104887977D01*
X132630277Y-104670000D01*
X132611207Y-104452023D01*
X132554575Y-104240670D01*
X132462102Y-104042362D01*
X132462100Y-104042359D01*
X132462099Y-104042357D01*
X132336599Y-103863124D01*
X132259360Y-103785885D01*
X132181877Y-103708402D01*
X132002639Y-103582898D01*
X131851414Y-103512381D01*
X131798977Y-103466210D01*
X131779825Y-103399016D01*
X131800041Y-103332135D01*
X131851414Y-103287618D01*
X132002639Y-103217102D01*
X132181877Y-103091598D01*
X132336598Y-102936877D01*
X132462102Y-102757639D01*
X132554575Y-102559330D01*
X132611207Y-102347977D01*
X132630277Y-102130000D01*
X132629446Y-102120505D01*
X132624386Y-102062663D01*
X132611207Y-101912023D01*
X132554575Y-101700670D01*
X132462102Y-101502362D01*
X132462100Y-101502359D01*
X132462099Y-101502357D01*
X132336599Y-101323124D01*
X132267724Y-101254249D01*
X132181877Y-101168402D01*
X132002639Y-101042898D01*
X132002633Y-101042895D01*
X131969133Y-101027273D01*
X131916694Y-100981100D01*
X131897543Y-100913907D01*
X131917760Y-100847026D01*
X131969135Y-100802509D01*
X132052580Y-100763598D01*
X132246082Y-100628105D01*
X132413105Y-100461082D01*
X132548600Y-100267578D01*
X132648429Y-100053492D01*
X132648432Y-100053486D01*
X132705636Y-99840000D01*
X131808686Y-99840000D01*
X131834493Y-99799844D01*
X131875000Y-99661889D01*
X131875000Y-99518111D01*
X131834493Y-99380156D01*
X131808686Y-99340000D01*
X132705635Y-99340000D01*
X132713426Y-99329847D01*
X132769853Y-99288644D01*
X132839599Y-99284489D01*
X132899483Y-99317652D01*
X133300681Y-99718850D01*
X133334166Y-99780173D01*
X133337000Y-99806531D01*
X133337000Y-115231790D01*
X133334840Y-115295024D01*
X133344808Y-115335927D01*
X133345994Y-115342168D01*
X133351728Y-115383883D01*
X133358364Y-115399161D01*
X133365102Y-115419198D01*
X133369042Y-115435367D01*
X133369043Y-115435368D01*
X133389675Y-115472063D01*
X133392500Y-115477751D01*
X133409282Y-115516385D01*
X133419783Y-115529292D01*
X133431683Y-115546775D01*
X133439842Y-115561286D01*
X133469615Y-115591059D01*
X133473872Y-115595776D01*
X133500446Y-115628439D01*
X133514044Y-115638038D01*
X133530215Y-115651659D01*
X136833885Y-118955328D01*
X136877071Y-119001569D01*
X136913048Y-119023446D01*
X136918292Y-119027015D01*
X136951851Y-119052464D01*
X136967336Y-119058570D01*
X136986273Y-119067976D01*
X137000495Y-119076625D01*
X137000497Y-119076625D01*
X137000498Y-119076626D01*
X137041042Y-119087985D01*
X137047046Y-119090003D01*
X137086237Y-119105459D01*
X137091893Y-119106040D01*
X137102794Y-119107161D01*
X137123572Y-119111109D01*
X137139598Y-119115600D01*
X137181706Y-119115600D01*
X137188047Y-119115924D01*
X137229936Y-119120231D01*
X137246340Y-119117402D01*
X137267406Y-119115600D01*
X139491016Y-119115600D01*
X139554245Y-119117760D01*
X139595169Y-119107786D01*
X139601368Y-119106607D01*
X139643111Y-119100871D01*
X139658386Y-119094235D01*
X139678421Y-119087497D01*
X139694594Y-119083557D01*
X139731316Y-119062908D01*
X139736955Y-119060107D01*
X139775609Y-119043319D01*
X139788528Y-119032807D01*
X139805997Y-119020918D01*
X139820512Y-119012758D01*
X139850298Y-118982970D01*
X139854999Y-118978728D01*
X139887665Y-118952154D01*
X139897264Y-118938553D01*
X139910881Y-118922387D01*
X140147277Y-118685991D01*
X140208598Y-118652508D01*
X140269551Y-118654597D01*
X140297431Y-118662698D01*
X140315868Y-118664149D01*
X140334304Y-118665600D01*
X140334306Y-118665600D01*
X141115696Y-118665600D01*
X141134131Y-118664149D01*
X141152569Y-118662698D01*
X141152571Y-118662697D01*
X141152573Y-118662697D01*
X141194191Y-118650605D01*
X141310398Y-118616844D01*
X141451865Y-118533181D01*
X141568081Y-118416965D01*
X141651744Y-118275498D01*
X141688272Y-118149768D01*
X141697597Y-118117673D01*
X141697598Y-118117667D01*
X141700500Y-118080796D01*
X141700500Y-117224500D01*
X141720185Y-117157461D01*
X141772989Y-117111706D01*
X141824500Y-117100500D01*
X151005968Y-117100500D01*
X151073007Y-117120185D01*
X151093649Y-117136819D01*
X151513181Y-117556351D01*
X151546666Y-117617674D01*
X151549500Y-117644032D01*
X151549500Y-118301884D01*
X151535983Y-118358182D01*
X151524548Y-118380623D01*
X151476573Y-118431417D01*
X151408751Y-118448211D01*
X151342617Y-118425672D01*
X151339405Y-118422968D01*
X151339288Y-118423125D01*
X151217093Y-118331649D01*
X151217086Y-118331645D01*
X151082379Y-118281403D01*
X151082372Y-118281401D01*
X151022844Y-118275000D01*
X150425000Y-118275000D01*
X150425000Y-120591000D01*
X150405315Y-120658039D01*
X150352511Y-120703794D01*
X150331672Y-120708327D01*
X150325000Y-120715000D01*
X150325000Y-121550376D01*
X150310495Y-121477455D01*
X150255240Y-121394760D01*
X150172545Y-121339505D01*
X150075000Y-121320102D01*
X149977455Y-121339505D01*
X149894760Y-121394760D01*
X149839505Y-121477455D01*
X149825000Y-121550376D01*
X149825000Y-120609000D01*
X149844685Y-120541961D01*
X149897489Y-120496206D01*
X149918327Y-120491672D01*
X149925000Y-120485000D01*
X149925000Y-119725000D01*
X148875000Y-119725000D01*
X148875000Y-120222844D01*
X148881401Y-120282372D01*
X148881403Y-120282379D01*
X148931645Y-120417086D01*
X148931649Y-120417093D01*
X149017809Y-120532187D01*
X149017812Y-120532190D01*
X149132906Y-120618350D01*
X149132913Y-120618354D01*
X149267620Y-120668596D01*
X149271592Y-120669535D01*
X149274358Y-120671110D01*
X149274892Y-120671309D01*
X149274859Y-120671395D01*
X149332311Y-120704103D01*
X149364702Y-120766011D01*
X149358481Y-120835604D01*
X149344862Y-120861051D01*
X149240086Y-121011586D01*
X149163893Y-121189137D01*
X149125000Y-121378393D01*
X149125000Y-121675000D01*
X149825000Y-121675000D01*
X149825000Y-122175000D01*
X149125000Y-122175000D01*
X149125000Y-122423176D01*
X149139647Y-122567221D01*
X149197484Y-122751561D01*
X149197491Y-122751576D01*
X149218997Y-122790323D01*
X149234320Y-122858492D01*
X149210356Y-122924123D01*
X149154713Y-122966380D01*
X149110578Y-122974500D01*
X133117531Y-122974500D01*
X133050492Y-122954815D01*
X133004737Y-122902011D01*
X132994793Y-122832853D01*
X133023818Y-122769297D01*
X133070078Y-122735939D01*
X133222376Y-122672855D01*
X133527164Y-122504405D01*
X133811176Y-122302888D01*
X134070839Y-122070839D01*
X134302888Y-121811176D01*
X134504405Y-121527164D01*
X134672855Y-121222376D01*
X134806121Y-120900644D01*
X134902527Y-120566013D01*
X134960859Y-120222693D01*
X134980385Y-119875000D01*
X134960859Y-119527307D01*
X134909495Y-119225000D01*
X148875000Y-119225000D01*
X149925000Y-119225000D01*
X149925000Y-118275000D01*
X149327155Y-118275000D01*
X149267627Y-118281401D01*
X149267620Y-118281403D01*
X149132913Y-118331645D01*
X149132906Y-118331649D01*
X149017812Y-118417809D01*
X149017809Y-118417812D01*
X148931649Y-118532906D01*
X148931645Y-118532913D01*
X148881403Y-118667620D01*
X148881401Y-118667627D01*
X148875000Y-118727155D01*
X148875000Y-119225000D01*
X134909495Y-119225000D01*
X134902527Y-119183987D01*
X134806121Y-118849356D01*
X134672855Y-118527624D01*
X134504405Y-118222836D01*
X134302888Y-117938824D01*
X134070839Y-117679161D01*
X133811176Y-117447112D01*
X133527164Y-117245595D01*
X133222376Y-117077145D01*
X133201401Y-117068457D01*
X133122423Y-117035743D01*
X132900644Y-116943879D01*
X132733328Y-116895676D01*
X132566017Y-116847474D01*
X132566009Y-116847472D01*
X132222700Y-116789142D01*
X132222688Y-116789140D01*
X131875000Y-116769615D01*
X131527311Y-116789140D01*
X131527299Y-116789142D01*
X131183990Y-116847472D01*
X131183982Y-116847474D01*
X130849359Y-116943878D01*
X130849356Y-116943879D01*
X130755124Y-116982911D01*
X130527625Y-117077144D01*
X130222835Y-117245595D01*
X130021318Y-117388579D01*
X129938824Y-117447112D01*
X129772873Y-117595415D01*
X129679161Y-117679161D01*
X129447113Y-117938823D01*
X129245595Y-118222835D01*
X129077144Y-118527625D01*
X129014061Y-118679921D01*
X128970220Y-118734324D01*
X128903926Y-118756389D01*
X128836226Y-118739110D01*
X128788616Y-118687972D01*
X128775500Y-118632468D01*
X128775500Y-92617531D01*
X128795185Y-92550492D01*
X128847989Y-92504737D01*
X128917147Y-92494793D01*
X128980703Y-92523818D01*
G37*
%TD.AperFunction*%
%TA.AperFunction,Conductor*%
G36*
X177913773Y-92510889D02*
G01*
X177961384Y-92562026D01*
X177974500Y-92617531D01*
X177974500Y-118632468D01*
X177954815Y-118699507D01*
X177902011Y-118745262D01*
X177832853Y-118755206D01*
X177769297Y-118726181D01*
X177735939Y-118679921D01*
X177704850Y-118604868D01*
X177672855Y-118527624D01*
X177504405Y-118222836D01*
X177302888Y-117938824D01*
X177070839Y-117679161D01*
X176811176Y-117447112D01*
X176527164Y-117245595D01*
X176222376Y-117077145D01*
X176201401Y-117068457D01*
X176122423Y-117035743D01*
X175900644Y-116943879D01*
X175733328Y-116895676D01*
X175566017Y-116847474D01*
X175566009Y-116847472D01*
X175222700Y-116789142D01*
X175222688Y-116789140D01*
X174875000Y-116769615D01*
X174527311Y-116789140D01*
X174527299Y-116789142D01*
X174183990Y-116847472D01*
X174183982Y-116847474D01*
X173849359Y-116943878D01*
X173849356Y-116943879D01*
X173755124Y-116982911D01*
X173527625Y-117077144D01*
X173222835Y-117245595D01*
X173021318Y-117388579D01*
X172938824Y-117447112D01*
X172772873Y-117595415D01*
X172679161Y-117679161D01*
X172447113Y-117938823D01*
X172245595Y-118222835D01*
X172077144Y-118527625D01*
X171943878Y-118849359D01*
X171847474Y-119183982D01*
X171847472Y-119183990D01*
X171789142Y-119527299D01*
X171789140Y-119527311D01*
X171769615Y-119875000D01*
X171789140Y-120222688D01*
X171789142Y-120222700D01*
X171846024Y-120557489D01*
X171847473Y-120566013D01*
X171943879Y-120900644D01*
X172077145Y-121222376D01*
X172245595Y-121527164D01*
X172447112Y-121811176D01*
X172679161Y-122070839D01*
X172938824Y-122302888D01*
X173222836Y-122504405D01*
X173527624Y-122672855D01*
X173679922Y-122735939D01*
X173734325Y-122779780D01*
X173756390Y-122846074D01*
X173739111Y-122913773D01*
X173687974Y-122961384D01*
X173632469Y-122974500D01*
X157639662Y-122974500D01*
X157572623Y-122954815D01*
X157526868Y-122902011D01*
X157516924Y-122832853D01*
X157525711Y-122801599D01*
X157586107Y-122660860D01*
X157625000Y-122471606D01*
X157625000Y-122175000D01*
X156925000Y-122175000D01*
X156925000Y-121675000D01*
X157625000Y-121675000D01*
X157625000Y-121426823D01*
X157610352Y-121282778D01*
X157552515Y-121098438D01*
X157552510Y-121098428D01*
X157458748Y-120929501D01*
X157458743Y-120929495D01*
X157409239Y-120871828D01*
X157380508Y-120808139D01*
X157390771Y-120739027D01*
X157436769Y-120686435D01*
X157475655Y-120673864D01*
X157474832Y-120670380D01*
X157482379Y-120668596D01*
X157617086Y-120618354D01*
X157617093Y-120618350D01*
X157732187Y-120532190D01*
X157732190Y-120532187D01*
X157818350Y-120417093D01*
X157818354Y-120417086D01*
X157868596Y-120282379D01*
X157868598Y-120282372D01*
X157874999Y-120222844D01*
X157875000Y-120222827D01*
X157875000Y-119725000D01*
X156825000Y-119725000D01*
X156825000Y-120485000D01*
X156834976Y-120494976D01*
X156868039Y-120504685D01*
X156913794Y-120557489D01*
X156925000Y-120609000D01*
X156925000Y-121550376D01*
X156910495Y-121477455D01*
X156855240Y-121394760D01*
X156772545Y-121339505D01*
X156675000Y-121320102D01*
X156577455Y-121339505D01*
X156494760Y-121394760D01*
X156439505Y-121477455D01*
X156425000Y-121550376D01*
X156425000Y-120715000D01*
X156415023Y-120705023D01*
X156381961Y-120695315D01*
X156336206Y-120642511D01*
X156325000Y-120591000D01*
X156325000Y-118275000D01*
X156825000Y-118275000D01*
X156825000Y-119225000D01*
X157875000Y-119225000D01*
X157875000Y-118727172D01*
X157874999Y-118727155D01*
X157868598Y-118667627D01*
X157868596Y-118667620D01*
X157818354Y-118532913D01*
X157818350Y-118532906D01*
X157732190Y-118417812D01*
X157732187Y-118417809D01*
X157617093Y-118331649D01*
X157617086Y-118331645D01*
X157482379Y-118281403D01*
X157482372Y-118281401D01*
X157422844Y-118275000D01*
X156825000Y-118275000D01*
X156325000Y-118275000D01*
X155727155Y-118275000D01*
X155667627Y-118281401D01*
X155667620Y-118281403D01*
X155532913Y-118331645D01*
X155532907Y-118331648D01*
X155494067Y-118360724D01*
X155428603Y-118385140D01*
X155360330Y-118370288D01*
X155320492Y-118335767D01*
X155232190Y-118217812D01*
X155232187Y-118217809D01*
X155117093Y-118131649D01*
X155117086Y-118131645D01*
X154982379Y-118081403D01*
X154982372Y-118081401D01*
X154922844Y-118075000D01*
X154875000Y-118075000D01*
X154875000Y-120373638D01*
X154855315Y-120440677D01*
X154838681Y-120461319D01*
X154825000Y-120475000D01*
X154825000Y-121675000D01*
X156425000Y-121675000D01*
X156425000Y-122175000D01*
X150325000Y-122175000D01*
X150325000Y-121675000D01*
X154325000Y-121675000D01*
X154325000Y-120549000D01*
X154344685Y-120481961D01*
X154397489Y-120436206D01*
X154449000Y-120425000D01*
X154475000Y-120425000D01*
X154475000Y-120292754D01*
X154494685Y-120225715D01*
X154511320Y-120205072D01*
X154553046Y-120163346D01*
X154553050Y-120163342D01*
X154610646Y-120050304D01*
X154610646Y-120050302D01*
X154610647Y-120050301D01*
X154625499Y-119956524D01*
X154625500Y-119956519D01*
X154625499Y-118543482D01*
X154610646Y-118449696D01*
X154553050Y-118336658D01*
X154553046Y-118336654D01*
X154553045Y-118336652D01*
X154511319Y-118294926D01*
X154477834Y-118233603D01*
X154475000Y-118207245D01*
X154475000Y-118075000D01*
X154427155Y-118075000D01*
X154367627Y-118081401D01*
X154367620Y-118081403D01*
X154232913Y-118131645D01*
X154232911Y-118131646D01*
X154208704Y-118149768D01*
X154143239Y-118174184D01*
X154134394Y-118174500D01*
X153793481Y-118174500D01*
X153719396Y-118186233D01*
X153680605Y-118186233D01*
X153606519Y-118174500D01*
X153143481Y-118174500D01*
X153069396Y-118186233D01*
X153030605Y-118186233D01*
X152956519Y-118174500D01*
X152724500Y-118174500D01*
X152657461Y-118154815D01*
X152611706Y-118102011D01*
X152600500Y-118050500D01*
X152600500Y-117651531D01*
X152620185Y-117584492D01*
X152636819Y-117563850D01*
X153063850Y-117136819D01*
X153125173Y-117103334D01*
X153151531Y-117100500D01*
X160653516Y-117100500D01*
X160716745Y-117102660D01*
X160757669Y-117092686D01*
X160763868Y-117091507D01*
X160805611Y-117085771D01*
X160820886Y-117079135D01*
X160840921Y-117072397D01*
X160857094Y-117068457D01*
X160893816Y-117047808D01*
X160899455Y-117045007D01*
X160938109Y-117028219D01*
X160951028Y-117017707D01*
X160968497Y-117005818D01*
X160983012Y-116997658D01*
X161012798Y-116967870D01*
X161017499Y-116963628D01*
X161050165Y-116937054D01*
X161059764Y-116923453D01*
X161073381Y-116907287D01*
X163164474Y-114816194D01*
X163225794Y-114782712D01*
X163295486Y-114787696D01*
X163351419Y-114829568D01*
X163375836Y-114895032D01*
X163365709Y-114953685D01*
X163351413Y-114986279D01*
X163351412Y-114986281D01*
X163290387Y-115227261D01*
X163290385Y-115227270D01*
X163269859Y-115474994D01*
X163269859Y-115475005D01*
X163290385Y-115722729D01*
X163290387Y-115722738D01*
X163351412Y-115963717D01*
X163451266Y-116191364D01*
X163551564Y-116344882D01*
X164249070Y-115647375D01*
X164251884Y-115660915D01*
X164321442Y-115795156D01*
X164424638Y-115905652D01*
X164553819Y-115984209D01*
X164605002Y-115998549D01*
X163904942Y-116698609D01*
X163951768Y-116735055D01*
X163951770Y-116735056D01*
X164170385Y-116853364D01*
X164170396Y-116853369D01*
X164405506Y-116934083D01*
X164650707Y-116975000D01*
X164899293Y-116975000D01*
X165144493Y-116934083D01*
X165379603Y-116853369D01*
X165379614Y-116853364D01*
X165598228Y-116735057D01*
X165598231Y-116735055D01*
X165645056Y-116698609D01*
X164946568Y-116000121D01*
X165063458Y-115949349D01*
X165180739Y-115853934D01*
X165267928Y-115730415D01*
X165298354Y-115644802D01*
X165998434Y-116344882D01*
X166098731Y-116191369D01*
X166198587Y-115963717D01*
X166259612Y-115722738D01*
X166259614Y-115722729D01*
X166280141Y-115475005D01*
X166280141Y-115474994D01*
X166259614Y-115227270D01*
X166259612Y-115227261D01*
X166198587Y-114986282D01*
X166098731Y-114758630D01*
X165998434Y-114605116D01*
X165300929Y-115302622D01*
X165298116Y-115289085D01*
X165228558Y-115154844D01*
X165125362Y-115044348D01*
X164996181Y-114965791D01*
X164944996Y-114951449D01*
X165645057Y-114251389D01*
X165633449Y-114242355D01*
X165592635Y-114185645D01*
X165588960Y-114115872D01*
X165623590Y-114055188D01*
X165685531Y-114022860D01*
X165709610Y-114020500D01*
X170340389Y-114020500D01*
X170407428Y-114040185D01*
X170453183Y-114092989D01*
X170463127Y-114162147D01*
X170434102Y-114225703D01*
X170416549Y-114242355D01*
X170404942Y-114251388D01*
X170404942Y-114251390D01*
X171103431Y-114949878D01*
X170986542Y-115000651D01*
X170869261Y-115096066D01*
X170782072Y-115219585D01*
X170751645Y-115305197D01*
X170051564Y-114605116D01*
X169951267Y-114758632D01*
X169851412Y-114986282D01*
X169790387Y-115227261D01*
X169790385Y-115227270D01*
X169769859Y-115474994D01*
X169769859Y-115475005D01*
X169790385Y-115722729D01*
X169790387Y-115722738D01*
X169851412Y-115963717D01*
X169951266Y-116191364D01*
X170051564Y-116344882D01*
X170749070Y-115647376D01*
X170751884Y-115660915D01*
X170821442Y-115795156D01*
X170924638Y-115905652D01*
X171053819Y-115984209D01*
X171105002Y-115998549D01*
X170404942Y-116698609D01*
X170451768Y-116735055D01*
X170451770Y-116735056D01*
X170670385Y-116853364D01*
X170670396Y-116853369D01*
X170905506Y-116934083D01*
X171150707Y-116975000D01*
X171399293Y-116975000D01*
X171644493Y-116934083D01*
X171879603Y-116853369D01*
X171879614Y-116853364D01*
X172098228Y-116735057D01*
X172098231Y-116735055D01*
X172145056Y-116698609D01*
X171446568Y-116000121D01*
X171563458Y-115949349D01*
X171680739Y-115853934D01*
X171767928Y-115730415D01*
X171798354Y-115644802D01*
X172498434Y-116344882D01*
X172598731Y-116191369D01*
X172698587Y-115963717D01*
X172759612Y-115722738D01*
X172759614Y-115722729D01*
X172780141Y-115475005D01*
X172780141Y-115474994D01*
X172759614Y-115227270D01*
X172759612Y-115227261D01*
X172698587Y-114986282D01*
X172598731Y-114758630D01*
X172498434Y-114605116D01*
X171800929Y-115302622D01*
X171798116Y-115289085D01*
X171728558Y-115154844D01*
X171625362Y-115044348D01*
X171496181Y-114965791D01*
X171444997Y-114951450D01*
X172145057Y-114251390D01*
X172145056Y-114251389D01*
X172098229Y-114214943D01*
X172062761Y-114195749D01*
X172013170Y-114146530D01*
X171998062Y-114078313D01*
X172022232Y-114012758D01*
X172060999Y-113978611D01*
X172080212Y-113967808D01*
X172085851Y-113965007D01*
X172124505Y-113948219D01*
X172137424Y-113937707D01*
X172154893Y-113925818D01*
X172169408Y-113917658D01*
X172199194Y-113887870D01*
X172203895Y-113883628D01*
X172236561Y-113857054D01*
X172246160Y-113843453D01*
X172259777Y-113827287D01*
X173765228Y-112321836D01*
X173768689Y-112318604D01*
X173811467Y-112278653D01*
X173811467Y-112278652D01*
X173811469Y-112278651D01*
X173833353Y-112242662D01*
X173836914Y-112237430D01*
X173862364Y-112203871D01*
X173868473Y-112188378D01*
X173877876Y-112169447D01*
X173886526Y-112155224D01*
X173897888Y-112114666D01*
X173899903Y-112108675D01*
X173915359Y-112069485D01*
X173917061Y-112052919D01*
X173921007Y-112032156D01*
X173925500Y-112016124D01*
X173925500Y-111974016D01*
X173925825Y-111967672D01*
X173928145Y-111945102D01*
X173930131Y-111925787D01*
X173927303Y-111909383D01*
X173925500Y-111888316D01*
X173925500Y-110719031D01*
X173945185Y-110651992D01*
X173961815Y-110631354D01*
X174831351Y-109761817D01*
X174892674Y-109728333D01*
X174919032Y-109725499D01*
X176256517Y-109725499D01*
X176256518Y-109725499D01*
X176350304Y-109710646D01*
X176463342Y-109653050D01*
X176553050Y-109563342D01*
X176610646Y-109450304D01*
X176610646Y-109450302D01*
X176610647Y-109450301D01*
X176621760Y-109380134D01*
X176625500Y-109356519D01*
X176625499Y-107593482D01*
X176610646Y-107499696D01*
X176553050Y-107386658D01*
X176553046Y-107386654D01*
X176553045Y-107386652D01*
X176463347Y-107296954D01*
X176463344Y-107296952D01*
X176463342Y-107296950D01*
X176386517Y-107257805D01*
X176350301Y-107239352D01*
X176258342Y-107224788D01*
X176195207Y-107194859D01*
X176158276Y-107135547D01*
X176159274Y-107065685D01*
X176197884Y-107007452D01*
X176206617Y-107000740D01*
X176246080Y-106973107D01*
X176413105Y-106806082D01*
X176548600Y-106612578D01*
X176648429Y-106398492D01*
X176648432Y-106398486D01*
X176705636Y-106185000D01*
X175808686Y-106185000D01*
X175834493Y-106144844D01*
X175875000Y-106006889D01*
X175875000Y-105863111D01*
X175834493Y-105725156D01*
X175808686Y-105685000D01*
X176705636Y-105685000D01*
X176705635Y-105684999D01*
X176648432Y-105471513D01*
X176648429Y-105471507D01*
X176548600Y-105257422D01*
X176548599Y-105257420D01*
X176413113Y-105063926D01*
X176413108Y-105063920D01*
X176246082Y-104896894D01*
X176052578Y-104761399D01*
X175969134Y-104722489D01*
X175916695Y-104676317D01*
X175897543Y-104609123D01*
X175917759Y-104542242D01*
X175969132Y-104497726D01*
X176002639Y-104482102D01*
X176181877Y-104356598D01*
X176336598Y-104201877D01*
X176462102Y-104022639D01*
X176554575Y-103824330D01*
X176611207Y-103612977D01*
X176628552Y-103414723D01*
X176630277Y-103395002D01*
X176630277Y-103394997D01*
X176622803Y-103309575D01*
X176611207Y-103177023D01*
X176571608Y-103029238D01*
X176573271Y-102959390D01*
X176603700Y-102909467D01*
X176915228Y-102597940D01*
X176961469Y-102554755D01*
X176983353Y-102518766D01*
X176986914Y-102513534D01*
X177012364Y-102479975D01*
X177018473Y-102464482D01*
X177027876Y-102445551D01*
X177036526Y-102431328D01*
X177047888Y-102390770D01*
X177049903Y-102384779D01*
X177065359Y-102345589D01*
X177067061Y-102329022D01*
X177071006Y-102308264D01*
X177075500Y-102292228D01*
X177075500Y-102250119D01*
X177075825Y-102243775D01*
X177078508Y-102217675D01*
X177080131Y-102201890D01*
X177077303Y-102185486D01*
X177075500Y-102164419D01*
X177075500Y-100179617D01*
X177076284Y-100156655D01*
X177077660Y-100116389D01*
X177073639Y-100099893D01*
X177067689Y-100075474D01*
X177066505Y-100069247D01*
X177060771Y-100027523D01*
X177054135Y-100012247D01*
X177047400Y-99992217D01*
X177043458Y-99976040D01*
X177022819Y-99939335D01*
X177019995Y-99933649D01*
X177007397Y-99904644D01*
X177003219Y-99895025D01*
X176992711Y-99882110D01*
X176980816Y-99864632D01*
X176972659Y-99850125D01*
X176972658Y-99850123D01*
X176942887Y-99820352D01*
X176938636Y-99815643D01*
X176912054Y-99782969D01*
X176898450Y-99773366D01*
X176882278Y-99759743D01*
X176372205Y-99249670D01*
X176338720Y-99188347D01*
X176343704Y-99118655D01*
X176358309Y-99090869D01*
X176462102Y-98942639D01*
X176554575Y-98744330D01*
X176611207Y-98532977D01*
X176628877Y-98331001D01*
X176630277Y-98315002D01*
X176630277Y-98314997D01*
X176625383Y-98259063D01*
X176611207Y-98097023D01*
X176559232Y-97903050D01*
X176554577Y-97885677D01*
X176554576Y-97885676D01*
X176554575Y-97885670D01*
X176462102Y-97687362D01*
X176462100Y-97687359D01*
X176462099Y-97687357D01*
X176336599Y-97508124D01*
X176260801Y-97432326D01*
X176181877Y-97353402D01*
X176002639Y-97227898D01*
X176002640Y-97227898D01*
X176002638Y-97227897D01*
X175903484Y-97181661D01*
X175804330Y-97135425D01*
X175804326Y-97135424D01*
X175804322Y-97135422D01*
X175592977Y-97078793D01*
X175375002Y-97059723D01*
X175374998Y-97059723D01*
X175229682Y-97072436D01*
X175157023Y-97078793D01*
X175157020Y-97078793D01*
X174945677Y-97135422D01*
X174945668Y-97135426D01*
X174747361Y-97227898D01*
X174747357Y-97227900D01*
X174568121Y-97353402D01*
X174413402Y-97508121D01*
X174287900Y-97687357D01*
X174287898Y-97687361D01*
X174195426Y-97885668D01*
X174195422Y-97885677D01*
X174138793Y-98097020D01*
X174138793Y-98097024D01*
X174119723Y-98314997D01*
X174119723Y-98315002D01*
X174138793Y-98532975D01*
X174138793Y-98532979D01*
X174195422Y-98744322D01*
X174195427Y-98744336D01*
X174255469Y-98873096D01*
X174265961Y-98942173D01*
X174237441Y-99005957D01*
X174178964Y-99044196D01*
X174143087Y-99049500D01*
X173931532Y-99049500D01*
X173864493Y-99029815D01*
X173843851Y-99013181D01*
X172324319Y-97493649D01*
X172290834Y-97432326D01*
X172288000Y-97405968D01*
X172288000Y-93457975D01*
X172307685Y-93390936D01*
X172360489Y-93345181D01*
X172429647Y-93335237D01*
X172493203Y-93364262D01*
X172504456Y-93375344D01*
X172679161Y-93570839D01*
X172938824Y-93802888D01*
X173222836Y-94004405D01*
X173527624Y-94172855D01*
X173849356Y-94306121D01*
X174183987Y-94402527D01*
X174527307Y-94460859D01*
X174875000Y-94480385D01*
X175222693Y-94460859D01*
X175566013Y-94402527D01*
X175900644Y-94306121D01*
X176222376Y-94172855D01*
X176527164Y-94004405D01*
X176811176Y-93802888D01*
X177070839Y-93570839D01*
X177302888Y-93311176D01*
X177504405Y-93027164D01*
X177672855Y-92722376D01*
X177735939Y-92570077D01*
X177779780Y-92515675D01*
X177846074Y-92493610D01*
X177913773Y-92510889D01*
G37*
%TD.AperFunction*%
%TA.AperFunction,Conductor*%
G36*
X134561404Y-103560541D02*
G01*
X134563669Y-103561525D01*
X134563671Y-103561525D01*
X134563672Y-103561526D01*
X134604225Y-103572887D01*
X134610223Y-103574905D01*
X134649411Y-103590359D01*
X134665977Y-103592061D01*
X134686741Y-103596008D01*
X134702772Y-103600500D01*
X134744872Y-103600500D01*
X134751213Y-103600824D01*
X134793110Y-103605132D01*
X134809518Y-103602303D01*
X134830586Y-103600500D01*
X139843468Y-103600500D01*
X139910507Y-103620185D01*
X139931149Y-103636819D01*
X140163181Y-103868851D01*
X140196666Y-103930174D01*
X140199500Y-103956532D01*
X140199500Y-104207204D01*
X140179815Y-104274243D01*
X140138621Y-104313936D01*
X139998138Y-104397016D01*
X139998129Y-104397023D01*
X139881923Y-104513229D01*
X139881917Y-104513237D01*
X139798255Y-104654703D01*
X139798254Y-104654706D01*
X139752402Y-104812526D01*
X139752401Y-104812532D01*
X139749500Y-104849404D01*
X139749500Y-106280796D01*
X139752401Y-106317667D01*
X139752402Y-106317673D01*
X139798254Y-106475493D01*
X139798255Y-106475496D01*
X139881917Y-106616962D01*
X139881923Y-106616970D01*
X139992372Y-106727419D01*
X140025857Y-106788742D01*
X140020873Y-106858434D01*
X139992372Y-106902781D01*
X139881923Y-107013229D01*
X139881917Y-107013237D01*
X139798255Y-107154703D01*
X139798254Y-107154706D01*
X139752402Y-107312526D01*
X139752401Y-107312532D01*
X139749500Y-107349404D01*
X139749500Y-108083568D01*
X139729815Y-108150607D01*
X139713181Y-108171249D01*
X139061681Y-108822749D01*
X139000358Y-108856234D01*
X138930666Y-108851250D01*
X138874733Y-108809378D01*
X138850316Y-108743914D01*
X138850000Y-108735068D01*
X138850000Y-108315100D01*
X136700001Y-108315100D01*
X136700001Y-108765086D01*
X136710494Y-108867797D01*
X136765641Y-109034219D01*
X136765643Y-109034224D01*
X136857684Y-109183445D01*
X136981654Y-109307415D01*
X137130875Y-109399456D01*
X137130880Y-109399458D01*
X137297302Y-109454605D01*
X137297309Y-109454606D01*
X137400019Y-109465099D01*
X137514069Y-109465099D01*
X137581109Y-109484783D01*
X137626864Y-109537587D01*
X137636808Y-109606745D01*
X137629425Y-109634588D01*
X137610122Y-109683536D01*
X137604435Y-109730902D01*
X137599500Y-109771998D01*
X137599500Y-110883202D01*
X137605068Y-110929573D01*
X137610122Y-110971661D01*
X137665639Y-111112443D01*
X137757077Y-111233022D01*
X137877658Y-111324461D01*
X137877660Y-111324462D01*
X137913218Y-111338485D01*
X137968362Y-111381391D01*
X137991555Y-111447298D01*
X137975434Y-111515283D01*
X137955412Y-111541518D01*
X137934770Y-111562160D01*
X137912964Y-111582524D01*
X137884464Y-111600532D01*
X137885053Y-111601580D01*
X137877660Y-111605736D01*
X137757077Y-111697177D01*
X137665639Y-111817756D01*
X137610122Y-111958538D01*
X137605926Y-111993482D01*
X137599500Y-112046998D01*
X137599500Y-113158202D01*
X137604282Y-113198023D01*
X137610122Y-113246663D01*
X137629425Y-113295611D01*
X137635706Y-113365198D01*
X137603369Y-113427134D01*
X137542679Y-113461754D01*
X137514071Y-113465100D01*
X137400029Y-113465100D01*
X137400012Y-113465101D01*
X137297302Y-113475594D01*
X137130880Y-113530741D01*
X137130875Y-113530743D01*
X136981654Y-113622784D01*
X136857684Y-113746754D01*
X136765643Y-113895975D01*
X136765641Y-113895980D01*
X136710494Y-114062402D01*
X136710493Y-114062409D01*
X136700000Y-114165113D01*
X136700000Y-114615100D01*
X138849999Y-114615100D01*
X138849999Y-114165128D01*
X138849998Y-114165113D01*
X138839505Y-114062402D01*
X138786786Y-113903307D01*
X138784384Y-113833479D01*
X138820116Y-113773437D01*
X138882636Y-113742244D01*
X138939087Y-113745227D01*
X138997505Y-113762199D01*
X138997511Y-113762200D01*
X138999998Y-113762395D01*
X139000000Y-113762395D01*
X139000000Y-113166072D01*
X139000443Y-113158673D01*
X139000500Y-113158202D01*
X139000500Y-112476600D01*
X139020185Y-112409561D01*
X139072989Y-112363806D01*
X139124500Y-112352600D01*
X139375500Y-112352600D01*
X139442539Y-112372285D01*
X139488294Y-112425089D01*
X139499500Y-112476600D01*
X139499500Y-113158202D01*
X139499556Y-113158673D01*
X139500000Y-113166072D01*
X139500000Y-113762395D01*
X139500001Y-113762395D01*
X139502486Y-113762200D01*
X139660196Y-113716382D01*
X139673567Y-113708474D01*
X139741290Y-113691289D01*
X139807554Y-113713446D01*
X139851319Y-113767911D01*
X139858691Y-113837390D01*
X139843425Y-113878324D01*
X139798254Y-113954705D01*
X139798254Y-113954706D01*
X139752402Y-114112526D01*
X139752401Y-114112532D01*
X139749500Y-114149404D01*
X139749500Y-115580796D01*
X139752401Y-115617667D01*
X139752402Y-115617673D01*
X139798254Y-115775493D01*
X139798255Y-115775496D01*
X139881917Y-115916962D01*
X139881923Y-115916970D01*
X139992372Y-116027419D01*
X140025857Y-116088742D01*
X140020873Y-116158434D01*
X139992372Y-116202781D01*
X139881923Y-116313229D01*
X139881917Y-116313237D01*
X139798255Y-116454703D01*
X139798254Y-116454706D01*
X139752402Y-116612526D01*
X139752401Y-116612532D01*
X139749500Y-116649404D01*
X139749500Y-117546069D01*
X139729815Y-117613108D01*
X139713181Y-117633750D01*
X139318650Y-118028281D01*
X139257327Y-118061766D01*
X139230969Y-118064600D01*
X138974000Y-118064600D01*
X138906961Y-118044915D01*
X138861206Y-117992111D01*
X138850000Y-117940600D01*
X138850000Y-117615100D01*
X137649000Y-117615100D01*
X137581961Y-117595415D01*
X137536206Y-117542611D01*
X137525000Y-117491100D01*
X137525000Y-115115100D01*
X138025000Y-115115100D01*
X138025000Y-117115100D01*
X138849999Y-117115100D01*
X138849999Y-116665128D01*
X138849998Y-116665113D01*
X138839505Y-116562402D01*
X138784358Y-116395980D01*
X138784356Y-116395975D01*
X138692315Y-116246754D01*
X138648342Y-116202781D01*
X138614857Y-116141458D01*
X138619841Y-116071766D01*
X138648342Y-116027419D01*
X138692315Y-115983445D01*
X138784356Y-115834224D01*
X138784358Y-115834219D01*
X138839505Y-115667797D01*
X138839506Y-115667790D01*
X138849999Y-115565086D01*
X138850000Y-115565073D01*
X138850000Y-115115100D01*
X138025000Y-115115100D01*
X137525000Y-115115100D01*
X136700001Y-115115100D01*
X136700001Y-115565086D01*
X136710494Y-115667797D01*
X136765641Y-115834219D01*
X136765643Y-115834224D01*
X136857684Y-115983445D01*
X136901658Y-116027419D01*
X136935143Y-116088742D01*
X136930159Y-116158434D01*
X136901658Y-116202781D01*
X136857684Y-116246754D01*
X136765643Y-116395975D01*
X136765641Y-116395980D01*
X136710494Y-116562402D01*
X136710493Y-116562409D01*
X136700000Y-116665113D01*
X136700000Y-117035743D01*
X136680315Y-117102782D01*
X136627511Y-117148537D01*
X136558353Y-117158481D01*
X136494797Y-117129456D01*
X136488319Y-117123424D01*
X134424319Y-115059424D01*
X134390834Y-114998101D01*
X134388000Y-114971743D01*
X134388000Y-107815100D01*
X136700000Y-107815100D01*
X137525000Y-107815100D01*
X137525000Y-105815100D01*
X138025000Y-105815100D01*
X138025000Y-107815100D01*
X138849999Y-107815100D01*
X138849999Y-107365128D01*
X138849998Y-107365113D01*
X138839505Y-107262402D01*
X138784358Y-107095980D01*
X138784356Y-107095975D01*
X138692315Y-106946754D01*
X138648342Y-106902781D01*
X138614857Y-106841458D01*
X138619841Y-106771766D01*
X138648342Y-106727419D01*
X138692315Y-106683445D01*
X138784356Y-106534224D01*
X138784358Y-106534219D01*
X138839505Y-106367797D01*
X138839506Y-106367790D01*
X138849999Y-106265086D01*
X138850000Y-106265073D01*
X138850000Y-105815100D01*
X138025000Y-105815100D01*
X137525000Y-105815100D01*
X136700001Y-105815100D01*
X136700001Y-106265086D01*
X136710494Y-106367797D01*
X136765641Y-106534219D01*
X136765643Y-106534224D01*
X136857684Y-106683445D01*
X136901658Y-106727419D01*
X136935143Y-106788742D01*
X136930159Y-106858434D01*
X136901658Y-106902781D01*
X136857684Y-106946754D01*
X136765643Y-107095975D01*
X136765641Y-107095980D01*
X136710494Y-107262402D01*
X136710493Y-107262409D01*
X136700000Y-107365113D01*
X136700000Y-107815100D01*
X134388000Y-107815100D01*
X134388000Y-105315100D01*
X136700000Y-105315100D01*
X137525000Y-105315100D01*
X137525000Y-104165100D01*
X138025000Y-104165100D01*
X138025000Y-105315100D01*
X138849999Y-105315100D01*
X138849999Y-104865128D01*
X138849998Y-104865113D01*
X138839505Y-104762402D01*
X138784358Y-104595980D01*
X138784356Y-104595975D01*
X138692315Y-104446754D01*
X138568345Y-104322784D01*
X138419124Y-104230743D01*
X138419119Y-104230741D01*
X138252697Y-104175594D01*
X138252690Y-104175593D01*
X138149986Y-104165100D01*
X138025000Y-104165100D01*
X137525000Y-104165100D01*
X137400027Y-104165100D01*
X137400012Y-104165101D01*
X137297302Y-104175594D01*
X137130880Y-104230741D01*
X137130875Y-104230743D01*
X136981654Y-104322784D01*
X136857684Y-104446754D01*
X136765643Y-104595975D01*
X136765641Y-104595980D01*
X136710494Y-104762402D01*
X136710493Y-104762409D01*
X136700000Y-104865113D01*
X136700000Y-105315100D01*
X134388000Y-105315100D01*
X134388000Y-103674274D01*
X134407685Y-103607235D01*
X134460489Y-103561480D01*
X134529647Y-103551536D01*
X134561404Y-103560541D01*
G37*
%TD.AperFunction*%
%TA.AperFunction,Conductor*%
G36*
X141483866Y-109298472D02*
G01*
X141527629Y-109352938D01*
X141537000Y-109400227D01*
X141537000Y-111581116D01*
X141534840Y-111644350D01*
X141544808Y-111685253D01*
X141545994Y-111691494D01*
X141551728Y-111733209D01*
X141558364Y-111748487D01*
X141565102Y-111768524D01*
X141569042Y-111784693D01*
X141569043Y-111784694D01*
X141589675Y-111821389D01*
X141592500Y-111827077D01*
X141609282Y-111865711D01*
X141619783Y-111878618D01*
X141631683Y-111896101D01*
X141639842Y-111910612D01*
X141669615Y-111940385D01*
X141673872Y-111945102D01*
X141690766Y-111965867D01*
X141700446Y-111977765D01*
X141714044Y-111987364D01*
X141730215Y-112000985D01*
X143139459Y-113410228D01*
X143182645Y-113456469D01*
X143218622Y-113478346D01*
X143223866Y-113481915D01*
X143257425Y-113507364D01*
X143272910Y-113513470D01*
X143291847Y-113522876D01*
X143306069Y-113531525D01*
X143306071Y-113531525D01*
X143306072Y-113531526D01*
X143346616Y-113542885D01*
X143352620Y-113544903D01*
X143391811Y-113560359D01*
X143408377Y-113562061D01*
X143429141Y-113566008D01*
X143445172Y-113570500D01*
X143487279Y-113570500D01*
X143493620Y-113570824D01*
X143535509Y-113575131D01*
X143551913Y-113572302D01*
X143572979Y-113570500D01*
X149461960Y-113570500D01*
X149528999Y-113590185D01*
X149574754Y-113642989D01*
X149584182Y-113708561D01*
X149584882Y-113708617D01*
X149584637Y-113711726D01*
X149584698Y-113712147D01*
X149584502Y-113713440D01*
X149584500Y-113713473D01*
X149584500Y-115476517D01*
X149592859Y-115529292D01*
X149599354Y-115570304D01*
X149656950Y-115683342D01*
X149656952Y-115683344D01*
X149656954Y-115683347D01*
X149746652Y-115773045D01*
X149746661Y-115773052D01*
X149829019Y-115815016D01*
X149879815Y-115862990D01*
X149896610Y-115930811D01*
X149874072Y-115996946D01*
X149819357Y-116040397D01*
X149772724Y-116049500D01*
X141707095Y-116049500D01*
X141640056Y-116029815D01*
X141594301Y-115977011D01*
X141584357Y-115907853D01*
X141600363Y-115862379D01*
X141610346Y-115845499D01*
X141651744Y-115775498D01*
X141697598Y-115617669D01*
X141700500Y-115580794D01*
X141700500Y-114149406D01*
X141697598Y-114112531D01*
X141691920Y-114092989D01*
X141651745Y-113954706D01*
X141651744Y-113954703D01*
X141651744Y-113954702D01*
X141568081Y-113813235D01*
X141568079Y-113813233D01*
X141568076Y-113813229D01*
X141451870Y-113697023D01*
X141451861Y-113697016D01*
X141311379Y-113613936D01*
X141263696Y-113562867D01*
X141250500Y-113507204D01*
X141250500Y-113136583D01*
X141252660Y-113073355D01*
X141242691Y-113032448D01*
X141241506Y-113026218D01*
X141235771Y-112984489D01*
X141229137Y-112969216D01*
X141222397Y-112949174D01*
X141221599Y-112945901D01*
X141218457Y-112933006D01*
X141218456Y-112933004D01*
X141218456Y-112933003D01*
X141197825Y-112896312D01*
X141194998Y-112890621D01*
X141178219Y-112851991D01*
X141178218Y-112851990D01*
X141167708Y-112839072D01*
X141155813Y-112821594D01*
X141147657Y-112807088D01*
X141117887Y-112777318D01*
X141113636Y-112772609D01*
X141087054Y-112739935D01*
X141073450Y-112730332D01*
X141057278Y-112716709D01*
X140936819Y-112596250D01*
X140903334Y-112534927D01*
X140900500Y-112508569D01*
X140900500Y-112047003D01*
X140900500Y-112046998D01*
X140889877Y-111958536D01*
X140834361Y-111817758D01*
X140834360Y-111817757D01*
X140834360Y-111817756D01*
X140742922Y-111697177D01*
X140622342Y-111605739D01*
X140614949Y-111601582D01*
X140616159Y-111599429D01*
X140576935Y-111570727D01*
X140562054Y-111552435D01*
X140562050Y-111552432D01*
X140555851Y-111546642D01*
X140557195Y-111545201D01*
X140520633Y-111499098D01*
X140513707Y-111429573D01*
X140545468Y-111367339D01*
X140590071Y-111337186D01*
X140622342Y-111324461D01*
X140742922Y-111233022D01*
X140834361Y-111112442D01*
X140889877Y-110971664D01*
X140900500Y-110883202D01*
X140900500Y-109771998D01*
X140889877Y-109683536D01*
X140834361Y-109542758D01*
X140834360Y-109542757D01*
X140831337Y-109535090D01*
X140825056Y-109465503D01*
X140857393Y-109403567D01*
X140918082Y-109368946D01*
X140946692Y-109365600D01*
X141115696Y-109365600D01*
X141134131Y-109364149D01*
X141152569Y-109362698D01*
X141152571Y-109362697D01*
X141152573Y-109362697D01*
X141213458Y-109345008D01*
X141310398Y-109316844D01*
X141349879Y-109293494D01*
X141417603Y-109276312D01*
X141483866Y-109298472D01*
G37*
%TD.AperFunction*%
%TA.AperFunction,Conductor*%
G36*
X162691507Y-113590185D02*
G01*
X162737262Y-113642989D01*
X162747206Y-113712147D01*
X162718181Y-113775703D01*
X162712149Y-113782181D01*
X160481150Y-116013181D01*
X160419827Y-116046666D01*
X160393469Y-116049500D01*
X156549514Y-116049500D01*
X156482475Y-116029815D01*
X156436720Y-115977011D01*
X156426776Y-115907853D01*
X156455801Y-115844297D01*
X156497109Y-115813118D01*
X156592578Y-115768600D01*
X156786082Y-115633105D01*
X156953105Y-115466082D01*
X157088600Y-115272578D01*
X157188429Y-115058492D01*
X157188432Y-115058486D01*
X157245636Y-114845000D01*
X156348686Y-114845000D01*
X156374493Y-114804844D01*
X156415000Y-114666889D01*
X156415000Y-114523111D01*
X156374493Y-114385156D01*
X156348686Y-114345000D01*
X157245636Y-114345000D01*
X157245635Y-114344999D01*
X157188432Y-114131513D01*
X157188429Y-114131507D01*
X157088600Y-113917422D01*
X157088599Y-113917420D01*
X156982310Y-113765623D01*
X156959983Y-113699417D01*
X156976993Y-113631650D01*
X157027941Y-113583837D01*
X157083885Y-113570500D01*
X162624468Y-113570500D01*
X162691507Y-113590185D01*
G37*
%TD.AperFunction*%
%TA.AperFunction,Conductor*%
G36*
X156923006Y-100070185D02*
G01*
X156943647Y-100086818D01*
X157000680Y-100143850D01*
X157034166Y-100205173D01*
X157037000Y-100231532D01*
X157037000Y-103366016D01*
X157035806Y-103400984D01*
X157034840Y-103429250D01*
X157044808Y-103470153D01*
X157045994Y-103476394D01*
X157051728Y-103518109D01*
X157058364Y-103533387D01*
X157065102Y-103553424D01*
X157069042Y-103569593D01*
X157069043Y-103569594D01*
X157089675Y-103606289D01*
X157092500Y-103611977D01*
X157109282Y-103650611D01*
X157119783Y-103663518D01*
X157131683Y-103681001D01*
X157139842Y-103695512D01*
X157169615Y-103725285D01*
X157173872Y-103730002D01*
X157200446Y-103762665D01*
X157214044Y-103772264D01*
X157230215Y-103785885D01*
X157942055Y-104497725D01*
X158465900Y-105021569D01*
X158499385Y-105082892D01*
X158494401Y-105152584D01*
X158452529Y-105208517D01*
X158387065Y-105232934D01*
X158378219Y-105233250D01*
X157969398Y-105233250D01*
X157930353Y-105237938D01*
X157880938Y-105243872D01*
X157740156Y-105299389D01*
X157699612Y-105330136D01*
X157634301Y-105354960D01*
X157624686Y-105355333D01*
X155486064Y-105355333D01*
X155419025Y-105335648D01*
X155373270Y-105282844D01*
X155366988Y-105265928D01*
X155339245Y-105170439D01*
X155339244Y-105170436D01*
X155339244Y-105170435D01*
X155255581Y-105028968D01*
X155255579Y-105028966D01*
X155255576Y-105028962D01*
X155139370Y-104912756D01*
X155139362Y-104912750D01*
X154997896Y-104829088D01*
X154997893Y-104829087D01*
X154840073Y-104783235D01*
X154840067Y-104783234D01*
X154803196Y-104780333D01*
X154803194Y-104780333D01*
X154146806Y-104780333D01*
X154146804Y-104780333D01*
X154109932Y-104783234D01*
X154109926Y-104783235D01*
X153952106Y-104829087D01*
X153952103Y-104829088D01*
X153810637Y-104912750D01*
X153810629Y-104912756D01*
X153694423Y-105028962D01*
X153694419Y-105028968D01*
X153669232Y-105071557D01*
X153618162Y-105119240D01*
X153549421Y-105131743D01*
X153484831Y-105105097D01*
X153455768Y-105071557D01*
X153451251Y-105063920D01*
X153430581Y-105028968D01*
X153430578Y-105028965D01*
X153430576Y-105028962D01*
X153314370Y-104912756D01*
X153314362Y-104912750D01*
X153172896Y-104829088D01*
X153172893Y-104829087D01*
X153015073Y-104783235D01*
X153015067Y-104783234D01*
X152978196Y-104780333D01*
X152978194Y-104780333D01*
X152321806Y-104780333D01*
X152321804Y-104780333D01*
X152284932Y-104783234D01*
X152284926Y-104783235D01*
X152127106Y-104829087D01*
X152127103Y-104829088D01*
X151985637Y-104912750D01*
X151985629Y-104912756D01*
X151869423Y-105028962D01*
X151869417Y-105028970D01*
X151785755Y-105170436D01*
X151785754Y-105170439D01*
X151758012Y-105265928D01*
X151720406Y-105324814D01*
X151656933Y-105354020D01*
X151638936Y-105355333D01*
X149147814Y-105355333D01*
X149080775Y-105335648D01*
X149072888Y-105330136D01*
X149032343Y-105299389D01*
X148891561Y-105243872D01*
X148845926Y-105238392D01*
X148803102Y-105233250D01*
X147541898Y-105233250D01*
X147502853Y-105237938D01*
X147453438Y-105243872D01*
X147312656Y-105299389D01*
X147192077Y-105390827D01*
X147100639Y-105511406D01*
X147045122Y-105652188D01*
X147039188Y-105701603D01*
X147034500Y-105740648D01*
X147034500Y-105740653D01*
X147034500Y-106059250D01*
X147014815Y-106126289D01*
X146962011Y-106172044D01*
X146910500Y-106183250D01*
X145666898Y-106183250D01*
X145627853Y-106187938D01*
X145578438Y-106193872D01*
X145437656Y-106249389D01*
X145317077Y-106340827D01*
X145225639Y-106461406D01*
X145170122Y-106602188D01*
X145164927Y-106645456D01*
X145159500Y-106690648D01*
X145159500Y-107076852D01*
X145161797Y-107095980D01*
X145170122Y-107165312D01*
X145172070Y-107173015D01*
X145170238Y-107173477D01*
X145175596Y-107232860D01*
X145143255Y-107294794D01*
X145141642Y-107296437D01*
X144530113Y-107907968D01*
X143559771Y-108878309D01*
X143513531Y-108921493D01*
X143491653Y-108957471D01*
X143488080Y-108962720D01*
X143462638Y-108996270D01*
X143462633Y-108996279D01*
X143456525Y-109011767D01*
X143447125Y-109030692D01*
X143438477Y-109044914D01*
X143438474Y-109044920D01*
X143427114Y-109085461D01*
X143425091Y-109091478D01*
X143409641Y-109130659D01*
X143409640Y-109130661D01*
X143407937Y-109147226D01*
X143403991Y-109167989D01*
X143399500Y-109184017D01*
X143399500Y-109226129D01*
X143399175Y-109232473D01*
X143394869Y-109274357D01*
X143394869Y-109274361D01*
X143397697Y-109290761D01*
X143399500Y-109311830D01*
X143399500Y-109497060D01*
X143379815Y-109564099D01*
X143363181Y-109584741D01*
X143295184Y-109652737D01*
X143199211Y-109805476D01*
X143139631Y-109975745D01*
X143139630Y-109975750D01*
X143119435Y-110154996D01*
X143119435Y-110155003D01*
X143139630Y-110334249D01*
X143139631Y-110334254D01*
X143199211Y-110504523D01*
X143278902Y-110631350D01*
X143295184Y-110657262D01*
X143422738Y-110784816D01*
X143575478Y-110880789D01*
X143714906Y-110929577D01*
X143745745Y-110940368D01*
X143745750Y-110940369D01*
X143924996Y-110960565D01*
X143925000Y-110960565D01*
X143925004Y-110960565D01*
X144104249Y-110940369D01*
X144104252Y-110940368D01*
X144104255Y-110940368D01*
X144274522Y-110880789D01*
X144427262Y-110784816D01*
X144554816Y-110657262D01*
X144650789Y-110504522D01*
X144710368Y-110334255D01*
X144710369Y-110334249D01*
X144730565Y-110155003D01*
X144730565Y-110154996D01*
X144710369Y-109975750D01*
X144710368Y-109975745D01*
X144698240Y-109941084D01*
X144650789Y-109805478D01*
X144646426Y-109798535D01*
X144603930Y-109730902D01*
X144554816Y-109652738D01*
X144500929Y-109598851D01*
X144467444Y-109537528D01*
X144472428Y-109467836D01*
X144500927Y-109423491D01*
X145096760Y-108827659D01*
X145096762Y-108827658D01*
X146303850Y-107620568D01*
X146365173Y-107587084D01*
X146391531Y-107584250D01*
X146910500Y-107584250D01*
X146977539Y-107603935D01*
X147023294Y-107656739D01*
X147034500Y-107708250D01*
X147034500Y-108026852D01*
X147041311Y-108083568D01*
X147045123Y-108115317D01*
X147047070Y-108123018D01*
X147045240Y-108123480D01*
X147050592Y-108182872D01*
X147018245Y-108244803D01*
X147016641Y-108246437D01*
X146684771Y-108578309D01*
X146638530Y-108621495D01*
X146616653Y-108657471D01*
X146613080Y-108662720D01*
X146587638Y-108696270D01*
X146587633Y-108696279D01*
X146581525Y-108711767D01*
X146572125Y-108730692D01*
X146563477Y-108744914D01*
X146563474Y-108744920D01*
X146552114Y-108785461D01*
X146550091Y-108791478D01*
X146534641Y-108830659D01*
X146534640Y-108830661D01*
X146532937Y-108847226D01*
X146528991Y-108867989D01*
X146524500Y-108884017D01*
X146524500Y-108926129D01*
X146524175Y-108932470D01*
X146523080Y-108943121D01*
X146519869Y-108974357D01*
X146519869Y-108974361D01*
X146522697Y-108990761D01*
X146524500Y-109011830D01*
X146524500Y-109318000D01*
X146504815Y-109385039D01*
X146452011Y-109430794D01*
X146400501Y-109442000D01*
X146168482Y-109442000D01*
X146087519Y-109454823D01*
X146074696Y-109456854D01*
X145961658Y-109514450D01*
X145961657Y-109514451D01*
X145961652Y-109514454D01*
X145871954Y-109604152D01*
X145871951Y-109604157D01*
X145871950Y-109604158D01*
X145858105Y-109631330D01*
X145814352Y-109717198D01*
X145799500Y-109810975D01*
X145799500Y-111574017D01*
X145810292Y-111642157D01*
X145814354Y-111667804D01*
X145871950Y-111780842D01*
X145871952Y-111780844D01*
X145871954Y-111780847D01*
X145961652Y-111870545D01*
X145961654Y-111870546D01*
X145961658Y-111870550D01*
X146070066Y-111925787D01*
X146074698Y-111928147D01*
X146168475Y-111942999D01*
X146168481Y-111943000D01*
X147931518Y-111942999D01*
X148025304Y-111928146D01*
X148138342Y-111870550D01*
X148228050Y-111780842D01*
X148285646Y-111667804D01*
X148285646Y-111667802D01*
X148285647Y-111667801D01*
X148300499Y-111574024D01*
X148300500Y-111574019D01*
X148300499Y-111424359D01*
X148320183Y-111357323D01*
X148372987Y-111311568D01*
X148442145Y-111301624D01*
X148505701Y-111330649D01*
X148526073Y-111353238D01*
X148628207Y-111499098D01*
X148628402Y-111499377D01*
X148783123Y-111654098D01*
X148962361Y-111779602D01*
X149160670Y-111872075D01*
X149372023Y-111928707D01*
X149554926Y-111944708D01*
X149589998Y-111947777D01*
X149590000Y-111947777D01*
X149590002Y-111947777D01*
X149620576Y-111945102D01*
X149807977Y-111928707D01*
X150019330Y-111872075D01*
X150217639Y-111779602D01*
X150396877Y-111654098D01*
X150551598Y-111499377D01*
X150677102Y-111320139D01*
X150747618Y-111168914D01*
X150793790Y-111116477D01*
X150860984Y-111097325D01*
X150927865Y-111117541D01*
X150972381Y-111168914D01*
X151042898Y-111320139D01*
X151168402Y-111499377D01*
X151323123Y-111654098D01*
X151502361Y-111779602D01*
X151700670Y-111872075D01*
X151912023Y-111928707D01*
X152094926Y-111944708D01*
X152129998Y-111947777D01*
X152130000Y-111947777D01*
X152130002Y-111947777D01*
X152160576Y-111945102D01*
X152347977Y-111928707D01*
X152559330Y-111872075D01*
X152757639Y-111779602D01*
X152936877Y-111654098D01*
X153091598Y-111499377D01*
X153217102Y-111320139D01*
X153287618Y-111168914D01*
X153333790Y-111116477D01*
X153400984Y-111097325D01*
X153467865Y-111117541D01*
X153512381Y-111168914D01*
X153582898Y-111320139D01*
X153708402Y-111499377D01*
X153863123Y-111654098D01*
X154042361Y-111779602D01*
X154240670Y-111872075D01*
X154452023Y-111928707D01*
X154634926Y-111944708D01*
X154669998Y-111947777D01*
X154670000Y-111947777D01*
X154670002Y-111947777D01*
X154700576Y-111945102D01*
X154887977Y-111928707D01*
X155099330Y-111872075D01*
X155297639Y-111779602D01*
X155476877Y-111654098D01*
X155631598Y-111499377D01*
X155757102Y-111320139D01*
X155827618Y-111168914D01*
X155873790Y-111116477D01*
X155940984Y-111097325D01*
X156007865Y-111117541D01*
X156052381Y-111168914D01*
X156122898Y-111320139D01*
X156248402Y-111499377D01*
X156403123Y-111654098D01*
X156582361Y-111779602D01*
X156780670Y-111872075D01*
X156992023Y-111928707D01*
X157174926Y-111944708D01*
X157209998Y-111947777D01*
X157210000Y-111947777D01*
X157210002Y-111947777D01*
X157240576Y-111945102D01*
X157427977Y-111928707D01*
X157639330Y-111872075D01*
X157837639Y-111779602D01*
X158016877Y-111654098D01*
X158171598Y-111499377D01*
X158297102Y-111320139D01*
X158312726Y-111286632D01*
X158358896Y-111234195D01*
X158426090Y-111215043D01*
X158492971Y-111235258D01*
X158537489Y-111286634D01*
X158576399Y-111370078D01*
X158711894Y-111563582D01*
X158878917Y-111730605D01*
X159072421Y-111866100D01*
X159286507Y-111965929D01*
X159286516Y-111965933D01*
X159500000Y-112023134D01*
X159500000Y-111128001D01*
X159607685Y-111177180D01*
X159714237Y-111192500D01*
X159785763Y-111192500D01*
X159892315Y-111177180D01*
X160000000Y-111128001D01*
X160000000Y-112023133D01*
X160213483Y-111965933D01*
X160213492Y-111965929D01*
X160427578Y-111866100D01*
X160621082Y-111730605D01*
X160788105Y-111563582D01*
X160923600Y-111370078D01*
X161023429Y-111155992D01*
X161023432Y-111155986D01*
X161080636Y-110942500D01*
X160183686Y-110942500D01*
X160209493Y-110902344D01*
X160250000Y-110764389D01*
X160250000Y-110620611D01*
X160209493Y-110482656D01*
X160183686Y-110442500D01*
X161080636Y-110442500D01*
X161080635Y-110442499D01*
X161023432Y-110229013D01*
X161023429Y-110229007D01*
X160923600Y-110014922D01*
X160923599Y-110014920D01*
X160788113Y-109821426D01*
X160788108Y-109821420D01*
X160621082Y-109654394D01*
X160427578Y-109518899D01*
X160213492Y-109419070D01*
X160213486Y-109419067D01*
X160000000Y-109361864D01*
X160000000Y-110256998D01*
X159892315Y-110207820D01*
X159785763Y-110192500D01*
X159714237Y-110192500D01*
X159607685Y-110207820D01*
X159500000Y-110256998D01*
X159500000Y-109361864D01*
X159499999Y-109361864D01*
X159286513Y-109419067D01*
X159286507Y-109419070D01*
X159072422Y-109518899D01*
X159072420Y-109518900D01*
X158878926Y-109654386D01*
X158878920Y-109654391D01*
X158711891Y-109821420D01*
X158711886Y-109821426D01*
X158576400Y-110014920D01*
X158576399Y-110014922D01*
X158537489Y-110098366D01*
X158491317Y-110150805D01*
X158424123Y-110169957D01*
X158357242Y-110149741D01*
X158312725Y-110098366D01*
X158297102Y-110064862D01*
X158297100Y-110064859D01*
X158297099Y-110064857D01*
X158171599Y-109885624D01*
X158096950Y-109810975D01*
X158016877Y-109730902D01*
X157837639Y-109605398D01*
X157837640Y-109605398D01*
X157837638Y-109605397D01*
X157738484Y-109559161D01*
X157639330Y-109512925D01*
X157639326Y-109512924D01*
X157639322Y-109512922D01*
X157427977Y-109456293D01*
X157210002Y-109437223D01*
X157209998Y-109437223D01*
X157085112Y-109448149D01*
X156992023Y-109456293D01*
X156992020Y-109456293D01*
X156844240Y-109495891D01*
X156774390Y-109494228D01*
X156724466Y-109463797D01*
X155884517Y-108623847D01*
X155851032Y-108562524D01*
X155856016Y-108492832D01*
X155897888Y-108436899D01*
X155963352Y-108412482D01*
X155972198Y-108412166D01*
X157624684Y-108412166D01*
X157691723Y-108431851D01*
X157699609Y-108437362D01*
X157740156Y-108468110D01*
X157740157Y-108468110D01*
X157740158Y-108468111D01*
X157880936Y-108523627D01*
X157969398Y-108534250D01*
X157969403Y-108534250D01*
X159230597Y-108534250D01*
X159230602Y-108534250D01*
X159319064Y-108523627D01*
X159459842Y-108468111D01*
X159580422Y-108376672D01*
X159671861Y-108256092D01*
X159727377Y-108115314D01*
X159738000Y-108026852D01*
X159738000Y-107708250D01*
X159757685Y-107641211D01*
X159810489Y-107595456D01*
X159862000Y-107584250D01*
X160789718Y-107584250D01*
X160856757Y-107603935D01*
X160877399Y-107620569D01*
X162189303Y-108932473D01*
X163486458Y-110229627D01*
X163519943Y-110290950D01*
X163514959Y-110360642D01*
X163512333Y-110367118D01*
X163445842Y-110518699D01*
X163388866Y-110743691D01*
X163388864Y-110743702D01*
X163369700Y-110974993D01*
X163369700Y-110975006D01*
X163388864Y-111206297D01*
X163388866Y-111206308D01*
X163445842Y-111431300D01*
X163539075Y-111643848D01*
X163666016Y-111838147D01*
X163666019Y-111838151D01*
X163666021Y-111838153D01*
X163823216Y-112008913D01*
X163823219Y-112008915D01*
X163823222Y-112008918D01*
X164006365Y-112151464D01*
X164006371Y-112151468D01*
X164006374Y-112151470D01*
X164210497Y-112261936D01*
X164239334Y-112271835D01*
X164257927Y-112278219D01*
X164314942Y-112318604D01*
X164341073Y-112383404D01*
X164328022Y-112452044D01*
X164279933Y-112502731D01*
X164217664Y-112519500D01*
X143786431Y-112519500D01*
X143719392Y-112499815D01*
X143698750Y-112483181D01*
X142624319Y-111408750D01*
X142590834Y-111347427D01*
X142588000Y-111321069D01*
X142588000Y-103724500D01*
X142607685Y-103657461D01*
X142660489Y-103611706D01*
X142712000Y-103600500D01*
X144017640Y-103600500D01*
X144084679Y-103620185D01*
X144130434Y-103672989D01*
X144135911Y-103691157D01*
X144136337Y-103691019D01*
X144139352Y-103700300D01*
X144139353Y-103700303D01*
X144139354Y-103700304D01*
X144196950Y-103813342D01*
X144196952Y-103813344D01*
X144196954Y-103813347D01*
X144286652Y-103903045D01*
X144286654Y-103903046D01*
X144286658Y-103903050D01*
X144391622Y-103956532D01*
X144399698Y-103960647D01*
X144493475Y-103975499D01*
X144493481Y-103975500D01*
X147056518Y-103975499D01*
X147150304Y-103960646D01*
X147263342Y-103903050D01*
X147353050Y-103813342D01*
X147410646Y-103700304D01*
X147410646Y-103700302D01*
X147410647Y-103700301D01*
X147422917Y-103622827D01*
X147425500Y-103606519D01*
X147425499Y-102543482D01*
X147425499Y-102543481D01*
X147425499Y-102543477D01*
X147417969Y-102495936D01*
X147426923Y-102426643D01*
X147471920Y-102373191D01*
X147491038Y-102362804D01*
X147513109Y-102353219D01*
X147526028Y-102342707D01*
X147543497Y-102330818D01*
X147558012Y-102322658D01*
X147587797Y-102292871D01*
X147592488Y-102288637D01*
X147625165Y-102262054D01*
X147634766Y-102248452D01*
X147648382Y-102232286D01*
X147845927Y-102034741D01*
X147887933Y-101995511D01*
X147892165Y-101991559D01*
X147892165Y-101991558D01*
X147892167Y-101991557D01*
X147914051Y-101955568D01*
X147917612Y-101950336D01*
X147943062Y-101916777D01*
X147949171Y-101901284D01*
X147958574Y-101882353D01*
X147967224Y-101868130D01*
X147978586Y-101827572D01*
X147980601Y-101821581D01*
X147996057Y-101782391D01*
X147997759Y-101765824D01*
X148001704Y-101745066D01*
X148006198Y-101729030D01*
X148006198Y-101686921D01*
X148006523Y-101680577D01*
X148008020Y-101666016D01*
X148010829Y-101638692D01*
X148008001Y-101622288D01*
X148006198Y-101601221D01*
X148006198Y-100662229D01*
X148025883Y-100595190D01*
X148042517Y-100574548D01*
X148530246Y-100086819D01*
X148591569Y-100053334D01*
X148617927Y-100050500D01*
X156855967Y-100050500D01*
X156923006Y-100070185D01*
G37*
%TD.AperFunction*%
%TA.AperFunction,Conductor*%
G36*
X169962223Y-111520185D02*
G01*
X170007978Y-111572989D01*
X170008740Y-111574690D01*
X170039075Y-111643848D01*
X170166016Y-111838147D01*
X170166019Y-111838151D01*
X170166021Y-111838153D01*
X170323216Y-112008913D01*
X170323219Y-112008915D01*
X170323222Y-112008918D01*
X170506365Y-112151464D01*
X170506371Y-112151468D01*
X170506374Y-112151470D01*
X170710497Y-112261936D01*
X170739334Y-112271835D01*
X170757927Y-112278219D01*
X170814942Y-112318604D01*
X170841073Y-112383404D01*
X170828022Y-112452044D01*
X170779933Y-112502731D01*
X170717664Y-112519500D01*
X165332336Y-112519500D01*
X165265297Y-112499815D01*
X165219542Y-112447011D01*
X165209598Y-112377853D01*
X165238623Y-112314297D01*
X165292073Y-112278219D01*
X165304322Y-112274013D01*
X165339503Y-112261936D01*
X165543626Y-112151470D01*
X165726784Y-112008913D01*
X165883979Y-111838153D01*
X166010924Y-111643849D01*
X166041260Y-111574689D01*
X166086216Y-111521204D01*
X166152952Y-111500514D01*
X166154816Y-111500500D01*
X169895184Y-111500500D01*
X169962223Y-111520185D01*
G37*
%TD.AperFunction*%
%TA.AperFunction,Conductor*%
G36*
X168148730Y-97910185D02*
G01*
X168169372Y-97926819D01*
X168285629Y-98043076D01*
X168285633Y-98043079D01*
X168285635Y-98043081D01*
X168427102Y-98126744D01*
X168467022Y-98138342D01*
X168584926Y-98172597D01*
X168584929Y-98172597D01*
X168584931Y-98172598D01*
X168597222Y-98173565D01*
X168621804Y-98175500D01*
X168621806Y-98175500D01*
X169278191Y-98175500D01*
X169278194Y-98175500D01*
X169278196Y-98175499D01*
X169279263Y-98175458D01*
X169347024Y-98192492D01*
X169392224Y-98238590D01*
X169402175Y-98256289D01*
X169405000Y-98261977D01*
X169421782Y-98300611D01*
X169432283Y-98313518D01*
X169444183Y-98331001D01*
X169452342Y-98345512D01*
X169482115Y-98375285D01*
X169486372Y-98380002D01*
X169512946Y-98412665D01*
X169526544Y-98422264D01*
X169542715Y-98435885D01*
X170927182Y-99820352D01*
X170988681Y-99881850D01*
X171022166Y-99943173D01*
X171025000Y-99969531D01*
X171025000Y-100825000D01*
X171800398Y-100825000D01*
X171833307Y-100807030D01*
X171902999Y-100812014D01*
X171947345Y-100840514D01*
X172327059Y-101220228D01*
X172370245Y-101266469D01*
X172406222Y-101288346D01*
X172411466Y-101291915D01*
X172445025Y-101317364D01*
X172459632Y-101323124D01*
X172460512Y-101323471D01*
X172479452Y-101332878D01*
X172493669Y-101341524D01*
X172493672Y-101341526D01*
X172518930Y-101348603D01*
X172534218Y-101352887D01*
X172540235Y-101354910D01*
X172579410Y-101370359D01*
X172595977Y-101372061D01*
X172616741Y-101376008D01*
X172632772Y-101380500D01*
X172674879Y-101380500D01*
X172681220Y-101380824D01*
X172723109Y-101385131D01*
X172739513Y-101382302D01*
X172760579Y-101380500D01*
X174161274Y-101380500D01*
X174228313Y-101400185D01*
X174273655Y-101452094D01*
X174287898Y-101482639D01*
X174413402Y-101661877D01*
X174568123Y-101816598D01*
X174745657Y-101940909D01*
X174747361Y-101942102D01*
X174898583Y-102012618D01*
X174951022Y-102058790D01*
X174970174Y-102125984D01*
X174949958Y-102192865D01*
X174898583Y-102237382D01*
X174747361Y-102307898D01*
X174747357Y-102307900D01*
X174568121Y-102433402D01*
X174413402Y-102588121D01*
X174287900Y-102767357D01*
X174287898Y-102767361D01*
X174195426Y-102965668D01*
X174195422Y-102965677D01*
X174138793Y-103177020D01*
X174138793Y-103177023D01*
X174135517Y-103214466D01*
X174119723Y-103394997D01*
X174119723Y-103395002D01*
X174121448Y-103414723D01*
X174138228Y-103606524D01*
X174138793Y-103612975D01*
X174138793Y-103612979D01*
X174195422Y-103824322D01*
X174195424Y-103824326D01*
X174195425Y-103824330D01*
X174232132Y-103903048D01*
X174287897Y-104022638D01*
X174301708Y-104042362D01*
X174413402Y-104201877D01*
X174568123Y-104356598D01*
X174747361Y-104482102D01*
X174780862Y-104497724D01*
X174780865Y-104497725D01*
X174833304Y-104543897D01*
X174852456Y-104611091D01*
X174832240Y-104677972D01*
X174780865Y-104722489D01*
X174697422Y-104761399D01*
X174697420Y-104761400D01*
X174503926Y-104896886D01*
X174503920Y-104896891D01*
X174336891Y-105063920D01*
X174336886Y-105063926D01*
X174201400Y-105257420D01*
X174201399Y-105257422D01*
X174101570Y-105471507D01*
X174101567Y-105471513D01*
X174044364Y-105684999D01*
X174044364Y-105685000D01*
X174941314Y-105685000D01*
X174915507Y-105725156D01*
X174875000Y-105863111D01*
X174875000Y-106006889D01*
X174915507Y-106144844D01*
X174941314Y-106185000D01*
X174044364Y-106185000D01*
X174101567Y-106398486D01*
X174101570Y-106398492D01*
X174201399Y-106612578D01*
X174336894Y-106806082D01*
X174503918Y-106973106D01*
X174543385Y-107000742D01*
X174587009Y-107055319D01*
X174594201Y-107124818D01*
X174562678Y-107187172D01*
X174502448Y-107222585D01*
X174491656Y-107224790D01*
X174399696Y-107239354D01*
X174286658Y-107296950D01*
X174286657Y-107296951D01*
X174286652Y-107296954D01*
X174196954Y-107386652D01*
X174196951Y-107386657D01*
X174196950Y-107386658D01*
X174195435Y-107389632D01*
X174139352Y-107499698D01*
X174124500Y-107593475D01*
X174124500Y-108930967D01*
X174104815Y-108998006D01*
X174088181Y-109018648D01*
X173687181Y-109419648D01*
X173625858Y-109453133D01*
X173556166Y-109448149D01*
X173500233Y-109406277D01*
X173475816Y-109340813D01*
X173475500Y-109331967D01*
X173475500Y-108771483D01*
X173477660Y-108708255D01*
X173467690Y-108667343D01*
X173466507Y-108661124D01*
X173461384Y-108623847D01*
X173460771Y-108619388D01*
X173460770Y-108619386D01*
X173454139Y-108604122D01*
X173447396Y-108584071D01*
X173443457Y-108567905D01*
X173431386Y-108546437D01*
X173422819Y-108531200D01*
X173419996Y-108525518D01*
X173403219Y-108486891D01*
X173392706Y-108473969D01*
X173380811Y-108456490D01*
X173372657Y-108441988D01*
X173342887Y-108412218D01*
X173338637Y-108407510D01*
X173312054Y-108374835D01*
X173298450Y-108365232D01*
X173282278Y-108351609D01*
X173203971Y-108273302D01*
X173170486Y-108211979D01*
X173168958Y-108181965D01*
X173168065Y-108181965D01*
X173168065Y-108174997D01*
X173147869Y-107995750D01*
X173147868Y-107995745D01*
X173088288Y-107825476D01*
X173049082Y-107763080D01*
X172992316Y-107672738D01*
X172864762Y-107545184D01*
X172792370Y-107499697D01*
X172712023Y-107449211D01*
X172541754Y-107389631D01*
X172541749Y-107389630D01*
X172362504Y-107369435D01*
X172362496Y-107369435D01*
X172183250Y-107389630D01*
X172183245Y-107389631D01*
X172012976Y-107449211D01*
X171860237Y-107545184D01*
X171732684Y-107672737D01*
X171636711Y-107825476D01*
X171577131Y-107995745D01*
X171577130Y-107995750D01*
X171556935Y-108174996D01*
X171556935Y-108175003D01*
X171577130Y-108354249D01*
X171577131Y-108354254D01*
X171636711Y-108524523D01*
X171674124Y-108584065D01*
X171732684Y-108677262D01*
X171860238Y-108804816D01*
X171901367Y-108830659D01*
X171986285Y-108884017D01*
X172012978Y-108900789D01*
X172174966Y-108957471D01*
X172183245Y-108960368D01*
X172183250Y-108960369D01*
X172247545Y-108967612D01*
X172314383Y-108975143D01*
X172378797Y-109002209D01*
X172418352Y-109059803D01*
X172424500Y-109098363D01*
X172424500Y-109841329D01*
X172404815Y-109908368D01*
X172352011Y-109954123D01*
X172282853Y-109964067D01*
X172224338Y-109939183D01*
X172043627Y-109798531D01*
X172043626Y-109798530D01*
X171949970Y-109747845D01*
X171839504Y-109688064D01*
X171839495Y-109688061D01*
X171619984Y-109612702D01*
X171416895Y-109578813D01*
X171391049Y-109574500D01*
X171158951Y-109574500D01*
X171136952Y-109578171D01*
X170930015Y-109612702D01*
X170710504Y-109688061D01*
X170710495Y-109688064D01*
X170506371Y-109798531D01*
X170506365Y-109798535D01*
X170323222Y-109941081D01*
X170323219Y-109941084D01*
X170166016Y-110111852D01*
X170039075Y-110306151D01*
X170008740Y-110375310D01*
X169963784Y-110428796D01*
X169897048Y-110449486D01*
X169895184Y-110449500D01*
X166154816Y-110449500D01*
X166087777Y-110429815D01*
X166042022Y-110377011D01*
X166041260Y-110375310D01*
X166010924Y-110306151D01*
X165883983Y-110111852D01*
X165883980Y-110111849D01*
X165883979Y-110111847D01*
X165726784Y-109941087D01*
X165726779Y-109941083D01*
X165726777Y-109941081D01*
X165543634Y-109798535D01*
X165543628Y-109798531D01*
X165339504Y-109688064D01*
X165339495Y-109688061D01*
X165119984Y-109612702D01*
X164916895Y-109578813D01*
X164891049Y-109574500D01*
X164658951Y-109574500D01*
X164429430Y-109612799D01*
X164360065Y-109604417D01*
X164321340Y-109578171D01*
X161655350Y-106912181D01*
X161621865Y-106850858D01*
X161626849Y-106781166D01*
X161668721Y-106725233D01*
X161734185Y-106700816D01*
X161743031Y-106700500D01*
X164830963Y-106700500D01*
X164898002Y-106720185D01*
X164943345Y-106772095D01*
X164987897Y-106867638D01*
X164987898Y-106867639D01*
X165113402Y-107046877D01*
X165268123Y-107201598D01*
X165447361Y-107327102D01*
X165645670Y-107419575D01*
X165857023Y-107476207D01*
X166039926Y-107492208D01*
X166074998Y-107495277D01*
X166075000Y-107495277D01*
X166075002Y-107495277D01*
X166103254Y-107492805D01*
X166292977Y-107476207D01*
X166504330Y-107419575D01*
X166702639Y-107327102D01*
X166881877Y-107201598D01*
X167036598Y-107046877D01*
X167162102Y-106867639D01*
X167254575Y-106669330D01*
X167311207Y-106457977D01*
X167330277Y-106240000D01*
X167311207Y-106022023D01*
X167254575Y-105810670D01*
X167162102Y-105612362D01*
X167162100Y-105612359D01*
X167162099Y-105612357D01*
X167036599Y-105433124D01*
X166962260Y-105358785D01*
X166881877Y-105278402D01*
X166702639Y-105152898D01*
X166551414Y-105082381D01*
X166498977Y-105036210D01*
X166479825Y-104969016D01*
X166500041Y-104902135D01*
X166551414Y-104857618D01*
X166702639Y-104787102D01*
X166881877Y-104661598D01*
X167036598Y-104506877D01*
X167162102Y-104327639D01*
X167254575Y-104129330D01*
X167311207Y-103917977D01*
X167329542Y-103708402D01*
X167330277Y-103700002D01*
X167330277Y-103699997D01*
X167325956Y-103650609D01*
X167311207Y-103482023D01*
X167254575Y-103270670D01*
X167162102Y-103072362D01*
X167162100Y-103072359D01*
X167162099Y-103072357D01*
X167036599Y-102893124D01*
X166968475Y-102825000D01*
X166881877Y-102738402D01*
X166702639Y-102612898D01*
X166551414Y-102542381D01*
X166498977Y-102496210D01*
X166479825Y-102429016D01*
X166500041Y-102362135D01*
X166551414Y-102317618D01*
X166702639Y-102247102D01*
X166881877Y-102121598D01*
X167036598Y-101966877D01*
X167162102Y-101787639D01*
X167254575Y-101589330D01*
X167311207Y-101377977D01*
X167330277Y-101160000D01*
X167329839Y-101154997D01*
X167322841Y-101075002D01*
X167311207Y-100942023D01*
X167254575Y-100730670D01*
X167182873Y-100576905D01*
X167172381Y-100507827D01*
X167200901Y-100444043D01*
X167259377Y-100405804D01*
X167295255Y-100400500D01*
X167480968Y-100400500D01*
X167548007Y-100420185D01*
X167568649Y-100436819D01*
X168000681Y-100868850D01*
X168034166Y-100930173D01*
X168037000Y-100956531D01*
X168037000Y-101590696D01*
X168039901Y-101627567D01*
X168039902Y-101627573D01*
X168085754Y-101785393D01*
X168085755Y-101785396D01*
X168085756Y-101785398D01*
X168119890Y-101843116D01*
X168169417Y-101926862D01*
X168169423Y-101926870D01*
X168285629Y-102043076D01*
X168285633Y-102043079D01*
X168285635Y-102043081D01*
X168427102Y-102126744D01*
X168438316Y-102130002D01*
X168584926Y-102172597D01*
X168584929Y-102172597D01*
X168584931Y-102172598D01*
X168597222Y-102173565D01*
X168621804Y-102175500D01*
X168621806Y-102175500D01*
X169278196Y-102175500D01*
X169296631Y-102174049D01*
X169315069Y-102172598D01*
X169315071Y-102172597D01*
X169315073Y-102172597D01*
X169362586Y-102158793D01*
X169472898Y-102126744D01*
X169614365Y-102043081D01*
X169711599Y-101945846D01*
X169772920Y-101912363D01*
X169842612Y-101917347D01*
X169898546Y-101959218D01*
X169904818Y-101968433D01*
X169920182Y-101993343D01*
X170044154Y-102117315D01*
X170193375Y-102209356D01*
X170193380Y-102209358D01*
X170359802Y-102264505D01*
X170359809Y-102264506D01*
X170462519Y-102274999D01*
X170524999Y-102274998D01*
X170525000Y-102274998D01*
X170525000Y-101325000D01*
X171025000Y-101325000D01*
X171025000Y-102274999D01*
X171087472Y-102274999D01*
X171087486Y-102274998D01*
X171190197Y-102264505D01*
X171356619Y-102209358D01*
X171356624Y-102209356D01*
X171505845Y-102117315D01*
X171629815Y-101993345D01*
X171721856Y-101844124D01*
X171721858Y-101844119D01*
X171777005Y-101677697D01*
X171777006Y-101677690D01*
X171787499Y-101574986D01*
X171787500Y-101574973D01*
X171787500Y-101325000D01*
X171025000Y-101325000D01*
X170525000Y-101325000D01*
X170525000Y-99875000D01*
X170524999Y-99874999D01*
X170462528Y-99875000D01*
X170462511Y-99875001D01*
X170359802Y-99885494D01*
X170193380Y-99940641D01*
X170193375Y-99940643D01*
X170044154Y-100032684D01*
X169920183Y-100156655D01*
X169920180Y-100156659D01*
X169904817Y-100181567D01*
X169852869Y-100228292D01*
X169783906Y-100239513D01*
X169719824Y-100211670D01*
X169711598Y-100204151D01*
X169614370Y-100106923D01*
X169614362Y-100106917D01*
X169488840Y-100032684D01*
X169472898Y-100023256D01*
X169472897Y-100023255D01*
X169472896Y-100023255D01*
X169472893Y-100023254D01*
X169315073Y-99977402D01*
X169315067Y-99977401D01*
X169278196Y-99974500D01*
X169278194Y-99974500D01*
X168644031Y-99974500D01*
X168576992Y-99954815D01*
X168556350Y-99938181D01*
X168127941Y-99509772D01*
X168115568Y-99496524D01*
X168084755Y-99463531D01*
X168048775Y-99441651D01*
X168043529Y-99438081D01*
X168022035Y-99421781D01*
X168009976Y-99412636D01*
X168001406Y-99409256D01*
X167994485Y-99406527D01*
X167975553Y-99397124D01*
X167961329Y-99388474D01*
X167920785Y-99377113D01*
X167914766Y-99375089D01*
X167876720Y-99360087D01*
X167875589Y-99359641D01*
X167875585Y-99359640D01*
X167875583Y-99359640D01*
X167859022Y-99357937D01*
X167838255Y-99353990D01*
X167822231Y-99349500D01*
X167822228Y-99349500D01*
X167780120Y-99349500D01*
X167773778Y-99349175D01*
X167755853Y-99347332D01*
X167731892Y-99344869D01*
X167731888Y-99344869D01*
X167722576Y-99346474D01*
X167715485Y-99347697D01*
X167694420Y-99349500D01*
X167309244Y-99349500D01*
X167242205Y-99329815D01*
X167196450Y-99277011D01*
X167186506Y-99207853D01*
X167196862Y-99173095D01*
X167254575Y-99049330D01*
X167311207Y-98837977D01*
X167330277Y-98620000D01*
X167311207Y-98402023D01*
X167269656Y-98246954D01*
X167254577Y-98190677D01*
X167254576Y-98190676D01*
X167254575Y-98190670D01*
X167196861Y-98066904D01*
X167186370Y-97997827D01*
X167214890Y-97934043D01*
X167273366Y-97895804D01*
X167309244Y-97890500D01*
X168081691Y-97890500D01*
X168148730Y-97910185D01*
G37*
%TD.AperFunction*%
%TA.AperFunction,Conductor*%
G36*
X151705975Y-108431851D02*
G01*
X151751730Y-108484655D01*
X151758012Y-108501571D01*
X151785754Y-108597059D01*
X151785755Y-108597062D01*
X151785756Y-108597064D01*
X151801595Y-108623847D01*
X151869417Y-108738528D01*
X151869423Y-108738536D01*
X151985629Y-108854742D01*
X151985633Y-108854745D01*
X151985635Y-108854747D01*
X152127102Y-108938410D01*
X152143324Y-108943123D01*
X152284926Y-108984263D01*
X152284929Y-108984263D01*
X152284931Y-108984264D01*
X152297222Y-108985231D01*
X152321804Y-108987166D01*
X152909104Y-108987166D01*
X152976143Y-109006851D01*
X153021898Y-109059655D01*
X153022838Y-109061765D01*
X153034280Y-109088108D01*
X153034282Y-109088111D01*
X153044783Y-109101018D01*
X153056683Y-109118501D01*
X153064842Y-109133012D01*
X153094611Y-109162781D01*
X153098867Y-109167497D01*
X153112308Y-109184017D01*
X153125446Y-109200165D01*
X153139044Y-109209763D01*
X153155215Y-109223385D01*
X153196430Y-109264600D01*
X153208727Y-109276897D01*
X153251911Y-109323135D01*
X153287888Y-109345012D01*
X153293132Y-109348581D01*
X153326691Y-109374030D01*
X153342176Y-109380136D01*
X153361113Y-109389542D01*
X153375335Y-109398191D01*
X153375337Y-109398191D01*
X153375338Y-109398192D01*
X153415882Y-109409551D01*
X153421886Y-109411569D01*
X153461077Y-109427025D01*
X153466733Y-109427606D01*
X153477634Y-109428727D01*
X153498412Y-109432675D01*
X153514438Y-109437166D01*
X153556546Y-109437166D01*
X153562887Y-109437490D01*
X153604776Y-109441797D01*
X153621180Y-109438968D01*
X153642246Y-109437166D01*
X153889344Y-109437166D01*
X153956383Y-109456851D01*
X154002138Y-109509655D01*
X154012082Y-109578813D01*
X153983057Y-109642369D01*
X153960467Y-109662741D01*
X153863121Y-109730902D01*
X153708402Y-109885621D01*
X153582900Y-110064857D01*
X153582898Y-110064861D01*
X153512382Y-110216083D01*
X153466209Y-110268522D01*
X153399016Y-110287674D01*
X153332135Y-110267458D01*
X153287618Y-110216083D01*
X153239014Y-110111852D01*
X153217102Y-110064862D01*
X153217100Y-110064859D01*
X153217099Y-110064857D01*
X153091599Y-109885624D01*
X153016950Y-109810975D01*
X152936877Y-109730902D01*
X152757639Y-109605398D01*
X152757640Y-109605398D01*
X152757638Y-109605397D01*
X152658484Y-109559161D01*
X152559330Y-109512925D01*
X152559326Y-109512924D01*
X152559322Y-109512922D01*
X152347977Y-109456293D01*
X152130002Y-109437223D01*
X152129998Y-109437223D01*
X152005112Y-109448149D01*
X151912023Y-109456293D01*
X151912020Y-109456293D01*
X151700677Y-109512922D01*
X151700670Y-109512924D01*
X151700670Y-109512925D01*
X151697391Y-109514454D01*
X151502361Y-109605398D01*
X151502357Y-109605400D01*
X151323121Y-109730902D01*
X151168402Y-109885621D01*
X151042900Y-110064857D01*
X151042898Y-110064861D01*
X150972382Y-110216083D01*
X150926209Y-110268522D01*
X150859016Y-110287674D01*
X150792135Y-110267458D01*
X150747618Y-110216083D01*
X150699014Y-110111852D01*
X150677102Y-110064862D01*
X150677100Y-110064859D01*
X150677099Y-110064857D01*
X150551599Y-109885624D01*
X150476950Y-109810975D01*
X150396877Y-109730902D01*
X150217639Y-109605398D01*
X150217640Y-109605398D01*
X150217638Y-109605397D01*
X150118484Y-109559161D01*
X150019330Y-109512925D01*
X150019326Y-109512924D01*
X150019322Y-109512922D01*
X149807977Y-109456293D01*
X149590002Y-109437223D01*
X149589998Y-109437223D01*
X149465112Y-109448149D01*
X149372023Y-109456293D01*
X149372020Y-109456293D01*
X149160677Y-109512922D01*
X149160670Y-109512924D01*
X149160670Y-109512925D01*
X149157391Y-109514454D01*
X148962361Y-109605398D01*
X148962357Y-109605400D01*
X148783121Y-109730902D01*
X148628402Y-109885621D01*
X148526074Y-110031762D01*
X148471497Y-110075387D01*
X148401999Y-110082581D01*
X148339644Y-110051058D01*
X148304230Y-109990828D01*
X148300499Y-109960639D01*
X148300499Y-109810982D01*
X148298527Y-109798530D01*
X148285646Y-109717196D01*
X148228050Y-109604158D01*
X148228046Y-109604154D01*
X148228045Y-109604152D01*
X148138347Y-109514454D01*
X148138344Y-109514452D01*
X148138342Y-109514450D01*
X148058796Y-109473919D01*
X148025301Y-109456852D01*
X147931524Y-109442000D01*
X147931519Y-109442000D01*
X147699500Y-109442000D01*
X147632461Y-109422315D01*
X147586706Y-109369511D01*
X147575500Y-109318000D01*
X147575500Y-109225282D01*
X147595185Y-109158243D01*
X147611819Y-109137601D01*
X148178851Y-108570569D01*
X148240174Y-108537084D01*
X148266532Y-108534250D01*
X148803097Y-108534250D01*
X148803102Y-108534250D01*
X148891564Y-108523627D01*
X149032342Y-108468111D01*
X149045509Y-108458125D01*
X149072891Y-108437362D01*
X149138202Y-108412539D01*
X149147816Y-108412166D01*
X151638936Y-108412166D01*
X151705975Y-108431851D01*
G37*
%TD.AperFunction*%
%TA.AperFunction,Conductor*%
G36*
X151705975Y-106426018D02*
G01*
X151751730Y-106478822D01*
X151758012Y-106495738D01*
X151785754Y-106591226D01*
X151785755Y-106591229D01*
X151869417Y-106732695D01*
X151869423Y-106732703D01*
X151932788Y-106796068D01*
X151966273Y-106857391D01*
X151961289Y-106927083D01*
X151932789Y-106971430D01*
X151869420Y-107034799D01*
X151869417Y-107034803D01*
X151785755Y-107176269D01*
X151785754Y-107176272D01*
X151758012Y-107271761D01*
X151720406Y-107330647D01*
X151656933Y-107359853D01*
X151638936Y-107361166D01*
X149267851Y-107361166D01*
X149200812Y-107341481D01*
X149169048Y-107312092D01*
X149152922Y-107290828D01*
X149032343Y-107199389D01*
X148891561Y-107143872D01*
X148845926Y-107138392D01*
X148803102Y-107133250D01*
X147559500Y-107133250D01*
X147492461Y-107113565D01*
X147446706Y-107060761D01*
X147435500Y-107009250D01*
X147435500Y-106758250D01*
X147455185Y-106691211D01*
X147507989Y-106645456D01*
X147559500Y-106634250D01*
X148803097Y-106634250D01*
X148803102Y-106634250D01*
X148891564Y-106623627D01*
X149032342Y-106568111D01*
X149152922Y-106476672D01*
X149152923Y-106476671D01*
X149169049Y-106455407D01*
X149225242Y-106413884D01*
X149267852Y-106406333D01*
X151638936Y-106406333D01*
X151705975Y-106426018D01*
G37*
%TD.AperFunction*%
%TA.AperFunction,Conductor*%
G36*
X157571687Y-106426018D02*
G01*
X157603451Y-106455407D01*
X157619576Y-106476671D01*
X157740156Y-106568110D01*
X157740157Y-106568110D01*
X157740158Y-106568111D01*
X157880936Y-106623627D01*
X157969398Y-106634250D01*
X157969403Y-106634250D01*
X159213000Y-106634250D01*
X159280039Y-106653935D01*
X159325794Y-106706739D01*
X159337000Y-106758250D01*
X159337000Y-107009250D01*
X159317315Y-107076289D01*
X159264511Y-107122044D01*
X159213000Y-107133250D01*
X157969398Y-107133250D01*
X157930353Y-107137938D01*
X157880938Y-107143872D01*
X157740156Y-107199389D01*
X157619577Y-107290828D01*
X157603452Y-107312092D01*
X157547260Y-107353615D01*
X157504649Y-107361166D01*
X155486064Y-107361166D01*
X155419025Y-107341481D01*
X155373270Y-107288677D01*
X155366988Y-107271761D01*
X155339245Y-107176272D01*
X155339244Y-107176269D01*
X155339244Y-107176268D01*
X155255581Y-107034801D01*
X155255579Y-107034799D01*
X155255576Y-107034795D01*
X155192211Y-106971430D01*
X155158726Y-106910107D01*
X155163710Y-106840415D01*
X155192209Y-106796069D01*
X155255581Y-106732698D01*
X155339244Y-106591231D01*
X155366988Y-106495738D01*
X155404594Y-106436852D01*
X155468067Y-106407646D01*
X155486064Y-106406333D01*
X157504648Y-106406333D01*
X157571687Y-106426018D01*
G37*
%TD.AperFunction*%
%TA.AperFunction,Conductor*%
G36*
X158560506Y-99620185D02*
G01*
X158581146Y-99636817D01*
X158600679Y-99656349D01*
X158634166Y-99717671D01*
X158637000Y-99744032D01*
X158637000Y-101666016D01*
X158634848Y-101729030D01*
X158634840Y-101729250D01*
X158644808Y-101770153D01*
X158645994Y-101776394D01*
X158651728Y-101818109D01*
X158658364Y-101833387D01*
X158665102Y-101853424D01*
X158669042Y-101869593D01*
X158669043Y-101869594D01*
X158689675Y-101906289D01*
X158692500Y-101911977D01*
X158709282Y-101950611D01*
X158719783Y-101963518D01*
X158731682Y-101981000D01*
X158739842Y-101995512D01*
X158769620Y-102025290D01*
X158773866Y-102029996D01*
X158792177Y-102052502D01*
X158800446Y-102062665D01*
X158814051Y-102072268D01*
X158830218Y-102085887D01*
X159184558Y-102440227D01*
X159191620Y-102447789D01*
X159222995Y-102510218D01*
X159225000Y-102532429D01*
X159225000Y-102825000D01*
X162725000Y-102825000D01*
X162725000Y-102724500D01*
X162744685Y-102657461D01*
X162797489Y-102611706D01*
X162849000Y-102600500D01*
X164180968Y-102600500D01*
X164248007Y-102620185D01*
X164268649Y-102636819D01*
X164846297Y-103214466D01*
X164879782Y-103275789D01*
X164878391Y-103334240D01*
X164838793Y-103482020D01*
X164838793Y-103482024D01*
X164819723Y-103699997D01*
X164819723Y-103700002D01*
X164838793Y-103917975D01*
X164838793Y-103917979D01*
X164895422Y-104129322D01*
X164895424Y-104129326D01*
X164895425Y-104129330D01*
X164929254Y-104201877D01*
X164987897Y-104327638D01*
X164987898Y-104327639D01*
X165113402Y-104506877D01*
X165268123Y-104661598D01*
X165410655Y-104761400D01*
X165447361Y-104787102D01*
X165598583Y-104857618D01*
X165651022Y-104903790D01*
X165670174Y-104970984D01*
X165649958Y-105037865D01*
X165598583Y-105082382D01*
X165447361Y-105152898D01*
X165447357Y-105152900D01*
X165268121Y-105278402D01*
X165113402Y-105433121D01*
X164998918Y-105596623D01*
X164944341Y-105640248D01*
X164897343Y-105649500D01*
X160631532Y-105649500D01*
X160564493Y-105629815D01*
X160543851Y-105613181D01*
X158255670Y-103325000D01*
X159225000Y-103325000D01*
X159225000Y-103622844D01*
X159231401Y-103682372D01*
X159231403Y-103682379D01*
X159281645Y-103817086D01*
X159281649Y-103817093D01*
X159367809Y-103932187D01*
X159367812Y-103932190D01*
X159482906Y-104018350D01*
X159482913Y-104018354D01*
X159617620Y-104068596D01*
X159617627Y-104068598D01*
X159677155Y-104074999D01*
X159677172Y-104075000D01*
X160725000Y-104075000D01*
X160725000Y-103325000D01*
X161225000Y-103325000D01*
X161225000Y-104075000D01*
X162272828Y-104075000D01*
X162272844Y-104074999D01*
X162332372Y-104068598D01*
X162332379Y-104068596D01*
X162467086Y-104018354D01*
X162467093Y-104018350D01*
X162582187Y-103932190D01*
X162582190Y-103932187D01*
X162668350Y-103817093D01*
X162668354Y-103817086D01*
X162718596Y-103682379D01*
X162718598Y-103682372D01*
X162724999Y-103622844D01*
X162725000Y-103622827D01*
X162725000Y-103325000D01*
X161225000Y-103325000D01*
X160725000Y-103325000D01*
X159225000Y-103325000D01*
X158255670Y-103325000D01*
X158124319Y-103193649D01*
X158090834Y-103132326D01*
X158088000Y-103105968D01*
X158088000Y-99971483D01*
X158088967Y-99943173D01*
X158090160Y-99908255D01*
X158080190Y-99867343D01*
X158079007Y-99861124D01*
X158073271Y-99819389D01*
X158070646Y-99813347D01*
X158066639Y-99804122D01*
X158059896Y-99784071D01*
X158055957Y-99767905D01*
X158055956Y-99767904D01*
X158053948Y-99759659D01*
X158055804Y-99759206D01*
X158050499Y-99700396D01*
X158082840Y-99638462D01*
X158143531Y-99603844D01*
X158172134Y-99600500D01*
X158493467Y-99600500D01*
X158560506Y-99620185D01*
G37*
%TD.AperFunction*%
%TA.AperFunction,Conductor*%
G36*
X135982065Y-90188616D02*
G01*
X136037999Y-90230487D01*
X136062416Y-90295951D01*
X136062572Y-90311090D01*
X136062500Y-90312507D01*
X136062500Y-90437500D01*
X137588500Y-90437500D01*
X137655539Y-90457185D01*
X137701294Y-90509989D01*
X137712500Y-90561500D01*
X137712500Y-91762499D01*
X138162472Y-91762499D01*
X138162486Y-91762498D01*
X138265197Y-91752005D01*
X138431619Y-91696858D01*
X138431624Y-91696856D01*
X138580842Y-91604817D01*
X138583524Y-91602697D01*
X138585710Y-91601814D01*
X138586991Y-91601025D01*
X138587125Y-91601243D01*
X138648319Y-91576555D01*
X138716961Y-91589593D01*
X138767658Y-91637672D01*
X138779514Y-91665366D01*
X138810753Y-91772893D01*
X138810755Y-91772896D01*
X138894417Y-91914362D01*
X138894423Y-91914370D01*
X139010629Y-92030576D01*
X139010632Y-92030578D01*
X139010635Y-92030581D01*
X139051540Y-92054772D01*
X139053224Y-92055768D01*
X139100907Y-92106838D01*
X139113410Y-92175579D01*
X139086764Y-92240169D01*
X139053224Y-92269232D01*
X139010635Y-92294419D01*
X139010629Y-92294423D01*
X138894423Y-92410629D01*
X138894417Y-92410637D01*
X138810755Y-92552103D01*
X138810754Y-92552106D01*
X138764902Y-92709926D01*
X138764901Y-92709933D01*
X138761999Y-92746813D01*
X138761967Y-92747635D01*
X138739658Y-92813848D01*
X138685094Y-92857489D01*
X138615598Y-92864702D01*
X138553234Y-92833198D01*
X138550382Y-92830435D01*
X138514370Y-92794423D01*
X138514362Y-92794417D01*
X138372896Y-92710755D01*
X138372893Y-92710754D01*
X138215073Y-92664902D01*
X138215067Y-92664901D01*
X138178196Y-92662000D01*
X138178194Y-92662000D01*
X136746806Y-92662000D01*
X136746804Y-92662000D01*
X136709932Y-92664901D01*
X136709926Y-92664902D01*
X136552106Y-92710754D01*
X136552103Y-92710755D01*
X136410637Y-92794417D01*
X136410629Y-92794423D01*
X136294423Y-92910629D01*
X136294417Y-92910637D01*
X136210755Y-93052103D01*
X136210754Y-93052106D01*
X136164902Y-93209926D01*
X136164901Y-93209932D01*
X136162000Y-93246804D01*
X136162000Y-94028196D01*
X136164901Y-94065067D01*
X136164902Y-94065073D01*
X136210754Y-94222893D01*
X136210755Y-94222896D01*
X136294417Y-94364362D01*
X136294423Y-94364370D01*
X136410629Y-94480576D01*
X136410633Y-94480579D01*
X136410635Y-94480581D01*
X136552102Y-94564244D01*
X136593724Y-94576336D01*
X136709926Y-94610097D01*
X136709929Y-94610097D01*
X136709931Y-94610098D01*
X136722222Y-94611065D01*
X136746804Y-94613000D01*
X136746806Y-94613000D01*
X138178196Y-94613000D01*
X138196631Y-94611549D01*
X138215069Y-94610098D01*
X138215071Y-94610097D01*
X138215073Y-94610097D01*
X138256691Y-94598005D01*
X138372898Y-94564244D01*
X138514365Y-94480581D01*
X138630581Y-94364365D01*
X138713664Y-94223879D01*
X138764733Y-94176196D01*
X138820396Y-94163000D01*
X139291016Y-94163000D01*
X139354245Y-94165160D01*
X139395169Y-94155186D01*
X139401368Y-94154007D01*
X139443111Y-94148271D01*
X139458386Y-94141635D01*
X139478421Y-94134897D01*
X139494594Y-94130957D01*
X139531316Y-94110308D01*
X139536955Y-94107507D01*
X139575609Y-94090719D01*
X139588528Y-94080207D01*
X139605997Y-94068318D01*
X139620512Y-94060158D01*
X139650299Y-94030369D01*
X139654994Y-94026133D01*
X139667688Y-94015805D01*
X139732116Y-93988773D01*
X139745936Y-93988000D01*
X140378196Y-93988000D01*
X140396631Y-93986549D01*
X140415069Y-93985098D01*
X140415071Y-93985097D01*
X140415073Y-93985097D01*
X140485919Y-93964514D01*
X140572898Y-93939244D01*
X140714365Y-93855581D01*
X140830581Y-93739365D01*
X140851014Y-93704815D01*
X140876702Y-93661379D01*
X140927771Y-93613695D01*
X140983434Y-93600500D01*
X144017640Y-93600500D01*
X144084679Y-93620185D01*
X144130434Y-93672989D01*
X144135911Y-93691157D01*
X144136337Y-93691019D01*
X144139352Y-93700300D01*
X144139353Y-93700303D01*
X144139354Y-93700304D01*
X144196950Y-93813342D01*
X144196952Y-93813344D01*
X144196954Y-93813347D01*
X144286652Y-93903045D01*
X144286654Y-93903046D01*
X144286658Y-93903050D01*
X144399696Y-93960646D01*
X144399697Y-93960646D01*
X144407290Y-93964515D01*
X144458086Y-94012490D01*
X144474881Y-94080311D01*
X144452343Y-94146446D01*
X144407290Y-94185485D01*
X144399697Y-94189353D01*
X144399696Y-94189354D01*
X144286658Y-94246950D01*
X144286657Y-94246951D01*
X144286652Y-94246954D01*
X144196954Y-94336652D01*
X144196951Y-94336657D01*
X144139352Y-94449698D01*
X144124500Y-94543475D01*
X144124500Y-95606517D01*
X144130114Y-95641963D01*
X144139354Y-95700304D01*
X144196950Y-95813342D01*
X144196952Y-95813344D01*
X144196954Y-95813347D01*
X144286652Y-95903045D01*
X144286654Y-95903046D01*
X144286658Y-95903050D01*
X144399696Y-95960646D01*
X144399697Y-95960646D01*
X144407290Y-95964515D01*
X144458086Y-96012490D01*
X144474881Y-96080311D01*
X144452343Y-96146446D01*
X144407290Y-96185485D01*
X144399697Y-96189353D01*
X144399696Y-96189354D01*
X144286658Y-96246950D01*
X144286657Y-96246951D01*
X144286652Y-96246954D01*
X144196954Y-96336652D01*
X144196951Y-96336657D01*
X144196950Y-96336658D01*
X144182712Y-96364602D01*
X144139352Y-96449698D01*
X144136337Y-96458980D01*
X144133825Y-96458163D01*
X144110180Y-96508037D01*
X144050866Y-96544966D01*
X144017640Y-96549500D01*
X143932940Y-96549500D01*
X143865901Y-96529815D01*
X143845259Y-96513181D01*
X143777262Y-96445184D01*
X143624523Y-96349211D01*
X143454254Y-96289631D01*
X143454249Y-96289630D01*
X143275004Y-96269435D01*
X143274996Y-96269435D01*
X143095750Y-96289630D01*
X143095745Y-96289631D01*
X142925476Y-96349211D01*
X142772737Y-96445184D01*
X142645184Y-96572737D01*
X142549211Y-96725476D01*
X142489631Y-96895745D01*
X142489630Y-96895750D01*
X142469435Y-97074996D01*
X142469435Y-97075003D01*
X142489630Y-97254249D01*
X142489631Y-97254254D01*
X142549211Y-97424523D01*
X142613387Y-97526657D01*
X142645184Y-97577262D01*
X142772738Y-97704816D01*
X142925478Y-97800789D01*
X142961367Y-97813347D01*
X143095745Y-97860368D01*
X143095750Y-97860369D01*
X143274996Y-97880565D01*
X143275000Y-97880565D01*
X143275004Y-97880565D01*
X143454249Y-97860369D01*
X143454252Y-97860368D01*
X143454255Y-97860368D01*
X143624522Y-97800789D01*
X143777262Y-97704816D01*
X143845259Y-97636819D01*
X143906582Y-97603334D01*
X143932940Y-97600500D01*
X144017640Y-97600500D01*
X144084679Y-97620185D01*
X144130434Y-97672989D01*
X144135911Y-97691157D01*
X144136337Y-97691019D01*
X144139352Y-97700300D01*
X144139353Y-97700303D01*
X144139354Y-97700304D01*
X144196950Y-97813342D01*
X144196952Y-97813344D01*
X144196954Y-97813347D01*
X144286652Y-97903045D01*
X144286654Y-97903046D01*
X144286658Y-97903050D01*
X144399696Y-97960646D01*
X144399697Y-97960646D01*
X144407290Y-97964515D01*
X144458086Y-98012490D01*
X144474881Y-98080311D01*
X144452343Y-98146446D01*
X144407290Y-98185485D01*
X144399697Y-98189353D01*
X144399696Y-98189354D01*
X144286658Y-98246950D01*
X144286657Y-98246951D01*
X144286652Y-98246954D01*
X144196954Y-98336652D01*
X144196951Y-98336657D01*
X144139352Y-98449698D01*
X144124500Y-98543475D01*
X144124500Y-98680968D01*
X144104815Y-98748007D01*
X144088181Y-98768649D01*
X143834771Y-99022059D01*
X143788531Y-99065243D01*
X143766653Y-99101221D01*
X143763080Y-99106470D01*
X143737638Y-99140020D01*
X143737633Y-99140029D01*
X143731525Y-99155517D01*
X143722125Y-99174442D01*
X143713477Y-99188664D01*
X143713474Y-99188670D01*
X143702114Y-99229211D01*
X143700091Y-99235228D01*
X143684641Y-99274409D01*
X143684640Y-99274411D01*
X143682937Y-99290976D01*
X143678991Y-99311739D01*
X143674500Y-99327767D01*
X143674500Y-99369879D01*
X143674175Y-99376220D01*
X143672914Y-99388487D01*
X143669869Y-99418107D01*
X143669869Y-99418111D01*
X143672697Y-99434511D01*
X143674500Y-99455580D01*
X143674500Y-101700636D01*
X143672634Y-101755275D01*
X143672340Y-101763870D01*
X143682308Y-101804773D01*
X143683494Y-101811014D01*
X143689228Y-101852729D01*
X143695864Y-101868007D01*
X143702602Y-101888044D01*
X143706542Y-101904213D01*
X143706543Y-101904214D01*
X143727175Y-101940909D01*
X143730000Y-101946597D01*
X143746782Y-101985231D01*
X143757283Y-101998138D01*
X143769183Y-102015621D01*
X143777342Y-102030132D01*
X143807111Y-102059901D01*
X143811367Y-102064617D01*
X143837941Y-102097280D01*
X143837944Y-102097282D01*
X143837946Y-102097285D01*
X143850182Y-102105922D01*
X143851543Y-102106883D01*
X143867715Y-102120505D01*
X143949096Y-102201885D01*
X144012441Y-102265230D01*
X144055625Y-102311469D01*
X144065737Y-102317618D01*
X144068917Y-102319552D01*
X144115969Y-102371203D01*
X144127627Y-102440094D01*
X144100190Y-102504350D01*
X144042368Y-102543573D01*
X144004489Y-102549500D01*
X141592620Y-102549500D01*
X141586278Y-102549175D01*
X141568353Y-102547332D01*
X141544392Y-102544869D01*
X141544388Y-102544869D01*
X141535076Y-102546474D01*
X141527985Y-102547697D01*
X141506920Y-102549500D01*
X141202749Y-102549500D01*
X141135710Y-102529815D01*
X141089955Y-102477011D01*
X141080011Y-102407853D01*
X141109036Y-102344297D01*
X141150342Y-102313118D01*
X141302639Y-102242102D01*
X141481877Y-102116598D01*
X141636598Y-101961877D01*
X141762102Y-101782639D01*
X141854575Y-101584330D01*
X141911207Y-101372977D01*
X141927805Y-101183254D01*
X141930277Y-101155002D01*
X141930277Y-101154997D01*
X141923278Y-101075000D01*
X141911207Y-100937023D01*
X141854575Y-100725670D01*
X141762102Y-100527362D01*
X141762100Y-100527359D01*
X141762099Y-100527357D01*
X141636599Y-100348124D01*
X141564228Y-100275753D01*
X141481877Y-100193402D01*
X141335733Y-100091071D01*
X141292112Y-100036497D01*
X141284919Y-99966998D01*
X141316441Y-99904644D01*
X141376671Y-99869230D01*
X141406859Y-99865499D01*
X141556518Y-99865499D01*
X141650304Y-99850646D01*
X141763342Y-99793050D01*
X141853050Y-99703342D01*
X141910646Y-99590304D01*
X141910646Y-99590302D01*
X141910647Y-99590301D01*
X141925499Y-99496524D01*
X141925500Y-99496519D01*
X141925499Y-97733482D01*
X141910646Y-97639696D01*
X141853050Y-97526658D01*
X141853046Y-97526654D01*
X141853045Y-97526652D01*
X141763347Y-97436954D01*
X141763344Y-97436952D01*
X141763342Y-97436950D01*
X141686517Y-97397805D01*
X141650301Y-97379352D01*
X141556524Y-97364500D01*
X139793482Y-97364500D01*
X139712519Y-97377323D01*
X139699696Y-97379354D01*
X139586658Y-97436950D01*
X139586657Y-97436951D01*
X139586652Y-97436954D01*
X139496954Y-97526652D01*
X139496951Y-97526657D01*
X139496950Y-97526658D01*
X139480761Y-97558430D01*
X139439352Y-97639698D01*
X139424500Y-97733475D01*
X139424500Y-99496517D01*
X139430629Y-99535215D01*
X139439354Y-99590304D01*
X139496950Y-99703342D01*
X139496952Y-99703344D01*
X139496954Y-99703347D01*
X139586652Y-99793045D01*
X139586654Y-99793046D01*
X139586658Y-99793050D01*
X139699694Y-99850645D01*
X139699698Y-99850647D01*
X139793475Y-99865499D01*
X139793481Y-99865500D01*
X139943140Y-99865499D01*
X140010177Y-99885183D01*
X140055932Y-99937987D01*
X140065876Y-100007145D01*
X140036851Y-100070701D01*
X140014262Y-100091074D01*
X139868118Y-100193405D01*
X139713402Y-100348121D01*
X139587900Y-100527357D01*
X139587898Y-100527361D01*
X139495426Y-100725668D01*
X139495422Y-100725677D01*
X139438793Y-100937020D01*
X139438793Y-100937023D01*
X139437621Y-100950425D01*
X139419723Y-101154997D01*
X139419723Y-101155002D01*
X139428406Y-101254249D01*
X139437035Y-101352887D01*
X139438793Y-101372975D01*
X139438793Y-101372979D01*
X139495422Y-101584322D01*
X139495424Y-101584326D01*
X139495425Y-101584330D01*
X139538963Y-101677697D01*
X139587897Y-101782638D01*
X139587898Y-101782639D01*
X139713402Y-101961877D01*
X139868123Y-102116598D01*
X140047361Y-102242102D01*
X140199656Y-102313118D01*
X140252095Y-102359290D01*
X140271247Y-102426484D01*
X140251031Y-102493365D01*
X140197866Y-102538699D01*
X140147251Y-102549500D01*
X140142620Y-102549500D01*
X140136278Y-102549175D01*
X140118353Y-102547332D01*
X140094392Y-102544869D01*
X140094388Y-102544869D01*
X140085076Y-102546474D01*
X140077985Y-102547697D01*
X140056920Y-102549500D01*
X135044032Y-102549500D01*
X134976993Y-102529815D01*
X134956351Y-102513181D01*
X134874319Y-102431149D01*
X134840834Y-102369826D01*
X134838000Y-102343468D01*
X134838000Y-99360087D01*
X134839061Y-99329016D01*
X134840160Y-99296859D01*
X134830983Y-99259202D01*
X134830191Y-99255952D01*
X134829006Y-99249722D01*
X134823271Y-99207993D01*
X134816637Y-99192720D01*
X134809897Y-99172678D01*
X134805957Y-99156511D01*
X134805955Y-99156507D01*
X134805398Y-99155517D01*
X134793137Y-99133709D01*
X134785322Y-99119810D01*
X134782496Y-99114121D01*
X134765719Y-99075495D01*
X134765717Y-99075492D01*
X134755213Y-99062581D01*
X134743312Y-99045094D01*
X134735160Y-99030595D01*
X134735158Y-99030592D01*
X134705382Y-99000816D01*
X134701126Y-98996100D01*
X134696349Y-98990229D01*
X134674554Y-98963439D01*
X134674550Y-98963436D01*
X134674545Y-98963432D01*
X134660953Y-98953837D01*
X134644781Y-98940215D01*
X133324319Y-97619753D01*
X133290834Y-97558430D01*
X133288000Y-97532072D01*
X133288000Y-95831532D01*
X133307685Y-95764493D01*
X133324319Y-95743851D01*
X135527743Y-93540426D01*
X135573969Y-93497255D01*
X135595855Y-93461263D01*
X135599409Y-93456042D01*
X135624865Y-93422475D01*
X135630976Y-93406977D01*
X135640378Y-93388047D01*
X135649026Y-93373828D01*
X135660383Y-93333291D01*
X135662401Y-93327287D01*
X135677860Y-93288089D01*
X135679563Y-93271518D01*
X135683511Y-93250748D01*
X135688000Y-93234727D01*
X135688000Y-93192629D01*
X135688325Y-93186285D01*
X135692632Y-93144390D01*
X135689803Y-93127981D01*
X135688000Y-93106913D01*
X135688000Y-90937500D01*
X136062501Y-90937500D01*
X136062501Y-91062486D01*
X136072994Y-91165197D01*
X136128141Y-91331619D01*
X136128143Y-91331624D01*
X136220184Y-91480845D01*
X136344154Y-91604815D01*
X136493375Y-91696856D01*
X136493380Y-91696858D01*
X136659802Y-91752005D01*
X136659809Y-91752006D01*
X136762519Y-91762499D01*
X137212499Y-91762499D01*
X137212500Y-91762498D01*
X137212500Y-90937500D01*
X136062501Y-90937500D01*
X135688000Y-90937500D01*
X135688000Y-90431531D01*
X135707685Y-90364492D01*
X135724313Y-90343855D01*
X135851054Y-90217114D01*
X135912373Y-90183632D01*
X135982065Y-90188616D01*
G37*
%TD.AperFunction*%
%TA.AperFunction,Conductor*%
G36*
X159570932Y-87994685D02*
G01*
X159616687Y-88047489D01*
X159626631Y-88116647D01*
X159597606Y-88180203D01*
X159560190Y-88209483D01*
X159486658Y-88246950D01*
X159486657Y-88246951D01*
X159486652Y-88246954D01*
X159396954Y-88336652D01*
X159396951Y-88336657D01*
X159396950Y-88336658D01*
X159391439Y-88347474D01*
X159339352Y-88449698D01*
X159324500Y-88543475D01*
X159324500Y-89606517D01*
X159330114Y-89641963D01*
X159339354Y-89700304D01*
X159396950Y-89813342D01*
X159396952Y-89813344D01*
X159396954Y-89813347D01*
X159486652Y-89903045D01*
X159486654Y-89903046D01*
X159486658Y-89903050D01*
X159599696Y-89960646D01*
X159599697Y-89960646D01*
X159607290Y-89964515D01*
X159658086Y-90012490D01*
X159674881Y-90080311D01*
X159652343Y-90146446D01*
X159607290Y-90185485D01*
X159599697Y-90189353D01*
X159599696Y-90189354D01*
X159486658Y-90246950D01*
X159486657Y-90246951D01*
X159486652Y-90246954D01*
X159396954Y-90336652D01*
X159396951Y-90336657D01*
X159396950Y-90336658D01*
X159390554Y-90349211D01*
X159339352Y-90449698D01*
X159324500Y-90543475D01*
X159324500Y-91606517D01*
X159330114Y-91641963D01*
X159339354Y-91700304D01*
X159396950Y-91813342D01*
X159396952Y-91813344D01*
X159396954Y-91813347D01*
X159486652Y-91903045D01*
X159486654Y-91903046D01*
X159486658Y-91903050D01*
X159599696Y-91960646D01*
X159599697Y-91960646D01*
X159607290Y-91964515D01*
X159658086Y-92012490D01*
X159674881Y-92080311D01*
X159652343Y-92146446D01*
X159607290Y-92185485D01*
X159599697Y-92189353D01*
X159599696Y-92189354D01*
X159486658Y-92246950D01*
X159486657Y-92246951D01*
X159486652Y-92246954D01*
X159396954Y-92336652D01*
X159396951Y-92336657D01*
X159339352Y-92449698D01*
X159324500Y-92543475D01*
X159324500Y-93606517D01*
X159330114Y-93641963D01*
X159339354Y-93700304D01*
X159396950Y-93813342D01*
X159396952Y-93813344D01*
X159396954Y-93813347D01*
X159486652Y-93903045D01*
X159486654Y-93903046D01*
X159486658Y-93903050D01*
X159599696Y-93960646D01*
X159599697Y-93960646D01*
X159607290Y-93964515D01*
X159658086Y-94012490D01*
X159674881Y-94080311D01*
X159652343Y-94146446D01*
X159607290Y-94185485D01*
X159599697Y-94189353D01*
X159599696Y-94189354D01*
X159486658Y-94246950D01*
X159486657Y-94246951D01*
X159486652Y-94246954D01*
X159396954Y-94336652D01*
X159396951Y-94336657D01*
X159339352Y-94449698D01*
X159324500Y-94543475D01*
X159324500Y-95606517D01*
X159330114Y-95641963D01*
X159339354Y-95700304D01*
X159396950Y-95813342D01*
X159396952Y-95813344D01*
X159396954Y-95813347D01*
X159486652Y-95903045D01*
X159486654Y-95903046D01*
X159486658Y-95903050D01*
X159599696Y-95960646D01*
X159599697Y-95960646D01*
X159607290Y-95964515D01*
X159658086Y-96012490D01*
X159674881Y-96080311D01*
X159652343Y-96146446D01*
X159607290Y-96185485D01*
X159599697Y-96189353D01*
X159599696Y-96189354D01*
X159486658Y-96246950D01*
X159486657Y-96246951D01*
X159486652Y-96246954D01*
X159396954Y-96336652D01*
X159396951Y-96336657D01*
X159396950Y-96336658D01*
X159382712Y-96364602D01*
X159339352Y-96449698D01*
X159324500Y-96543475D01*
X159324500Y-97606523D01*
X159330451Y-97644092D01*
X159321496Y-97713385D01*
X159295661Y-97751167D01*
X158983648Y-98063182D01*
X158922327Y-98096666D01*
X158895969Y-98099500D01*
X148224500Y-98099500D01*
X148157461Y-98079815D01*
X148111706Y-98027011D01*
X148100500Y-97975500D01*
X148100500Y-96523983D01*
X148100869Y-96513181D01*
X148102660Y-96460755D01*
X148092689Y-96419840D01*
X148091505Y-96413613D01*
X148085771Y-96371889D01*
X148079135Y-96356613D01*
X148072400Y-96336583D01*
X148068458Y-96320406D01*
X148047819Y-96283701D01*
X148044995Y-96278015D01*
X148041268Y-96269435D01*
X148028219Y-96239391D01*
X148017711Y-96226476D01*
X148005816Y-96208998D01*
X147997659Y-96194491D01*
X147997658Y-96194489D01*
X147967887Y-96164718D01*
X147963636Y-96160009D01*
X147937054Y-96127335D01*
X147923450Y-96117732D01*
X147907278Y-96104109D01*
X147461818Y-95658649D01*
X147428333Y-95597326D01*
X147425499Y-95570976D01*
X147425499Y-94543482D01*
X147410646Y-94449696D01*
X147353050Y-94336658D01*
X147353046Y-94336654D01*
X147353045Y-94336652D01*
X147263347Y-94246954D01*
X147263343Y-94246951D01*
X147263342Y-94246950D01*
X147216128Y-94222893D01*
X147142708Y-94185483D01*
X147091913Y-94137509D01*
X147075118Y-94069688D01*
X147097656Y-94003553D01*
X147142710Y-93964514D01*
X147150300Y-93960646D01*
X147150304Y-93960646D01*
X147263342Y-93903050D01*
X147353050Y-93813342D01*
X147410646Y-93700304D01*
X147410646Y-93700302D01*
X147410647Y-93700301D01*
X147422166Y-93627567D01*
X147425500Y-93606519D01*
X147425499Y-92543482D01*
X147410646Y-92449696D01*
X147353050Y-92336658D01*
X147353046Y-92336654D01*
X147353045Y-92336652D01*
X147263347Y-92246954D01*
X147263343Y-92246951D01*
X147263342Y-92246950D01*
X147192308Y-92210756D01*
X147142708Y-92185483D01*
X147091913Y-92137509D01*
X147075118Y-92069688D01*
X147097656Y-92003553D01*
X147142710Y-91964514D01*
X147150300Y-91960646D01*
X147150304Y-91960646D01*
X147263342Y-91903050D01*
X147353050Y-91813342D01*
X147410646Y-91700304D01*
X147410646Y-91700302D01*
X147410647Y-91700301D01*
X147422591Y-91624886D01*
X147425500Y-91606519D01*
X147425499Y-90543482D01*
X147410646Y-90449696D01*
X147353050Y-90336658D01*
X147353046Y-90336654D01*
X147353045Y-90336652D01*
X147263347Y-90246954D01*
X147263343Y-90246951D01*
X147263342Y-90246950D01*
X147204792Y-90217117D01*
X147142708Y-90185483D01*
X147091913Y-90137509D01*
X147075118Y-90069688D01*
X147097656Y-90003553D01*
X147142710Y-89964514D01*
X147150300Y-89960646D01*
X147150304Y-89960646D01*
X147263342Y-89903050D01*
X147353050Y-89813342D01*
X147410646Y-89700304D01*
X147410646Y-89700302D01*
X147410647Y-89700301D01*
X147422536Y-89625233D01*
X147425500Y-89606519D01*
X147425499Y-88543482D01*
X147410646Y-88449696D01*
X147353050Y-88336658D01*
X147353046Y-88336654D01*
X147353045Y-88336652D01*
X147263347Y-88246954D01*
X147263344Y-88246952D01*
X147263342Y-88246950D01*
X147189810Y-88209483D01*
X147139016Y-88161510D01*
X147122221Y-88093689D01*
X147144759Y-88027554D01*
X147199474Y-87984103D01*
X147246107Y-87975000D01*
X159503893Y-87975000D01*
X159570932Y-87994685D01*
G37*
%TD.AperFunction*%
%TA.AperFunction,Conductor*%
G36*
X164821325Y-95320185D02*
G01*
X164867080Y-95372989D01*
X164877024Y-95442147D01*
X164866668Y-95476905D01*
X164801570Y-95616507D01*
X164801567Y-95616513D01*
X164744364Y-95829999D01*
X164744364Y-95830000D01*
X165641314Y-95830000D01*
X165615507Y-95870156D01*
X165575000Y-96008111D01*
X165575000Y-96151889D01*
X165615507Y-96289844D01*
X165641314Y-96330000D01*
X164744364Y-96330000D01*
X164801567Y-96543486D01*
X164801569Y-96543492D01*
X164857342Y-96663095D01*
X164867834Y-96732172D01*
X164839314Y-96795956D01*
X164780838Y-96834196D01*
X164744960Y-96839500D01*
X164328670Y-96839500D01*
X164261631Y-96819815D01*
X164215876Y-96767011D01*
X164211628Y-96756454D01*
X164200789Y-96725478D01*
X164104815Y-96572737D01*
X163977262Y-96445184D01*
X163824523Y-96349211D01*
X163654254Y-96289631D01*
X163654249Y-96289630D01*
X163475004Y-96269435D01*
X163474996Y-96269435D01*
X163295750Y-96289630D01*
X163295745Y-96289631D01*
X163125476Y-96349211D01*
X162972737Y-96445184D01*
X162904741Y-96513181D01*
X162843418Y-96546666D01*
X162817060Y-96549500D01*
X162732360Y-96549500D01*
X162665321Y-96529815D01*
X162619566Y-96477011D01*
X162614088Y-96458842D01*
X162613663Y-96458981D01*
X162610647Y-96449699D01*
X162610646Y-96449697D01*
X162610646Y-96449696D01*
X162553050Y-96336658D01*
X162553046Y-96336654D01*
X162553045Y-96336652D01*
X162463347Y-96246954D01*
X162463343Y-96246951D01*
X162463342Y-96246950D01*
X162407006Y-96218245D01*
X162342708Y-96185483D01*
X162291913Y-96137509D01*
X162275118Y-96069688D01*
X162297656Y-96003553D01*
X162342710Y-95964514D01*
X162350300Y-95960646D01*
X162350304Y-95960646D01*
X162463342Y-95903050D01*
X162553050Y-95813342D01*
X162610646Y-95700304D01*
X162610646Y-95700302D01*
X162610647Y-95700301D01*
X162613663Y-95691020D01*
X162616174Y-95691836D01*
X162639820Y-95641963D01*
X162699134Y-95605034D01*
X162732360Y-95600500D01*
X162817060Y-95600500D01*
X162884099Y-95620185D01*
X162904741Y-95636819D01*
X162972738Y-95704816D01*
X163032774Y-95742539D01*
X163123426Y-95799500D01*
X163125478Y-95800789D01*
X163295745Y-95860368D01*
X163295750Y-95860369D01*
X163474996Y-95880565D01*
X163475000Y-95880565D01*
X163475004Y-95880565D01*
X163654249Y-95860369D01*
X163654252Y-95860368D01*
X163654255Y-95860368D01*
X163824522Y-95800789D01*
X163977262Y-95704816D01*
X164104816Y-95577262D01*
X164200789Y-95424522D01*
X164215127Y-95383545D01*
X164255849Y-95326770D01*
X164320802Y-95301022D01*
X164332169Y-95300500D01*
X164754286Y-95300500D01*
X164821325Y-95320185D01*
G37*
%TD.AperFunction*%
%TA.AperFunction,Conductor*%
G36*
X167980039Y-95320185D02*
G01*
X168025794Y-95372989D01*
X168037000Y-95424500D01*
X168037000Y-95590696D01*
X168039901Y-95627567D01*
X168039902Y-95627573D01*
X168085754Y-95785393D01*
X168085755Y-95785396D01*
X168085756Y-95785398D01*
X168123181Y-95848681D01*
X168169417Y-95926862D01*
X168169423Y-95926870D01*
X168229872Y-95987319D01*
X168263357Y-96048642D01*
X168258373Y-96118334D01*
X168229872Y-96162681D01*
X168169423Y-96223129D01*
X168169417Y-96223137D01*
X168085755Y-96364603D01*
X168085754Y-96364606D01*
X168039902Y-96522426D01*
X168039901Y-96522432D01*
X168037000Y-96559304D01*
X168037000Y-96715500D01*
X168017315Y-96782539D01*
X167964511Y-96828294D01*
X167913000Y-96839500D01*
X167405040Y-96839500D01*
X167338001Y-96819815D01*
X167292246Y-96767011D01*
X167282302Y-96697853D01*
X167292658Y-96663095D01*
X167348430Y-96543492D01*
X167348432Y-96543486D01*
X167405636Y-96330000D01*
X166508686Y-96330000D01*
X166534493Y-96289844D01*
X166575000Y-96151889D01*
X166575000Y-96008111D01*
X166534493Y-95870156D01*
X166508686Y-95830000D01*
X167405636Y-95830000D01*
X167405635Y-95829999D01*
X167348432Y-95616513D01*
X167348429Y-95616507D01*
X167283332Y-95476905D01*
X167272840Y-95407828D01*
X167301360Y-95344043D01*
X167359836Y-95305804D01*
X167395714Y-95300500D01*
X167913000Y-95300500D01*
X167980039Y-95320185D01*
G37*
%TD.AperFunction*%
%TA.AperFunction,Conductor*%
G36*
X144084679Y-89620185D02*
G01*
X144130434Y-89672989D01*
X144135911Y-89691157D01*
X144136337Y-89691019D01*
X144139352Y-89700300D01*
X144139353Y-89700303D01*
X144139354Y-89700304D01*
X144196950Y-89813342D01*
X144196952Y-89813344D01*
X144196954Y-89813347D01*
X144286652Y-89903045D01*
X144286654Y-89903046D01*
X144286658Y-89903050D01*
X144399696Y-89960646D01*
X144399697Y-89960646D01*
X144407290Y-89964515D01*
X144458086Y-90012490D01*
X144474881Y-90080311D01*
X144452343Y-90146446D01*
X144407290Y-90185485D01*
X144399697Y-90189353D01*
X144399696Y-90189354D01*
X144286658Y-90246950D01*
X144286657Y-90246951D01*
X144286652Y-90246954D01*
X144196954Y-90336652D01*
X144196951Y-90336657D01*
X144196950Y-90336658D01*
X144190554Y-90349211D01*
X144139352Y-90449698D01*
X144124500Y-90543475D01*
X144124500Y-91606517D01*
X144130114Y-91641963D01*
X144139354Y-91700304D01*
X144196950Y-91813342D01*
X144196952Y-91813344D01*
X144196954Y-91813347D01*
X144286652Y-91903045D01*
X144286654Y-91903046D01*
X144286658Y-91903050D01*
X144399696Y-91960646D01*
X144399697Y-91960646D01*
X144407290Y-91964515D01*
X144458086Y-92012490D01*
X144474881Y-92080311D01*
X144452343Y-92146446D01*
X144407290Y-92185485D01*
X144399697Y-92189353D01*
X144399696Y-92189354D01*
X144286658Y-92246950D01*
X144286657Y-92246951D01*
X144286652Y-92246954D01*
X144196954Y-92336652D01*
X144196951Y-92336657D01*
X144139352Y-92449698D01*
X144136337Y-92458980D01*
X144133825Y-92458163D01*
X144110180Y-92508037D01*
X144050866Y-92544966D01*
X144017640Y-92549500D01*
X140983434Y-92549500D01*
X140916395Y-92529815D01*
X140876702Y-92488621D01*
X140830583Y-92410638D01*
X140830576Y-92410629D01*
X140714370Y-92294423D01*
X140714362Y-92294417D01*
X140671776Y-92269232D01*
X140624093Y-92218163D01*
X140611589Y-92149422D01*
X140638234Y-92084832D01*
X140671776Y-92055768D01*
X140673925Y-92054496D01*
X140714365Y-92030581D01*
X140830581Y-91914365D01*
X140914244Y-91772898D01*
X140948005Y-91656691D01*
X140960097Y-91615073D01*
X140960098Y-91615067D01*
X140963000Y-91578196D01*
X140963000Y-90921804D01*
X140960098Y-90884932D01*
X140960097Y-90884926D01*
X140914245Y-90727106D01*
X140914244Y-90727103D01*
X140914244Y-90727102D01*
X140830581Y-90585635D01*
X140830579Y-90585633D01*
X140830576Y-90585629D01*
X140714370Y-90469423D01*
X140714362Y-90469417D01*
X140636181Y-90423181D01*
X140572898Y-90385756D01*
X140572897Y-90385755D01*
X140572896Y-90385755D01*
X140572894Y-90385754D01*
X140477404Y-90358011D01*
X140418519Y-90320404D01*
X140389313Y-90256931D01*
X140388000Y-90238935D01*
X140388000Y-90195933D01*
X140407685Y-90128894D01*
X140448877Y-90089202D01*
X140526865Y-90043081D01*
X140643081Y-89926865D01*
X140668268Y-89884276D01*
X140719337Y-89836593D01*
X140788078Y-89824089D01*
X140852668Y-89850734D01*
X140881732Y-89884276D01*
X140906917Y-89926862D01*
X140906923Y-89926870D01*
X141023129Y-90043076D01*
X141023133Y-90043079D01*
X141023135Y-90043081D01*
X141164602Y-90126744D01*
X141184304Y-90132468D01*
X141322426Y-90172597D01*
X141322429Y-90172597D01*
X141322431Y-90172598D01*
X141334722Y-90173565D01*
X141359304Y-90175500D01*
X141359306Y-90175500D01*
X142015696Y-90175500D01*
X142034131Y-90174049D01*
X142052569Y-90172598D01*
X142052571Y-90172597D01*
X142052573Y-90172597D01*
X142094191Y-90160505D01*
X142210398Y-90126744D01*
X142351865Y-90043081D01*
X142468081Y-89926865D01*
X142551744Y-89785398D01*
X142561139Y-89753060D01*
X142598743Y-89694176D01*
X142662216Y-89664968D01*
X142731402Y-89674713D01*
X142767896Y-89699974D01*
X142772738Y-89704816D01*
X142925478Y-89800789D01*
X142961367Y-89813347D01*
X143095745Y-89860368D01*
X143095750Y-89860369D01*
X143274996Y-89880565D01*
X143275000Y-89880565D01*
X143275004Y-89880565D01*
X143454249Y-89860369D01*
X143454252Y-89860368D01*
X143454255Y-89860368D01*
X143624522Y-89800789D01*
X143777262Y-89704816D01*
X143845259Y-89636819D01*
X143906582Y-89603334D01*
X143932940Y-89600500D01*
X144017640Y-89600500D01*
X144084679Y-89620185D01*
G37*
%TD.AperFunction*%
%TA.AperFunction,Conductor*%
G36*
X177917539Y-83795185D02*
G01*
X177963294Y-83847989D01*
X177974500Y-83899500D01*
X177974500Y-90132468D01*
X177954815Y-90199507D01*
X177902011Y-90245262D01*
X177832853Y-90255206D01*
X177769297Y-90226181D01*
X177735939Y-90179921D01*
X177692477Y-90074996D01*
X177672855Y-90027624D01*
X177504405Y-89722836D01*
X177302888Y-89438824D01*
X177070839Y-89179161D01*
X176811176Y-88947112D01*
X176527164Y-88745595D01*
X176222376Y-88577145D01*
X176211734Y-88572737D01*
X176141104Y-88543481D01*
X175900644Y-88443879D01*
X175625483Y-88364606D01*
X175566017Y-88347474D01*
X175566009Y-88347472D01*
X175222700Y-88289142D01*
X175222688Y-88289140D01*
X174875000Y-88269615D01*
X174527311Y-88289140D01*
X174527299Y-88289142D01*
X174183990Y-88347472D01*
X174183982Y-88347474D01*
X173849359Y-88443878D01*
X173849356Y-88443879D01*
X173765716Y-88478524D01*
X173527625Y-88577144D01*
X173222835Y-88745595D01*
X172938823Y-88947113D01*
X172679161Y-89179161D01*
X172447111Y-89438824D01*
X172370753Y-89546440D01*
X172315905Y-89589724D01*
X172246363Y-89596483D01*
X172184206Y-89564572D01*
X172181943Y-89562365D01*
X172064762Y-89445184D01*
X171912023Y-89349211D01*
X171741754Y-89289631D01*
X171741749Y-89289630D01*
X171562504Y-89269435D01*
X171562496Y-89269435D01*
X171383250Y-89289630D01*
X171383245Y-89289631D01*
X171212976Y-89349211D01*
X171060237Y-89445184D01*
X170992241Y-89513181D01*
X170930918Y-89546666D01*
X170904560Y-89549500D01*
X166732940Y-89549500D01*
X166665901Y-89529815D01*
X166645259Y-89513181D01*
X166577262Y-89445184D01*
X166424523Y-89349211D01*
X166254254Y-89289631D01*
X166254249Y-89289630D01*
X166075004Y-89269435D01*
X166074996Y-89269435D01*
X165895750Y-89289630D01*
X165895745Y-89289631D01*
X165725476Y-89349211D01*
X165572737Y-89445184D01*
X165445184Y-89572737D01*
X165349211Y-89725476D01*
X165289631Y-89895745D01*
X165289630Y-89895750D01*
X165269435Y-90074996D01*
X165269435Y-90075003D01*
X165289630Y-90254249D01*
X165289631Y-90254254D01*
X165349211Y-90424523D01*
X165425959Y-90546666D01*
X165445184Y-90577262D01*
X165572738Y-90704816D01*
X165725478Y-90800789D01*
X165895745Y-90860368D01*
X165895750Y-90860369D01*
X166074996Y-90880565D01*
X166075000Y-90880565D01*
X166075004Y-90880565D01*
X166254249Y-90860369D01*
X166254252Y-90860368D01*
X166254255Y-90860368D01*
X166424522Y-90800789D01*
X166577262Y-90704816D01*
X166645259Y-90636819D01*
X166706582Y-90603334D01*
X166732940Y-90600500D01*
X170904560Y-90600500D01*
X170971599Y-90620185D01*
X170992241Y-90636819D01*
X171060238Y-90704816D01*
X171212978Y-90800789D01*
X171383245Y-90860368D01*
X171383250Y-90860369D01*
X171562496Y-90880565D01*
X171562500Y-90880565D01*
X171562501Y-90880565D01*
X171575651Y-90879083D01*
X171655252Y-90870114D01*
X171724072Y-90882168D01*
X171775452Y-90929517D01*
X171793077Y-90997127D01*
X171791384Y-91014098D01*
X171789142Y-91027292D01*
X171789140Y-91027311D01*
X171769615Y-91375000D01*
X171776320Y-91494400D01*
X171760425Y-91562437D01*
X171710269Y-91611081D01*
X171641777Y-91624886D01*
X171577591Y-91600157D01*
X171561079Y-91587636D01*
X171545589Y-91581527D01*
X171526657Y-91572124D01*
X171512433Y-91563474D01*
X171471889Y-91552113D01*
X171465870Y-91550089D01*
X171432129Y-91536784D01*
X171426693Y-91534641D01*
X171426689Y-91534640D01*
X171426687Y-91534640D01*
X171410126Y-91532937D01*
X171389359Y-91528990D01*
X171373335Y-91524500D01*
X171373332Y-91524500D01*
X171331224Y-91524500D01*
X171324882Y-91524175D01*
X171306957Y-91522332D01*
X171282996Y-91519869D01*
X171282992Y-91519869D01*
X171273680Y-91521474D01*
X171266589Y-91522697D01*
X171245524Y-91524500D01*
X169983984Y-91524500D01*
X169920755Y-91522340D01*
X169920754Y-91522340D01*
X169920752Y-91522340D01*
X169879848Y-91532308D01*
X169873610Y-91533493D01*
X169831887Y-91539229D01*
X169816611Y-91545864D01*
X169796585Y-91552599D01*
X169780407Y-91556542D01*
X169780401Y-91556545D01*
X169743708Y-91577176D01*
X169738021Y-91580000D01*
X169699393Y-91596779D01*
X169699389Y-91596781D01*
X169686473Y-91607289D01*
X169669003Y-91619180D01*
X169654488Y-91627342D01*
X169624710Y-91657119D01*
X169619996Y-91661373D01*
X169587336Y-91687944D01*
X169577735Y-91701545D01*
X169564114Y-91717714D01*
X169343648Y-91938181D01*
X169282325Y-91971666D01*
X169255967Y-91974500D01*
X168643980Y-91974500D01*
X168579551Y-91956448D01*
X168574755Y-91953531D01*
X168549513Y-91938181D01*
X168538774Y-91931650D01*
X168533529Y-91928081D01*
X168512035Y-91911781D01*
X168499976Y-91902636D01*
X168491406Y-91899256D01*
X168484485Y-91896527D01*
X168465553Y-91887124D01*
X168451329Y-91878474D01*
X168410785Y-91867113D01*
X168404766Y-91865089D01*
X168371025Y-91851784D01*
X168365589Y-91849641D01*
X168365585Y-91849640D01*
X168365583Y-91849640D01*
X168349022Y-91847937D01*
X168328255Y-91843990D01*
X168312231Y-91839500D01*
X168312228Y-91839500D01*
X168270120Y-91839500D01*
X168263778Y-91839175D01*
X168245853Y-91837332D01*
X168221892Y-91834869D01*
X168221888Y-91834869D01*
X168212576Y-91836474D01*
X168205485Y-91837697D01*
X168184420Y-91839500D01*
X164193984Y-91839500D01*
X164139493Y-91837638D01*
X164073166Y-91815677D01*
X164029241Y-91761342D01*
X164021664Y-91691884D01*
X164052842Y-91629356D01*
X164056021Y-91626056D01*
X164104816Y-91577262D01*
X164200789Y-91424522D01*
X164260368Y-91254255D01*
X164260369Y-91254249D01*
X164280565Y-91075003D01*
X164280565Y-91074996D01*
X164260369Y-90895750D01*
X164260368Y-90895745D01*
X164227141Y-90800788D01*
X164200789Y-90725478D01*
X164174718Y-90683987D01*
X164112921Y-90585637D01*
X164104816Y-90572738D01*
X163977262Y-90445184D01*
X163965033Y-90437500D01*
X163824523Y-90349211D01*
X163654254Y-90289631D01*
X163654249Y-90289630D01*
X163475004Y-90269435D01*
X163474996Y-90269435D01*
X163295750Y-90289630D01*
X163295745Y-90289631D01*
X163125476Y-90349211D01*
X162972737Y-90445184D01*
X162904741Y-90513181D01*
X162843418Y-90546666D01*
X162817060Y-90549500D01*
X162732360Y-90549500D01*
X162665321Y-90529815D01*
X162619566Y-90477011D01*
X162614088Y-90458842D01*
X162613663Y-90458981D01*
X162610647Y-90449699D01*
X162610646Y-90449697D01*
X162610646Y-90449696D01*
X162553050Y-90336658D01*
X162553046Y-90336654D01*
X162553045Y-90336652D01*
X162463347Y-90246954D01*
X162463343Y-90246951D01*
X162463342Y-90246950D01*
X162404792Y-90217117D01*
X162342708Y-90185483D01*
X162291913Y-90137509D01*
X162275118Y-90069688D01*
X162297656Y-90003553D01*
X162342710Y-89964514D01*
X162350300Y-89960646D01*
X162350304Y-89960646D01*
X162463342Y-89903050D01*
X162553050Y-89813342D01*
X162610646Y-89700304D01*
X162610646Y-89700302D01*
X162610647Y-89700301D01*
X162613663Y-89691020D01*
X162616174Y-89691836D01*
X162639820Y-89641963D01*
X162699134Y-89605034D01*
X162732360Y-89600500D01*
X162817060Y-89600500D01*
X162884099Y-89620185D01*
X162904741Y-89636819D01*
X162972738Y-89704816D01*
X163125478Y-89800789D01*
X163161367Y-89813347D01*
X163295745Y-89860368D01*
X163295750Y-89860369D01*
X163474996Y-89880565D01*
X163475000Y-89880565D01*
X163475004Y-89880565D01*
X163654249Y-89860369D01*
X163654252Y-89860368D01*
X163654255Y-89860368D01*
X163824522Y-89800789D01*
X163977262Y-89704816D01*
X164104816Y-89577262D01*
X164200789Y-89424522D01*
X164260368Y-89254255D01*
X164280565Y-89075000D01*
X164260368Y-88895745D01*
X164200789Y-88725478D01*
X164192913Y-88712944D01*
X164146442Y-88638985D01*
X164104816Y-88572738D01*
X163977262Y-88445184D01*
X163963679Y-88436649D01*
X163824523Y-88349211D01*
X163654254Y-88289631D01*
X163654249Y-88289630D01*
X163475004Y-88269435D01*
X163474996Y-88269435D01*
X163295750Y-88289630D01*
X163295745Y-88289631D01*
X163125476Y-88349211D01*
X162972737Y-88445184D01*
X162904741Y-88513181D01*
X162843418Y-88546666D01*
X162817060Y-88549500D01*
X162732360Y-88549500D01*
X162665321Y-88529815D01*
X162619566Y-88477011D01*
X162614088Y-88458842D01*
X162613663Y-88458981D01*
X162610647Y-88449699D01*
X162610646Y-88449697D01*
X162610646Y-88449696D01*
X162553050Y-88336658D01*
X162553046Y-88336654D01*
X162553045Y-88336652D01*
X162463347Y-88246954D01*
X162463344Y-88246952D01*
X162463342Y-88246950D01*
X162389810Y-88209483D01*
X162339016Y-88161510D01*
X162322221Y-88093689D01*
X162344759Y-88027554D01*
X162399474Y-87984103D01*
X162446107Y-87975000D01*
X176375000Y-87975000D01*
X176375000Y-83899500D01*
X176394685Y-83832461D01*
X176447489Y-83786706D01*
X176499000Y-83775500D01*
X177850500Y-83775500D01*
X177917539Y-83795185D01*
G37*
%TD.AperFunction*%
%TA.AperFunction,Conductor*%
G36*
X130318039Y-83795185D02*
G01*
X130363794Y-83847989D01*
X130375000Y-83899500D01*
X130375000Y-87975000D01*
X139030691Y-87975000D01*
X139097730Y-87994685D01*
X139143485Y-88047489D01*
X139153429Y-88116647D01*
X139124404Y-88180203D01*
X139118372Y-88186681D01*
X139081923Y-88223129D01*
X139081917Y-88223137D01*
X138998255Y-88364603D01*
X138998254Y-88364606D01*
X138970512Y-88460095D01*
X138932906Y-88518981D01*
X138869433Y-88548187D01*
X138851436Y-88549500D01*
X136258984Y-88549500D01*
X136195755Y-88547340D01*
X136195754Y-88547340D01*
X136195751Y-88547340D01*
X136154846Y-88557308D01*
X136148608Y-88558493D01*
X136106890Y-88564228D01*
X136091610Y-88570865D01*
X136071576Y-88577602D01*
X136055406Y-88581542D01*
X136018702Y-88602178D01*
X136013016Y-88605002D01*
X135974394Y-88621778D01*
X135974393Y-88621779D01*
X135961467Y-88632294D01*
X135944002Y-88644180D01*
X135929491Y-88652340D01*
X135899716Y-88682114D01*
X135895002Y-88686368D01*
X135862336Y-88712944D01*
X135862335Y-88712944D01*
X135852728Y-88726554D01*
X135839109Y-88742720D01*
X134797271Y-89784559D01*
X134744832Y-89833534D01*
X134742869Y-89831432D01*
X134696988Y-89862961D01*
X134627151Y-89865118D01*
X134567236Y-89829175D01*
X134549872Y-89805103D01*
X134504405Y-89722836D01*
X134302888Y-89438824D01*
X134070839Y-89179161D01*
X133811176Y-88947112D01*
X133527164Y-88745595D01*
X133222376Y-88577145D01*
X133211734Y-88572737D01*
X133141104Y-88543481D01*
X132900644Y-88443879D01*
X132625483Y-88364606D01*
X132566017Y-88347474D01*
X132566009Y-88347472D01*
X132222700Y-88289142D01*
X132222688Y-88289140D01*
X131875000Y-88269615D01*
X131527311Y-88289140D01*
X131527299Y-88289142D01*
X131183990Y-88347472D01*
X131183982Y-88347474D01*
X130849359Y-88443878D01*
X130849356Y-88443879D01*
X130765716Y-88478524D01*
X130527625Y-88577144D01*
X130222835Y-88745595D01*
X130021318Y-88888579D01*
X129938824Y-88947112D01*
X129679161Y-89179161D01*
X129447112Y-89438824D01*
X129394353Y-89513181D01*
X129245595Y-89722835D01*
X129077144Y-90027625D01*
X129014061Y-90179921D01*
X128970220Y-90234324D01*
X128903926Y-90256389D01*
X128836226Y-90239110D01*
X128788616Y-90187972D01*
X128775500Y-90132468D01*
X128775500Y-83899500D01*
X128795185Y-83832461D01*
X128847989Y-83786706D01*
X128899500Y-83775500D01*
X130251000Y-83775500D01*
X130318039Y-83795185D01*
G37*
%TD.AperFunction*%
%TD*%
M02*
