M48
; DRILL file {KiCad 7.0.8} date Tue Dec  5 19:22:20 2023
; FORMAT={-:-/ absolute / inch / decimal}
; #@! TF.CreationDate,2023-12-05T19:22:20+00:00
; #@! TF.GenerationSoftware,Kicad,Pcbnew,7.0.8
; #@! TF.FileFunction,MixedPlating,1,2
FMAT,2
INCH
; #@! TA.AperFunction,Plated,PTH,ViaDrill
T1C0.0157
; #@! TA.AperFunction,Plated,PTH,ComponentDrill
T2C0.0197
; #@! TA.AperFunction,Plated,PTH,ComponentDrill
T3C0.0394
; #@! TA.AperFunction,Plated,PTH,ComponentDrill
T4C0.0433
; #@! TA.AperFunction,Plated,PTH,ComponentDrill
T5C0.1063
%
G90
G05
T1
X5.1836Y-4.4828
X5.3056Y-3.4951
X5.3214Y-3.8095
X5.3371Y-4.3253
X5.5945Y-3.5856
X5.6407Y-3.5069
X5.6407Y-3.8219
X5.6663Y-4.3368
X5.8095Y-4.5148
X5.9045Y-4.2811
X5.9259Y-4.208
X6.0384Y-3.5974
X6.0384Y-4.0896
X6.1587Y-4.208
X6.4355Y-4.1093
X6.436Y-3.5069
X6.436Y-3.5856
X6.436Y-3.6644
X6.436Y-3.7431
X6.436Y-3.8219
X6.436Y-3.9006
X6.436Y-3.9793
X6.5384Y-3.5463
X6.6132Y-4.4085
X6.6206Y-4.1211
X6.7522Y-3.8831
X6.7544Y-3.4911
X6.7544Y-3.5463
X6.7859Y-4.2589
T3
X5.1722Y-3.8209
X5.1722Y-3.9209
X5.1722Y-4.0209
X5.1722Y-4.1209
X5.1722Y-4.2209
X5.1722Y-4.3209
X5.5384Y-3.8825
X5.5384Y-3.9825
X5.7894Y-4.358
X5.8894Y-4.358
X5.9384Y-4.5116
X5.9894Y-4.358
X6.0384Y-4.5116
X6.0894Y-4.358
X6.1384Y-4.5116
X6.1894Y-4.358
X6.2894Y-4.358
X6.5384Y-3.6827
X6.5384Y-3.7827
X6.5384Y-3.8827
X6.5384Y-3.9827
X6.5384Y-4.0827
X6.5384Y-4.1827
X6.9045Y-3.8707
X6.9045Y-3.9707
X6.9045Y-4.0707
X6.9045Y-4.1707
X6.9045Y-4.2707
T4
X6.4872Y-4.3691
X6.4872Y-4.5463
X6.7431Y-4.3691
X6.7431Y-4.5463
T5
X5.1919Y-3.5974
X5.1919Y-4.7195
X6.8848Y-3.5974
X6.8848Y-4.7195
T2
G00X5.9085Y-4.7864
M15
G01X5.9085Y-4.814
M16
G05
G00X6.1683Y-4.7864
M15
G01X6.1683Y-4.814
M16
G05
T0
M30
